<?xml version="1.0" encoding="utf-8"?>
<!-- Generator: Adobe Illustrator 18.1.1, SVG Export Plug-In . SVG Version: 6.00 Build 0)  -->
<!DOCTYPE svg PUBLIC "-//W3C//DTD SVG 1.1//EN" "http://www.w3.org/Graphics/SVG/1.1/DTD/svg11.dtd">
<svg version="1.1" id="Layer_1" xmlns="http://www.w3.org/2000/svg" xmlns:xlink="http://www.w3.org/1999/xlink" x="0px" y="0px"
	 width="30px" height="30px" viewBox="165 57 30 30" enable-background="new 165 57 30 30" xml:space="preserve">
<g>
	<path id="LinkedIn_1_" fill="#FFFFFF" d="M194.9,75.2v11.1h-6.4V76c0-2.5-0.9-4.4-3.3-4.4c-1.8,0-2.8,1.2-3.3,2.4
		c-0.2,0.4-0.2,1-0.2,1.6v10.8h-6.4c0,0,0.1-17.5,0-19.3h6.4v2.7l-0.1,0.1h0.1v-0.1c0.8-1.3,2.4-3.2,5.8-3.2
		C191.8,66.6,194.9,69.3,194.9,75.2z M168.7,57.7c-2.2,0-3.6,1.5-3.6,3.3s1.4,3.3,3.6,3.3h0.1c2.2,0,3.6-1.5,3.6-3.3
		C172.2,59.1,170.9,57.7,168.7,57.7z M165.4,86.3h6.4V67h-6.4V86.3z"/>
</g>
</svg>
