<?xml version="1.0" encoding="utf-8"?>
<!-- Generator: Adobe Illustrator 18.1.1, SVG Export Plug-In . SVG Version: 6.00 Build 0)  -->
<!DOCTYPE svg PUBLIC "-//W3C//DTD SVG 1.1//EN" "http://www.w3.org/Graphics/SVG/1.1/DTD/svg11.dtd">
<svg version="1.1" id="Layer_1" xmlns="http://www.w3.org/2000/svg" xmlns:xlink="http://www.w3.org/1999/xlink" x="0px" y="0px"
	 width="468px" height="185px" viewBox="0 198 468 185" enable-background="new 0 198 468 185" xml:space="preserve">
<g id="IMan_1_">
	<defs>
		<path id="XMLID_3_" d="M212.3,322.5c0,0-3.5,7.2-7.2,8.2c0,0,0.9-3.9,2.6-9.6c7.7,2.6,12.5,10.9,12.7,12.6
			c1.7,0.6,5.8-2.9,3.2-8.5c-2.2-4.6-6.9-7.4-14.3-9.1c1.6-4.9,3.5-10.4,5.8-15.7c6-13.6-1.5-12.4-7-9.8c-5.5,2.6-12.9,8-12.9,8
			l5.4-9.9c0,0-4.8-4.2-20.7,8.8c2-3.4,4.2-6.3,6.3-8.3c0,0-8.4-3.6-10.9,2.8c0,0-12.1-9.3-22.7,7.3c-3.6,5.6-6.3,10.7-8.1,15.2
			l0-0.3c0,0-2.2,2.8-7,10.4c-4.8,7.6-5.6,5.9-3.4-1.1c2.2-7,17.7-30.9,11.5-35.1c-4.9-3.3-14.5,7.5-18.3,12.2
			c2.8-3.8,7.6-11.3,1.7-11.9c-7.9-0.8-16.8,12.6-16.8,12.6c0.8-2.8,7-9,6.7-11.2c-0.3-2.2-5.6,0-8.1,2.5c-1.5,1.5-7.6,5.1-12,7.5
			c11.6-17.9,18.2-37.8,19.1-52.7c1.3-23.4-6.7-32.3-14-35.5c-7.3-3.2-33.3-0.3-41.7,36c-3.1-0.3-6.6-0.1-10.5,0.9
			c-30.1,7.5-45.1,37.3-47.4,55.8c-2.4,18.7,9.6,51.5,49.2,35.2c16.1-6.6,29.4-18.3,39.7-31.8l10.6-4.6c0,0-10.9,20.8-9.3,27.5
			c1.7,6.7,6.7,3.4,6.7,3.4c2-23.3,23.6-42.6,21.6-40.4c-2,2.2-14.6,29.7-14,36.2c0.6,6.5,7,4.2,7,4.2c2.8-22.7,23.3-42.6,22.7-40.7
			c-0.6,2-3.1,7.6-9.3,19.4c-6.2,11.8-5.3,20.8,0.8,21c4.7,0.2,9.6-6.6,11.8-10c-0.3,5.1,1.6,8.5,6.1,9.6
			c9.8,2.2,13.7-10.1,13.7-10.1s-5.3,15.5,6.7,10.9c4.6-1.7,8.1-3.8,11.3-5.8c-0.1,0.8-0.1,1.6-0.1,2.4c0,2.8,3.5,2.2,5.6,2.3
			c0,0,0.5-3.9,2.2-9.3c3.3-1.7,6.9-3.1,11.6-3.9c0.5-0.1,0.9-0.1,1.4-0.1c-1.6,6-2.4,11.4-1.2,13.3c3.3,5.5,11.3-2.6,13.7-6.4
			C213.5,326.4,215.2,323.6,212.3,322.5z M71.3,256.6c6,5.6,7.6,16.1,2.5,27.6C70.8,274.3,70.2,265,71.3,256.6z M24.5,339.1
			c-25.9-12.1-13.7-55,15.7-78.1c8-6.3,15.3-8.8,21.2-8.4c-3.6,20.5,2.2,32.3,8.3,38.9c-0.5,0.7-1,1.5-1.6,2.2
			c-20.9,27-40.1,28.7-40.8,15.6c-0.7-13.1,23.4-38.1,24.9-27c1.3,9.9-10.2,15.5-10.2,15.5s2.8,3.6,10.5-1.5
			c6.8-4.5,7.1-15.7-2.3-19.7c-9.4-4-31.9,18.4-26.8,35.6c5.1,17.2,34.1,5.7,48.8-15.2c0.5-0.6,0.9-1.3,1.3-2
			c3.6,2.8,6.5,3.8,6.5,3.8c-1.6-2.8-2.9-5.6-4.1-8.4c6.5-13.9,5.6-30.7-3.9-38.2c4.1-21.2,17.4-35.8,22.3-36.7
			c8-1.5,16.3,12.8,8.9,50.4C95.8,303.1,50.5,351.2,24.5,339.1z M163,317.1c-2.2,6.5-9.8,12.9-11.5,13.7c0,0-5-10.9,11.5-34.2
			c0,0,5.3-6.2,10.9-2.5C173.9,294.1,165.2,310.6,163,317.1z M180.9,323.2c-6.3,3.5-10.1,7-12.3,7.3c-2.7,0.4,1.6-14.1,7.9-26.6
			c4.1-2.9,13.4-9.5,15.4-9.7C191.8,294.3,183.9,310.7,180.9,323.2z M206.4,302.9c-1.5,3.4-3.3,8.4-4.8,13.3c-0.6,0.1-1.3,0.2-2,0.3
			c-3.9,0.7-7.3,1.6-10.4,2.8c3.2-8.2,8.9-18.2,18.7-24.5C208,294.8,210.8,292.8,206.4,302.9z"/>
	</defs>
	<use xlink:href="#XMLID_3_"  overflow="visible" fill="#3C3E6D"/>
	<clipPath id="XMLID_2_">
		<use xlink:href="#XMLID_3_"  overflow="visible"/>
	</clipPath>
</g>
<path fill="#3C3E6D" d="M458.8,319.9c0,0,0.9,12.8-6.1,16c-0.5,0.2-1.2,0.5-1.8,0.3c-7.2-2.9,12.6-34.5,12.8-38.6
	c0.2-4.3-14.3-0.4-14.3-0.4s4.4-9.8-1.9-8.6c-6.4,1.3-4.6,8.1-4.6,8.1c-1.8,7-15.5,26.1-21.5,30.7c-6.1,4.6-14.5,5.4-13.1-5.7
	c0.3-2.3,1.1-4.8,2.1-7.4c13.9,3.2,21.6-7.4,22.9-9.4c1.3-2.1,7-18.8-9.2-16.1c-16.3,2.7-24.1,26.6-24.9,34.7
	c-0.1,1.5-0.1,3,0.1,4.3c0,0-4.1,2.6-6.6,2.7c-3.4,0.1,4.7-22.6,13.6-35.6c3.2-2.4,57.7-44.9,31.3-52.2
	c-11.3-3.1-26.1,23.9-38.1,49.4c-1.7-1.1-12.8-7.9-22.8,7.5c-7.8,12-11.5,21.9-10.6,28.1c0,0-4.2,3.3-7,3.6
	c-3.9,0.5,7.3-31.4,17.7-41.2c0,0-8.4-3.6-10.9,2.8c0,0-12.1-9.3-22.7,7.3c-7.6,11.8-11.3,21.5-10.5,27.7c-1.9,1.1-4.3,2.5-6.3,2.2
	c-6.2-0.7,2.2-16.4,7-26c1.5-2.9,10.1-21.4-15.8-8.9c4.7-4.1,20.2-17.8,29.2-30.4c3.1,1.3,5.4,2.2,6.2,2.4
	c4.1,1.2,42.6,17.3,53.8-1.9c7.6-13.1,0.3-25-6.6-28.8c-5.7-3.1-14.8-4.1-19.4,2.4c-2.2,3.1-0.2,7.7-0.2,7.7s3.5-4.4,9.8-2.9
	c8.8,2,13,17.8-3.5,23.7c-8.5,3-23.6-0.8-37.9-5.7c5.8-9.1,7.2-17-2.8-19.3c-5.1-1.2-10.7,3.8-16.3,12c-5.8-2.3-10.6-4.4-13.7-5.5
	c-0.5-0.2-1-0.4-1.5-0.5c-0.1-0.5-0.1-0.7-0.1-0.7c-6.3-32-43.5-17-43.5-17c-32.2,12.2-46.2,51.5-49.2,64.6
	c-3,13.1,2.4,30.7,18.6,36.7c16.2,6,36.8-11.3,36.8-11.3c-0.9,3.8-5.3,16.1-5.3,16.1c-0.4,1.1-0.8,2.2-1.3,3.3
	c-7.6-0.7-14.8-1.3-20.8-1.7c-26.9-1.5-29.8,16.8-29.8,16.8s-3.4,18.2,21.6,18.2c16.8,0,27.4-14.6,32.8-24.6c18,2.7,36.9,5.4,46.2,5
	c11.6-0.5,16.1-4.7,16.1-13.2c0,0-2.7,1.7-6.9,1.9c-12.2,0.7-27.5,0.5-51.6-1.8c0.2-0.6,0.4-1,0.5-1.2c1.5-3.2,4.9-9.2,10.2-20.8
	c5.1-11,9.5-18,10.8-18.5c1.2-0.5,4.3,0.9,4-0.3c-0.2-1.2-5.1-8.9-12.6-4.1c-7.5,4.7-12.1,17.1-12.1,17.1
	c-22.5,24.3-49.1,18.1-45.8-9.6c3.4-28.9,23.6-61.4,46.7-67.7c21.9-6,29.3,10.1,29.3,10.1c0.1,0.3,0.1,0.6,0.2,1
	c-10.4-2.8-22.6-3.2-30.7,8.5c-10.7,15.3,9,29.9,24.3,18.5c9.6-7.2,11.7-15.6,11.9-20.9c4.2,1.3,8.6,2.8,13,4.5
	c-14.5,23.1-28.5,65.5-33.9,75.9c-0.9,1.7,1.2,3,6.8,0.4c0,0,11.8-32.8,22.2-36.7c9.7-3.6-0.2,13.3-2.3,18.4
	c-1.9,4.4-7.5,16.9-1.3,19.7c3.8,1.8,10.4-0.9,14.9-3.2c1,1.3,2.5,2.3,4.5,2.7c9.4,2.2,13.4-9.2,13.7-10c-0.3,1-4.9,15.3,6.8,10.9
	c0,0,5.4-2.2,7.9-5c0.8,1.9,2.1,3.3,5.2,4c9.9,2.3,13.9-10.2,13.9-10.2s-4.9,14,7.5,10.1c2.5-0.8,4.8-2.3,6.6-3.7
	c1.9,5,9.7,8,20.9,3c16.1-7.2,27-32,27-32c8.8-1.7,7.2,0,7.2,0c-22,34.2-8.7,37.2-2.5,36.7c0,0,8.1-0.9,10.6-8.9
	c0.5-1.5,0.9-4.4,0-6.5C461.9,319.8,458.8,319.9,458.8,319.9z M422.6,293.5c0,0,7.2-4.1,3.5,7.6c-3.3,10.7-12.7,10.4-14.4,10.2
	C416,302.3,422.6,293.5,422.6,293.5z M438.4,245.8c7.8,5.1-18.8,33.5-29.2,42.9C415.9,274.3,432.2,241.7,438.4,245.8z M232.5,368.4
	c-11.9-3.5-6.7-17.2,2.1-20.5c6.7-2.5,18.8-1.7,32.1,0.1C258.8,361.4,245.8,372.3,232.5,368.4z M290.1,270.6
	c-9.2-5.3-1.2-19.7,9.2-20.5c2.5-0.2,6.3,0.5,10.6,1.6C309.8,264.4,298.2,275.2,290.1,270.6z M347,245.4c3.2,1.9,1,7.7-3.3,14.6
	c-2.9-1.1-5.7-2.1-8.4-3.2C339.9,249.1,344.2,243.8,347,245.4z M333.7,259.8c2.9,1.1,5.6,2.2,8.1,3.2c-6.6,9.8-16.5,20.8-21.9,26.1
	C323,281.7,328.3,269.4,333.7,259.8z M353.6,318c-2.2,6.5-9.8,12.9-11.5,13.7c0,0-5-10.9,11.5-34.2c0,0,5.3-6.2,10.9-2.5
	C364.5,295,355.8,311.6,353.6,318z M387.3,317.6c-2.3,6.5-9.9,13-11.6,13.9c0,0-5.1-11.1,11.6-34.6c0,0,5.4-6.2,11.1-2.6
	C398.3,294.4,389.6,311.1,387.3,317.6z"/>
</svg>
