<?xml version="1.0" encoding="utf-8"?>
<!-- Generator: Adobe Illustrator 18.1.1, SVG Export Plug-In . SVG Version: 6.00 Build 0)  -->
<!DOCTYPE svg PUBLIC "-//W3C//DTD SVG 1.1//EN" "http://www.w3.org/Graphics/SVG/1.1/DTD/svg11.dtd">
<svg version="1.1" id="Layer_1" xmlns="http://www.w3.org/2000/svg" xmlns:xlink="http://www.w3.org/1999/xlink" x="0px" y="0px"
	 width="392.7px" height="274.7px" viewBox="0 0 392.7 274.7" enable-background="new 0 0 392.7 274.7" xml:space="preserve">
<path fill="#FFFFFF" d="M244.3,126.9c-2.2,0.2-4.7-0.3-6.2-2.6c-3-5-1.2-15.4,8.2-19.2c8.6-3.5,15,0.8,17,3.2
	c0.4,0.5,0.8,1.1,1.2,1.7c0.6-0.4,1.3-0.7,1.9-1.1c-3.4-5-9.2-7.5-14.2-7.2c-7,0.4-16.9,5.6-17.4,16c-0.4,7.7,4.3,11.1,9.1,11.1"/>
<path fill="#FFFFFF" d="M107.1,93.1c-0.5,1.4-1,3-1.5,4.6c-7.2,25,11.3,22.3,18,16.1c4.5-4.1,10-11.1,13-17c0,0,1-2.1-0.5-1.8
	c0,0-7.8,14.7-16.5,19.5c-8.7,4.8-9.2-3.9-8.8-7.3c0.2-1.7,1.6-6.9,3.5-12.4c3.6,0.2,7.4-0.6,10.7-3.6c5-4.5,10.1-17.6,2.6-19.4
	c0,0-11.4-3.4-19.9,19.8L107.1,93.1z M119.8,80.7c3.3-6.1,6.7-7.8,8.4-5.7c1.7,2.1-0.4,11.6-6.1,15.8c-2.4,1.7-4.9,2.3-7.2,2.3
	C116.5,88.3,118.4,83.4,119.8,80.7z"/>
<path fill="#FFFFFF" d="M199.8,108.8l1.7-31.3c0,0,0.7-2.6-3.5-2.2s-4.1,4.4-4.1,7.7s-1.3,33.7-1.3,33.7s1.3,3.9,5.7-1.7
	c4.4-5.5,19.4-30.3,22.3-41.5c2.6-9.8-8.7-7-12,1.8c-3.2,8.4-1.8,15.3,4.4,18.8c0,0,3.4,2.4,7.1,2.2c0,0,1.4-1,0.8-1.9
	c0,0-7.7,0.6-9.3-5.8c-0.7-2.9-1.1-5.6,1.2-11.8c1.6-4.3,5.3-7.7,6.4-6.5S206.9,102.5,199.8,108.8z"/>
<path fill="#FFFFFF" d="M182.9,75.8c0,0-3.8,8.4-6.4,18.1c-2.5,9.6-4.6,19.7-0.6,23.1s12.5-3.7,17.9-13.5c0,0,0.6-1.8,0.1-2
	c-0.4-0.1-7.1,12-11.5,12.7c-4.4,0.7-2.3-10.2-2-11.2c2.1-7.5,6.5-19.6,8.7-24.5c2.1-4.5,0.7-5.5-1.1-5.9
	C186.2,72.2,184.3,72.7,182.9,75.8z"/>
<path fill="#FFFFFF" d="M178.2,30.1c0,0-9.5,25.3-14.8,49.2s-4.7,36.2-0.2,38.3c4.5,2.1,9.9-0.8,14.4-8.9c0,0,1.9-1.6,1-2.3
	c-0.8-0.6-4.5,8.9-11.3,9.9c-6.8,1,0.1-26.7,2.3-34.6c3.5-13.1,13-42.6,15.4-49.6C186.7,27.2,179.4,24.9,178.2,30.1z"/>
<path fill="#FFFFFF" d="M307.4,53.7c0,0,8.3-2.9,1.6-21.1c-6-16.5-31.8-29.2-50.1-16.9c-16.8,11.4-11.2,37.6,17.1,55.8
	c19.4,12.5,64,15.9,67.7-12.4c4-31.4-31.6-32.3-63.4-25.7C250.3,39.6,165.9,58.9,160.2,48c0,0,3.3-1.5,1.4-5c-1.1-2.2-6-0.5-5.8,3.5
	c0.2,3.4,2,10.1,26.4,9c35.1-1.5,113.9-24,139-17.1c25.8,7.1,16.1,36.2-8.9,38c-19.9,1.4-50.9-10.7-58.4-34.8
	c-6.8-21.9,14-28.2,20-28.2c8.2,0,30.1,4.3,34.4,26.6c0,0,0.4,3.3-1.7,4c-2.5,0.9-5.8,5.5-3.2,8.9C305,55,307.4,53.7,307.4,53.7z"/>
<path fill="#FFFFFF" d="M150.1,75.3c0,0-11.1-4.9-18.8,20.6c-4.3,14.1-3.2,21,0.3,21.1c0,0,3.1,1.5,7.7-5.1c0,0,9.8-13.3,21.2-39.2
	c2-4.6-9.1-8.7-12.3,6.7c-2,9.6-3.6,19.2-3.5,25.1c0.2,15.3,6.6,17.2,10.8,12.4c5.1-6,7.7-11.6,8.5-12.9c0,0-0.1-0.9-1.1-0.6
	c-0.9,0.2-5.2,10.4-9.3,12.3c-5.6,2.7-1.8-27.8-1.5-30.4c0.3-2.6,3.7-14.2,5.8-13.2c2.1,1-12.4,27.2-22.2,40.4
	c-1.7,2.3-0.5-9.8,2.4-17.6c6.8-17.9,9.6-17.5,11.5-17.2L150.1,75.3z"/>
<path fill="#FFFFFF" d="M87.6,7.6c-12.4-2.7-29.5,7.6-42.3,28C25.5,67.3,30.6,96.5,32,103.6c2.7,13.8,12.5,17.7,21.2,15.3
	c0,0,12-2.5,18.2-20.9c5.4-16,2.2-22.9-1.5-24.8c-3.7-2-6.4,2.2-4.2,4.9c2.2,2.7,6.9,3.2,4.9,13.5s-9.3,23.4-18.2,24.8
	c-8,1.3-15.5-2.7-14.3-22.6c1.1-17.2,7.4-41.1,14.8-53.6c8.1-13.8,22.4-32.2,34.7-30c0,0,11.4,2.6,1.2,26.8
	c-9.3,22.4-16.2,18.9-17.2,18.7s-6.4-2.2-4.7-11.8s6.4-12.5,7.9-11.8s-3,18.4-18.9,28.8s-31,4.2-34.9-6.6s1.2-18.7,2.7-20.7
	c1.5-2,4.2-1.2,7.6-1.2s7.4-5.2,2.7-7.1c-4.5-1.9-9.8,1.5-12.1,5.4s-9.6,17-0.5,29.8S57.1,72,70.8,49.7c12.5-20.4,5.4-23.3,1.5-20.4
	c-5.7,4.2-12.5,20.9-3.4,27.3c11.8,8.3,21.9-16,24.6-22.6S100,10.3,87.6,7.6z"/>
<path fill="#FFFFFF" d="M194.3,56.8c0,0-4-0.7-5.8,4.6c-1.8,5.4,1.4,5.8,2.1,5.8s2.3-0.5,3.6-2.7C195.1,63,197.3,57.8,194.3,56.8z"
	/>
<path fill="#FFFFFF" d="M105.7,109.7c-1.7,4.3-8,7.4-10.5,5.7c-2.5-1.7-2.2-5.5,2.1-20.5c4.3-15,5.4-20.1,2.6-20.7
	c-2.8-0.6-5.1,4.8-5.1,4.8c-0.3,0.8-4.7,9.2-8.5,13.5c-3,3.5-3.8,4.7-3.5-0.3c3.3-6.8,5.7-13.2,6.3-17.2c1.3-8.2-3.6-8.2-4.4-8.1
	c-1.7,0.1-3.1,1.3-3.9,3.6c-0.7,2-2.8,9.2-3.6,14.9c-0.6,4.4-1.9,10.3,0,12.7c-0.2,0.3-0.4,0.7-0.5,1c-3.5,7.2-8.4,14.9-13.3,17.7
	c-5.6,3-10.9,2-10.6-8.1c0.3-10.2,5.6-13.6,5.6-13.6c1.6-1.2,2.7-1,3.8-0.5c1.2,0.6,2.2,0.8,3-0.2c0.8-1,0.2-3.2-2.8-3.2
	c-2.1,0-4,1-5.2,2c-2.2,1.9-5,4.9-5.9,13.4c-1.2,11.3,3.4,12.7,6.4,13c2.2,0.3,4.4-0.5,5.7-1.3c4.7-2.2,10.7-10.4,15.7-19.3
	c0.2,0,0.4,0.1,0.7,0.1c5.4-0.1,13.8-15.3,13.3-13.2c-0.5,2.2-10.8,31.4,0.7,32.1c9.6,0.6,13.8-9,13.6-9.9S105.7,109.7,105.7,109.7z
	 M87,74.3c-0.2,2.7-1.6,6.7-3.5,11C84.7,75.5,87.4,68.9,87,74.3z"/>
<g>
	<path fill="none" stroke="#FFFFFF" stroke-width="1.6369" stroke-miterlimit="10" d="M254.6,117c-0.3-0.2-0.6-0.3-0.9-0.4
		c-0.6-0.2-1.3-0.3-1.9-0.5l0,0l-0.1,0c-0.5,0.1-0.8,0.3-1.2,0.6c-0.3,0.1-0.6,0.3-0.9,0.5c-0.2,0.1-0.3,0.3-0.5,0.4
		c-0.7,0.4-1.4,0.8-2.1,1.4l-0.1,0.1l-0.1,0.2c-0.6,1.1-0.6,2.2-0.9,3.2c-0.3,1.1-0.5,3-0.7,4.1c-0.4,2.1-0.7,3.7-1,5.8
		c-0.1,1.1-0.5,2.4-0.5,3.5c-0.1,1.1-0.2,1.7-0.2,2.9l0,0.2c0,0,0.1,0.4,0.2,0.5c0.2,0.3,0.3,0.3,0.5,0.4c0.3,0.1,0.6,0.2,0.8,0.3
		l0.8,0.2l0.3,0.1c0.1,0,0.1,0.1,0.3,0.1c0.1,0,0.2,0,0.3,0c0.6-0.2,1.1-0.4,1.6-0.7l1.4-0.8l-0.1,0c0.6-0.2,1.1-0.5,1.5-0.9
		c0.4-0.4,0.8-0.9,1-1.5l0,0l0-0.1c0.3-1.9,0.6-3.8,0.9-5.6c0.2-1.9,0.3-3.8,0.3-5.7c0.6-2.5,1.1-5.1,1.9-7.5l0,0l0,0
		C255.3,117.4,254.9,117.2,254.6,117z"/>
	<g>
		<path fill="#FFFFFF" d="M245,136.5l2.6-15.7l0.1-0.1c1.7-1.9,1.8-1.9,2-1.9h0.3l0.3,0.5l-0.1,0.2l-2.8,16.1l-0.2,0.1
			c-0.8,0.6-1.6,0.7-1.6,0.8L245,136.5z M248.6,121.2l-2.3,13.9c0.1-0.1,0.2-0.1,0.3-0.2l2.4-14.2
			C248.9,120.9,248.7,121.1,248.6,121.2z"/>
	</g>
	<path fill="none" stroke="#FFFFFF" stroke-width="1.6369" stroke-miterlimit="10" d="M243.4,139c0,0,6.7-3.3,8.6-4.2"/>
	<path fill="none" stroke="#FFFFFF" stroke-width="1.6369" stroke-miterlimit="10" d="M249.2,136c0.1-0.3,2.6-19.8,2.6-19.8"/>
</g>
<g>
	<path fill="none" d="M240.9,79.1c4.1-10.9-3.8-9.2-6.1-4.4c-0.6,1.3-3.2,5.9-5.9,12.1C230.6,87.1,237.7,87.6,240.9,79.1z"/>
	<path fill="none" d="M261.7,134.7c6.3-7.9,7.3-16.3,3.8-23.1c-5.8,3.5-10.2,9.3-11.9,16.4c-1,4.2-0.9,8.5,0.1,12.5
		C256.9,139.1,259.7,137.1,261.7,134.7z"/>
	<path fill="none" d="M246.3,105.1c-9.4,3.8-11.2,14.2-8.2,19.2c2.9,4.8,9.9,2,10.9,1c1.4-1.3,1.5-2,1.4-3.4c0-2.4,3.2-2.6,3.5-0.9
		c0,0.1,0,0.3,0,0.4c2.4-4.8,6.1-8.7,10.5-11.4c-0.4-0.6-0.8-1.1-1.2-1.7C261.4,105.9,255,101.6,246.3,105.1z"/>
	<path fill="none" d="M254.4,142.6c0.6,1.8,1.4,3.5,2.4,5.1c3.7,5.9,9.4,10.1,16.2,11.7c2,0.5,4,0.7,6,0.7
		c12.2,0,22.6-8.3,25.4-20.1c3.3-14-5.4-28.1-19.4-31.4c-2-0.5-4-0.7-6-0.7c-4.1,0-8,1-11.5,2.7c1.1,2.1,1.9,4.6,2,7.4
		C270,127.5,265.4,138.1,254.4,142.6z"/>
	<path fill="#FFFFFF" d="M228.5,86.7c0,0-1.6,1.6-1,1.9c0.1,0.1,0.3,0.1,0.6,0.2c0.3-0.7,0.6-1.4,0.9-2.1
		C228.6,86.8,228.5,86.7,228.5,86.7z"/>
	<path fill="#FFFFFF" d="M226.6,134.4c-9.2-13.3-4-32.4,1.4-45.5c-0.3-0.1-0.5-0.2-0.6-0.2c-0.5-0.3,1-1.9,1-1.9s0.1,0,0.4,0.1
		c2.7-6.2,5.3-10.8,5.9-12.1c2.3-4.9,10.2-6.5,6.1,4.4c-3.2,8.5-10.2,8-12,7.7c-0.3,0.7-0.6,1.4-0.9,2.1c1.4,0.4,5.3,0.7,10.4-3.5
		c6.1-5.1,10.6-17-0.9-17.1c-13.5-0.1-22.6,34.4-21.3,52.6c1.1,16.4,14.1,25.7,30.3,23.8c2.2-0.3,4.2-0.7,6.1-1.4
		c-0.2-0.7-0.5-1.4-0.7-2.1C243.4,144.2,232.5,143,226.6,134.4z"/>
	<path fill="#FFFFFF" d="M285.5,106.7c-2.1-0.5-4.3-0.8-6.4-0.8c-4.5,0-8.7,1.1-12.5,3c0.4,0.5,0.7,1,1,1.6
		c3.5-1.7,7.4-2.7,11.5-2.7c2,0,4,0.2,6,0.7c14,3.3,22.7,17.4,19.4,31.4c-2.8,11.9-13.2,20.1-25.4,20.1c-2,0-4-0.2-6-0.7
		c-6.8-1.6-12.6-5.8-16.2-11.7c-1-1.6-1.8-3.3-2.4-5.1c-0.6,0.2-1.2,0.5-1.8,0.7c0.7,1.9,1.5,3.7,2.6,5.4
		c3.9,6.4,10.1,10.8,17.4,12.5c2.1,0.5,4.3,0.8,6.4,0.8c13,0,24.3-8.9,27.3-21.6C309.9,125.4,300.5,110.3,285.5,106.7z"/>
	<path fill="#FFFFFF" d="M253.6,128c1.7-7.1,6.1-12.8,11.9-16.4c-0.3-0.6-0.6-1.1-0.9-1.6c-4.5,2.7-8.1,6.6-10.5,11.4
		c0,1.1-0.4,2.5-1.6,3.8c-0.3,0.8-0.5,1.6-0.7,2.4c-1.1,4.6-1,9.2,0.2,13.7c0.6-0.2,1.2-0.4,1.8-0.7
		C252.7,136.5,252.6,132.2,253.6,128z"/>
	<path fill="#FFFFFF" d="M265.5,111.6c0.6-0.4,1.3-0.8,2-1.1c-0.3-0.6-0.6-1.1-1-1.6c-0.7,0.3-1.3,0.7-1.9,1.1
		C264.9,110.5,265.2,111.1,265.5,111.6z"/>
	<path fill="#FFFFFF" d="M253.7,140.5c-0.6,0.2-1.2,0.5-1.8,0.7c0.2,0.7,0.4,1.4,0.7,2.1c0.6-0.2,1.2-0.4,1.8-0.7
		C254.1,142,253.9,141.2,253.7,140.5z"/>
	<path fill="#FFFFFF" d="M252.4,125.2c1.2-1.3,1.6-2.7,1.6-3.8C253.4,122.6,252.9,123.9,252.4,125.2z"/>
</g>
<path fill="#FFFFFF" d="M273.7,106.9c0,0,0.6,0,1.8-0.1c0.6-0.1,1.3,0,2.1,0c0.8,0,1.8,0.1,2.9,0.2c2.1,0.3,4.7,0.8,7.5,2.1
	c2.7,1.3,5.7,3.2,8.3,6c2.5,2.8,4.5,6.7,5.5,11c0.2,1.1,0.3,2.1,0.4,3.3c0,1.1,0.1,2.1-0.1,3.3c-0.1,2.3-0.7,4.6-1.5,6.8
	c-1.7,4.4-4.5,8.4-8.3,11.6c-3.8,3.1-8.4,5.2-13.5,6c-2.4,0.3-5,0.3-7.5-0.1c-2.5-0.5-4.9-1.2-7.2-2.3c-2.2-1.2-4.3-2.6-6.1-4.3
	c-1.8-1.7-3.4-3.6-4.6-5.7c-2.5-4.1-3.6-9-3.5-13.3c0.1-4.6,1.3-8.6,3.3-11.9c1.9-3.3,4.5-5.8,6.9-7.6c2.4-1.8,4.9-2.8,6.9-3.6
	c1-0.4,1.9-0.6,2.8-0.8c0.8-0.2,1.5-0.4,2.1-0.4C273.1,107,273.7,106.9,273.7,106.9z M273.7,107.2c0,0-0.6,0.1-1.7,0.3
	c-0.6,0.1-1.2,0.2-2,0.5c-0.8,0.2-1.7,0.5-2.7,0.9c-1.9,0.8-4.2,2.1-6.3,4.1c-2.1,1.9-4.2,4.6-5.6,7.7c-1.5,3.1-2.4,6.9-2.4,10.7
	c0,4.1,1,8.1,3.1,11.9c1,1.9,2.4,3.6,3.9,5.2c1.6,1.6,3.4,2.9,5.4,4c2,1.1,4.2,1.9,6.4,2.5c2.3,0.5,4.5,0.7,7,0.6
	c2.3-0.2,4.7-0.7,6.9-1.5c2.2-0.9,4.3-2.1,6.1-3.6c1.8-1.5,3.4-3.3,4.6-5.2c1.2-2,2.2-4,2.7-6.2c0.5-2.1,0.9-4.3,0.9-6.4
	c0.1-1-0.1-2.1-0.2-3.2c-0.1-0.9-0.3-2-0.5-2.9c-0.9-3.9-2.7-7.3-4.8-10.1c-2.1-2.8-4.6-4.9-7.1-6.4c-2.5-1.5-5-2.3-7-2.7
	c-1-0.2-2-0.4-2.8-0.4c-0.8-0.1-1.5-0.1-2.1,0C274.3,107.1,273.7,107.2,273.7,107.2z"/>
<g>
	<circle fill="none" cx="275.4" cy="132.2" r="22.3"/>
	<path fill="#FFFFFF" d="M263.9,112.7c0,0,0.5-0.3,1.4-0.8c0.4-0.3,1-0.6,1.7-0.9c0.7-0.3,1.5-0.7,2.4-1c1.8-0.6,4.1-1.2,6.8-1.3
		c2.7-0.1,5.8,0.3,8.9,1.6c3.1,1.3,6.2,3.6,8.6,6.7c0.6,0.8,1.1,1.6,1.7,2.5c0.4,0.9,0.9,1.7,1.3,2.7c0.8,1.9,1.3,4,1.6,6.1
		c0.3,2.1,0.1,4.3-0.1,6.4c-0.3,2.2-1,4.3-1.8,6.3c-1.7,4.1-4.6,7.7-8.3,10.2c-1.8,1.2-3.9,2.3-6,3c-2.1,0.6-4.4,1-6.6,1
		c-4.4,0-8.8-1.4-12.3-3.8c-3.6-2.4-6.3-5.8-8-9.3c-1.7-3.7-2.3-7.5-2.2-10.9c0.2-3.5,1.2-6.5,2.4-9c1.2-2.5,2.7-4.3,4-5.8
		c0.7-0.7,1.3-1.3,1.9-1.8c0.6-0.5,1-0.9,1.5-1.2C263.5,113,263.9,112.7,263.9,112.7z M264,112.8c0,0-0.4,0.3-1.3,0.9
		c-0.4,0.3-0.9,0.7-1.4,1.2c-0.6,0.5-1.1,1.1-1.8,1.8c-1.2,1.5-2.5,3.4-3.5,5.9c-1,2.5-1.6,5.4-1.5,8.6c0,3.2,0.8,6.7,2.3,9.9
		c1.6,3.3,4.1,6.3,7.3,8.6c1.6,1.1,3.4,2,5.3,2.7c1.9,0.6,3.9,1,6,1.1c4.1,0.1,8.3-0.9,12-3.1c1.8-1.2,3.5-2.5,4.9-4.1
		c1.4-1.7,2.5-3.5,3.4-5.4c1.7-4,2.2-8.3,1.4-12.3c-0.4-2-1-3.9-1.8-5.6c-0.3-0.9-0.9-1.7-1.4-2.5c-0.5-0.7-1-1.5-1.6-2.2
		c-2.3-2.8-5.1-4.9-7.9-6.3c-2.8-1.4-5.7-2.1-8.3-2.2c-2.6-0.2-4.9,0.2-6.7,0.7c-0.9,0.3-1.7,0.5-2.4,0.8c-0.7,0.3-1.2,0.5-1.7,0.8
		C264.5,112.6,264,112.8,264,112.8z"/>
</g>
<path fill="#FFFFFF" d="M364.5,157.8c-1.2,2-2.8,4.4-5.3,6.7c-2.4,2.2-5.6,4.4-9.5,5.8c-3.9,1.4-8.6,1.8-13.3,0.9
	c-1.2-0.3-2.3-0.5-3.5-0.9c-1.1-0.4-2.2-0.8-3.3-1.4c-2.3-1.1-4.3-2.6-6.2-4.3c-1.9-1.7-3.5-3.8-4.9-6c-1.4-2.2-2.5-4.6-3.3-7.2
	c-1.6-5.1-1.7-10.6-0.4-16c0.7-2.5,1.8-5.2,3.2-7.5c1.5-2.3,3.3-4.4,5.3-6.2c2.1-1.8,4.4-3.2,6.9-4.4c2.5-1.1,5-1.9,7.6-2.2
	c5.2-0.7,10.5,0.1,14.8,2c4.5,2,8.1,4.9,10.6,8.2c2.5,3.3,4.2,6.8,4.8,10.1c0.8,4.6-0.3,4.1-0.3,4.1L364.5,157.8z M366.8,138.5
	c-1.1-3-3-8.9-5.6-11.7c-2.6-2.8-6-5.4-9.8-7c-4.1-1.7-8.7-2.4-13.4-1.9c-2.3,0.2-4.7,0.9-6.9,1.8c-2.3,0.9-4.4,2.3-6.3,3.8
	c-2,1.6-3.7,3.4-5.2,5.5c-1.5,2.1-2.6,4.3-3.5,6.9c-0.7,2.4-1.2,5-1.3,7.6c0,2.6,0.4,5.2,1.1,7.7c0.8,2.4,1.9,4.8,3.3,6.9
	c1.5,2,3.2,3.9,5.1,5.4c1.9,1.5,4,2.7,6.1,3.6c1,0.5,2.2,0.8,3.3,1.1c1,0.3,2.1,0.5,3.2,0.7c4.3,0.7,8.5,0.3,12.2-0.6
	c3.7-1,6.9-2.7,9.4-4.6c2.5-1.9,4.4-4.1,5.6-6c0.6-1,0.5-1.4,0.8-2.2L366.8,138.5z"/>
<path fill="#FFFFFF" d="M323.1,159.7c0,0-0.4-0.4-1.2-1.2c-0.4-0.4-0.9-0.9-1.4-1.6c-0.6-0.6-1.1-1.4-1.7-2.3
	c-1.1-1.8-2.5-4.1-3.3-7c-0.8-2.9-1.3-6.4-0.8-10.1c0.5-3.7,2-7.7,4.6-11.2c0.7-0.9,1.3-1.7,2.1-2.5c0.8-0.7,1.5-1.5,2.5-2.2
	c1.8-1.4,3.8-2.5,6-3.4c2.2-0.9,4.5-1.4,6.8-1.7c2.4-0.3,4.8-0.2,7.2,0.2c4.8,0.7,9.4,2.9,13.2,6.1c1.8,1.6,3.5,3.6,4.8,5.7
	c1.3,2.1,2.3,4.4,2.9,6.8c0.6,2.4,0.9,4.9,0.8,7.3c-0.1,2.4-0.5,4.8-1.3,7.1c-1.5,4.5-4.3,8.4-7.5,11.2c-3.4,2.9-7.2,4.6-10.9,5.4
	c-3.7,0.8-7.2,0.6-10.2,0c-3-0.6-5.4-1.7-7.3-2.7c-0.9-0.5-1.8-1-2.4-1.5c-0.7-0.5-1.3-0.9-1.7-1.3
	C323.5,160.1,323.1,159.7,323.1,159.7z M324.2,159.7c0,0,0.5,0.4,1.3,1.1c0.4,0.4,1,0.7,1.7,1.2c0.7,0.5,1.5,0.9,2.4,1.4
	c1.8,0.9,4.2,1.8,7.1,2.1c2.8,0.4,6.1,0.2,9.4-0.7c3.3-0.9,6.7-2.7,9.6-5.2c3-2.6,5.4-6.1,6.8-10.1c0.7-2,1.1-4.2,1.3-6.4
	c0.1-2.2-0.1-4.4-0.6-6.7c-0.5-2.2-1.4-4.3-2.5-6.4c-1.1-2-2.5-3.8-4.2-5.5c-1.7-1.6-3.6-3-5.7-4c-2.1-1-4.3-1.7-6.6-2.1
	c-2.3-0.3-4.6-0.3-6.8,0c-2.2,0.3-4.4,1-6.4,1.9c-1.9,1-3.8,2.1-5.3,3.5c-0.8,0.6-1.5,1.4-2.2,2.2c-0.6,0.7-1.3,1.5-1.9,2.3
	c-2.3,3.2-3.6,6.8-4.3,10.2c-0.6,3.4-0.5,6.6,0.1,9.4c0.6,2.8,1.6,5.1,2.7,6.9c0.5,0.9,1,1.7,1.6,2.3c0.5,0.6,0.9,1.2,1.3,1.6
	C323.8,159.3,324.2,159.7,324.2,159.7z"/>
<g>
	<circle fill="none" cx="338.9" cy="140.6" r="23"/>
	<path fill="#FFFFFF" d="M338.9,164.3c-10,0-19-6.3-22.3-15.8c-2.1-6-1.8-12.4,0.9-18.1c2.7-5.7,7.5-10.1,13.5-12.2
		c2.6-0.9,5.3-1.4,8-1.4c10,0,19,6.3,22.3,15.8c2.1,6,1.8,12.4-0.9,18.1c-2.7,5.7-7.5,10.1-13.5,12.2
		C344.3,163.8,341.6,164.3,338.9,164.3z M338.9,118.2c-2.6,0-5.1,0.4-7.5,1.3c-5.6,2-10.1,6.1-12.7,11.5c-2.6,5.4-2.9,11.4-0.9,17.1
		c3.2,8.9,11.6,14.8,21,14.8c2.6,0,5.1-0.4,7.5-1.3c5.6-2,10.1-6.1,12.7-11.5c2.6-5.4,2.9-11.4,0.9-17.1
		C356.7,124.2,348.3,118.2,338.9,118.2z"/>
</g>
<g>
	<g>
		<path fill="#FFFFFF" d="M304,130.3c0,0,7.2-1.1,11.3,2.2c0,0-2.3,6.9-2.1,9.7c0,0-5.4-3-10.5-2.1
			C302.7,140.1,305.6,133.4,304,130.3z"/>
		<path fill="#FFFFFF" d="M304,130.3c1.9-0.5,3.9-0.6,6-0.4c1,0.1,2,0.3,3,0.7c0.5,0.2,1,0.4,1.4,0.7c0.5,0.2,0.9,0.6,1.3,0.9
			l0.3,0.2l-0.1,0.3c-0.6,1.5-1.2,3.1-1.6,4.7c-0.4,1.6-0.7,3.3-0.5,4.8l0.1,0.7l-0.7-0.3c-1.6-0.7-3.3-1.2-5.1-1.6
			c-1.7-0.3-3.5-0.4-5.1-0.1l-1.3,0.2l0.5-1.2c0.6-1.5,1.3-3,1.7-4.6c0.4-1.6,0.8-3.2,0.3-4.8L304,130.3L304,130.3z M304.1,130.4
			c0.2,0.3,0.4,0.7,0.5,1.1c0.1,0.4,0.2,0.9,0.2,1.3c0.1,0.9,0,1.7-0.1,2.6c-0.3,1.7-0.7,3.4-1.4,5l-0.8-1c1.9-0.4,3.9-0.2,5.7,0.3
			c1.8,0.5,3.6,1.2,5.2,2.2l-0.6,0.4c0-0.9,0.2-1.7,0.4-2.5c0.2-0.8,0.4-1.6,0.6-2.4c0.4-1.6,0.7-3.3,1.1-4.9l0.2,0.6
			C311.9,130.9,308,130.5,304.1,130.4z"/>
	</g>
	<path fill="#FFFFFF" d="M302.4,128.2c0,0,0.5,6.3-1.5,13.3c-0.2,0.6,1.9,1.2,2.5-0.6c0,0,3.5-9.3,0.5-13.2
		C304,127.8,302.5,127,302.4,128.2z"/>
	<path fill="#FFFFFF" d="M314.7,144.5c0,0,0.4-10.1,2.8-13.6c0,0-0.8-1.8-2.6,0.4c0,0-4.6,9.2-1.8,13.5
		C313.1,144.8,314.5,145.8,314.7,144.5z"/>
</g>
<g>
	<path fill="none" d="M367.5,139.5c0,0-1.7,16.5-3.5,18.9l1.3,2.7l7.1,3.7l2.3-0.8l2.9-19.6c0,0-5.6-4.8-6.8-5.1
		C369.8,139.1,367.5,139.5,367.5,139.5z"/>
	<g>
		<path fill="#FFFFFF" d="M372.2,165.5c-0.2,0-0.8,0-6.6-3.4c-1.5-1.2-2.4-2.9-2.5-3l-0.1-0.3l0.1-0.3c0-0.1,1.9-5.8,2.6-10.5
			c0.5-3.7,1-8.4,1-8.4c0-0.2,0.1-0.3,0.2-0.4c0.3-0.5,0.9-0.7,1.8-0.7c1.3,0,3,0.4,3,0.4c0.5,0,2,1.1,4.6,3.1c1.2,0.9,2,1.9,2,2
			l0.1,0.2l0,0.3c-0.2,4.2-3,19.1-3.3,19.7c-0.3,0.6-1.2,0.9-2.7,1.2L372.2,165.5z M364.5,158.7c0.3,0.5,1,1.5,1.9,2.2
			c2.3,1.4,5.1,3,5.8,3.2c1.1-0.2,1.5-0.4,1.7-0.5c0.4-1.5,2.8-14.5,3.1-18.9c-0.2-0.3-0.8-0.9-1.6-1.5c-1.6-1.3-3.6-2.7-4-2.9
			c-0.1,0-1.6-0.4-2.7-0.4c-0.3,0-0.5,0-0.6,0.1c-0.1,1-0.5,5-1,8.3C366.5,152.5,365,157.4,364.5,158.7z"/>
	</g>
	<path fill="#FFFFFF" d="M371.3,140.6c-0.2,3-0.5,6-1,8.9c-0.4,3-1.1,5.9-1.8,8.8l0,0l0,0c-0.1,0.4-0.1,1,0.1,1.4
		c0.2,0.5,0.6,0.8,1.1,1.1c1,0.6,1.9,1.2,2.9,1.8l0,0c0.3,0.2,0.6,0.4,0.9,0.5c0.1,0.1,0.3,0.1,0.3,0.1c0,0,0,0,0-0.1l0,0
		c0.3-3.2,0.8-6.3,1.3-9.4c0.5-3.1,1.1-6.2,1.8-9.3l0.2,0.5c-0.9-0.9-1.9-1.8-2.8-2.7c-0.5-0.4-1-0.8-1.5-1.2
		c-0.3-0.2-0.5-0.3-0.8-0.5c-0.1,0-0.3-0.1-0.4-0.1C371.5,140.4,371.4,140.5,371.3,140.6z M371.2,140.5c0.1-0.1,0.3-0.3,0.5-0.3
		c0.2,0,0.4,0,0.5,0c0.3,0.1,0.7,0.2,1,0.4c0.6,0.3,1.2,0.6,1.7,1c1.1,0.7,2.2,1.5,3.2,2.4l0.2,0.2l0,0.3c-0.4,3.1-0.9,6.3-1.5,9.4
		c-0.6,3.1-1.2,6.2-2,9.3l0,0l0,0c-0.1,0.2-0.3,0.6-0.7,0.6c-0.3,0-0.5-0.1-0.7-0.2c-0.4-0.2-0.7-0.4-1-0.7l0,0
		c-0.9-0.7-1.9-1.3-2.8-1.9c-0.5-0.3-1-0.7-1.3-1.2c-0.2-0.3-0.3-0.6-0.3-0.9c0-0.3-0.1-0.6,0-1l0,0c0.3-3,0.6-6,1.2-8.9
		C369.7,146.3,370.3,143.4,371.2,140.5L371.2,140.5L371.2,140.5z"/>
	<g>
		<path fill="#FFFFFF" d="M373.8,161l-1-1c-0.4-0.4-1.6-1.5-2.8-1.5l-0.9,0.1l0-0.9l2.6-14.7l0.6,0c0.1,0,2.9,0,4,2.9l0.1,0.2
			L373.8,161z M370.6,157.2c0.8,0.2,1.6,0.6,2.2,1l2.1-11.9c-0.5-1.1-1.4-1.5-2-1.7L370.6,157.2z"/>
	</g>
</g>
<g>
	<path fill="#FFFFFF" d="M257.8,146.3l-0.2-0.3c-0.4-0.5-9.9-13.7-0.5-26.7c0.4-0.4,8.4-10,19.6-10c1.2,0,2.4,0,3.6,0.3
		c7,1.8,7.7,3.8,6.7,3.5c-0.7-0.2-2.9-0.4-2.9-0.4l-0.7,0c-6,0-15.8,4.7-21.3,12.2c-4.4,6-5.5,13.1-3.2,20.4l0.1,0.4l-0.4,0.6
		L257.8,146.3z M276.7,110.7c-10.6,0-18.4,9.4-18.5,9.5c-5.7,7.9-3.8,15.9-1.8,20.6c-0.7-6,0.8-11.7,4.5-16.8
		c5.1-6.9,13.6-11.5,19.9-12.6c-0.4-0.2-0.8-0.4-0.9-0.4C279,110.8,277.8,110.7,276.7,110.7z"/>
</g>
<g>
	<path fill="#FFFFFF" d="M313.9,145.7l0.7-5.7l-0.1-0.1l0.1-0.4c1.3-10.1,10.7-18.1,15.3-20.1c3.4-1.4,6.7-2.2,9.9-2.2
		c11.4,0,17.9,9.2,20,12.3c0.3,0.4,0.3,0.7,0.2,1l0.4,1.1l-0.8,0l-0.9-0.9c-4.4-3.9-10-6-16.2-6c-11.2,0-23,6.7-26.3,15.1l-0.1,0.6
		l-0.2,0L313.9,145.7z M339.8,118.8c-3,0-6.1,0.7-9.3,2c-3.5,1.5-9.9,6.7-12.9,13.6c5.3-6.5,15.3-11.2,24.8-11.2
		c4.8,0,9.2,1.2,13.1,3.4C352.4,123.1,347.2,118.8,339.8,118.8z"/>
</g>
<path fill="#FFFFFF" d="M295.7,181.2c-0.5,1.4-1,3-1.5,4.6c-7.2,25,11.3,22.3,18,16.1c4.5-4.1,10-11.1,13-17c0,0,1-2.1-0.5-1.8
	c0,0-7.8,14.7-16.5,19.5c-8.7,4.8-9.2-3.9-8.8-7.3c0.2-1.7,1.6-6.9,3.5-12.4c3.6,0.2,7.4-0.6,10.7-3.6c5-4.5,10.1-17.6,2.6-19.4
	c0,0-11.4-3.4-19.9,19.8L295.7,181.2z M308.4,168.8c3.3-6.1,6.7-7.8,8.4-5.7c1.7,2.1-0.4,11.6-6.1,15.8c-2.4,1.7-4.9,2.3-7.2,2.3
	C305.1,176.3,307,171.5,308.4,168.8z"/>
<path fill="#FFFFFF" d="M173.5,179.7c5.7-4.1,7.8-13.7,6.1-15.8c-1.7-2.1-5.1-0.4-8.4,5.7c-3.3,6.1-8.6,23.1-9,26.5
	c-0.4,3.4,0.1,12.1,8.8,7.3c8.7-4.8,16.5-19.5,16.5-19.5c1.5-0.3,0.5,1.8,0.5,1.8c-2.9,5.9-8.5,12.8-13,17
	c-6.7,6.2-25.2,8.9-18-16.1c8.6-29.9,21.9-25.9,21.9-25.9c7.5,1.9,2.4,14.9-2.6,19.4c-6.1,5.5-13.6,3.7-18.9,1.4
	c0,0-0.8-1.5,0.1-1.5C158.5,180.1,166.5,184.8,173.5,179.7z"/>
<path fill="#FFFFFF" d="M141.2,194.4l1.6-30.8c0,0,0.7-2.5-3.4-2.2c-4.2,0.4-4,4.3-4,7.6s-1.3,33.1-1.3,33.1s1.3,3.8,5.6-1.6
	s19-29.8,21.9-40.8c2.5-9.6-8.5-6.9-11.8,1.8c-3.1,8.3-1.8,15,4.3,18.4c0,0,3.3,2.4,6.9,2.2c0,0,1.4-1,0.8-1.9c0,0-7.6,0.6-9.1-5.7
	c-0.7-2.8-1.1-5.5,1.2-11.6c1.6-4.2,5.3-7.5,6.2-6.4C161.2,157.8,148.2,188.3,141.2,194.4z"/>
<path fill="#FFFFFF" d="M180.8,201.7c0,0,5-20.1,5.7-22.8c0.7-2.7,2.8-12.8,3.9-17.2c0.5-1.9,5-2.9,5.3,0c0.3,2.9-0.8,15.1-1.7,19.1
	c0,0,13.6-22.5,19.2-19.6c4.6,2.4-2.8,15.7-6.2,26.6c-3.8,12.1-2.1,14,2.1,14s7.4-7.8,7.4-7.8s1.3-0.7,1.1,0.4
	c-0.1,1.1-6.6,13.4-14.4,9.9c-7.8-3.5-0.3-19.5,1.3-23.1c2-4.4,5.8-14.2,2.5-14.4c-2.1-0.1-13.3,15.8-17.3,26.1
	c-4.1,10.3-2.8,12.2-6.4,11.9C183.3,204.9,180.1,204.5,180.8,201.7z"/>
<path fill="#FFFFFF" d="M234,117.7c0,0-9.5,25.3-14.8,49.2s-4.7,36.2-0.2,38.3c4.5,2.1,9.9-0.8,14.4-8.9c0,0,1.9-1.6,1-2.3
	c-0.8-0.6-4.5,8.9-11.3,9.9s0.1-26.7,2.3-34.6c3.5-13.1,13-42.6,15.4-49.6C242.5,114.8,235.3,112.5,234,117.7z"/>
<path fill="#FFFFFF" d="M255,203.1c0,0-2.3,0.1-0.3-0.9c3.5-1.8,8.4-7,13-15.9c4.3-8.3,9.8-19.5,10.2-25c0.4-5.7-2.6,2-3.7,12.8
	s-0.8,9.8,3,5.5c3.8-4.4,8.2-12.7,8.5-13.5c0,0,2.3-5.4,5.1-4.8s1.7,5.7-2.6,20.7c-4.3,15-4.6,18.8-2.1,20.5
	c2.5,1.7,8.8-1.4,10.5-5.7c0,0,1.6-2.2,1.8-1.3s-4.1,10.5-13.6,9.9c-11.5-0.7-1.2-30-0.7-32.1s-7.9,13.1-13.3,13.2
	c-5.4,0.1-3.4-8.1-2.6-13.9s3-12.9,3.6-14.9c0.7-2.2,2.2-3.4,3.9-3.6c0.8-0.1,5.7-0.1,4.4,8.1C278.4,172.9,261.5,204.7,255,203.1z"
	/>
<path fill="#FFFFFF" d="M125.3,153.5 M125.7,152.5c-0.8,2.4-2,6-2.8,8.7c-3.7-0.3-11.7,1.8-18.7,21c-5.3,14.6-4.5,21.8-0.9,22.1
	c0,0,3.2,1.7,8.3-4.9c0,0,2.3-2.8,6-8.2c0,7.2,1.2,11.8,3.4,12.9c4.6,2.4,12.9-3.4,20.7-20.9c0.9-1.9-1-0.8-1-0.8
	c-1.2,4.4-11.6,21.7-16.3,20.5s1.4-26.5,6.8-46.2c0.6-2.3,1.3-4.6,2-6.8c2.3-1.5,4.5-3.3,6.6-5.4c11.4-11.4,9.2-22.7,4.2-23.9
	s-7.4,5-7.4,5s-4.6,8.7-10,24.1c0,0-14.8,4.8-31.2,2.1s-23.6-10.5-24.3-12c-0.7-1.5-0.3-2.3,0-3.3c0.6-1.6-0.4-4.4-2.6-3.7
	c-2.7,0.8-1.3,5.8,0.4,8.3C71.1,143.9,90.3,161,125.7,152.5z M146.1,123.2c1.1,2.4,0.9,14.5-11.8,23.5
	C139.3,131.7,144.9,120.7,146.1,123.2z M117.8,186.4c-3.4,4.9-7,9.7-10,13.4c-2,2.4,0-10.3,3.5-18.3c5.5-12.4,8.6-16.1,10.7-17.1
	C119.6,172.7,118.3,180.2,117.8,186.4z"/>
<path fill="#FFFFFF" d="M252.2,204.5c-3.6-0.2-7-4.5-5.2-17.8c1.7-13.1,7.5-24.4,10.6-25.1c2.9-0.7,10.4,1.3,0,17.8
	c-10.4,16.5-15.1,27.3-25,25.7c-10.4-1.6,4.7-39.8,4.7-39.8c0.5-2,2.8-2.4,4.1-1.9c2.7,1,2.3,3.1,1.9,4.9
	c-0.4,1.8-4.9,17.5-5.5,19.1c-0.6,1.5-4.9,15.9,0.5,14.6c5.4-1.3,20.1-24.9,21.6-32.3c1.5-7.4-1.6-1.6-4.7,7
	c-3.1,8.6-4.7,22.9-1.6,24.6c0,0,4.5,4,14.8-16.1c0,0,0.9-1.3,1.6-0.5C270.5,185.5,260.8,205.1,252.2,204.5z"/>
<path fill="#FFFFFF" d="M323.9,215.7c-1.4,0.7-3.7,0.9-3.3-1.2c0.4-2.2,3.9-1.2,4.3-2.5c0.3-1.3-0.5-7.6-7-8.1
	c-6.3-0.5-10.7,5.7-11.6,9.2c-0.2,0.8-3,10.9,4.2,14.9c7,3.9,14.3,0.4,17.6-5.2c3.8-6.6-0.2-20.8-3.5-39.8
	c-1.9-11.2-0.5-17.8,3.4-22.3c1.8-2.1,6.9-5.5,11.1-3c5.8,3.5,3,9.6,0.4,10.9c-2.5,1.3-4.8,0.8-5.4,0c-0.6-0.8-0.8-2.4,1.1-2.6
	c1.3-0.1,1.3,2,3,1.7c2-0.3,2.9-2.6,2.9-4.1c0-3.8-4.6-5.9-7.7-2c-3.1,3.9-2.7,11.7-2.1,16.5c0.6,4.8,6.4,23.8,3.2,36.9
	c-3.1,13.1-13.3,18.4-22.1,15.6c-9.6-3-9.3-12.3-7.8-18.1c0,0,2.3-7.7,9.7-9.4c6.3-1.4,10,1.3,11.3,4.8
	C327.3,212.3,325,215.1,323.9,215.7z"/>
<path fill="#FFFFFF" d="M271.4,251.9c1.1-3.8,0.5-13.6-10.5-14.6c-10.7-1-17.7,11.1-12.7,22c4.7,10.4,24.6,11.9,33.5,0.8
	c9.3-11.5,1.1-30.3-23.1-34.7c-26.8-4.9-64.9,0.8-95.2,6.8c-28.2,5.5-41.5,6.3-44.6-5.2c-2.7-10,9.6-19.1,18.2-15.1
	c8,3.8,10.5,15.7-2.7,31c-14,16.2-32.7,14-40.4,6.9c-18.1-16.5-3.3-69-0.5-83.9c2.9-15,9.4-46,1.3-46s-12.4,20.7-15.3,34.7
	c-2.9,14-7.5,53.3-30.5,46.7c-17.6-5.1-4.9-33-1.9-39.7c6.3-13.8,25.3-15.7,22.9-1c-2.5,15.6-17,10.2-17,10.2
	c-3.8-1.5-9.8-5.5-8.8-17.6c1.1-13.2,11.6-15.3,11.6-15.3c4.1-0.8,7.6-0.2,8.4,2.1c1,2.9-1.8,5.3-5.3,2.5c-1.2-0.9-1.8-2.1-4-1.6
	s-5.5,3.1-7,6.1c-1.1,2.2-4.8,14,3,19.7s16.4,0.3,17.4-6.5s-8.4-12.3-17.3,4.6s-10.4,33.8,0.4,34.9s17.7-13.4,21.6-30.3
	s6.8-58.8,25.2-54.3s-0.3,72.9-1.4,77.2c-1.1,4.3-12.9,45.2,0.7,56.4c7.1,5.8,25.4,5.6,36.5-12.1c11.5-18.4-0.1-26.6-6.6-22.3
	c-3.6,2.4-6.6,9.4-0.2,15.2c6.4,5.9,20,2.1,39.4-1.7c19.3-3.8,92.7-20,116.8,1.7c18.5,16.7,1,43.6-22.8,39.6c0,0-15.8-1.7-16-17
	c-0.1-12.4,9.4-17.4,16.3-16.7c9.3,0.9,13.7,8,12.4,16.2c0,0-0.7,4.3-4.6,6.4c-2.5,1.3-4.4,1-5.1-0.2c-0.4-0.7-0.2-2,0.6-2.8
	c1.1-1.1,3.2-1.1,4.6-1.1C269.9,253.8,271.1,253,271.4,251.9z"/>
<path fill="none" stroke="#FFFFFF" stroke-width="1.6369" stroke-miterlimit="10" d="M257.6,118.3c0,0,7.2-9.7,19.3-8.6"/>
</svg>
