<?xml version="1.0" encoding="utf-8"?>
<!-- Generator: Adobe Illustrator 18.1.1, SVG Export Plug-In . SVG Version: 6.00 Build 0)  -->
<!DOCTYPE svg PUBLIC "-//W3C//DTD SVG 1.1//EN" "http://www.w3.org/Graphics/SVG/1.1/DTD/svg11.dtd">
<svg version="1.1" id="Layer_1" xmlns="http://www.w3.org/2000/svg" xmlns:xlink="http://www.w3.org/1999/xlink" x="0px" y="0px"
	 width="724px" height="226px" viewBox="0 436 724 226" enable-background="new 0 436 724 226" xml:space="preserve">
<g>
	<g>
		<path fill="#404041" d="M232,465.1c-0.4,31.8-0.2,63.7,0.7,95.5c0.1,3.5,0,7.1,0.3,10.7c0.2,2.4,0.9,4.4,3.2,5.5
			c2.5,1.2,5.7,1.2,8.4,1.5c3.9,0.5,7.8,1,11.7,1.4c15.6,1.7,31.3,2.8,46.9,3.3c7.8,0.2,15.7,0.3,23.5,0.2c2,0,4.4,0,5.9-1.6
			c1.9-2.1,1.3-6,1.4-8.5c0.3-15.6,0.4-31.3,0.4-46.9c0-16-0.1-31.9-0.4-47.9c-0.1-3.8-0.1-7.6-0.2-11.5c0-1.8-0.1-3.7-0.1-5.5
			c0-1.5,0.1-3.3-0.5-4.8c-0.8-2-2.6-2.3-4.6-2.4c-4.3-0.2-8.7-0.1-13-0.2c-17.7-0.3-35.3-0.6-53-0.9c-4.3-0.1-8.7-0.1-13-0.2
			c-4.4-0.1-9.1-0.7-13.5-0.2c-2.4,0.3-3.7,1.7-4,4.1c-0.6,4.3-0.3,8.9-0.4,13.2c0,1.3,2,1.3,2,0c0.1-3.6,0.2-7.3,0.3-10.9
			c0.1-2.1,0.1-4.2,2.8-4.4c1.9-0.1,3.9,0.1,5.8,0.1c7,0.1,14,0.2,21,0.4c14.3,0.2,28.6,0.5,43,0.7c3.7,0.1,7.3,0.1,11,0.2
			c1.7,0,3.3,0.1,5,0.1c1.9,0,4.2-0.3,6,0.1c0.8,0.2,2.3,0.7,2.8,1.5c0.3,0.6,0.2,2,0.2,2.7c0,1.7,0.1,3.3,0.1,5
			c0.1,3.7,0.1,7.3,0.2,11c0.2,14.3,0.4,28.6,0.4,42.9c0,14.3-0.1,28.6-0.2,42.9c0,3.7-0.1,7.3-0.2,11c0,1.6,0,3.1-0.1,4.7
			c-0.2,2.6-1.8,3.3-4.2,3.3c-6.9,0.2-13.7,0.1-20.6-0.1c-14-0.3-28.1-1.1-42.1-2.4c-7.4-0.7-14.8-1.6-22.1-2.5
			c-2.8-0.4-7-0.2-7.8-3.6c-0.8-3.4-0.3-7.4-0.4-10.8c-0.9-32.2-1.1-64.3-0.7-96.5C234.1,463.8,232,463.8,232,465.1L232,465.1z"/>
	</g>
</g>
<g>
	<g>
		<path fill="#404041" d="M303.5,463.5c-7.5,1.7-16.6,4.2-19.7,12.2c-3.3,8.5,2.1,18.8,8.6,24.4c3.7,3.2,8.1,4.5,12.9,4.3
			c4.4-0.2,9.5-1,13.6-2.8c4.1-1.8,5.6-5.7,6.6-9.9c0.6-2.7,1.1-5.5,1.7-8.2c0.5-2.5,1.2-5.2,0.5-7.8c-1.1-4.2-5.3-6.5-9.1-7.9
			c-6-2.3-12.4-3.2-18.9-2.9c-1.3,0.1-1.3,2.1,0,2c4.5-0.2,9.1,0.1,13.5,1.2c3.8,1,8.3,2.3,11,5.3c3.3,3.7,1.1,9.4,0.2,13.7
			c-0.8,3.7-1.1,8.6-4.2,11.2c-2.8,2.5-8,3-11.6,3.6c-4.5,0.7-9.2,0.5-13.1-2.1c-6.4-4.3-11.8-13.6-10.3-21.4
			c1.6-8.7,11.5-11.3,18.9-12.9C305.3,465.2,304.8,463.2,303.5,463.5L303.5,463.5z"/>
	</g>
</g>
<g>
	<g>
		<path fill="#404041" d="M256.6,478.9c-5.3,9.9-10.5,19.9-15.8,29.8c-0.5,0.9,0.1,1.9,1.1,2c5.2,0.5,10.4,0.8,15.7,0.7
			c2.7,0,8.7,1,10-2.3c0.6-1.3,0.2-2.8-0.4-4.1c-1-2.3-2.1-4.5-3.2-6.7c-2.4-4.9-4.8-9.9-7.2-14.8c-0.7-1.5-3-0.2-2.3,1.3
			c1.8,3.8,3.7,7.5,5.5,11.3c0.8,1.7,1.7,3.5,2.5,5.2c0.7,1.5,2.6,4.1,2.6,5.8c0,2.1-3.7,1.5-5.2,1.6c-1.9,0-3.8,0.1-5.7,0
			c-4.1-0.1-8.2-0.3-12.4-0.7c0.4,0.7,0.8,1.3,1.1,2c5.3-9.9,10.5-19.9,15.8-29.8C259.6,478.7,257.3,477.4,256.6,478.9L256.6,478.9z
			"/>
	</g>
</g>
<g>
	<g>
		<path fill="#404041" d="M243.9,533.1c0.3,5.1,0.7,10.1,1,15.2c0.2,2.5,0.3,4.9,0.5,7.4c0.1,2-0.1,4.4,0.5,6.3
			c0.4,1,1.1,1.6,2.1,1.8c2.2,0.3,5-0.4,7.3-0.6c5.1-0.4,10.1-0.9,15.2-1.3c3-0.3,7.9,0.3,9.8-2.7c0.8-1.3,0.9-2.8,1-4.2
			c0.1-2.6,0.2-5.2,0.2-7.8c0-2.4,0.1-4.9,0-7.3c0-2.1,0.2-4.4-0.2-6.4c-0.8-3.7-4.1-3.5-7.2-3.4c-11,0.5-21.9,1.7-32.8,3.6
			c-1.3,0.2-0.7,2.2,0.5,2c10-1.8,20.1-3,30.3-3.5c2-0.1,6.1-1,7,1.4c0.8,2.1,0.2,5.5,0.2,7.7c0,4.8,0.1,9.7-0.3,14.4
			c-0.4,3.9-3.6,3.7-6.7,4c-2.3,0.2-4.6,0.4-6.9,0.6c-4.9,0.4-9.8,0.9-14.7,1.3c-0.7,0.1-1.3,0.1-2,0.2c-1-0.4-1.5-1.1-1.3-2.1
			c-0.3-1.2-0.2-2.7-0.3-3.9c-0.2-2.3-0.3-4.6-0.5-6.9c-0.4-5.2-0.7-10.5-1.1-15.7C245.8,531.8,243.8,531.8,243.9,533.1L243.9,533.1
			z"/>
	</g>
</g>
<g>
	<g>
		<path fill="#404041" d="M302.6,515c0.2,11.5,0.4,22.9,0.6,34.4c0.1,5.6,0,11.3,0.3,16.9c0.1,1.1,0,3,1.2,3.5
			c1.4,0.7,4.5-1,5.9-1.5c2.5-0.8,5.1-1.6,7.6-2.4c1.4-0.4,2.3-0.8,3-2.1c0.8-1.6,0.9-3.7,1-5.4c0.2-2.9,0.1-5.8,0.2-8.6
			c0.1-11.2,0.5-22.5,0-33.7c-0.1-1.6,0-3.9-1.1-5.3c-1-1.3-2.5-0.8-3.9-0.6c-5.7,1-11,3.4-15.8,6.6c-1,0.7-0.1,2.4,1,1.7
			c3.7-2.4,7.7-4.4,12-5.6c1.8-0.5,4.5-1.7,5.6,0.4c0.8,1.6,0.4,4.6,0.4,6.3c0.1,9.2,0,18.5,0,27.7c0,4.1,0.1,8.2-0.3,12.3
			c-0.1,0.9-0.1,1.9-0.4,2.8c-0.7,1.4-1.6,1.6-3,2c-2.2,0.7-4.4,1.4-6.6,2.1c-0.9,0.3-1.9,0.6-2.8,0.9c-1.6,0.5-1.6,0.6-1.7-1.1
			c-0.1-2.3-0.1-4.7-0.1-7.1c-0.1-4.4-0.2-8.8-0.2-13.3c-0.2-10.3-0.4-20.6-0.6-30.9C304.6,513.7,302.6,513.7,302.6,515L302.6,515z"
			/>
	</g>
</g>
<g>
	<g>
		<path fill="#404041" d="M417.8,465.1c-0.4,31.8-0.2,63.7,0.7,95.5c0.1,3.5,0,7.1,0.3,10.7c0.2,2.4,0.9,4.4,3.2,5.5
			c2.5,1.2,5.7,1.2,8.4,1.5c3.9,0.5,7.8,1,11.7,1.4c15.6,1.7,31.3,2.8,46.9,3.3c7.8,0.2,15.7,0.3,23.5,0.2c2,0,4.4,0,5.9-1.6
			c1.9-2.1,1.3-6,1.4-8.5c0.3-15.6,0.4-31.3,0.4-46.9c0-16-0.1-31.9-0.4-47.9c-0.1-3.8-0.1-7.6-0.2-11.5c0-1.8-0.1-3.7-0.1-5.5
			c0-1.5,0.1-3.3-0.5-4.8c-0.8-2-2.6-2.3-4.6-2.4c-4.3-0.2-8.7-0.1-13-0.2c-17.7-0.3-35.3-0.6-53-0.9c-4.3-0.1-8.7-0.1-13-0.2
			c-4.4-0.1-9.1-0.7-13.5-0.2c-2.4,0.3-3.7,1.7-4,4.1c-0.6,4.3-0.3,8.9-0.4,13.2c0,1.3,2,1.3,2,0c0.1-3.6,0.2-7.3,0.3-10.9
			c0.1-2.1,0.1-4.2,2.8-4.4c1.9-0.1,3.9,0.1,5.8,0.1c7,0.1,14,0.2,21,0.4c14.3,0.2,28.6,0.5,43,0.7c3.7,0.1,7.3,0.1,11,0.2
			c1.7,0,3.3,0.1,5,0.1c1.9,0,4.2-0.3,6,0.1c0.8,0.2,2.3,0.7,2.8,1.5c0.3,0.6,0.2,2,0.2,2.7c0,1.7,0.1,3.3,0.1,5
			c0.1,3.7,0.1,7.3,0.2,11c0.2,14.3,0.4,28.6,0.4,42.9c0,14.3-0.1,28.6-0.2,42.9c0,3.7-0.1,7.3-0.2,11c0,1.6,0,3.1-0.1,4.7
			c-0.2,2.6-1.8,3.3-4.2,3.3c-6.9,0.2-13.7,0.1-20.6-0.1c-14-0.3-28.1-1.1-42.1-2.4c-7.4-0.7-14.8-1.6-22.1-2.5
			c-2.8-0.4-7-0.2-7.8-3.6c-0.8-3.4-0.3-7.4-0.4-10.8c-0.9-32.2-1.1-64.3-0.7-96.5C419.9,463.8,417.8,463.8,417.8,465.1L417.8,465.1
			z"/>
	</g>
</g>
<g>
	<g>
		<path fill="#404041" d="M489.3,463.5c-7.5,1.7-16.6,4.2-19.7,12.2c-3.3,8.5,2.1,18.8,8.6,24.4c3.7,3.2,8.1,4.5,12.9,4.3
			c4.4-0.2,9.5-1,13.6-2.8c4.1-1.8,5.6-5.7,6.6-9.9c0.6-2.7,1.1-5.5,1.7-8.2c0.5-2.5,1.2-5.2,0.5-7.8c-1.1-4.2-5.3-6.5-9.1-7.9
			c-6-2.3-12.4-3.2-18.9-2.9c-1.3,0.1-1.3,2.1,0,2c4.5-0.2,9.1,0.1,13.5,1.2c3.8,1,8.3,2.3,11,5.3c3.3,3.7,1.1,9.4,0.2,13.7
			c-0.8,3.7-1.1,8.6-4.2,11.2c-2.8,2.5-8,3-11.6,3.6c-4.5,0.7-9.2,0.5-13.1-2.1c-6.4-4.3-11.8-13.6-10.3-21.4
			c1.6-8.7,11.5-11.3,18.9-12.9C491.1,465.2,490.6,463.2,489.3,463.5L489.3,463.5z"/>
	</g>
</g>
<g>
	<g>
		<path fill="#404041" d="M442.4,478.9c-5.3,9.9-10.5,19.9-15.8,29.8c-0.5,0.9,0.1,1.9,1.1,2c5.2,0.5,10.4,0.8,15.7,0.7
			c2.7,0,8.7,1,10-2.3c0.6-1.3,0.2-2.8-0.4-4.1c-1-2.3-2.1-4.5-3.2-6.7c-2.4-4.9-4.8-9.9-7.2-14.8c-0.7-1.5-3-0.2-2.3,1.3
			c1.8,3.8,3.7,7.5,5.5,11.3c0.8,1.7,1.7,3.5,2.5,5.2c0.7,1.5,2.6,4.1,2.6,5.8c0,2.1-3.7,1.5-5.2,1.6c-1.9,0-3.8,0.1-5.7,0
			c-4.1-0.1-8.2-0.3-12.4-0.7c0.4,0.7,0.8,1.3,1.1,2c5.3-9.9,10.5-19.9,15.8-29.8C445.4,478.7,443.2,477.4,442.4,478.9L442.4,478.9z
			"/>
	</g>
</g>
<g>
	<g>
		<path fill="#404041" d="M429.7,533.1c0.3,5.1,0.7,10.1,1,15.2c0.2,2.5,0.3,4.9,0.5,7.4c0.1,2-0.1,4.4,0.5,6.3
			c0.4,1,1.1,1.6,2.1,1.8c2.2,0.3,5-0.4,7.3-0.6c5.1-0.4,10.1-0.9,15.2-1.3c3-0.3,7.9,0.3,9.8-2.7c0.8-1.3,0.9-2.8,1-4.2
			c0.1-2.6,0.2-5.2,0.2-7.8c0-2.4,0.1-4.9,0-7.3c0-2.1,0.2-4.4-0.2-6.4c-0.8-3.7-4.1-3.5-7.2-3.4c-11,0.5-21.9,1.7-32.8,3.6
			c-1.3,0.2-0.7,2.2,0.5,2c10-1.8,20.1-3,30.3-3.5c2-0.1,6.1-1,7,1.4c0.8,2.1,0.2,5.5,0.2,7.7c0,4.8,0.1,9.7-0.3,14.4
			c-0.4,3.9-3.6,3.7-6.7,4c-2.3,0.2-4.6,0.4-6.9,0.6c-4.9,0.4-9.8,0.9-14.7,1.3c-0.7,0.1-1.3,0.1-2,0.2c-1-0.4-1.5-1.1-1.3-2.1
			c-0.3-1.2-0.2-2.7-0.3-3.9c-0.2-2.3-0.3-4.6-0.5-6.9c-0.4-5.2-0.7-10.5-1.1-15.7C431.6,531.8,429.6,531.8,429.7,533.1L429.7,533.1
			z"/>
	</g>
</g>
<g>
	<g>
		<path fill="#404041" d="M488.4,515c0.2,11.5,0.4,22.9,0.6,34.4c0.1,5.6,0,11.3,0.3,16.9c0.1,1.1,0,3,1.2,3.5
			c1.4,0.7,4.5-1,5.9-1.5c2.5-0.8,5.1-1.6,7.6-2.4c1.4-0.4,2.3-0.8,3-2.1c0.8-1.6,0.9-3.7,1-5.4c0.2-2.9,0.1-5.8,0.2-8.6
			c0.1-11.2,0.5-22.5,0-33.7c-0.1-1.6,0-3.9-1.1-5.3c-1-1.3-2.5-0.8-3.9-0.6c-5.7,1-11,3.4-15.8,6.6c-1,0.7-0.1,2.4,1,1.7
			c3.7-2.4,7.7-4.4,12-5.6c1.8-0.5,4.5-1.7,5.6,0.4c0.8,1.6,0.4,4.6,0.4,6.3c0.1,9.2,0,18.5,0,27.7c0,4.1,0.1,8.2-0.3,12.3
			c-0.1,0.9-0.1,1.9-0.4,2.8c-0.7,1.4-1.6,1.6-3,2c-2.2,0.7-4.4,1.4-6.6,2.1c-0.9,0.3-1.9,0.6-2.8,0.9c-1.6,0.5-1.6,0.6-1.7-1.1
			c-0.1-2.3-0.1-4.7-0.1-7.1c-0.1-4.4-0.2-8.8-0.2-13.3c-0.2-10.3-0.4-20.6-0.6-30.9C490.4,513.7,488.4,513.7,488.4,515L488.4,515z"
			/>
	</g>
</g>
<g>
	<g>
		<path fill="#404041" d="M425.2,470.1c0.4,2.3,0.9,4.5,1.3,6.8c0.2,1.3,2.2,0.7,2-0.5c-0.4-2.3-0.9-4.5-1.3-6.8
			C427,468.3,425,468.8,425.2,470.1L425.2,470.1z"/>
	</g>
</g>
<g>
	<g>
		<path fill="#404041" d="M426.9,474.3c7.9,0,15.9,0,23.8,0c1.3,0,1.3-2,0-2c-7.9,0-15.9,0-23.8,0
			C425.6,472.2,425.6,474.3,426.9,474.3L426.9,474.3z"/>
	</g>
</g>
<g>
	<g>
		<path fill="#404041" d="M451.8,469.9c0,2.5,0,5,0,7.5c0,1.3,2,1.3,2,0c0-2.5,0-5,0-7.5C453.8,468.5,451.8,468.5,451.8,469.9
			L451.8,469.9z"/>
	</g>
</g>
<g>
	<g>
		<path fill="#404041" d="M470.5,486.2c6,0,12.1,0,18.1,0c0.9,0,0.9-1.4,0-1.4c-6,0-12.1,0-18.1,0
			C469.6,484.8,469.6,486.2,470.5,486.2L470.5,486.2z"/>
	</g>
</g>
<g>
	<g>
		<path fill="#404041" d="M487.8,484.5c0.2,0.5-0.2,1-0.7,1.2c0.4,0.2,0.8,0.3,1.2,0.5c-0.3-0.6,0.6-1,0.9-0.4
			c0-0.3,0.1-0.5,0.1-0.8c-0.4,0.8-1.1,1.4-2,1.5c0.3,0.2,0.6,0.3,0.9,0.5c-0.4-0.5-0.5-1.3,0-1.8c0.5-0.5,1.3-0.3,1.8,0.1
			c0.9,0.9,2.4-0.5,1.4-1.4c-1.5-1.5-4.3-1.3-5.3,0.8c-0.5,0.9-0.5,2,0,3c0.2,0.5,0.6,0.9,1.2,1c0.6,0,1.2-0.2,1.7-0.4
			c0.9-0.4,1.8-1.2,2.1-2.1c0.4-1.1-0.5-2.1-1.5-2.5c-2.2-0.8-4,1.6-3,3.6c0.2,0.4,0.7,0.6,1.2,0.5c1.6-0.4,2.6-2.1,2.1-3.7
			C489.4,482.7,487.4,483.2,487.8,484.5L487.8,484.5z"/>
	</g>
</g>
<g>
	<g>
		<path fill="#404041" d="M479.3,515.1c1.6,0,3.2,0,4.8,0c1.3,0,1.3-2,0-2c-1.6,0-3.2,0-4.8,0C478,513.1,478,515.1,479.3,515.1
			L479.3,515.1z"/>
	</g>
</g>
<g>
	<g>
		<path fill="#404041" d="M481.7,514.8c0,17.2,0,34.5,0,51.7c0,1.3,2,1.3,2,0c0-17.2,0-34.5,0-51.7
			C483.8,513.5,481.7,513.5,481.7,514.8L481.7,514.8z"/>
	</g>
</g>
<g>
	<g>
		<path fill="#404041" d="M478.7,567.5c1.8,0,3.6,0,5.4,0c1.3,0,1.3-2,0-2c-1.8,0-3.6,0-5.4,0C477.3,565.5,477.3,567.5,478.7,567.5
			L478.7,567.5z"/>
	</g>
</g>
<g>
	<g>
		<path fill="#404041" d="M426.6,522.9c0,1.4,0,2.7,0,4.1c0,1.3,2,1.3,2,0c0-1.4,0-2.7,0-4.1C428.6,521.6,426.6,521.6,426.6,522.9
			L426.6,522.9z"/>
	</g>
</g>
<g>
	<g>
		<path fill="#404041" d="M427.6,526.7c11.8,0,23.6,0,35.4,0c1.3,0,1.3-2,0-2c-11.8,0-23.6,0-35.4,0
			C426.3,524.6,426.3,526.7,427.6,526.7L427.6,526.7z"/>
	</g>
</g>
<g>
	<g>
		<path fill="#404041" d="M463.3,522.9c0,1.6,0,3.2,0,4.8c0,1.3,2,1.3,2,0c0-1.6,0-3.2,0-4.8C465.4,521.6,463.3,521.6,463.3,522.9
			L463.3,522.9z"/>
	</g>
</g>
<path fill="#FFFFFF" stroke="#404041" stroke-width="2.3976" stroke-miterlimit="10" d="M667.7,543.6c-6.2,11.7-12.3,23.4-18.5,35
	c8.5,0.9,17.1,1.1,25.7,0.6c0.9,0,1.9-0.1,2.6-0.8c1.3-1.2,0.6-3.3-0.1-4.9c-4-8.2-7.9-16.4-11.9-24.5"/>
<path fill="#FFFFFF" stroke="#404041" stroke-width="2.3976" stroke-miterlimit="10" d="M634.8,552.2c19.6-0.4,39.2-0.7,58.8-1.1
	c1.5,0,3.3-0.1,4.1-0.4c0.6-0.3,0.5-0.6,0.4-0.9c-1.7-5.2-3.3-10.4-5-15.6c-0.2-0.7-0.5-1.4-2.2-2c-2.2-0.7-6.1-0.8-9.6-0.9
	c-13.9-0.2-27.9-0.2-41.9-0.1c-3,0-6.4,0.1-8.2,0.7c-1.4,0.5-1.4,1.2-1.4,1.9c0.9,6.8,3.5,13.5,7.9,20.2"/>
<path fill="#FFFFFF" stroke="#404041" stroke-width="2.3976" stroke-miterlimit="10" d="M661.8,497.2c-8.4,1.9-17.9,4.5-21.8,12.2
	c-3.6,7.1-0.8,15.9,3.7,22.5c2.9,4.3,6.8,8.2,11.7,9.9c5.9,2.1,12.3,0.7,18.4-0.6c2.8-0.6,5.8-1.3,8-3.3c2.7-2.4,3.6-6.3,4.4-9.9
	c0.7-3.3,1.4-6.6,2.1-9.9c0.5-2.5,1-5,0.4-7.5c-1.1-4.2-5.3-6.7-9.3-8.3c-7.1-2.8-14.7-4-22.3-3.5"/>
<path fill="#FFFFFF" stroke="#404041" stroke-width="2.3976" stroke-miterlimit="10" d="M634.8,487.2c9.1,5.9,18.1,11.7,27.2,17.6
	c0.7,0.5,1.5,0.9,2.3,0.6c0.6-0.2,0.9-0.7,1.2-1.3c5.5-8.8,11-17.7,16.5-26.5c0.7-1.2,1.5-2.5,1.4-3.9c-0.1-1.9-1.7-3.3-3.2-4.6
	c-5.9-4.8-12-9.5-18.2-14c-1.3-1-2.9-2-4.5-1.5c-1.2,0.3-2.1,1.5-2.8,2.5c-7.8,11.1-14.7,22.8-20.8,34.9"/>
<g>
	<g>
		<path fill="#404041" d="M659.7,508.9c3.4-0.4,6.8-0.8,10.2-1.2c1.3-0.1,1.3-2.2,0-2c-3.4,0.4-6.8,0.8-10.2,1.2
			C658.4,507,658.4,509,659.7,508.9L659.7,508.9z"/>
	</g>
</g>
<g>
	<g>
		<path fill="#404041" d="M175.6,513.5c5.1,1,10,2.4,14.8,4.3c-0.2-0.9-0.5-1.8-0.7-2.8c-3,3-6.1,5.9-9.1,8.9
			c-1.5,1.5,0.8,3.8,2.3,2.3c3-3,6.1-5.9,9.1-8.9c1-0.9,0.4-2.3-0.7-2.8c-4.8-1.8-9.8-3.3-14.8-4.3
			C174.4,509.8,173.5,513,175.6,513.5L175.6,513.5z"/>
	</g>
</g>
<g>
	<g>
		<path fill="#404041" d="M367.5,513.5c5.1,1,10,2.4,14.8,4.3c-0.2-0.9-0.5-1.8-0.7-2.8c-4.3,3.9-10.5,4.9-14.8,8.8
			c-1.6,1.4,0.8,3.8,2.3,2.3c4.3-3.9,10.5-4.9,14.8-8.8c1-0.9,0.4-2.4-0.7-2.8c-4.8-1.8-9.8-3.3-14.8-4.3
			C366.3,509.8,365.4,513,367.5,513.5L367.5,513.5z"/>
	</g>
</g>
<g>
	<g>
		<path fill="#404041" d="M569.4,512.4c4.6,1,8.6,3.6,13,5.3c-0.2-0.9-0.5-1.8-0.7-2.8c-1.9,1.6-5,1.4-7.3,1.6
			c-2.1,0.3-4,0.8-5.6,2.2c-1.6,1.4,0.7,3.7,2.3,2.3c1.9-1.6,5-1.4,7.3-1.6c2.1-0.3,4-0.8,5.6-2.2c1-0.9,0.3-2.3-0.7-2.8
			c-4.4-1.8-8.3-4.3-13-5.3C568.2,508.8,567.3,512,569.4,512.4L569.4,512.4z"/>
	</g>
</g>
<g>
	<g>
		<path fill="#404041" d="M52.9,476c-0.2,7.4-0.1,14.8,0.3,22.2c0.3,5.6-0.2,9.1,6.1,9.4c3.8,0.1,9.4,1.7,10.5-3
			c0.9-3.8,0.2-8.5,0-12.4c-0.2-4.6-0.5-9.1-0.3-13.6c0.1-2.1-3.2-2.1-3.3,0c-0.3,5.7,0.2,11.4,0.4,17.2c0.1,1.6,1,7.6-0.5,8.7
			c-0.8,0.6-5.9,0.1-6.8-0.1c-1.7-0.4-1.8,0.9-2.6-2c-0.3-1-0.1-2.3-0.2-3.4c-0.1-2.5-0.2-5-0.3-7.6c-0.1-5.1-0.2-10.2,0-15.3
			C56.2,473.9,52.9,473.9,52.9,476L52.9,476z"/>
	</g>
</g>
<g>
	<g>
		<path fill="#404041" d="M92.9,478.1c0.2,4.1,0.5,8.2,0.7,12.3c0.2,3.7-0.2,8.2,0.7,11.7c0.5,1.8,1.3,2.6,3.1,3.1
			c2.6,0.7,8.1,1,10.7,0c3.9-1.5,2.9-9,3-12.3c0.3-6.2,0.9-12.5,0.2-18.7c-0.2-2.1-3.5-2.1-3.3,0c0.4,4,0.3,8.1,0.1,12.1
			c-0.1,4.1,0.3,9.2-0.7,13.2c-0.9,3.4-3.7,3-6.9,2.6c-4.1-0.5-3.2-3.3-3.4-6.9c-0.3-5.7-0.6-11.4-0.9-17.1
			C96.1,476,92.8,476,92.9,478.1L92.9,478.1z"/>
	</g>
</g>
<g>
	<g>
		<path fill="#404041" d="M76.2,507.9c0.1,3.6-0.6,11.9,4.7,12.3c6.2,0.5,5.2-8.6,5.2-12.3c0-2.1-3.3-2.1-3.3,0
			c0,1.3,0.7,10-1.9,8.8c-1.1-0.5-1.1-2.8-1.1-3.8c-0.1-1.7-0.2-3.3-0.2-5C79.4,505.8,76.1,505.7,76.2,507.9L76.2,507.9z"/>
	</g>
</g>
<g>
	<g>
		<path fill="#404041" d="M77.1,506.6c-7.6,1.1-13.2,8.2-11.3,15.9c2,8.4,10.7,11.2,18.4,10.8c8.2-0.5,14.2-5.4,14.8-13.7
			c0.3-3.6,0.3-7.6-2.7-10.1c-3.2-2.7-7.9-3.3-11.9-3.5c-2.1-0.1-2.1,3.2,0,3.3c2.4,0.1,4.8,0.4,7.1,1.3c3.6,1.3,4.5,5.5,4.2,9
			c-0.6,7.2-6.3,10.5-13.2,10.4c-5.3-0.1-11.3-1.7-13.2-7.3c-2.1-6.4,2.3-12,8.6-12.9C80.1,509.5,79.2,506.3,77.1,506.6L77.1,506.6z
			"/>
	</g>
</g>
<g>
	<g>
		<path fill="#404041" d="M61.2,555.2c-0.1-3.7,0.2-7.3,0.4-11c0.1-2.5-0.4-5.7,0.3-8.1c-0.4,0.4-0.8,0.8-1.2,1.2
			c1-0.4,2.9,0.1,3.8,0.1c2.2,0,5.1-0.4,7.3,0.2c-0.4-0.4-0.8-0.8-1.2-1.2c0.8,2.8,0.3,6.6,0.3,9.6c0.1,3.1,0.1,6.2,0.2,9.3
			c0.1,2.1,3.4,2.1,3.3,0c-0.1-5.6-0.2-11.1-0.3-16.7c0-1.7,0.2-3.3-1.4-4.2c-2.4-1.3-7.2-0.2-9.8-0.3c-4-0.2-4.5,1-4.6,4.9
			c-0.1,5.4-0.6,10.9-0.4,16.3C58,557.3,61.3,557.3,61.2,555.2L61.2,555.2z"/>
	</g>
</g>
<g>
	<g>
		<path fill="#404041" d="M102.4,553.8c-0.1-2.1-0.2-4.2-0.3-6.2c-0.1-1-0.1-2.1-0.2-3.1c0-0.5-0.1-0.9-0.1-1.4
			c0-0.7-1.6-0.3,0.4-0.5c2.5-0.2,5.4-0.6,7.9-0.4c1.2,0.1,0.5-0.2,0.8,0.5c0.3,0.7,0.4,1.7,0.5,2.5c0.3,1.7,0.4,3.5,0.5,5.2
			c0.1,2.1,3.4,2.1,3.3,0c-0.1-2.2-0.3-4.4-0.7-6.6c-0.3-1.3-0.4-3.4-1.5-4.4c-1-1-2.7-0.6-3.9-0.5c-2.1,0.1-4.3,0.2-6.4,0.3
			c-3.4,0.2-4.3,1-4.2,4.5c0.1,3.3,0.4,6.7,0.5,10C99.2,555.9,102.5,555.9,102.4,553.8L102.4,553.8z"/>
	</g>
</g>
<g>
	<g>
		<path fill="#404041" d="M110.2,472.3c-22,4.7-43.2,7.4-64.5-1.4c-1.2-0.5-1.7,1.5-0.5,2c21.7,9,43.3,6.2,65.6,1.4
			C112,474,111.5,472.1,110.2,472.3L110.2,472.3z"/>
	</g>
</g>
<g>
	<g>
		<path fill="#404041" d="M103.3,475.8c7.4-1.8,16.2-3.7,23.2,0.5c7.5,4.5,10.3,14.1,11.5,22.1c1.4,9.4,1.5,19.2,1,28.7
			c-0.3,5.1-0.6,10.5-4.3,14.5c-3.1,3.4-7.6,5.1-11.8,6.5c-18.8,6.2-39,8.3-58.7,6.5c-9.9-0.9-19.4-2.6-24.7-12
			c-4-7.1-5.1-15.7-6.3-23.7c-1.6-11-3-22.8-2.2-33.9c0.2-3,0.8-7,2.6-9.5c1.4-2,3.4-2.4,5.8-2.7c3.1-0.3,7.2-0.4,9.9,1.5
			c1.1,0.8,2.1-1,1-1.8c-4-2.9-12.9-3-17-0.1c-2.7,1.9-3.3,5.8-3.9,8.8c-1.1,5.8-0.5,12.1-0.2,17.9c0.6,11.6,1.7,23.6,4.8,34.9
			c2.2,8.2,6.4,16.1,14.5,19.5c10.2,4.3,23.5,3.9,34.4,3.5c12.3-0.5,24.5-2.4,36.3-5.8c8.2-2.4,17.6-5.4,20.5-14.4
			c1.5-4.6,1.4-9.9,1.5-14.6c0.2-6.5,0-13.1-0.7-19.6c-1-9.7-3.3-20.9-11.5-27.2c-7.6-5.8-17.8-3.9-26.3-1.8
			C101.5,474.2,102.1,476.1,103.3,475.8L103.3,475.8z"/>
	</g>
</g>
<g>
	<path fill="#404041" d="M42.4,637h1.7v-17.5h-1.7v-1.9h6.4c1.5,0,2.8,0.2,4.1,0.7c1.3,0.5,2.4,1.2,3.4,2.1c1,0.9,1.7,2.1,2.3,3.4
		c0.6,1.3,0.9,2.8,0.9,4.4c0,1.2-0.2,2.4-0.6,3.7c-0.4,1.3-1.1,2.4-2,3.4c-0.9,1-2.1,1.9-3.6,2.5c-1.5,0.7-3.3,1-5.5,1h-5.3V637z
		 M46,619.5V637h2.4c1.4,0,2.7-0.2,3.9-0.7c1.1-0.5,2.1-1.1,2.9-1.9c0.8-0.8,1.4-1.7,1.8-2.8c0.4-1.1,0.6-2.2,0.6-3.4
		c0-1.3-0.2-2.5-0.7-3.6c-0.5-1.1-1.1-2-1.9-2.8c-0.8-0.8-1.8-1.3-2.9-1.8c-1.1-0.4-2.3-0.6-3.5-0.6H46z"/>
	<path fill="#404041" d="M72.9,631.9l-8.8,3.4c0.3,0.6,0.8,1.1,1.4,1.4c0.6,0.4,1.3,0.5,2.1,0.5c0.5,0,1.1-0.1,1.5-0.3
		c0.5-0.2,0.9-0.5,1.2-0.8c0.2,0.2,0.4,0.5,0.6,0.7c0.2,0.2,0.4,0.5,0.6,0.7c-0.5,0.5-1.1,0.9-1.8,1.2c-0.7,0.3-1.4,0.4-2.1,0.4
		c-0.8,0-1.6-0.2-2.3-0.5c-0.7-0.3-1.4-0.7-1.9-1.3c-0.5-0.5-1-1.2-1.3-1.9c-0.3-0.7-0.5-1.5-0.5-2.3c0-0.8,0.2-1.6,0.5-2.3
		c0.3-0.7,0.7-1.4,1.3-1.9c0.5-0.5,1.2-1,1.9-1.3s1.5-0.5,2.3-0.5c0.6,0,1.2,0.1,1.8,0.3c0.6,0.2,1.1,0.6,1.5,1
		c0.5,0.4,0.9,0.9,1.2,1.5C72.5,630.6,72.8,631.2,72.9,631.9z M67.6,629.1c-0.6,0-1.2,0.1-1.7,0.4s-1,0.6-1.3,1s-0.6,0.9-0.8,1.4
		c-0.2,0.5-0.2,1.1-0.2,1.7c1.2-0.4,2.3-0.9,3.5-1.3s2.3-0.9,3.5-1.3c-0.3-0.5-0.7-0.9-1.2-1.3C68.8,629.2,68.2,629.1,67.6,629.1z"
		/>
	<path fill="#404041" d="M75.2,627.4h6.2v1.9h-1.8c0.6,1.1,1.2,2.3,1.9,3.4c0.6,1.2,1.1,2.3,1.6,3.5c0.5-1.1,1-2.3,1.6-3.4
		c0.6-1.2,1.2-2.3,1.9-3.5h-1.8v-1.9h6.1v1.9h-2.4c-0.9,1.7-1.8,3.4-2.7,5.1c-0.9,1.7-1.8,3.4-2.7,5.1c-0.9-1.7-1.8-3.4-2.7-5.1
		c-0.9-1.7-1.8-3.4-2.7-5.1h-2.4V627.4z"/>
	<path fill="#404041" d="M93,633.1c0-0.8,0.2-1.6,0.5-2.3c0.3-0.7,0.7-1.4,1.3-1.9c0.5-0.5,1.2-1,1.9-1.3s1.5-0.5,2.3-0.5
		c0.9,0,1.6,0.2,2.4,0.5s1.4,0.7,1.9,1.3c0.5,0.5,1,1.2,1.3,1.9c0.3,0.7,0.5,1.5,0.5,2.3c0,0.8-0.2,1.6-0.5,2.3
		c-0.3,0.7-0.7,1.3-1.3,1.9c-0.5,0.5-1.2,1-1.9,1.3c-0.7,0.3-1.5,0.5-2.4,0.5c-0.8,0-1.6-0.2-2.3-0.5c-0.7-0.3-1.4-0.7-1.9-1.3
		c-0.5-0.5-1-1.2-1.3-1.9C93.1,634.7,93,634,93,633.1z M94.9,633.2c0,0.6,0.1,1.1,0.3,1.6s0.5,0.9,0.9,1.3c0.4,0.4,0.8,0.6,1.3,0.9
		c0.5,0.2,1,0.3,1.6,0.3c0.6,0,1.1-0.1,1.6-0.3c0.5-0.2,1-0.5,1.3-0.9s0.7-0.8,0.9-1.3c0.2-0.5,0.3-1,0.3-1.6c0-0.6-0.1-1.1-0.3-1.6
		c-0.2-0.5-0.5-0.9-0.9-1.3c-0.4-0.4-0.8-0.7-1.3-0.9c-0.5-0.2-1-0.3-1.6-0.3c-0.6,0-1.1,0.1-1.6,0.3c-0.5,0.2-0.9,0.5-1.3,0.9
		c-0.4,0.4-0.7,0.8-0.9,1.3C95,632.1,94.9,632.6,94.9,633.2z"/>
	<path fill="#404041" d="M107.2,627.4h4v7.5c0,0.6,0.3,1.1,0.7,1.6c0.4,0.4,1,0.7,1.8,0.7c0.6,0,1.1-0.1,1.6-0.3
		c0.5-0.2,1-0.5,1.4-0.8s0.7-0.8,1-1.2c0.2-0.5,0.4-1,0.4-1.5v-4h-2.1v-1.9h4v9.8h2v1.6h-3.8l0-1.6l0.1-1.4c-0.4,1-1.1,1.7-2,2.3
		c-0.9,0.6-1.9,0.9-3,0.9c-1.2,0-2.1-0.3-2.7-0.9c-0.7-0.6-1-1.4-1.1-2.4v-6.4h-2.1V627.4z"/>
	<path fill="#404041" d="M124,637.1h2.3v-7.7h-2.1v-1.9h3.7l0,0.7c0,0.4,0,0.8,0.1,1.1c0,0.3,0.1,0.7,0.1,1.1c0.2-0.5,0.5-1,0.9-1.4
		c0.4-0.4,0.8-0.7,1.2-1c0.4-0.3,0.8-0.5,1.3-0.6c0.4-0.1,0.8-0.2,1.2-0.2l-0.1,1.9c-0.6,0-1.2,0.1-1.7,0.3c-0.5,0.2-1,0.5-1.4,0.8
		c-0.4,0.3-0.7,0.8-0.9,1.2c-0.2,0.5-0.3,1-0.3,1.6v4.1h2.1v1.8H124V637.1z"/>
</g>
<g>
	<path fill="#404041" d="M243.4,636.3v-3.4h1.9v2.7c0.5,0.5,1.2,0.9,2,1.2s1.7,0.5,2.7,0.5c0.6,0,1.2-0.1,1.7-0.3
		c0.6-0.2,1-0.4,1.5-0.8c0.4-0.3,0.8-0.8,1-1.3s0.4-1.1,0.4-1.7c0-1.1-0.2-2-0.7-2.6c-0.5-0.6-1.1-1.1-1.9-1.4s-1.6-0.6-2.5-0.8
		c-0.9-0.2-1.7-0.5-2.5-0.9c-0.8-0.4-1.4-0.9-1.9-1.5s-0.8-1.6-0.8-2.8c0-0.7,0.1-1.3,0.3-2c0.2-0.7,0.5-1.3,1-1.8s1.1-1,1.8-1.3
		c0.7-0.3,1.6-0.5,2.7-0.5c0.7,0,1.5,0.1,2.4,0.3c0.9,0.2,1.8,0.7,2.7,1.4v3.1h-1.9v-2.2c-0.4-0.2-0.9-0.4-1.4-0.5
		c-0.6-0.1-1.2-0.2-1.9-0.2c-0.6,0-1.2,0.1-1.7,0.3c-0.5,0.2-0.9,0.5-1.2,0.8c-0.3,0.3-0.5,0.7-0.7,1.2s-0.2,0.9-0.2,1.4
		c0,0.9,0.3,1.6,0.8,2c0.5,0.5,1.1,0.8,1.9,1.1c0.8,0.3,1.6,0.6,2.5,0.8c0.9,0.2,1.7,0.6,2.5,1c0.8,0.5,1.4,1.1,1.9,1.9
		c0.5,0.8,0.8,1.8,0.8,3.2c0,0.9-0.2,1.7-0.5,2.5c-0.3,0.7-0.8,1.4-1.4,1.9c-0.6,0.5-1.3,0.9-2,1.2s-1.6,0.4-2.5,0.4
		c-0.8,0-1.5-0.1-2.2-0.2c-0.7-0.2-1.3-0.4-1.9-0.7s-1.1-0.6-1.5-0.9C243.9,637,243.6,636.6,243.4,636.3z"/>
	<path fill="#404041" d="M265.8,637.1h0.9c-0.5-0.6-0.9-1.2-1.4-1.8c-0.4-0.6-0.9-1.2-1.3-1.8l-1.7,1.6v2h2.2v1.8h-6.3v-1.8h2.3
		v-19.1h-2.1v-1.9h4v16.7l3.7-3.5h-1.5v-1.9h5.9v1.9h-2c-0.5,0.5-1,1-1.5,1.4s-1,0.9-1.5,1.4c0.6,0.8,1.2,1.6,1.8,2.4
		c0.6,0.8,1.2,1.6,1.8,2.4h2.7v1.8h-5.9V637.1z"/>
	<path fill="#404041" d="M285.1,631.9l-8.8,3.4c0.3,0.6,0.8,1.1,1.4,1.4c0.6,0.4,1.3,0.5,2.1,0.5c0.5,0,1.1-0.1,1.5-0.3
		c0.5-0.2,0.9-0.5,1.2-0.8c0.2,0.2,0.4,0.5,0.6,0.7c0.2,0.2,0.4,0.5,0.6,0.7c-0.5,0.5-1.1,0.9-1.8,1.2c-0.7,0.3-1.4,0.4-2.1,0.4
		c-0.8,0-1.6-0.2-2.3-0.5c-0.7-0.3-1.4-0.7-1.9-1.3c-0.5-0.5-1-1.2-1.3-1.9c-0.3-0.7-0.5-1.5-0.5-2.3c0-0.8,0.2-1.6,0.5-2.3
		c0.3-0.7,0.7-1.4,1.3-1.9c0.5-0.5,1.2-1,1.9-1.3s1.5-0.5,2.3-0.5c0.6,0,1.2,0.1,1.8,0.3c0.6,0.2,1.1,0.6,1.5,1
		c0.5,0.4,0.9,0.9,1.2,1.5C284.6,630.6,284.9,631.2,285.1,631.9z M279.8,629.1c-0.6,0-1.2,0.1-1.7,0.4s-1,0.6-1.3,1
		s-0.6,0.9-0.8,1.4c-0.2,0.5-0.2,1.1-0.2,1.7c1.2-0.4,2.3-0.9,3.5-1.3s2.3-0.9,3.5-1.3c-0.3-0.5-0.7-0.9-1.2-1.3
		C280.9,629.2,280.4,629.1,279.8,629.1z"/>
	<path fill="#404041" d="M289.9,620h1.9v7.4h3.2v1.9h-3.2v7.7h2.4v1.8h-4.3v-9.5h-2.6v-1.9h2.6V620z"/>
	<path fill="#404041" d="M306.9,637.8c-0.5,0.4-1.1,0.7-1.7,1s-1.3,0.3-2.1,0.3c-0.8,0-1.6-0.2-2.3-0.5c-0.7-0.3-1.4-0.7-1.9-1.3
		c-0.5-0.5-1-1.2-1.3-1.9c-0.3-0.7-0.5-1.5-0.5-2.3c0-0.8,0.2-1.6,0.5-2.3c0.3-0.7,0.7-1.4,1.3-1.9c0.5-0.5,1.2-1,1.9-1.3
		s1.5-0.5,2.3-0.5c0.7,0,1.4,0.1,2.1,0.3c0.6,0.2,1.2,0.6,1.7,1v3.3h-1.7v-2.1c-0.7-0.4-1.4-0.6-2.1-0.6c-0.6,0-1.1,0.1-1.6,0.3
		c-0.5,0.2-0.9,0.5-1.3,0.9s-0.7,0.8-0.9,1.3c-0.2,0.5-0.3,1-0.3,1.6c0,0.6,0.1,1.1,0.3,1.6s0.5,0.9,0.9,1.3s0.8,0.6,1.3,0.9
		c0.5,0.2,1.1,0.3,1.6,0.3c0.5,0,1-0.1,1.4-0.2c0.4-0.1,0.8-0.4,1.2-0.6L306.9,637.8z"/>
	<path fill="#404041" d="M317.8,637.1h2.4v-5.7c0-0.6-0.3-1.1-0.7-1.5c-0.4-0.4-1-0.7-1.8-0.7c-0.6,0-1.1,0.1-1.7,0.3
		c-0.5,0.2-1,0.5-1.4,0.8c-0.4,0.3-0.7,0.8-1,1.2c-0.2,0.5-0.3,1-0.3,1.6v4.1h2.1v1.8h-6.3v-1.8h2.3v-19.1h-2.3v-1.9h4.2v13
		l-0.1,1.4c0.4-1,1.1-1.7,2-2.3c0.9-0.6,1.9-0.9,3-0.9c1.2,0,2.1,0.3,2.7,0.9c0.7,0.6,1,1.4,1.1,2.5v6.4h2.1v1.8h-6.3V637.1z"/>
</g>
<g>
	<path fill="#404041" d="M448.2,637.1h1.6v-17.6h-1.6v-1.9h6.4c0.7,0,1.4,0.1,2.2,0.3c0.8,0.2,1.5,0.5,2.2,1s1.3,1,1.7,1.7
		s0.7,1.6,0.7,2.6c0,1.8-0.5,3.2-1.6,4.3c-1.1,1.1-2.7,1.6-4.8,1.6h-3.3v8h3.3v1.8h-6.7V637.1z M451.7,627.2h2.9
		c1,0,1.8-0.1,2.4-0.4s1.2-0.6,1.5-1c0.4-0.4,0.6-0.8,0.8-1.3s0.2-0.9,0.2-1.4c0-0.5-0.1-1-0.4-1.4c-0.3-0.5-0.6-0.9-1-1.2
		c-0.4-0.3-1-0.6-1.6-0.8c-0.6-0.2-1.3-0.3-2-0.3h-2.9V627.2z"/>
	<path fill="#404041" d="M463.6,637.1h2.3v-19.1h-2.1v-1.9h4v21h2.2v1.8h-6.3V637.1z"/>
	<path fill="#404041" d="M472.1,633.2c0-0.8,0.2-1.6,0.5-2.3c0.3-0.7,0.7-1.4,1.3-1.9c0.5-0.5,1.2-1,1.9-1.3
		c0.7-0.3,1.5-0.5,2.4-0.5c0.6,0,1.1,0.1,1.6,0.2c0.5,0.2,0.9,0.4,1.3,0.6s0.7,0.5,1,0.8c0.3,0.3,0.4,0.5,0.5,0.7c0-0.3,0-0.7,0-1
		s0.1-0.7,0.1-1h1.5v9.6h2.3v1.8h-4v-0.9v-1c-0.1,0.2-0.2,0.4-0.5,0.7s-0.5,0.5-0.9,0.7c-0.4,0.2-0.8,0.4-1.3,0.6
		c-0.5,0.2-1,0.2-1.7,0.2c-0.9,0-1.6-0.2-2.4-0.5c-0.7-0.3-1.4-0.7-1.9-1.3c-0.5-0.5-1-1.2-1.3-1.9
		C472.2,634.7,472.1,634,472.1,633.2z M473.9,633.1c0,0.6,0.1,1.1,0.3,1.6c0.2,0.5,0.5,0.9,0.9,1.3c0.4,0.4,0.8,0.6,1.3,0.9
		c0.5,0.2,1.1,0.3,1.6,0.3s1.1-0.1,1.6-0.3c0.5-0.2,0.9-0.5,1.3-0.9c0.4-0.4,0.7-0.8,0.9-1.3c0.2-0.5,0.3-1,0.3-1.6
		c0-0.6-0.1-1.1-0.3-1.6c-0.2-0.5-0.5-0.9-0.9-1.3c-0.4-0.4-0.8-0.6-1.3-0.9c-0.5-0.2-1.1-0.3-1.6-0.3s-1.1,0.1-1.6,0.3
		c-0.5,0.2-0.9,0.5-1.3,0.9c-0.4,0.4-0.7,0.8-0.9,1.3C474.1,632,473.9,632.6,473.9,633.1z"/>
	<path fill="#404041" d="M497.2,637.1h2.4v-5.7c0-0.6-0.3-1.1-0.7-1.5c-0.4-0.4-1-0.7-1.8-0.7c-0.6,0-1.1,0.1-1.7,0.3
		c-0.5,0.2-1,0.5-1.4,0.8c-0.4,0.3-0.7,0.8-1,1.2c-0.2,0.5-0.3,1-0.3,1.6v4.1h2.1v1.8h-6.3v-1.8h2.3v-7.8h-2.1v-1.9h3.7l0,0.7
		c0,0.4,0,0.8,0.1,1.1c0,0.3,0.1,0.7,0.1,1.1c0.4-1,1.1-1.7,2-2.3c0.9-0.6,1.9-0.9,3-0.9c1.2,0,2.1,0.3,2.7,0.9
		c0.7,0.6,1,1.4,1.1,2.5v6.4h2.1v1.8h-6.3V637.1z"/>
</g>
<text transform="matrix(1 0 0 1 650.5015 638.8434)" fill="#404041" font-family="'JosefinSlab-SemiBold'" font-size="30.3916">Do</text>
</svg>
