<?xml version="1.0" encoding="utf-8"?>
<!-- Generator: Adobe Illustrator 19.2.1, SVG Export Plug-In . SVG Version: 6.00 Build 0)  -->
<svg version="1.1" xmlns="http://www.w3.org/2000/svg" xmlns:xlink="http://www.w3.org/1999/xlink" x="0px" y="0px"
	 viewBox="0 0 360 360" enable-background="new 0 0 360 360" xml:space="preserve">
<g id="bg">
	<rect fill="#FFC2DE" width="360" height="360"/>
	<radialGradient id="SVGID_1_" cx="180.8971" cy="309.383" r="99.4506" gradientUnits="userSpaceOnUse">
		<stop  offset="0" style="stop-color:#603813"/>
		<stop  offset="1" style="stop-color:#FFFFFF"/>
	</radialGradient>
	<ellipse opacity="0.1" fill="url(#SVGID_1_)" cx="180.9" cy="309.4" rx="93.3" ry="4.4"/>
	<text transform="matrix(1 0 0 1 35.0689 37.0415)"><tspan x="0" y="0" fill="#5E5E5E" font-family="'AmaticSC-Bold'" font-size="20px">“ If</tspan><tspan x="19.2" y="0" fill="#5E5E5E" font-family="'AmaticSC-Bold'" font-size="20px"> </tspan><tspan x="22.8" y="0" fill="#5E5E5E" font-family="'AmaticSC-Bold'" font-size="20px">yo</tspan><tspan x="35" y="0" fill="#5E5E5E" font-family="'AmaticSC-Bold'" font-size="20px" letter-spacing="1">u</tspan><tspan x="43" y="0" fill="#5E5E5E" font-family="'AmaticSC-Bold'" font-size="20px"> like</tspan><tspan x="68.2" y="0" fill="#5E5E5E" font-family="'AmaticSC-Bold'" font-size="20px">d</tspan><tspan x="75.3" y="0" fill="#5E5E5E" font-family="'AmaticSC-Bold'" font-size="20px"> i</tspan><tspan x="83.5" y="0" fill="#5E5E5E" font-family="'AmaticSC-Bold'" font-size="20px">t</tspan><tspan x="89.7" y="0" fill="#5E5E5E" font-family="'AmaticSC-Bold'" font-size="20px"> the</tspan><tspan x="109.1" y="0" fill="#5E5E5E" font-family="'AmaticSC-Bold'" font-size="20px">n</tspan><tspan x="117.4" y="0" fill="#5E5E5E" font-family="'AmaticSC-Bold'" font-size="20px"> yo</tspan><tspan x="132.4" y="0" fill="#5E5E5E" font-family="'AmaticSC-Bold'" font-size="20px">u</tspan><tspan x="140.1" y="0" fill="#5E5E5E" font-family="'AmaticSC-Bold'" font-size="20px"> should</tspan><tspan x="178.6" y="0" fill="#5E5E5E" font-family="'AmaticSC-Bold'" font-size="20px">a</tspan><tspan x="186" y="0" fill="#5E5E5E" font-family="'AmaticSC-Bold'" font-size="20px"> pu</tspan><tspan x="200.9" y="0" fill="#5E5E5E" font-family="'AmaticSC-Bold'" font-size="20px">t</tspan><tspan x="207.1" y="0" fill="#5E5E5E" font-family="'AmaticSC-Bold'" font-size="20px"> </tspan><tspan x="210" y="0" fill="#5E5E5E" font-family="'AmaticSC-Bold'" font-size="20px">a</tspan><tspan x="217.3" y="0" fill="#5E5E5E" font-family="'AmaticSC-Bold'" font-size="20px"> rin</tspan><tspan x="238.5" y="0" fill="#5E5E5E" font-family="'AmaticSC-Bold'" font-size="20px">g</tspan><tspan x="245.7" y="0" fill="#5E5E5E" font-family="'AmaticSC-Bold'" font-size="20px"> on</tspan><tspan x="262.6" y="0" fill="#5E5E5E" font-family="'AmaticSC-Bold'" font-size="20px"> </tspan><tspan x="266.2" y="0" fill="#5E5E5E" font-family="'AmaticSC-Bold'" font-size="20px">it! ”</tspan></text>
</g>
<g id="Layer_2">
</g>
<g id="Layer_3">
</g>
<g id="Layer_10">
</g>
<g id="Layer_4">
</g>
<g id="Layer_5">
</g>
<g id="Layer_6">
</g>
<g id="Layer_7">
	<path fill="#005CFF" d="M209.2,82.5l-55.3,1.4c0,0,1.8,10.9-17,19.5c-13,6-12.7,25.3-9.7,41S116,163.5,116,163.5
		s50.4,63.2,107.2,12.5C244,157.3,254.5,97,209.2,82.5z"/>
	<g>
		<path fill="#003E99" d="M155.5,91.3c0,0-0.5,1.3-1.8,3.3c-0.6,1-1.5,2.2-2.5,3.5c-1,1.3-2.3,2.7-3.7,4.2c-1.5,1.4-3.1,2.9-5.1,4.3
			c-0.9,0.7-1.8,1.5-2.7,2.2c-0.8,0.9-1.7,1.6-2.3,2.7c-0.8,0.9-1.3,2.1-1.9,3.2c-0.2,0.6-0.4,1.2-0.7,1.8c-0.2,0.6-0.3,1.2-0.5,1.8
			c-0.6,2.5-0.9,5.1-0.9,7.8c0,2.7,0.2,5.3,0.4,8c0.3,2.6,0.6,5.2,0.9,7.8c0.3,2.5,0.6,4.9,0.8,7.3c0.2,2.3,0.2,4.7-0.3,6.7
			c-0.4,2.1-1.3,3.9-2.4,5.2c-1.1,1.3-2.4,2.1-3.5,2.7c-0.3,0.1-0.5,0.2-0.8,0.3c-0.3,0.1-0.5,0.2-0.7,0.2c-0.4,0.1-0.8,0.2-1.1,0.3
			c-0.6,0.1-1,0.2-1,0.2s0.3-0.1,0.9-0.3c0.3-0.1,0.7-0.2,1.1-0.4c0.4-0.2,0.9-0.4,1.4-0.7c1-0.6,2.1-1.5,3-2.8
			c0.9-1.3,1.6-3,1.9-4.9c0.1-1,0.2-2,0.2-3.1c0-1.1-0.1-2.1-0.3-3.3c-0.4-2.3-0.7-4.7-1.1-7.2c-0.4-2.5-0.8-5.1-1.1-7.8
			c-0.3-2.7-0.5-5.4-0.5-8.2c0-2.8,0.3-5.6,1-8.2c0.2-0.7,0.3-1.3,0.6-2c0.3-0.6,0.5-1.3,0.8-1.9c0.7-1.2,1.3-2.4,2.2-3.4
			c0.7-1.1,1.8-2,2.7-2.9c1-0.8,1.9-1.4,2.9-2.2c1.9-1.3,3.6-2.6,5.1-3.9c3-2.6,5.3-5.2,6.7-7.1C154.8,92.5,155.5,91.3,155.5,91.3z"
			/>
	</g>
	<ellipse fill="#005CFF" cx="182.5" cy="82.5" rx="32.5" ry="28.7"/>
	<g>
		<path fill="#003E99" d="M157.3,94.1c0,0-0.2,0.7-0.6,1.9c-0.5,1.2-1.2,2.9-2.3,4.9c-0.5,1-1.2,2-1.9,3.1c-0.8,1.1-1.6,2.2-2.5,3.2
			c-0.9,1.1-2,2.1-3.2,3c-0.5,0.4-1.1,0.9-1.6,1.4l-0.7,0.7c-0.2,0.3-0.4,0.5-0.7,0.8c-0.5,0.5-0.8,1.1-1.2,1.7
			c-0.3,0.6-0.7,1.2-0.9,1.8c-0.6,1.3-0.9,2.6-1.2,3.9c-0.2,1.3-0.4,2.6-0.4,3.8c0,0.6,0,1.2,0,1.8c0,0.6,0,1.2,0,1.7
			c0.1,2.2,0.3,4,0.4,5.3c0.1,1.3,0.2,2,0.2,2s-0.2-0.7-0.6-1.9c-0.2-0.6-0.4-1.4-0.6-2.3c-0.2-0.9-0.4-1.9-0.6-3
			c-0.1-0.6-0.2-1.1-0.2-1.7c-0.1-0.6-0.1-1.2-0.1-1.9c-0.1-1.3,0-2.7,0.2-4.1c0.2-1.4,0.5-2.9,1.1-4.3c0.3-0.7,0.7-1.4,1-2.1
			c0.4-0.6,0.8-1.3,1.3-1.9c0.3-0.3,0.5-0.6,0.8-0.9l0.9-0.8c0.6-0.6,1.1-0.9,1.7-1.5c1.1-0.9,2.2-1.7,3.1-2.7
			c1-0.9,1.8-1.9,2.6-2.9c0.8-1,1.5-1.9,2.1-2.8c1.3-1.8,2.2-3.4,2.9-4.5C156.9,94.8,157.3,94.1,157.3,94.1z"/>
	</g>
	<g>
		<rect x="175.4" y="226.3" fill="#FFFEE6" width="3.6" height="72.9"/>
		<rect x="185.3" y="226.3" fill="#FFFEE6" width="3.6" height="72.9"/>
	</g>
	<path fill="#FFFEE6" d="M223.2,156.3c0,11.8-7.2,19.3-8.3,28c-1,7.8,2.7,11.1,2.8,17.6c0.2,25.9-18.8,30.1-34.3,30.2
		c-15,0-35.6-2.2-35.5-30.2c0-4.4,2.9-9.7,2-15.1c-1.5-8.7-9.5-7.2-7.9-30.5c3.7-57.2,17.7-78.3,40.1-78.3S223.2,99,223.2,156.3z"/>
	<path fill="#5E5E5E" d="M222.3,136.4c-10.4,22-32.8,37.2-58.8,37.2c-7.4,0-14.5-1.3-21.1-3.5c0.4,6.8,6.4,11.7,7.2,16.7
		c1,5.8-3.2,10.6-1.7,15.1h0c0,0,0,0,0,0c16.9,2.4,24.1,27.8,24,29.5c0,0,4.1,0.6,9.9,0.6c5.7,0,10.1-0.5,10.1-0.5
		c3.4-19.2,25.6-29.6,25.6-29.6c1.6-5.2-3.7-10.8-2.8-17.6c1.1-8,8.4-13.3,8.6-26.7C223.7,150.1,223.2,142.9,222.3,136.4z"/>
	<g>
		<path fill="#5E5E5E" d="M179,303.1h-9.3v-1.9c0-1.1,0.9-2,2-2h7.3V303.1z"/>
		<path fill="#5E5E5E" d="M185.3,303.1h9.3v-1.9c0-1.1-0.9-2-2-2h-7.3V303.1z"/>
	</g>
	<rect x="176.9" y="299.4" fill="#5E5E5E" width="2.1" height="8.8"/>
	<path fill="#5E5E5E" d="M173.2,308.6h1.5v-6.5h-4.9v3.1C169.8,307.1,171.3,308.6,173.2,308.6z"/>
	<g>
		<rect x="185.3" y="299.4" fill="#5E5E5E" width="2.1" height="8.8"/>
		<path fill="#5E5E5E" d="M189.7,302.1v3.1c0,1.9,1.5,3.4,3.4,3.4h1.5v-6.5H189.7z"/>
	</g>
	<g>
		<path fill="#FFFEE6" d="M146,200.7c-0.5,0-0.9-0.2-1.3-0.5l-9.2-9.7c-0.5-0.5-0.6-1.2-0.4-1.8l7.2-18.7c0.3-0.9,1.4-1.3,2.3-1
			c0.9,0.3,1.4,1.4,1,2.3l-6.8,17.6l8.5,8.9c0.7,0.7,0.6,1.8-0.1,2.5C146.9,200.5,146.5,200.7,146,200.7z"/>
	</g>
	
		<ellipse transform="matrix(0.8258 -0.5639 0.5639 0.8258 -86.7321 117.0098)" fill="#FFFEE6" cx="146" cy="198.9" rx="4" ry="3.8"/>
	<g>
		<path fill="#5E5E5E" d="M228.8,190.2c-0.1,0-0.1,0-0.2,0c-0.7-0.1-1.2-0.5-1.5-1.1l-9.2-25c-0.3-0.9,0.1-1.9,1-2.2
			c0.9-0.3,1.9,0.1,2.2,1l8,21.6l7.1-11.8c0.5-0.8,1.6-1.1,2.4-0.6s1.1,1.6,0.6,2.4l-9,15C229.9,189.9,229.4,190.2,228.8,190.2z"/>
	</g>
	<g>
		<ellipse transform="matrix(0.1932 -0.9812 0.9812 0.1932 23.299 375.5292)" fill="#FFFEE6" cx="240" cy="173.6" rx="3.8" ry="4"/>
	</g>
	<g>
		<ellipse fill="#5E5E5E" cx="178.8" cy="115.2" rx="2.1" ry="3.8"/>
		<ellipse fill="#5E5E5E" cx="186.4" cy="115.2" rx="2.1" ry="3.8"/>
	</g>
	<g>
		<defs>
			<path id="SVGID_24_" d="M182.1,78c11.3,0,21.6,5.3,29.1,18c2.4-4,3.8-8.6,3.8-13.5c0-15.9-14.6-28.7-32.5-28.7S150,66.6,150,82.5
				c0,5.3,1.6,10.2,4.4,14.5C161.2,83.7,170.5,78,182.1,78z"/>
		</defs>
		<clipPath id="SVGID_2_">
			<use xlink:href="#SVGID_24_"  overflow="visible"/>
		</clipPath>
		<g clip-path="url(#SVGID_2_)">
			<path fill="#003E99" d="M166.5,83.9c0,0-1-1.9-1.8-5.2c-0.4-1.6-0.7-3.5-0.9-5.6c-0.1-1-0.1-2.1,0-3.2c0-1.1,0.2-2.2,0.3-3.3
				c0.2-1.1,0.5-2.2,0.8-3.3c0.2-0.5,0.4-1,0.6-1.5c0.2-0.5,0.5-1,0.7-1.5c0.5-0.9,1.1-1.8,1.7-2.6c0.6-0.8,1.2-1.4,1.8-2
				c0.6-0.6,1.2-1,1.8-1.4c0.6-0.4,1.1-0.7,1.5-0.9c0.9-0.4,1.4-0.7,1.4-0.7s-0.4,0.4-1.1,1c-0.4,0.3-0.7,0.7-1.2,1.2
				c-0.4,0.5-1,1-1.4,1.6c-0.5,0.6-1,1.3-1.5,2.1c-0.5,0.8-0.9,1.6-1.3,2.5c-0.4,0.9-0.7,1.8-1,2.8c-0.3,1-0.5,2-0.7,3
				c-0.2,1-0.3,2.1-0.4,3.1c-0.1,1-0.1,2.1-0.1,3c0,1,0,2,0.1,2.9c0.1,0.9,0.1,1.8,0.2,2.6C166.1,81.8,166.5,83.9,166.5,83.9z"/>
		</g>
		<g clip-path="url(#SVGID_2_)">
			<path fill="#003E99" d="M160.8,60.2c0,0-0.2,1.7-0.4,4.2c-0.1,1.3-0.2,2.7-0.3,4.3c0,0.8,0,1.6,0,2.4c0,0.8,0,1.6,0.1,2.4
				c0,0.8,0.1,1.6,0.2,2.4c0.1,0.8,0.2,1.6,0.4,2.3c0.2,0.7,0.4,1.4,0.6,2.1c0.2,0.6,0.5,1.3,0.8,1.8c0.3,0.5,0.5,1,0.8,1.5
				c0.3,0.4,0.5,0.8,0.7,1.1c0.5,0.6,0.7,0.9,0.7,0.9s-0.4-0.2-1-0.6c-0.3-0.2-0.7-0.5-1.1-0.9c-0.2-0.2-0.4-0.4-0.6-0.6
				c-0.2-0.2-0.4-0.5-0.6-0.7c-0.4-0.5-0.8-1.1-1.1-1.8c-0.4-0.7-0.7-1.4-0.9-2.2c-0.2-0.8-0.5-1.6-0.6-2.5
				c-0.2-0.9-0.3-1.7-0.3-2.6c-0.1-1.7,0-3.5,0.2-5.1c0.1-0.8,0.2-1.6,0.4-2.3c0.1-0.7,0.3-1.4,0.5-2
				C160,61.7,160.8,60.2,160.8,60.2z"/>
		</g>
		<g clip-path="url(#SVGID_2_)">
			<path fill="#003E99" d="M198.4,83.9c0,0,0.4-2.2,0.7-5.4c0.1-0.8,0.1-1.7,0.2-2.6c0.1-0.9,0.1-1.9,0.1-2.9c0-1-0.1-2-0.1-3
				c-0.1-1-0.2-2.1-0.4-3.1c-0.2-1-0.4-2-0.7-3c-0.3-1-0.6-1.9-1-2.8c-0.4-0.9-0.8-1.7-1.3-2.5c-0.5-0.8-1-1.5-1.5-2.1
				c-0.5-0.6-1-1.1-1.4-1.6c-0.5-0.4-0.9-0.9-1.2-1.2c-0.7-0.6-1.1-1-1.1-1s0.5,0.2,1.4,0.7c0.4,0.2,0.9,0.5,1.5,0.9
				c0.5,0.4,1.2,0.8,1.8,1.4c0.6,0.6,1.3,1.2,1.8,2c0.6,0.8,1.2,1.6,1.7,2.6c0.2,0.5,0.5,1,0.7,1.5c0.2,0.5,0.4,1,0.6,1.5
				c0.4,1.1,0.6,2.2,0.8,3.3c0.2,1.1,0.3,2.2,0.3,3.3c0.1,1.1,0,2.2,0,3.2c-0.1,2.1-0.5,4-0.9,5.6C199.4,82,198.4,83.9,198.4,83.9z"
				/>
		</g>
		<g clip-path="url(#SVGID_2_)">
			<path fill="#003E99" d="M204,60.2c0,0,0.8,1.5,1.5,4c0.2,0.6,0.4,1.3,0.5,2c0.1,0.7,0.3,1.5,0.4,2.3c0.2,1.6,0.3,3.3,0.2,5.1
				c-0.1,0.9-0.2,1.7-0.3,2.6c-0.1,0.9-0.4,1.7-0.6,2.5c-0.3,0.8-0.6,1.5-0.9,2.2c-0.3,0.7-0.8,1.3-1.1,1.8
				c-0.2,0.3-0.4,0.5-0.6,0.7c-0.2,0.2-0.4,0.4-0.6,0.6c-0.4,0.4-0.8,0.6-1.1,0.9c-0.6,0.4-1,0.6-1,0.6s0.3-0.3,0.7-0.9
				c0.2-0.3,0.5-0.7,0.7-1.1c0.3-0.4,0.5-0.9,0.8-1.5c0.3-0.6,0.5-1.2,0.8-1.8c0.2-0.7,0.4-1.4,0.6-2.1c0.2-0.7,0.3-1.5,0.4-2.3
				c0.1-0.8,0.2-1.6,0.2-2.4c0.1-0.8,0.1-1.6,0.1-2.4c0-0.8,0-1.6,0-2.4c-0.1-1.5-0.2-3-0.3-4.3C204.2,61.9,204,60.2,204,60.2z"/>
		</g>
	</g>
	<rect x="175.4" y="294.3" fill="#FF6300" width="3.6" height="1.4"/>
	<rect x="185.3" y="294.3" fill="#FF6300" width="3.6" height="1.4"/>
	<g>
		<path fill="#003E99" d="M212,88.1c0,0,3.1,2.3,6.9,6.6c1,1.1,2,2.3,3,3.6c1,1.3,2,2.7,3,4.2c1,1.5,1.9,3.1,2.8,4.8
			c0.9,1.7,1.7,3.4,2.4,5.2c0.7,1.8,1.4,3.6,1.9,5.4c0.3,0.9,0.5,1.8,0.7,2.7c0.2,0.9,0.4,1.8,0.6,2.7c0.1,0.9,0.3,1.8,0.4,2.6
			c0.1,0.9,0.2,1.7,0.2,2.5c0,0.8,0.1,1.6,0.1,2.4c0,0.8,0,1.5,0,2.2c0,1.4-0.2,2.8-0.3,3.9c-0.2,1.2-0.3,2.2-0.5,3
			c-0.4,1.6-0.6,2.6-0.6,2.6s0.1-0.9,0.2-2.6c0.1-0.8,0-1.8,0.1-3c0-0.6,0-1.2,0-1.8c0-0.6,0-1.3-0.1-2c-0.1-0.7-0.1-1.4-0.2-2.2
			c-0.1-0.8-0.2-1.5-0.3-2.3c-0.1-0.8-0.3-1.6-0.4-2.4c-0.2-0.8-0.3-1.7-0.5-2.5c-0.2-0.9-0.4-1.7-0.6-2.6c-0.3-0.9-0.5-1.7-0.8-2.6
			c-0.6-1.7-1.2-3.5-1.9-5.2c-0.7-1.7-1.5-3.4-2.3-5.1c-0.4-0.8-0.9-1.6-1.3-2.4c-0.5-0.8-0.9-1.6-1.3-2.3c-1.8-3-3.7-5.7-5.3-8
			C214.7,90.8,212,88.1,212,88.1z"/>
	</g>
	<path fill="#FF6300" d="M188.5,128.3c0-1.7-1.3-3-3-3s-3,1.3-3,3c0,0.1,0,0.3,0,0.4c0,0,0,0,0,0c0,0,0,0,0,0c0-0.1,0-0.3,0-0.4
		c0-1.7-1.3-3-3-3s-3,1.3-3,3c0,0,0,0.1,0,0.1c0,0.1,0,0.2,0,0.3c0,3.3,2.7,6,6,6s6-2.7,6-6c0-0.1,0-0.2,0-0.3
		C188.5,128.4,188.5,128.4,188.5,128.3z"/>
	<circle fill="none" stroke="#FF6300" stroke-width="4" stroke-miterlimit="10" cx="250.6" cy="166.8" r="8.7"/>
	<polygon fill="#F9E531" points="258.4,158.5 258.4,144 267.1,144 273.4,151.3 273.4,158.5 	"/>
	<line fill="none" stroke="#FF6300" stroke-width="4" stroke-miterlimit="10" x1="262.8" y1="139.1" x2="262.8" y2="132.7"/>
	<line fill="none" stroke="#FF6300" stroke-width="4" stroke-miterlimit="10" x1="285" y1="156.3" x2="278.6" y2="156.3"/>
	<line fill="none" stroke="#FF6300" stroke-width="4" stroke-miterlimit="10" x1="274.7" y1="144" x2="281.8" y2="137.7"/>
	<radialGradient id="SVGID_3_" cx="180.8971" cy="309.383" r="99.4506" gradientUnits="userSpaceOnUse">
		<stop  offset="0" style="stop-color:#603813"/>
		<stop  offset="1" style="stop-color:#FFFFFF"/>
	</radialGradient>
	<ellipse opacity="0.1" fill="url(#SVGID_3_)" cx="180.9" cy="309.4" rx="93.3" ry="4.4"/>
</g>
<g id="Layer_8">
</g>
<g id="Layer_11">
</g>
<g id="Layer_9">
</g>
</svg>
