<?xml version="1.0" encoding="utf-8"?>
<!-- Generator: Adobe Illustrator 19.2.1, SVG Export Plug-In . SVG Version: 6.00 Build 0)  -->
<svg version="1.1" xmlns="http://www.w3.org/2000/svg" xmlns:xlink="http://www.w3.org/1999/xlink" x="0px" y="0px"
	 viewBox="0 0 360 360" enable-background="new 0 0 360 360" xml:space="preserve">
<g id="bg">
	<rect x="0" fill="#FF6300" width="360" height="360"/>
	<radialGradient id="SVGID_1_" cx="180.8971" cy="309.383" r="99.4506" gradientUnits="userSpaceOnUse">
		<stop  offset="0" style="stop-color:#603813"/>
		<stop  offset="1" style="stop-color:#FFFFFF"/>
	</radialGradient>
	<ellipse opacity="0.1" fill="url(#SVGID_1_)" cx="180.9" cy="309.4" rx="93.3" ry="4.4"/>
</g>
<g id="Layer_2">
</g>
<g id="Layer_3">
</g>
<g id="Layer_10">
	<radialGradient id="SVGID_2_" cx="180.8971" cy="309.383" r="99.4506" gradientUnits="userSpaceOnUse">
		<stop  offset="0" style="stop-color:#603813"/>
		<stop  offset="1" style="stop-color:#FFFFFF"/>
	</radialGradient>
	<ellipse opacity="0.1" fill="url(#SVGID_2_)" cx="180.9" cy="309.4" rx="93.3" ry="4.4"/>
	<rect x="0" fill="none" width="360" height="360"/>
	<g>
		<path fill="#005CFF" d="M177.2,309.7H168v-1.9c0-1.1,0.9-2,2-2h7.3V309.7z"/>
		<path fill="#005CFF" d="M183.6,309.7h9.3v-1.9c0-1.1-0.9-2-2-2h-7.3V309.7z"/>
	</g>
	<g>
		<rect x="173.6" y="234.8" fill="#005CFF" width="3.6" height="72.9"/>
		<rect x="183.6" y="234.8" fill="#005CFF" width="3.6" height="72.9"/>
	</g>
	<rect x="168" y="172.6" fill="#A6A8AB" width="12.4" height="15.3"/>
	<rect x="97" y="193.9" fill="#FFF6C5" width="40.9" height="3.6"/>
	
		<rect x="101.1" y="193.7" transform="matrix(4.500382e-11 1 -1 4.500382e-11 298.618 92.7326)" fill="#5E5E5E" width="3.6" height="3.9"/>
	<ellipse fill="#FFFEE6" cx="98.3" cy="195.7" rx="3.8" ry="4"/>
	<rect x="222" y="193.9" fill="#FFF6C5" width="40.9" height="3.6"/>
	
		<rect x="255.3" y="193.7" transform="matrix(4.500406e-11 -1 1 4.500406e-11 61.382 452.7326)" fill="#5E5E5E" width="3.6" height="3.9"/>
	<ellipse fill="#FFFEE6" cx="261.7" cy="195.7" rx="3.8" ry="4"/>
	<ellipse fill="#FFFEE6" cx="180.4" cy="150.4" rx="74.2" ry="90"/>
	<path fill="#F9E531" d="M111.7,184.5c3,8.7,7,16.8,12,23.9c1.1,1.6,2.4,3.2,3.6,4.8h106.2c1.2-1.5,2.5-3.1,3.6-4.8
		c5-7.1,9-15.2,12-23.9H111.7z"/>
	<g>
		<ellipse fill="#58595B" cx="175.3" cy="122.2" rx="2.5" ry="5.1"/>
		<ellipse fill="#58595B" cx="185.5" cy="122.2" rx="2.5" ry="5.1"/>
	</g>
	<path fill="#5E5E5E" d="M181.5,60.4c-0.4,0-0.8,0-1.1,0c-0.4,0-0.8,0-1.1,0c-24.6,0.4-46.4,15.4-59.6,38.2
		c6.5,4.9,14.6,7.8,23.4,7.8c17.5,0,32.4-11.5,37.3-27.4c5,15.9,19.8,27.4,37.3,27.4c8.8,0,16.9-2.9,23.4-7.8
		C227.9,75.8,206.2,60.8,181.5,60.4z"/>
	<path fill="#5E5E5E" d="M186.5,188.2l-1.7-3.7h-3.6h-3.6l-1.7,3.7l3.8,3.2l-3.5,12.6c-0.2,0.7,0,1.4,0.5,1.9l3.1,3.2
		c0.8,0.8,2.1,0.8,2.9,0l3.1-3.2c0.5-0.5,0.7-1.2,0.5-1.9l-3.5-12.6L186.5,188.2z"/>
	<path fill="#005CFF" d="M180.4,240.4c20.8,0,39.6-10.4,53.1-27.2H127.3C140.8,229.9,159.6,240.4,180.4,240.4z"/>
	<path fill="#1C75F7" d="M214,213.2c-12.2,10.8-27.3,17.2-43.6,17.2c-15.6,0-30-5.8-42-15.8c13.4,15.9,31.7,25.8,52,25.8
		c20.8,0,39.6-10.4,53.1-27.2H214z"/>
	<path fill="#FFC2DE" d="M219.8,209h-8.6c-3.1,0-5.6-2.5-5.6-5.6v-10.3h19.8v10.3C225.4,206.5,222.9,209,219.8,209z"/>
	<rect x="205.6" y="193.1" fill="#5E5E5E" width="19.8" height="2.6"/>
	<path fill="#FFC2DE" d="M177.6,184.5l-2.2,5.4c-0.4,0.9-1.3,1.4-2.2,1.2l-37.1-6.6H177.6z"/>
	<path fill="#FFC2DE" d="M184.9,184.5l2.2,5.4c0.4,0.9,1.3,1.4,2.2,1.2l37.1-6.6H184.9z"/>
</g>
<g id="Layer_4">
</g>
<g id="Layer_5">
</g>
<g id="Layer_6">
</g>
<g id="Layer_7">
</g>
<g id="Layer_8">
</g>
<g id="Layer_11">
</g>
<g id="Layer_9">
	<text transform="matrix(1 0 0 1 122.9156 37.0415)" fill="#FFFEE6" font-family="'AmaticSC-Bold'" font-size="20px">“ You guys are huge! ”</text>
</g>
</svg>
