<?xml version="1.0" encoding="utf-8"?>
<!-- Generator: Adobe Illustrator 19.2.1, SVG Export Plug-In . SVG Version: 6.00 Build 0)  -->
<svg version="1.1" xmlns="http://www.w3.org/2000/svg" xmlns:xlink="http://www.w3.org/1999/xlink" x="0px" y="0px"
	 viewBox="0 0 360 360" enable-background="new 0 0 360 360" xml:space="preserve">
<g id="bg">
	<radialGradient id="SVGID_1_" cx="180.8971" cy="309.383" r="99.4506" gradientUnits="userSpaceOnUse">
		<stop  offset="0" style="stop-color:#603813"/>
		<stop  offset="1" style="stop-color:#FFFFFF"/>
	</radialGradient>
	<ellipse opacity="0.1" fill="url(#SVGID_1_)" cx="180.9" cy="309.4" rx="93.3" ry="4.4"/>
</g>
<g id="Layer_2">
</g>
<g id="Layer_3">
</g>
<g id="Layer_10">
</g>
<g id="Layer_4">
</g>
<g id="Layer_5">
	<rect x="0" fill="#005CFF" width="360" height="360"/>
	<g>
		<defs>
			<circle id="SVGID_21_" cx="119.9" cy="315.7" r="9.8"/>
		</defs>
		<clipPath id="SVGID_2_">
			<use xlink:href="#SVGID_21_"  overflow="visible"/>
		</clipPath>
		<circle clip-path="url(#SVGID_2_)" fill="#FF6300" cx="119.9" cy="315.7" r="9.8"/>
		<path clip-path="url(#SVGID_2_)" fill="none" stroke="#FFFFFF" stroke-miterlimit="10" d="M127.3,308.6c0,0-5.3,7.4,0.5,14.1"/>
		<path clip-path="url(#SVGID_2_)" fill="none" stroke="#FFFFFF" stroke-miterlimit="10" d="M113.2,308.4c0,0,5.3,7.4-0.5,14.1"/>
	</g>
	<ellipse id="XMLID_6_" fill="none" cx="119.9" cy="315.7" rx="9.4" ry="8.2"/>
	<path fill="#FFFEE6" d="M243.2,148.6c0,57.3-27.9,86.6-62.3,86.6s-62.3-29.3-62.3-86.6s27.9-87.2,62.3-87.2S243.2,91.3,243.2,148.6
		z"/>
	<g>
		<defs>
			<path id="XMLID_2_" d="M125.4,191.9c-0.5,3.8-1.6,9.2,1.8,14.1c1.2,1.7,4.5,4.8,5.7,6.5c1,1.4,6.3,2.2,16.8,3
				c5.2,0.4,9.5,0,10.6,0.3c9.9,2.7,27.9,4.9,42.6-0.6c1.1-0.4,22.1-1.2,24.1-1.6c4.9-1.2,7.1-7,7.4-7.4c3.9-5.6,2.1-11.7,2.1-14.2
				L125.4,191.9z"/>
		</defs>
		<use xlink:href="#XMLID_2_"  overflow="visible" fill="#FFC2DE"/>
		<clipPath id="XMLID_4_">
			<use xlink:href="#XMLID_2_"  overflow="visible"/>
		</clipPath>
		<g clip-path="url(#XMLID_4_)">
			<polygon fill="#005CFF" points="134.9,195.9 133.6,198.1 134.9,200.3 136.2,198.1 			"/>
			<polygon fill="#005CFF" points="134.9,205.7 133.6,208 134.9,210.2 136.2,208 			"/>
			<polygon fill="#005CFF" points="152.6,196.9 151.3,199.1 152.6,201.3 153.9,199.1 			"/>
			<polygon fill="#005CFF" points="152.6,206.7 151.3,209 152.6,211.2 153.9,209 			"/>
			<g>
				<polygon fill="#005CFF" points="143.7,199.8 142.4,202 143.7,204.2 145,202 				"/>
				<polygon fill="#005CFF" points="143.7,209.7 142.4,211.9 143.7,214.1 145,211.9 				"/>
			</g>
		</g>
		<g clip-path="url(#XMLID_4_)">
			<polygon fill="#005CFF" points="228.1,195.9 229.4,198.1 228.1,200.3 226.8,198.1 			"/>
			<polygon fill="#005CFF" points="228.1,205.7 229.4,208 228.1,210.2 226.8,208 			"/>
			<polygon fill="#005CFF" points="210.4,196.9 211.7,199.1 210.4,201.3 209,199.1 			"/>
			<polygon fill="#005CFF" points="210.4,206.7 211.7,209 210.4,211.2 209,209 			"/>
			<g>
				<polygon fill="#005CFF" points="219.2,199.8 220.5,202 219.2,204.2 217.9,202 				"/>
				<polygon fill="#005CFF" points="219.2,209.7 220.5,211.9 219.2,214.1 217.9,211.9 				"/>
			</g>
		</g>
	</g>
	<rect x="231.9" y="200.5" fill="#FFC2DE" width="3.6" height="40.9"/>
	<ellipse fill="#F4CD86" cx="233.7" cy="240.2" rx="4" ry="3.8"/>
	<rect x="126.4" y="200.5" fill="#FFC2DE" width="3.6" height="31.8"/>
	<g>
		<path fill="#F9E531" d="M181,235.3c18,0,34.2-7.4,46.1-21.7h-92.1C146.7,228,163,235.3,181,235.3z"/>
	</g>
	<path fill="none" stroke="#FFFFFF" stroke-width="3" stroke-linecap="round" stroke-miterlimit="10" d="M135.9,235.2h-5.5
		c-9.8,0-10.6,7.5-10.6,16.7v58.8"/>
	<path fill="#FF6300" d="M117.5,309.2c0,0,0.9,0.5,2.1,0.7c0.7,0.1,1.5,0.3,2.5-0.1l0.4,2.6h-5.2L117.5,309.2z"/>
	<path fill="none" stroke="#EE4036" stroke-width="0.5" stroke-linecap="round" stroke-miterlimit="10" d="M117.5,309
		c0,0,2.9,1.6,4.6,0.6"/>
	<g>
		<ellipse fill="#5E5E5E" cx="166.6" cy="115" rx="2.5" ry="4"/>
		<ellipse fill="#5E5E5E" cx="195.4" cy="115" rx="2.5" ry="4"/>
	</g>
	<polygon fill="#FFFFFF" points="152.2,191.9 181,200.5 209.7,191.9 	"/>
	<g>
		<path fill="#005CFF" d="M152.2,193c2.5,0.6,4.9,1.3,7.3,1.9c0.6,0.2,1.2,0.4,1.8,0.6l1.8,0.6l3.6,1.2l14.4,4.8l-0.3,0l15.2-4.8
			l7.6-2.4c2.6-0.6,5.2-1.3,7.7-1.9c-2.5,1-5,1.9-7.4,2.9l-7.6,2.4l-15.2,4.8l-0.2,0l-0.2-0.1l-14.4-4.8l-3.6-1.2l-1.8-0.6
			c-0.6-0.2-1.2-0.4-1.8-0.6C156.9,194.9,154.5,194,152.2,193z"/>
	</g>
	<g>
		<g>
			<path fill="#FF6300" d="M174.6,138.4h-52V95.8h52V138.4z M125.6,135.4h46V98.8h-46V135.4z"/>
		</g>
		<g>
			<path fill="#FF6300" d="M239.4,138.4h-52V95.8h52V138.4z M190.3,135.4h46V98.8h-46V135.4z"/>
		</g>
		<rect x="173.4" y="105.3" fill="#FF6300" width="15.5" height="7.9"/>
	</g>
	<g>
		<path fill="#F9E531" d="M176.6,309h-8.1v-1.4c0-1.1,0.9-2,2-2h6.1V309z"/>
		<path fill="#F9E531" d="M182.9,309h8.1v-1.4c0-1.1-0.9-2-2-2h-6.1V309z"/>
	</g>
	<g>
		<polyline fill="#F9E531" points="186.6,231.4 186.6,305.5 182.9,305.5 182.9,231.4 		"/>
		<polyline fill="#F9E531" points="176.6,231.4 176.6,305.5 173,305.5 173,231.4 		"/>
	</g>
	<circle fill="#404041" cx="169.1" cy="66.5" r="1.2"/>
	<circle fill="#404041" cx="190.3" cy="68.9" r="1.2"/>
	<circle fill="#404041" cx="201.3" cy="75.7" r="1.2"/>
	<circle fill="#404041" cx="178.1" cy="72.5" r="1.2"/>
	<circle fill="#404041" cx="164.6" cy="75.1" r="1.2"/>
	<radialGradient id="SVGID_3_" cx="180.8971" cy="309.383" r="99.4506" gradientUnits="userSpaceOnUse">
		<stop  offset="0" style="stop-color:#603813"/>
		<stop  offset="1" style="stop-color:#FFFFFF"/>
	</radialGradient>
	<ellipse opacity="0.1" fill="url(#SVGID_3_)" cx="180.9" cy="309.4" rx="93.3" ry="4.4"/>
	<ellipse fill="#F4CD86" cx="128.2" cy="235.2" rx="4" ry="3.8"/>
	<text transform="matrix(1 0 0 1 103.518 37.0415)"><tspan x="0" y="0" fill="#FFFEE6" font-family="'AmaticSC-Bold'" font-size="20px">“ Can</tspan><tspan x="29.9" y="0" fill="#FFFEE6" font-family="'AmaticSC-Bold'" font-size="20px"> </tspan><tspan x="33.6" y="0" fill="#FFFEE6" font-family="'AmaticSC-Bold'" font-size="20px" letter-spacing="1">I</tspan><tspan x="39.5" y="0" fill="#FFFEE6" font-family="'AmaticSC-Bold'" font-size="20px"> us</tspan><tspan x="54.1" y="0" fill="#FFFEE6" font-family="'AmaticSC-Bold'" font-size="20px" letter-spacing="1">e</tspan><tspan x="60.3" y="0" fill="#FFFEE6" font-family="'AmaticSC-Bold'" font-size="20px"> photosho</tspan><tspan x="110.5" y="0" fill="#FFFEE6" font-family="'AmaticSC-Bold'" font-size="20px" letter-spacing="1">p</tspan><tspan x="117.4" y="0" fill="#FFFEE6" font-family="'AmaticSC-Bold'" font-size="20px"> cs4 ? ”</tspan></text>
</g>
<g id="Layer_6">
</g>
<g id="Layer_7">
	
		<text transform="matrix(1 0 0 1 100.034 21.5907)" display="none" fill="#A6A8AB" font-family="'MyriadPro-Regular'" font-size="12px">May I use Coral for my position?</text>
</g>
<g id="Layer_8">
</g>
<g id="Layer_11">
</g>
<g id="Layer_9">
</g>
</svg>
