<?xml version="1.0" encoding="utf-8"?>
<!-- Generator: Adobe Illustrator 19.2.1, SVG Export Plug-In . SVG Version: 6.00 Build 0)  -->
<svg version="1.1" id="Layer_1" xmlns="http://www.w3.org/2000/svg" xmlns:xlink="http://www.w3.org/1999/xlink" x="0px" y="0px"
	 viewBox="0 0 220.9 331.7" enable-background="new 0 0 220.9 331.7" xml:space="preserve">
<g>
	<g>
		<g>
			<rect fill="#7E5EA2" width="220.9" height="331.7"/>
		</g>
	</g>
</g>
<g>
	<g>
		<g>
			<g>
				<g>
					<g>
						<g>
							<g>
								
									<rect x="59.4" y="91.2" transform="matrix(0.6317 -0.7752 0.7752 0.6317 -43.3499 93.1047)" fill="#FFFFFF" width="33.8" height="1.9"/>
							</g>
						</g>
					</g>
				</g>
			</g>
			<g>
				<g>
					<g>
						<g>
							<g>
								
									<ellipse transform="matrix(0.9953 -9.670742e-02 9.670742e-02 0.9953 -9.9566 6.7732)" fill="#FFFFFF" cx="64.9" cy="106.1" rx="1.7" ry="1.7"/>
							</g>
						</g>
					</g>
				</g>
			</g>
		</g>
		<g>
			<g>
				<g>
					<g>
						<g>
							<g>
								<path fill="#FFFFFF" d="M76.3,87.3c-0.1,0-0.2,0-0.4-0.1c-0.3-0.1-0.5-0.4-0.6-0.7l-1.9-9.3c-0.1-0.5,0.2-1,0.8-1.1
									c0.5-0.1,1,0.2,1.1,0.8l1.6,7.9l9.5-6.5c0.4-0.3,1-0.2,1.3,0.3c0.3,0.4,0.2,1-0.3,1.3l-10.7,7.3
									C76.7,87.2,76.5,87.3,76.3,87.3z"/>
							</g>
						</g>
					</g>
				</g>
			</g>
			<g>
				<g>
					<g>
						<g>
							<g>
								
									<ellipse transform="matrix(0.9172 -0.3985 0.3985 0.9172 -24.3126 41.2277)" fill="#F2A15E" cx="87" cy="79.1" rx="2.2" ry="2.2"/>
							</g>
						</g>
					</g>
				</g>
			</g>
		</g>
	</g>
	<g>
		<g>
			<g>
				<g>
					<g>
						<path fill="#7E5EA2" d="M56.1,95.2L56.1,95.2c10.2,0,18.4-8.2,18.4-18.4V52.2c0-10.2-8.2-18.4-18.4-18.4l0,0
							c-10.2,0-18.4,8.2-18.4,18.4v24.6C37.8,87,46,95.2,56.1,95.2z"/>
					</g>
				</g>
			</g>
		</g>
		<g>
			<g>
				<g>
					<g>
						<path fill="#FFFFFF" d="M56.1,96.2c-10.7,0-19.3-8.7-19.3-19.3V52.2c0-10.7,8.7-19.3,19.3-19.3s19.3,8.7,19.3,19.3v24.6
							C75.5,87.5,66.8,96.2,56.1,96.2z M56.1,34.8c-9.6,0-17.4,7.8-17.4,17.4v24.6c0,9.6,7.8,17.4,17.4,17.4s17.4-7.8,17.4-17.4
							V52.2C73.6,42.6,65.7,34.8,56.1,34.8z"/>
					</g>
				</g>
			</g>
		</g>
	</g>
	<g>
		<g>
			<g>
				<g>
					<g>
						<g>
							<path fill="#FFFFFF" d="M58.5,62.6c-6,0-11-4.9-11-11s4.9-11,11-11s11,4.9,11,11S64.6,62.6,58.5,62.6z M58.5,42.6
								c-5,0-9,4.1-9,9s4.1,9,9,9s9-4.1,9-9S63.5,42.6,58.5,42.6z"/>
						</g>
					</g>
				</g>
			</g>
		</g>
		<g>
			<g>
				<g>
					<g>
						<g>
							<path fill="#FFFFFF" d="M58.5,58.1c-3.6,0-6.5-2.9-6.5-6.5s2.9-6.5,6.5-6.5S65,48,65,51.6C65,55.2,62.1,58.1,58.5,58.1z
								 M58.5,45.6c-3.3,0-6,2.7-6,6s2.7,6,6,6s6-2.7,6-6S61.8,45.6,58.5,45.6z"/>
						</g>
					</g>
				</g>
			</g>
		</g>
		<g>
			<g>
				<g>
					<g>
						<g>
							<path fill="#FFFFFF" d="M58.5,56.5c-2.7,0-4.9-2.2-4.9-4.9s2.2-4.9,4.9-4.9s4.9,2.2,4.9,4.9S61.2,56.5,58.5,56.5z M58.5,47.3
								c-2.4,0-4.4,2-4.4,4.4s2,4.4,4.4,4.4s4.4-2,4.4-4.4S60.9,47.3,58.5,47.3z"/>
						</g>
					</g>
				</g>
			</g>
		</g>
		<g>
			<g>
				<g>
					<g>
						<g>
							<circle fill="#FFFFFF" cx="60.7" cy="47" r="3.2"/>
						</g>
					</g>
				</g>
			</g>
		</g>
	</g>
	<g>
		<g>
			<g>
				<g>
					<g>
						<path fill="#FFFFFF" d="M59.7,69c-3.3,0-5.1-2.1-5.2-2.2l0.4-0.3c0,0,1.8,2.2,5.2,2c3.3-0.2,5-2.5,5-2.5l0.4,0.3
							c-0.1,0.1-1.8,2.6-5.4,2.7C59.9,69,59.8,69,59.7,69z"/>
					</g>
				</g>
			</g>
		</g>
	</g>
	<g>
		<g>
			<g>
				<g>
					<g>
						
							<rect x="57.3" y="65.4" transform="matrix(0.9996 -2.733425e-02 2.733425e-02 0.9996 -1.7721 1.6632)" fill="#FFFFFF" width="5.3" height="0.5"/>
					</g>
				</g>
			</g>
		</g>
	</g>
	<g>
		<g>
			<g>
				<g>
					<g>
						<g>
							<path fill="#673D92" d="M73.9,135c-0.5,0-1-0.1-1.5-0.4l-49.2-28.9c-1.4-0.8-1.8-2.6-1-3.9c0.8-1.4,2.6-1.8,3.9-1l49.2,28.9
								c1.4,0.8,1.8,2.6,1,3.9C75.8,134.5,74.9,135,73.9,135z"/>
						</g>
					</g>
				</g>
			</g>
		</g>
	</g>
	<g>
		<g>
			<g>
				<g>
					<g>
						<g>
							<path fill="#673D92" d="M84.9,130.1c-0.5,0-1-0.1-1.5-0.4l-49.2-28.9c-1.4-0.8-1.8-2.6-1-3.9c0.8-1.4,2.6-1.8,3.9-1
								l49.2,28.9c1.4,0.8,1.8,2.6,1,3.9C86.9,129.5,85.9,130.1,84.9,130.1z"/>
						</g>
					</g>
				</g>
			</g>
		</g>
	</g>
	<g>
		<g>
			<g>
				<g>
					<g>
						<path fill="#FFFFFF" d="M53,120.3c-0.1,0-0.3,0-0.4-0.1c-0.5-0.2-0.7-0.8-0.5-1.3l6.3-13.3l-9.6-11.1c-0.3-0.4-0.3-1,0.1-1.4
							c0.4-0.3,1-0.3,1.4,0.1l10,11.6c0.3,0.3,0.3,0.7,0.1,1l-6.5,13.8C53.7,120.1,53.3,120.3,53,120.3z"/>
					</g>
				</g>
			</g>
		</g>
	</g>
	<g>
		<g>
			<g>
				<g>
					<g>
						<path fill="#FFFFFF" d="M67.1,118c-0.2,0-0.3,0-0.4-0.1c-0.5-0.2-0.6-0.8-0.4-1.3l5.5-10.3l-8.9-11.7c-0.3-0.4-0.2-1,0.2-1.3
							s1-0.2,1.3,0.2l9.3,12.2c0.2,0.3,0.3,0.7,0.1,1L68,117.6C67.7,117.8,67.4,118,67.1,118z"/>
					</g>
				</g>
			</g>
		</g>
	</g>
	<g>
		<g>
			<g>
				<g>
					<g>
						<g>
							<g>
								
									<rect x="12.2" y="98.2" transform="matrix(0.6309 -0.7759 0.7759 0.6309 -65.2625 61.1023)" fill="#FFFFFF" width="38.8" height="1.9"/>
							</g>
						</g>
					</g>
				</g>
			</g>
			<g>
				<g>
					<g>
						<g>
							<g>
								
									<ellipse transform="matrix(0.9953 -9.670742e-02 9.670742e-02 0.9953 -11.0438 2.3383)" fill="#FFFFFF" cx="18.6" cy="115.1" rx="1.7" ry="1.7"/>
							</g>
						</g>
					</g>
				</g>
			</g>
		</g>
		<g>
			<g>
				<g>
					<g>
						<g>
							<g>
								<path fill="#FFFFFF" d="M33.2,89.4c-0.3,0-0.5-0.1-0.7-0.3c-0.3-0.3-0.3-0.7-0.2-1l4.5-10.3c0.2-0.5,0.8-0.7,1.3-0.5
									s0.7,0.8,0.5,1.3L35,86.7l8.9-3.5c0.5-0.2,1,0.1,1.2,0.5c0.2,0.5-0.1,1-0.5,1.2l-11.1,4.3C33.4,89.4,33.3,89.4,33.2,89.4z"
									/>
							</g>
						</g>
					</g>
				</g>
			</g>
			<g>
				<g>
					<g>
						<g>
							<g>
								<circle fill="#F2A15E" cx="44.1" cy="84.1" r="2.2"/>
							</g>
						</g>
					</g>
				</g>
			</g>
		</g>
	</g>
</g>
<g>
	<g>
		<g>
			<g>
				<g>
					<g>
						<g>
							<path fill="#673D92" d="M163.1,146.9c-0.5,0-1-0.1-1.5-0.4l-49.2-28.9c-1.4-0.8-1.8-2.6-1-3.9c0.8-1.4,2.6-1.8,3.9-1
								l49.2,28.9c1.4,0.8,1.8,2.6,1,3.9C165,146.4,164.1,146.9,163.1,146.9z"/>
						</g>
					</g>
				</g>
			</g>
		</g>
	</g>
	<g>
		<g>
			<g>
				<g>
					<g>
						<g>
							<path fill="#673D92" d="M174.2,141.9c-0.5,0-1-0.1-1.5-0.4l-49.2-28.9c-1.4-0.8-1.8-2.6-1-3.9c0.8-1.4,2.6-1.8,3.9-1
								l49.2,28.9c1.4,0.8,1.8,2.6,1,3.9C176.1,141.4,175.1,141.9,174.2,141.9z"/>
						</g>
					</g>
				</g>
			</g>
		</g>
	</g>
	<g>
		<g>
			<g>
				<g>
					<g>
						<path fill="#FFFFFF" d="M142.2,132.1c-0.1,0-0.3,0-0.4-0.1c-0.5-0.2-0.7-0.8-0.5-1.3l6.3-13.3l-9.6-11.1
							c-0.3-0.4-0.3-1,0.1-1.4c0.4-0.3,1-0.3,1.4,0.1l10,11.6c0.3,0.3,0.3,0.7,0.1,1l-6.5,13.8C142.9,131.9,142.6,132.1,142.2,132.1
							z"/>
					</g>
				</g>
			</g>
		</g>
	</g>
	<g>
		<g>
			<g>
				<g>
					<g>
						<path fill="#FFFFFF" d="M156.8,128.8c-0.2,0-0.3,0-0.4-0.1c-0.5-0.2-0.6-0.8-0.4-1.3l5-9.3l-8.9-11.7c-0.3-0.4-0.2-1,0.2-1.3
							s1-0.2,1.3,0.2l9.3,12.2c0.2,0.3,0.3,0.7,0.1,1l-5.2,9.9C157.5,128.7,157.2,128.8,156.8,128.8z"/>
					</g>
				</g>
			</g>
		</g>
	</g>
	<g>
		<g>
			<g>
				<g>
					<g>
						<g>
							<g>
								
									<rect x="148.7" y="103.1" transform="matrix(0.6317 -0.7752 0.7752 0.6317 -19.6342 166.6783)" fill="#FFFFFF" width="33.8" height="1.9"/>
							</g>
						</g>
					</g>
				</g>
			</g>
			<g>
				<g>
					<g>
						<g>
							<g>
								
									<ellipse transform="matrix(0.9953 -9.670742e-02 9.670742e-02 0.9953 -10.6894 15.4554)" fill="#FFFFFF" cx="154.1" cy="118" rx="1.7" ry="1.7"/>
							</g>
						</g>
					</g>
				</g>
			</g>
		</g>
		<g>
			<g>
				<g>
					<g>
						<g>
							<g>
								<path fill="#FFFFFF" d="M165.5,99.2c-0.1,0-0.2,0-0.4-0.1c-0.3-0.1-0.5-0.4-0.6-0.7l-1.9-9.3c-0.1-0.5,0.2-1,0.8-1.1
									c0.5-0.1,1,0.2,1.1,0.8l1.6,7.9l9.5-6.5c0.4-0.3,1-0.2,1.3,0.3c0.3,0.4,0.2,1-0.3,1.3L166.1,99
									C165.9,99.1,165.7,99.2,165.5,99.2z"/>
							</g>
						</g>
					</g>
				</g>
			</g>
			<g>
				<g>
					<g>
						<g>
							<g>
								
									<ellipse transform="matrix(0.9172 -0.3985 0.3985 0.9172 -21.6346 77.7414)" fill="#F2A15E" cx="176.2" cy="90.9" rx="2.2" ry="2.2"/>
							</g>
						</g>
					</g>
				</g>
			</g>
		</g>
	</g>
	<g>
		<g>
			<g>
				<g>
					<g>
						<path fill="#7E5EA2" d="M145.1,107.1L145.1,107.1c10.2,0,18.4-8.2,18.4-18.4V64.1c0-10.2-8.2-18.4-18.4-18.4l0,0
							c-10.2,0-18.4,8.2-18.4,18.4v24.6C126.7,98.9,134.9,107.1,145.1,107.1z"/>
					</g>
				</g>
			</g>
		</g>
		<g>
			<g>
				<g>
					<g>
						<path fill="#FFFFFF" d="M145.1,108.1c-10.7,0-19.3-8.7-19.3-19.3V64.1c0-10.7,8.7-19.3,19.3-19.3c10.7,0,19.3,8.7,19.3,19.3
							v24.6C164.4,99.4,155.8,108.1,145.1,108.1z M145.1,46.7c-9.6,0-17.4,7.8-17.4,17.4v24.6c0,9.6,7.8,17.4,17.4,17.4
							s17.4-7.8,17.4-17.4V64.1C162.5,54.5,154.7,46.7,145.1,46.7z"/>
					</g>
				</g>
			</g>
		</g>
	</g>
	<g>
		<g>
			<g>
				<g>
					<g>
						<g>
							<path fill="#FFFFFF" d="M147.5,74.5c-6,0-11-4.9-11-11s4.9-11,11-11c6,0,11,4.9,11,11S153.5,74.5,147.5,74.5z M147.5,54.5
								c-5,0-9,4.1-9,9s4.1,9,9,9c5,0,9-4.1,9-9S152.5,54.5,147.5,54.5z"/>
						</g>
					</g>
				</g>
			</g>
		</g>
		<g>
			<g>
				<g>
					<g>
						<g>
							<path fill="#FFFFFF" d="M147.5,70c-3.6,0-6.5-2.9-6.5-6.5s2.9-6.5,6.5-6.5s6.5,2.9,6.5,6.5S151.1,70,147.5,70z M147.5,57.5
								c-3.3,0-6,2.7-6,6c0,3.3,2.7,6,6,6s6-2.7,6-6C153.5,60.2,150.8,57.5,147.5,57.5z"/>
						</g>
					</g>
				</g>
			</g>
		</g>
		<g>
			<g>
				<g>
					<g>
						<g>
							<path fill="#FFFFFF" d="M147.5,68.4c-2.7,0-4.8-2.2-4.8-4.9c0-2.7,2.2-4.9,4.8-4.9c2.7,0,4.9,2.2,4.9,4.9
								C152.3,66.2,150.2,68.4,147.5,68.4z M147.5,59.2c-2.4,0-4.4,2-4.4,4.4c0,2.4,2,4.4,4.4,4.4s4.4-2,4.4-4.4
								S149.9,59.2,147.5,59.2z"/>
						</g>
					</g>
				</g>
			</g>
		</g>
		<g>
			<g>
				<g>
					<g>
						<g>
							<circle fill="#FFFFFF" cx="149.7" cy="58.9" r="3.2"/>
						</g>
					</g>
				</g>
			</g>
		</g>
	</g>
	<g>
		<g>
			<g>
				<g>
					<g>
						<path fill="#FFFFFF" d="M148.6,80.9c-3.3,0-5.1-2.1-5.2-2.2l0.4-0.3c0,0,1.8,2.2,5.2,2c3.3-0.2,5-2.5,5-2.5l0.4,0.3
							c-0.1,0.1-1.8,2.6-5.4,2.7C148.9,80.9,148.7,80.9,148.6,80.9z"/>
					</g>
				</g>
			</g>
		</g>
	</g>
	<g>
		<g>
			<g>
				<g>
					<g>
						<path fill="#FFFFFF" d="M147,85.2c-0.9,0-1.7-0.8-1.7-1.8V80h0.5v3.4c0,0.7,0.5,1.3,1.2,1.3s1.2-0.6,1.2-1.3v-2.7h0.5v2.7
							C148.7,84.4,148,85.2,147,85.2z"/>
					</g>
				</g>
			</g>
		</g>
	</g>
	<g>
		<g>
			<g>
				<g>
					<g>
						<g>
							<g>
								
									<rect x="100.9" y="110.1" transform="matrix(0.6309 -0.7759 0.7759 0.6309 -41.7559 134.35)" fill="#FFFFFF" width="38.8" height="1.9"/>
							</g>
						</g>
					</g>
				</g>
			</g>
			<g>
				<g>
					<g>
						<g>
							<g>
								
									<ellipse transform="matrix(0.9953 -9.670742e-02 9.670742e-02 0.9953 -11.7792 10.9721)" fill="#FFFFFF" cx="107.3" cy="127" rx="1.7" ry="1.7"/>
							</g>
						</g>
					</g>
				</g>
			</g>
		</g>
		<g>
			<g>
				<g>
					<g>
						<g>
							<g>
								<path fill="#FFFFFF" d="M121.9,101.3c-0.3,0-0.5-0.1-0.7-0.3c-0.3-0.3-0.3-0.7-0.2-1l4.5-10.3c0.2-0.5,0.8-0.7,1.3-0.5
									s0.7,0.8,0.5,1.3l-3.6,8.2l8.9-3.5c0.5-0.2,1,0.1,1.2,0.5c0.2,0.5-0.1,1-0.5,1.2l-11.1,4.3
									C122.2,101.3,122.1,101.3,121.9,101.3z"/>
							</g>
						</g>
					</g>
				</g>
			</g>
			<g>
				<g>
					<g>
						<g>
							<g>
								<circle fill="#F2A15E" cx="132.8" cy="96" r="2.2"/>
							</g>
						</g>
					</g>
				</g>
			</g>
		</g>
	</g>
</g>
<g>
	<g>
		<g>
			<g>
				<g>
					<g>
						<g>
							<g>
								
									<rect x="73" y="159.5" transform="matrix(0.6317 -0.7752 0.7752 0.6317 -91.2796 128.8022)" fill="#FFFFFF" width="33.8" height="1.9"/>
							</g>
						</g>
					</g>
				</g>
			</g>
			<g>
				<g>
					<g>
						<g>
							<g>
								
									<ellipse transform="matrix(0.9953 -9.670742e-02 9.670742e-02 0.9953 -16.4978 8.4086)" fill="#FFFFFF" cx="78.5" cy="174.4" rx="1.7" ry="1.7"/>
							</g>
						</g>
					</g>
				</g>
			</g>
		</g>
		<g>
			<g>
				<g>
					<g>
						<g>
							<g>
								<path fill="#FFFFFF" d="M89.9,155.6c-0.1,0-0.2,0-0.4-0.1c-0.3-0.1-0.5-0.4-0.6-0.7l-1.9-9.3c-0.1-0.5,0.2-1,0.8-1.1
									c0.5-0.1,1,0.2,1.1,0.8l1.6,7.9l9.5-6.5c0.4-0.3,1-0.2,1.3,0.3c0.3,0.4,0.2,1-0.3,1.3l-10.7,7.3
									C90.3,155.5,90.1,155.6,89.9,155.6z"/>
							</g>
						</g>
					</g>
				</g>
			</g>
			<g>
				<g>
					<g>
						<g>
							<g>
								
									<ellipse transform="matrix(0.9172 -0.3985 0.3985 0.9172 -50.3692 52.2819)" fill="#F2A15E" cx="100.6" cy="147.3" rx="2.2" ry="2.2"/>
							</g>
						</g>
					</g>
				</g>
			</g>
		</g>
	</g>
	<g>
		<g>
			<g>
				<g>
					<g>
						<path fill="#7E5EA2" d="M69.6,163.6L69.6,163.6c10.2,0,18.4-8.2,18.4-18.4v-24.6c0-10.2-8.2-18.4-18.4-18.4l0,0
							c-10.2,0-18.4,8.2-18.4,18.4v24.6C51.2,155.4,59.4,163.6,69.6,163.6z"/>
					</g>
				</g>
			</g>
		</g>
		<g>
			<g>
				<g>
					<g>
						<path fill="#FFFFFF" d="M69.6,164.6c-10.7,0-19.3-8.7-19.3-19.3v-24.6c0-10.7,8.7-19.3,19.3-19.3c10.7,0,19.3,8.7,19.3,19.3
							v24.6C88.9,155.9,80.2,164.6,69.6,164.6z M69.6,103.2c-9.6,0-17.4,7.8-17.4,17.4v24.6c0,9.6,7.8,17.4,17.4,17.4
							S87,154.8,87,145.2v-24.6C87,111,79.2,103.2,69.6,103.2z"/>
					</g>
				</g>
			</g>
		</g>
	</g>
	<g>
		<g>
			<g>
				<g>
					<g>
						<g>
							<path fill="#FFFFFF" d="M72,131c-6,0-11-4.9-11-11c0-6,4.9-11,11-11c6,0,11,4.9,11,11C82.9,126.1,78,131,72,131z M72,111
								c-5,0-9,4.1-9,9c0,5,4.1,9,9,9c5,0,9-4.1,9-9S76.9,111,72,111z"/>
						</g>
					</g>
				</g>
			</g>
		</g>
		<g>
			<g>
				<g>
					<g>
						<g>
							<path fill="#FFFFFF" d="M72,126.5c-3.6,0-6.5-2.9-6.5-6.5s2.9-6.5,6.5-6.5s6.5,2.9,6.5,6.5S75.5,126.5,72,126.5z M72,114
								c-3.3,0-6,2.7-6,6s2.7,6,6,6s6-2.7,6-6S75.3,114,72,114z"/>
						</g>
					</g>
				</g>
			</g>
		</g>
		<g>
			<g>
				<g>
					<g>
						<g>
							<path fill="#FFFFFF" d="M72,124.9c-2.7,0-4.9-2.2-4.9-4.8c0-2.7,2.2-4.9,4.9-4.9c2.7,0,4.8,2.2,4.8,4.9
								C76.8,122.7,74.6,124.9,72,124.9z M72,115.7c-2.4,0-4.4,2-4.4,4.4s2,4.4,4.4,4.4s4.4-2,4.4-4.4
								C76.3,117.6,74.4,115.7,72,115.7z"/>
						</g>
					</g>
				</g>
			</g>
		</g>
		<g>
			<g>
				<g>
					<g>
						<g>
							<circle fill="#FFFFFF" cx="74.2" cy="115.4" r="3.2"/>
						</g>
					</g>
				</g>
			</g>
		</g>
	</g>
	<g>
		<g>
			<g>
				<g>
					<g>
						<path fill="#FFFFFF" d="M73.1,137.4c-3.3,0-5.1-2.1-5.2-2.2l0.4-0.3c0,0,1.9,2.2,5.2,2c3.3-0.2,5-2.5,5-2.5l0.4,0.3
							c-0.1,0.1-1.8,2.6-5.4,2.7C73.3,137.4,73.2,137.4,73.1,137.4z"/>
					</g>
				</g>
			</g>
		</g>
	</g>
	<g>
		<g>
			<g>
				<g>
					<g>
						<path fill="#FFFFFF" d="M73.7,141c-1.7,0-3-1.4-3-3v-1c0-1.7,1.4-3,3-3c1.7,0,3,1.4,3,3v1C76.7,139.6,75.4,141,73.7,141z
							 M73.7,134.4c-1.4,0-2.5,1.1-2.5,2.5v1c0,1.4,1.1,2.5,2.5,2.5s2.5-1.1,2.5-2.5v-1C76.2,135.5,75.1,134.4,73.7,134.4z"/>
					</g>
				</g>
			</g>
		</g>
	</g>
	<g>
		<g>
			<g>
				<g>
					<g>
						<g>
							<path fill="#673D92" d="M87,203.3c-0.5,0-1-0.1-1.5-0.4L36.3,174c-1.4-0.8-1.8-2.6-1-3.9c0.8-1.4,2.6-1.8,3.9-1L88.5,198
								c1.4,0.8,1.8,2.6,1,3.9C88.9,202.8,88,203.3,87,203.3z"/>
						</g>
					</g>
				</g>
			</g>
		</g>
	</g>
	<g>
		<g>
			<g>
				<g>
					<g>
						<g>
							<path fill="#673D92" d="M98.1,198.3c-0.5,0-1-0.1-1.5-0.4L47.4,169c-1.4-0.8-1.8-2.6-1-3.9c0.8-1.4,2.6-1.8,3.9-1L99.5,193
								c1.4,0.8,1.8,2.6,1,3.9C100,197.8,99,198.3,98.1,198.3z"/>
						</g>
					</g>
				</g>
			</g>
		</g>
	</g>
	<g>
		<g>
			<g>
				<g>
					<g>
						<path fill="#FFFFFF" d="M66.1,188.6c-0.1,0-0.3,0-0.4-0.1c-0.5-0.2-0.7-0.8-0.5-1.3l6.3-13.3l-9.6-11.1
							c-0.3-0.4-0.3-1,0.1-1.4c0.4-0.3,1-0.3,1.4,0.1l10,11.6c0.3,0.3,0.3,0.7,0.1,1L67,188C66.8,188.3,66.4,188.6,66.1,188.6z"/>
					</g>
				</g>
			</g>
		</g>
	</g>
	<g>
		<g>
			<g>
				<g>
					<g>
						<path fill="#FFFFFF" d="M80.7,185.2c-0.2,0-0.3,0-0.4-0.1c-0.5-0.2-0.6-0.8-0.4-1.3l5-9.3L76,162.8c-0.3-0.4-0.2-1,0.2-1.3
							c0.4-0.3,1-0.2,1.3,0.2l9.3,12.2c0.2,0.3,0.3,0.7,0.1,1l-5.2,9.9C81.4,185.1,81.1,185.2,80.7,185.2z"/>
					</g>
				</g>
			</g>
		</g>
	</g>
	<g>
		<g>
			<g>
				<g>
					<g>
						<g>
							<g>
								
									<rect x="25.3" y="166.5" transform="matrix(0.6309 -0.7759 0.7759 0.6309 -113.4211 96.4911)" fill="#FFFFFF" width="38.8" height="1.9"/>
							</g>
						</g>
					</g>
				</g>
			</g>
			<g>
				<g>
					<g>
						<g>
							<g>
								
									<ellipse transform="matrix(0.9953 -9.670742e-02 9.670742e-02 0.9953 -17.5875 3.9254)" fill="#FFFFFF" cx="31.7" cy="183.4" rx="1.7" ry="1.7"/>
							</g>
						</g>
					</g>
				</g>
			</g>
		</g>
		<g>
			<g>
				<g>
					<g>
						<g>
							<g>
								<path fill="#FFFFFF" d="M46.3,157.7c-0.3,0-0.5-0.1-0.7-0.3c-0.3-0.3-0.3-0.7-0.2-1L50,146c0.2-0.5,0.8-0.7,1.3-0.5
									s0.7,0.8,0.5,1.3l-3.6,8.2l8.9-3.5c0.5-0.2,1,0.1,1.2,0.5c0.2,0.5-0.1,1-0.5,1.2l-11.1,4.3
									C46.5,157.7,46.4,157.7,46.3,157.7z"/>
							</g>
						</g>
					</g>
				</g>
			</g>
			<g>
				<g>
					<g>
						<g>
							<g>
								<circle fill="#F2A15E" cx="57.2" cy="152.4" r="2.2"/>
							</g>
						</g>
					</g>
				</g>
			</g>
		</g>
	</g>
</g>
<g>
	<g>
		<g>
			<g>
				<g>
					<g>
						<g>
							<path fill="#673D92" d="M187.3,229.4c-0.5,0-1-0.1-1.5-0.4l-49.2-28.9c-1.4-0.8-1.8-2.6-1-3.9c0.8-1.4,2.6-1.8,3.9-1
								l49.2,28.9c1.4,0.8,1.8,2.6,1,3.9C189.3,228.9,188.3,229.4,187.3,229.4z"/>
						</g>
					</g>
				</g>
			</g>
		</g>
	</g>
	<g>
		<g>
			<g>
				<g>
					<g>
						<g>
							<path fill="#673D92" d="M198.4,224.5c-0.5,0-1-0.1-1.5-0.4l-49.2-28.9c-1.4-0.8-1.8-2.6-1-3.9c0.8-1.4,2.6-1.8,3.9-1
								l49.2,28.9c1.4,0.8,1.8,2.6,1,3.9C200.3,223.9,199.4,224.5,198.4,224.5z"/>
						</g>
					</g>
				</g>
			</g>
		</g>
	</g>
	<g>
		<g>
			<g>
				<g>
					<g>
						<path fill="#FFFFFF" d="M166.4,214.7c-0.1,0-0.3,0-0.4-0.1c-0.5-0.2-0.7-0.8-0.5-1.3l6.3-13.3l-9.6-11.1
							c-0.3-0.4-0.3-1,0.1-1.4c0.4-0.3,1-0.3,1.4,0.1l10,11.6c0.3,0.3,0.3,0.7,0.1,1l-6.5,13.8C167.1,214.5,166.8,214.7,166.4,214.7
							z"/>
					</g>
				</g>
			</g>
		</g>
	</g>
	<g>
		<g>
			<g>
				<g>
					<g>
						<path fill="#FFFFFF" d="M181.1,211.2c-0.2,0-0.3,0-0.4-0.1c-0.5-0.2-0.6-0.8-0.4-1.3l4.9-9.2l-8.9-11.7
							c-0.3-0.4-0.2-1,0.2-1.3s1-0.2,1.3,0.2l9.3,12.2c0.2,0.3,0.3,0.7,0.1,1l-5.2,9.7C181.8,211,181.5,211.2,181.1,211.2z"/>
					</g>
				</g>
			</g>
		</g>
	</g>
	<g>
		<g>
			<g>
				<g>
					<g>
						<path fill="#7E5EA2" d="M169.6,189.4L169.6,189.4c-10.2,0-18.4-8.2-18.4-18.4v-24.6c0-10.2,8.2-18.4,18.4-18.4l0,0
							c10.2,0,18.4,8.2,18.4,18.4V171C187.9,181.2,179.7,189.4,169.6,189.4z"/>
					</g>
				</g>
			</g>
		</g>
		<g>
			<g>
				<g>
					<g>
						<path fill="#FFFFFF" d="M169.6,190.4c-10.7,0-19.3-8.7-19.3-19.3v-24.6c0-10.7,8.7-19.3,19.3-19.3c10.7,0,19.3,8.7,19.3,19.3
							V171C188.9,181.7,180.2,190.4,169.6,190.4z M169.6,129c-9.6,0-17.4,7.8-17.4,17.4V171c0,9.6,7.8,17.4,17.4,17.4
							c9.6,0,17.4-7.8,17.4-17.4v-24.6C187,136.8,179.2,129,169.6,129z"/>
					</g>
				</g>
			</g>
		</g>
	</g>
	<g>
		<g>
			<g>
				<g>
					<g>
						<g>
							<path fill="#FFFFFF" d="M174.1,163.3c-4.3,0-6.7-1.8-6.8-1.9l0.3-0.4c0,0,2.8,2.1,7.6,1.8c4.9-0.4,7.2-2.8,7.3-2.9l0.4,0.3
								c-0.1,0.1-2.5,2.6-7.6,3C174.9,163.2,174.5,163.3,174.1,163.3z"/>
						</g>
					</g>
				</g>
			</g>
		</g>
		<g>
			<g>
				<g>
					<g>
						<g>
							<path fill="#FFFFFF" d="M172.6,165.7l-0.1-2.7h2l0.1,2.7H172.6z M173,163.5v1.7h1v-1.7H173z"/>
						</g>
					</g>
				</g>
			</g>
		</g>
		<g>
			<g>
				<g>
					<g>
						<g>
							<path fill="#FFFFFF" d="M175.6,165.4l-0.1-2.7h1.9l0.1,2.7H175.6z M176,163.3v1.7h0.9v-1.7H176z"/>
						</g>
					</g>
				</g>
			</g>
		</g>
	</g>
	<g>
		<g>
			<g>
				<g>
					<g>
						<g>
							<path fill="#FFFFFF" d="M172.9,156.8c-6,0-11-4.9-11-11c0-6,4.9-11,11-11c6,0,11,4.9,11,11
								C183.9,151.9,178.9,156.8,172.9,156.8z M172.9,136.8c-5,0-9,4.1-9,9c0,5,4.1,9,9,9c5,0,9-4.1,9-9
								C181.9,140.9,177.9,136.8,172.9,136.8z"/>
						</g>
					</g>
				</g>
			</g>
		</g>
		<g>
			<g>
				<g>
					<g>
						<g>
							<path fill="#FFFFFF" d="M172.9,152.3c-3.6,0-6.5-2.9-6.5-6.5s2.9-6.5,6.5-6.5s6.5,2.9,6.5,6.5
								C179.4,149.4,176.5,152.3,172.9,152.3z M172.9,139.8c-3.3,0-6,2.7-6,6s2.7,6,6,6s6-2.7,6-6S176.2,139.8,172.9,139.8z"/>
						</g>
					</g>
				</g>
			</g>
		</g>
		<g>
			<g>
				<g>
					<g>
						<g>
							<path fill="#FFFFFF" d="M172.9,150.7c-2.7,0-4.8-2.2-4.8-4.9s2.2-4.8,4.8-4.8c2.7,0,4.9,2.2,4.9,4.8
								C177.8,148.5,175.6,150.7,172.9,150.7z M172.9,141.5c-2.4,0-4.4,2-4.4,4.4s2,4.4,4.4,4.4s4.4-2,4.4-4.4
								S175.3,141.5,172.9,141.5z"/>
						</g>
					</g>
				</g>
			</g>
		</g>
		<g>
			<g>
				<g>
					<g>
						<g>
							<circle fill="#FFFFFF" cx="170.7" cy="141.2" r="3.2"/>
						</g>
					</g>
				</g>
			</g>
		</g>
	</g>
	<g>
		<g>
			<g>
				<g>
					<g>
						<path fill="#FFFFFF" d="M151.6,177.1c-0.3,0-0.5-0.1-0.7-0.3c-1.7-1.9-1.9-3.5-2.1-4.8c-0.2-1.3-0.3-2.4-1.6-3.9
							s-2.4-1.8-3.6-2.2c-1.3-0.4-2.8-0.8-4.5-2.8c-1.7-1.9-1.9-3.5-2.1-4.8c-0.2-1.3-0.3-2.4-1.6-3.9c-0.3-0.4-0.3-1,0.1-1.4
							c0.4-0.3,1-0.3,1.4,0.1c1.7,1.9,1.9,3.5,2.1,4.8c0.2,1.3,0.3,2.4,1.6,3.9s2.4,1.8,3.6,2.2c1.3,0.4,2.8,0.8,4.5,2.8
							c1.7,1.9,1.9,3.5,2.1,4.8c0.2,1.3,0.3,2.4,1.6,3.9c0.3,0.4,0.3,1-0.1,1.4C152,177.1,151.8,177.1,151.6,177.1z"/>
					</g>
				</g>
			</g>
		</g>
	</g>
	<g>
		<g>
			<g>
				<g>
					<g>
						<path fill="#FFFFFF" d="M187.7,174.1c-0.1,0-0.3,0-0.4-0.1c-0.5-0.2-0.7-0.8-0.4-1.3c1.2-2.3,2.5-3,3.7-3.7
							c1.1-0.6,2.1-1.2,3-3s0.8-2.9,0.7-4.1c-0.1-1.4-0.3-2.9,0.9-5.2s2.5-3,3.7-3.7c1.1-0.6,2.1-1.2,3-3c0.2-0.5,0.8-0.7,1.3-0.4
							c0.5,0.2,0.7,0.8,0.4,1.3c-1.2,2.3-2.5,3-3.7,3.7c-1.1,0.6-2.1,1.2-3,3s-0.8,2.9-0.7,4.1c0.1,1.4,0.3,2.9-0.9,5.2
							s-2.5,3-3.7,3.7c-1.1,0.6-2.1,1.2-3,3C188.4,174,188.1,174.1,187.7,174.1z"/>
					</g>
				</g>
			</g>
		</g>
	</g>
	<g>
		<g>
			<g>
				<g>
					<g>
						
							<ellipse transform="matrix(0.9323 -0.3618 0.3618 0.9323 -46.1408 59.3797)" fill="#F2A15E" cx="135.5" cy="152.9" rx="2.2" ry="2.2"/>
					</g>
				</g>
			</g>
		</g>
	</g>
	<g>
		<g>
			<g>
				<g>
					<g>
						
							<ellipse transform="matrix(0.9423 -0.3347 0.3347 0.9423 -38.4583 76.6191)" fill="#F2A15E" cx="203.1" cy="149.9" rx="2.2" ry="2.2"/>
					</g>
				</g>
			</g>
		</g>
	</g>
</g>
<g>
	<g>
		<g>
			<path fill="#79C7D9" d="M135.8,266.5c-0.2,0-0.4,0-0.5-0.2L64.9,221c-0.4-0.3-0.6-0.9-0.3-1.3c0.3-0.4,0.9-0.6,1.3-0.3l70.5,45.3
				c0.4,0.3,0.6,0.9,0.3,1.3C136.4,266.3,136.1,266.5,135.8,266.5z"/>
		</g>
	</g>
</g>
<g>
	<g>
		<g>
			<rect x="1.3" y="262.8" fill="#7E5EA2" width="218.7" height="68.9"/>
		</g>
	</g>
</g>
<g>
	<g>
		<g>
			<path fill="#FFFFFF" d="M206.4,263.8H14.9c-0.6,0-1-0.4-1-1s0.4-1,1-1h191.4c0.6,0,1,0.4,1,1S206.9,263.8,206.4,263.8z"/>
		</g>
	</g>
</g>
<g>
	<g>
		<g>
			<path fill="#FFFFFF" d="M17.6,276.1h-1.7v-0.9h4.6v0.9h-1.7v5.1h-1.1L17.6,276.1L17.6,276.1z"/>
		</g>
	</g>
	<g>
		<g>
			<path fill="#FFFFFF" d="M21.4,274.8h1.1v2.6l0,0c0.1-0.2,0.3-0.4,0.5-0.5s0.5-0.2,0.8-0.2c0.7,0,1.5,0.5,1.5,1.9v2.6h-1.1v-2.5
				c0-0.6-0.2-1.1-0.8-1.1c-0.4,0-0.7,0.3-0.9,0.6c0,0.1,0,0.2,0,0.3v2.6h-1.1V274.8z"/>
		</g>
	</g>
	<g>
		<g>
			<path fill="#FFFFFF" d="M30.3,280.2c0,0.4,0,0.8,0.1,1.1h-1l-0.1-0.5l0,0c-0.3,0.3-0.7,0.6-1.3,0.6c-0.9,0-1.4-0.6-1.4-1.3
				c0-1.1,1-1.7,2.6-1.7v-0.1c0-0.3-0.1-0.8-0.9-0.8c-0.4,0-0.9,0.1-1.2,0.3l-0.2-0.7c0.3-0.2,0.9-0.4,1.6-0.4
				c1.4,0,1.8,0.9,1.8,1.9V280.2z M29.2,279.1c-0.8,0-1.5,0.2-1.5,0.8c0,0.4,0.3,0.6,0.6,0.6c0.5,0,0.8-0.3,0.9-0.6
				c0-0.1,0-0.2,0-0.2V279.1z"/>
		</g>
	</g>
	<g>
		<g>
			<path fill="#FFFFFF" d="M33,275.7v1.1h1.1v0.8H33v1.9c0,0.5,0.1,0.8,0.6,0.8c0.2,0,0.3,0,0.4,0v0.8c-0.2,0.1-0.5,0.1-0.8,0.1
				c-0.4,0-0.7-0.1-1-0.4c-0.2-0.3-0.4-0.7-0.4-1.2v-2.1h-0.6v-0.8H32V276L33,275.7z"/>
		</g>
	</g>
	<g>
		<g>
			<path fill="#FFFFFF" d="M38.2,276.8l0.5,2c0.1,0.5,0.2,0.9,0.3,1.4l0,0c0.1-0.5,0.2-1,0.4-1.4l0.6-2h0.9l0.5,1.9
				c0.1,0.5,0.3,1,0.4,1.5l0,0c0.1-0.5,0.2-1,0.3-1.5l0.5-1.9h1.1l-1.4,4.4h-1l-0.5-1.8c-0.1-0.5-0.2-0.9-0.3-1.4l0,0
				c-0.1,0.5-0.2,1-0.3,1.4l-0.6,1.8h-1l-1.3-4.4H38.2z"/>
		</g>
	</g>
	<g>
		<g>
			<path fill="#FFFFFF" d="M48,280.2c0,0.4,0,0.8,0.1,1.1h-1l-0.1-0.5l0,0c-0.3,0.3-0.7,0.6-1.3,0.6c-0.9,0-1.4-0.6-1.4-1.3
				c0-1.1,1-1.7,2.6-1.7v-0.1c0-0.3-0.1-0.8-0.9-0.8c-0.4,0-0.9,0.1-1.2,0.3l-0.2-0.7c0.3-0.2,0.9-0.4,1.6-0.4
				c1.4,0,1.8,0.9,1.8,1.9C48,278.6,48,280.2,48,280.2z M46.9,279.1c-0.8,0-1.5,0.2-1.5,0.8c0,0.4,0.3,0.6,0.6,0.6
				c0.5,0,0.8-0.3,0.9-0.6c0-0.1,0-0.2,0-0.2V279.1z"/>
		</g>
	</g>
	<g>
		<g>
			<path fill="#FFFFFF" d="M50.1,276.8l0.8,2.4c0.1,0.3,0.2,0.6,0.3,0.8l0,0c0.1-0.2,0.1-0.6,0.2-0.9l0.7-2.3h1.2l-1.1,3
				c-0.6,1.6-1,2.4-1.5,2.8c-0.4,0.4-0.9,0.5-1.2,0.6l-0.3-0.9c0.2,0,0.4-0.1,0.6-0.3c0.2-0.1,0.5-0.4,0.6-0.7
				c0-0.1,0.1-0.1,0.1-0.2c0,0,0-0.1-0.1-0.2l-1.6-4L50.1,276.8L50.1,276.8z"/>
		</g>
	</g>
	<g>
		<g>
			<path fill="#FFFFFF" d="M53.3,282.3c0.2-0.7,0.5-1.6,0.6-2.4l1.2-0.1c-0.3,0.8-0.7,1.8-1,2.4L53.3,282.3z"/>
		</g>
	</g>
	<g>
		<g>
			<path fill="#FFFFFF" d="M58.6,274.8h1.1v2.6l0,0c0.1-0.2,0.3-0.4,0.5-0.5s0.5-0.2,0.8-0.2c0.7,0,1.5,0.5,1.5,1.9v2.6h-1.1v-2.5
				c0-0.6-0.2-1.1-0.8-1.1c-0.4,0-0.7,0.3-0.9,0.6c0,0.1,0,0.2,0,0.3v2.6h-1.1V274.8z"/>
		</g>
	</g>
	<g>
		<g>
			<path fill="#FFFFFF" d="M64.9,279.3c0,0.8,0.6,1.1,1.4,1.1c0.5,0,0.9-0.1,1.2-0.2l0.2,0.8c-0.4,0.2-0.9,0.3-1.5,0.3
				c-1.4,0-2.3-0.9-2.3-2.2c0-1.2,0.7-2.4,2.1-2.4s1.9,1.2,1.9,2.1c0,0.2,0,0.4,0,0.5L64.9,279.3L64.9,279.3z M66.8,278.6
				c0-0.4-0.2-1.1-0.9-1.1c-0.7,0-1,0.6-1,1.1H66.8z"/>
		</g>
	</g>
	<g>
		<g>
			<path fill="#FFFFFF" d="M72.5,275.6c0,0.3-0.2,0.6-0.6,0.6s-0.6-0.3-0.6-0.6c0-0.3,0.3-0.6,0.6-0.6S72.5,275.3,72.5,275.6z
				 M71.3,281.2v-4.4h1.1v4.4H71.3z"/>
		</g>
	</g>
	<g>
		<g>
			<path fill="#FFFFFF" d="M73.9,280.2c0.2,0.2,0.7,0.3,1.1,0.3c0.5,0,0.7-0.2,0.7-0.5s-0.2-0.4-0.7-0.6c-0.9-0.3-1.2-0.8-1.2-1.3
				c0-0.8,0.6-1.4,1.7-1.4c0.5,0,0.9,0.1,1.2,0.3l-0.2,0.8c-0.2-0.1-0.5-0.3-0.9-0.3S75,277.7,75,278s0.2,0.4,0.8,0.6
				c0.8,0.3,1.2,0.7,1.2,1.3c0,0.8-0.6,1.4-1.8,1.4c-0.5,0-1-0.1-1.3-0.3L73.9,280.2z"/>
		</g>
	</g>
	<g>
		<g>
			<path fill="#FFFFFF" d="M84.5,279c0,1.6-1.1,2.3-2.2,2.3c-1.2,0-2.2-0.8-2.2-2.3c0-1.4,0.9-2.3,2.3-2.3
				C83.6,276.7,84.5,277.7,84.5,279z M81.2,279c0,0.8,0.4,1.5,1.1,1.5c0.6,0,1.1-0.6,1.1-1.5c0-0.7-0.3-1.5-1.1-1.5
				S81.2,278.3,81.2,279z"/>
		</g>
	</g>
	<g>
		<g>
			<path fill="#FFFFFF" d="M85.7,278.1c0-0.5,0-0.9,0-1.3h1l0.1,0.7l0,0c0.2-0.3,0.7-0.8,1.4-0.8c0.8,0,1.6,0.5,1.6,1.9v2.6h-1.1
				v-2.5c0-0.6-0.2-1.1-0.8-1.1c-0.4,0-0.7,0.3-0.9,0.6c0,0.1-0.1,0.2-0.1,0.4v2.6h-1.1L85.7,278.1L85.7,278.1z"/>
		</g>
	</g>
	<g>
		<g>
			<path fill="#FFFFFF" d="M91.3,274.8h1.1v6.4h-1.1V274.8z"/>
		</g>
	</g>
	<g>
		<g>
			<path fill="#FFFFFF" d="M94.6,276.8l0.8,2.4c0.1,0.3,0.2,0.6,0.3,0.8l0,0c0.1-0.2,0.1-0.6,0.2-0.9l0.7-2.3h1.2l-1.1,3
				c-0.6,1.6-1,2.4-1.5,2.8c-0.4,0.4-0.9,0.5-1.2,0.6l-0.3-0.9c0.2,0,0.4-0.1,0.6-0.3c0.2-0.1,0.5-0.4,0.6-0.7
				c0-0.1,0.1-0.1,0.1-0.2c0,0,0-0.1-0.1-0.2l-1.6-4L94.6,276.8L94.6,276.8z"/>
		</g>
	</g>
	<g>
		<g>
			<path fill="#FFFFFF" d="M102.2,275.6c0,0.3-0.2,0.6-0.6,0.6s-0.6-0.3-0.6-0.6c0-0.3,0.3-0.6,0.6-0.6
				C101.9,275,102.2,275.3,102.2,275.6z M101,281.2v-4.4h1.1v4.4H101z"/>
		</g>
	</g>
	<g>
		<g>
			<path fill="#FFFFFF" d="M103.7,278.1c0-0.5,0-0.9,0-1.3h1l0.1,0.7l0,0c0.2-0.3,0.7-0.8,1.4-0.8c0.8,0,1.6,0.5,1.6,1.9v2.6h-1.1
				v-2.5c0-0.6-0.2-1.1-0.8-1.1c-0.4,0-0.7,0.3-0.9,0.6c0,0.1-0.1,0.2-0.1,0.4v2.6h-1.1L103.7,278.1L103.7,278.1z"/>
		</g>
	</g>
	<g>
		<g>
			<path fill="#FFFFFF" d="M109.7,276.8l0.7,2.2c0.1,0.4,0.2,0.7,0.3,1.1l0,0c0.1-0.4,0.2-0.7,0.3-1.1l0.7-2.2h1.2l-1.7,4.4h-1.1
				l-1.6-4.4H109.7z"/>
		</g>
	</g>
	<g>
		<g>
			<path fill="#FFFFFF" d="M115.2,275.6c0,0.3-0.2,0.6-0.6,0.6s-0.6-0.3-0.6-0.6c0-0.3,0.3-0.6,0.6-0.6
				C114.9,275,115.1,275.3,115.2,275.6z M114,281.2v-4.4h1.1v4.4H114z"/>
		</g>
	</g>
	<g>
		<g>
			<path fill="#FFFFFF" d="M117.9,275.7v1.1h1.1v0.8h-1.1v1.9c0,0.5,0.1,0.8,0.6,0.8c0.2,0,0.3,0,0.4,0v0.8
				c-0.2,0.1-0.5,0.1-0.8,0.1c-0.4,0-0.7-0.1-1-0.4c-0.2-0.3-0.4-0.7-0.4-1.2v-2.1h-0.6v-0.8h0.6V276L117.9,275.7z"/>
		</g>
	</g>
	<g>
		<g>
			<path fill="#FFFFFF" d="M121.3,275.6c0,0.3-0.2,0.6-0.6,0.6s-0.6-0.3-0.6-0.6c0-0.3,0.3-0.6,0.6-0.6
				C121.1,275,121.3,275.3,121.3,275.6z M120.2,281.2v-4.4h1.1v4.4H120.2z"/>
		</g>
	</g>
	<g>
		<g>
			<path fill="#FFFFFF" d="M122.8,278.1c0-0.5,0-0.9,0-1.3h1l0.1,0.7l0,0c0.2-0.3,0.7-0.8,1.4-0.8c0.8,0,1.6,0.5,1.6,1.9v2.6h-1.1
				v-2.5c0-0.6-0.2-1.1-0.8-1.1c-0.4,0-0.7,0.3-0.9,0.6c0,0.1-0.1,0.2-0.1,0.4v2.6h-1.1L122.8,278.1L122.8,278.1z"/>
		</g>
	</g>
	<g>
		<g>
			<path fill="#FFFFFF" d="M132.3,280.6c0,0.9-0.2,1.6-0.6,2c-0.5,0.4-1.1,0.5-1.7,0.5c-0.6,0-1.2-0.1-1.5-0.4l0.2-0.8
				c0.3,0.2,0.7,0.3,1.3,0.3c0.7,0,1.3-0.4,1.3-1.3v-0.4l0,0c-0.3,0.4-0.7,0.6-1.3,0.6c-1.1,0-1.9-0.9-1.9-2.1c0-1.4,0.9-2.3,2-2.3
				c0.7,0,1.1,0.3,1.3,0.7l0,0v-0.6h1c0,0.3,0,0.7,0,1.3v2.5H132.3z M131.2,278.6c0-0.1,0-0.2,0-0.3c-0.1-0.4-0.4-0.7-0.9-0.7
				c-0.6,0-1.1,0.5-1.1,1.4c0,0.7,0.4,1.4,1.1,1.4c0.4,0,0.8-0.3,0.9-0.7c0-0.1,0-0.3,0-0.4V278.6z"/>
		</g>
	</g>
	<g>
		<g>
			<path fill="#FFFFFF" d="M136.2,281.2v-3.6h-0.6v-0.8h0.6v-0.2c0-0.6,0.2-1.1,0.5-1.5c0.3-0.3,0.8-0.4,1.1-0.4s0.5,0.1,0.7,0.1
				l-0.1,0.9c-0.1,0-0.3-0.1-0.5-0.1c-0.5,0-0.7,0.5-0.7,1v0.2h1v0.8h-0.9v3.6H136.2z"/>
		</g>
	</g>
	<g>
		<g>
			<path fill="#FFFFFF" d="M139.3,278.3c0-0.6,0-1,0-1.4h1v0.8l0,0c0.2-0.6,0.7-0.9,1.2-0.9c0.1,0,0.2,0,0.3,0v1c-0.1,0-0.2,0-0.3,0
				c-0.5,0-0.9,0.3-1,0.8c0,0.1,0,0.2,0,0.3v2.3h-1.1L139.3,278.3L139.3,278.3z"/>
		</g>
	</g>
	<g>
		<g>
			<path fill="#FFFFFF" d="M144,275.6c0,0.3-0.2,0.6-0.6,0.6c-0.4,0-0.6-0.3-0.6-0.6c0-0.3,0.3-0.6,0.6-0.6
				C143.8,275,144,275.3,144,275.6z M142.9,281.2v-4.4h1.1v4.4H142.9z"/>
		</g>
	</g>
	<g>
		<g>
			<path fill="#FFFFFF" d="M146.3,279.3c0,0.8,0.6,1.1,1.4,1.1c0.5,0,0.9-0.1,1.2-0.2l0.2,0.8c-0.4,0.2-0.9,0.3-1.5,0.3
				c-1.4,0-2.3-0.9-2.3-2.2c0-1.2,0.7-2.4,2.1-2.4c1.4,0,1.9,1.2,1.9,2.1c0,0.2,0,0.4,0,0.5L146.3,279.3L146.3,279.3z M148.2,278.6
				c0-0.4-0.2-1.1-0.9-1.1s-1,0.6-1,1.1H148.2z"/>
		</g>
	</g>
	<g>
		<g>
			<path fill="#FFFFFF" d="M150.5,278.1c0-0.5,0-0.9,0-1.3h1l0.1,0.7l0,0c0.2-0.3,0.7-0.8,1.4-0.8c0.8,0,1.6,0.5,1.6,1.9v2.6h-1.1
				v-2.5c0-0.6-0.2-1.1-0.8-1.1c-0.4,0-0.7,0.3-0.9,0.6c0,0.1-0.1,0.2-0.1,0.4v2.6h-1.1L150.5,278.1L150.5,278.1z"/>
		</g>
	</g>
	<g>
		<g>
			<path fill="#FFFFFF" d="M160.1,274.8v5.2c0,0.5,0,0.9,0,1.2h-1l-0.1-0.7l0,0c-0.3,0.5-0.8,0.8-1.4,0.8c-1.1,0-1.9-0.9-1.9-2.2
				c0-1.5,0.9-2.3,2-2.3c0.6,0,1,0.2,1.2,0.6l0,0v-2.5h1.2V274.8z M159,278.7c0-0.1,0-0.2,0-0.3c-0.1-0.4-0.5-0.8-1-0.8
				c-0.7,0-1.1,0.6-1.1,1.4s0.4,1.4,1.1,1.4c0.5,0,0.8-0.3,1-0.8c0-0.1,0-0.2,0-0.3V278.7z"/>
		</g>
	</g>
	<g>
		<g>
			<path fill="#FFFFFF" d="M161.6,280.2c0.2,0.2,0.7,0.3,1.1,0.3c0.5,0,0.7-0.2,0.7-0.5s-0.2-0.4-0.7-0.6c-0.9-0.3-1.2-0.8-1.2-1.3
				c0-0.8,0.6-1.4,1.7-1.4c0.5,0,0.9,0.1,1.2,0.3l-0.2,0.8c-0.2-0.1-0.5-0.3-0.9-0.3s-0.6,0.2-0.6,0.5s0.2,0.4,0.8,0.6
				c0.8,0.3,1.2,0.7,1.2,1.3c0,0.8-0.6,1.4-1.8,1.4c-0.5,0-1-0.1-1.3-0.3V280.2z"/>
		</g>
	</g>
	<g>
		<g>
			<path fill="#FFFFFF" d="M168.1,281.2v-3.6h-0.6v-0.8h0.6v-0.2c0-0.6,0.2-1.1,0.5-1.5c0.3-0.3,0.8-0.4,1.1-0.4s0.5,0.1,0.7,0.1
				l-0.1,0.9c-0.1,0-0.3-0.1-0.5-0.1c-0.5,0-0.7,0.5-0.7,1v0.2h1v0.8h-0.9v3.6H168.1z"/>
		</g>
	</g>
	<g>
		<g>
			<path fill="#FFFFFF" d="M171.2,278.3c0-0.6,0-1,0-1.4h1v0.8l0,0c0.2-0.6,0.7-0.9,1.2-0.9c0.1,0,0.2,0,0.3,0v1c-0.1,0-0.2,0-0.3,0
				c-0.5,0-0.9,0.3-1,0.8c0,0.1,0,0.2,0,0.3v2.3h-1.1L171.2,278.3L171.2,278.3z"/>
		</g>
	</g>
	<g>
		<g>
			<path fill="#FFFFFF" d="M178.8,279c0,1.6-1.1,2.3-2.3,2.3s-2.2-0.8-2.2-2.3c0-1.4,0.9-2.3,2.3-2.3
				C178,276.7,178.8,277.7,178.8,279z M175.5,279c0,0.8,0.4,1.5,1.1,1.5c0.6,0,1.1-0.6,1.1-1.5c0-0.7-0.3-1.5-1.1-1.5
				C175.9,277.5,175.5,278.3,175.5,279z"/>
		</g>
	</g>
	<g>
		<g>
			<path fill="#FFFFFF" d="M180.1,278.1c0-0.5,0-0.9,0-1.3h0.9l0.1,0.6l0,0c0.2-0.3,0.6-0.7,1.4-0.7c0.6,0,1,0.3,1.2,0.8l0,0
				c0.2-0.2,0.3-0.4,0.5-0.5c0.3-0.2,0.5-0.3,0.9-0.3c0.7,0,1.5,0.5,1.5,1.9v2.6h-1.1v-2.4c0-0.7-0.3-1.2-0.8-1.2
				c-0.4,0-0.7,0.3-0.8,0.6c0,0.1-0.1,0.2-0.1,0.4v2.6h-1.1v-2.5c0-0.6-0.2-1-0.8-1c-0.4,0-0.7,0.3-0.8,0.6c0,0.1-0.1,0.2-0.1,0.4
				v2.6h-1.1v-3.2H180.1z"/>
		</g>
	</g>
	<g>
		<g>
			<path fill="#FFFFFF" d="M190.3,274.8h1.1v2.6l0,0c0.1-0.2,0.3-0.4,0.5-0.5s0.5-0.2,0.8-0.2c0.7,0,1.5,0.5,1.5,1.9v2.6h-1.1v-2.5
				c0-0.6-0.2-1.1-0.8-1.1c-0.4,0-0.7,0.3-0.9,0.6c0,0.1,0,0.2,0,0.3v2.6h-1.1V274.8z"/>
		</g>
	</g>
	<g>
		<g>
			<path fill="#FFFFFF" d="M197,275.6c0,0.3-0.2,0.6-0.6,0.6c-0.4,0-0.6-0.3-0.6-0.6c0-0.3,0.3-0.6,0.6-0.6
				C196.8,275,197,275.3,197,275.6z M195.8,281.2v-4.4h1.1v4.4H195.8z"/>
		</g>
	</g>
	<g>
		<g>
			<path fill="#FFFFFF" d="M198.5,280.2c0.2,0.2,0.7,0.3,1.1,0.3c0.5,0,0.7-0.2,0.7-0.5s-0.2-0.4-0.7-0.6c-0.9-0.3-1.2-0.8-1.2-1.3
				c0-0.8,0.6-1.4,1.7-1.4c0.5,0,0.9,0.1,1.2,0.3l-0.2,0.8c-0.2-0.1-0.5-0.3-0.9-0.3s-0.6,0.2-0.6,0.5s0.2,0.4,0.8,0.6
				c0.8,0.3,1.2,0.7,1.2,1.3c0,0.8-0.6,1.4-1.8,1.4c-0.5,0-1-0.1-1.3-0.3V280.2z"/>
		</g>
	</g>
	<g>
		<g>
			<path fill="#FFFFFF" d="M16.4,288.9c0-0.5,0-0.9,0-1.3h1l0.1,0.7l0,0c0.2-0.3,0.7-0.8,1.4-0.8c0.8,0,1.6,0.5,1.6,1.9v2.6h-1.1
				v-2.5c0-0.6-0.2-1.1-0.8-1.1c-0.4,0-0.7,0.3-0.9,0.6c0,0.1-0.1,0.2-0.1,0.4v2.6h-1.1v-3.1H16.4z"/>
		</g>
	</g>
	<g>
		<g>
			<path fill="#FFFFFF" d="M22.7,290.1c0,0.8,0.6,1.1,1.4,1.1c0.5,0,0.9-0.1,1.2-0.2l0.2,0.8c-0.4,0.2-0.9,0.3-1.5,0.3
				c-1.4,0-2.3-0.9-2.3-2.2c0-1.2,0.7-2.4,2.1-2.4s1.9,1.2,1.9,2.1c0,0.2,0,0.4,0,0.5L22.7,290.1L22.7,290.1z M24.6,289.4
				c0-0.4-0.2-1.1-0.9-1.1c-0.7,0-1,0.6-1,1.1H24.6z"/>
		</g>
	</g>
	<g>
		<g>
			<path fill="#FFFFFF" d="M28.2,286.5v1.1h1.1v0.8h-1.1v1.9c0,0.5,0.1,0.8,0.6,0.8c0.2,0,0.3,0,0.4,0v0.8c-0.2,0.1-0.5,0.1-0.8,0.1
				c-0.4,0-0.7-0.1-1-0.4c-0.2-0.3-0.4-0.7-0.4-1.2v-2.1h-0.6v-0.8H27v-0.8L28.2,286.5z"/>
		</g>
	</g>
	<g>
		<g>
			<path fill="#FFFFFF" d="M31.2,287.6l0.5,2c0.1,0.5,0.2,0.9,0.3,1.4l0,0c0.1-0.5,0.2-1,0.4-1.4l0.6-2h0.9l0.5,1.9
				c0.1,0.5,0.3,1,0.4,1.5l0,0c0.1-0.5,0.2-1,0.3-1.5l0.5-1.9h1.1l-1.4,4.4h-1l-0.5-1.8c-0.1-0.5-0.2-0.9-0.3-1.4l0,0
				c-0.1,0.5-0.2,1-0.3,1.4l-0.6,1.8h-1l-1.3-4.4H31.2z"/>
		</g>
	</g>
	<g>
		<g>
			<path fill="#FFFFFF" d="M41.6,289.8c0,1.6-1.1,2.3-2.3,2.3s-2.2-0.8-2.2-2.3c0-1.4,0.9-2.3,2.3-2.3
				C40.8,287.5,41.6,288.5,41.6,289.8z M38.3,289.8c0,0.8,0.4,1.5,1.1,1.5c0.6,0,1.1-0.6,1.1-1.5c0-0.7-0.3-1.5-1.1-1.5
				C38.7,288.3,38.3,289.1,38.3,289.8z"/>
		</g>
	</g>
	<g>
		<g>
			<path fill="#FFFFFF" d="M42.9,289.1c0-0.6,0-1,0-1.4h1v0.8l0,0c0.2-0.6,0.7-0.9,1.2-0.9c0.1,0,0.2,0,0.3,0v1c-0.1,0-0.2,0-0.3,0
				c-0.5,0-0.9,0.3-1,0.8c0,0.1,0,0.2,0,0.3v2.3H43v-2.9H42.9z"/>
		</g>
	</g>
	<g>
		<g>
			<path fill="#FFFFFF" d="M47.6,289.6L47.6,289.6c0.1-0.2,0.3-0.4,0.4-0.5l1.1-1.4h1.3l-1.6,1.8l1.9,2.6h-1.4l-1.3-1.9l-0.4,0.4
				v1.5h-1.1v-6.4h1.1V289.6z"/>
		</g>
	</g>
	<g>
		<g>
			<path fill="#FFFFFF" d="M54.9,286.5v1.1H56v0.8h-1.1v1.9c0,0.5,0.1,0.8,0.6,0.8c0.2,0,0.3,0,0.4,0v0.8c-0.2,0.1-0.5,0.1-0.8,0.1
				c-0.4,0-0.7-0.1-1-0.4c-0.2-0.3-0.4-0.7-0.4-1.2v-2.1h-0.6v-0.8h0.6v-0.8L54.9,286.5z"/>
		</g>
	</g>
	<g>
		<g>
			<path fill="#FFFFFF" d="M57.2,285.6h1.1v2.6l0,0c0.1-0.2,0.3-0.4,0.5-0.5s0.5-0.2,0.8-0.2c0.7,0,1.5,0.5,1.5,1.9v2.6H60v-2.5
				c0-0.6-0.2-1.1-0.8-1.1c-0.4,0-0.7,0.3-0.9,0.6c0,0.1,0,0.2,0,0.3v2.6h-1.1V285.6z"/>
		</g>
	</g>
	<g>
		<g>
			<path fill="#FFFFFF" d="M66.1,291c0,0.4,0,0.8,0.1,1.1h-1l-0.1-0.5l0,0c-0.3,0.3-0.7,0.6-1.3,0.6c-0.9,0-1.4-0.6-1.4-1.3
				c0-1.1,1-1.7,2.6-1.7v-0.1c0-0.3-0.1-0.8-0.9-0.8c-0.4,0-0.9,0.1-1.2,0.3l-0.2-0.7c0.3-0.2,0.9-0.4,1.6-0.4
				c1.4,0,1.8,0.9,1.8,1.9V291z M65,289.9c-0.8,0-1.5,0.2-1.5,0.8c0,0.4,0.3,0.6,0.6,0.6c0.5,0,0.8-0.3,0.9-0.6c0-0.1,0-0.2,0-0.2
				V289.9z"/>
		</g>
	</g>
	<g>
		<g>
			<path fill="#FFFFFF" d="M68.8,286.5v1.1h1.1v0.8h-1.1v1.9c0,0.5,0.1,0.8,0.6,0.8c0.2,0,0.3,0,0.4,0v0.8c-0.2,0.1-0.5,0.1-0.8,0.1
				c-0.4,0-0.7-0.1-1-0.4c-0.2-0.3-0.4-0.7-0.4-1.2v-2.1H67v-0.8h0.6v-0.8L68.8,286.5z"/>
		</g>
	</g>
	<g>
		<g>
			<path fill="#FFFFFF" d="M73.3,285.6h1.1v2.6l0,0c0.1-0.2,0.3-0.4,0.5-0.5s0.5-0.2,0.8-0.2c0.7,0,1.5,0.5,1.5,1.9v2.6h-1.1v-2.5
				c0-0.6-0.2-1.1-0.8-1.1c-0.4,0-0.7,0.3-0.9,0.6c0,0.1,0,0.2,0,0.3v2.6h-1.1V285.6z"/>
		</g>
	</g>
	<g>
		<g>
			<path fill="#FFFFFF" d="M79.6,290.1c0,0.8,0.6,1.1,1.4,1.1c0.5,0,0.9-0.1,1.2-0.2l0.2,0.8c-0.4,0.2-0.9,0.3-1.5,0.3
				c-1.4,0-2.3-0.9-2.3-2.2c0-1.2,0.7-2.4,2.1-2.4s1.9,1.2,1.9,2.1c0,0.2,0,0.4,0,0.5L79.6,290.1L79.6,290.1z M81.5,289.4
				c0-0.4-0.2-1.1-0.9-1.1c-0.7,0-1,0.6-1,1.1H81.5z"/>
		</g>
	</g>
	<g>
		<g>
			<path fill="#FFFFFF" d="M87.1,289.6L87.1,289.6c0.1-0.2,0.3-0.4,0.4-0.5l1.1-1.4h1.3l-1.6,1.8l1.9,2.6h-1.4l-1.3-1.9l-0.4,0.4
				v1.5H86v-6.4h1.1V289.6z"/>
		</g>
	</g>
	<g>
		<g>
			<path fill="#FFFFFF" d="M91.1,288.9c0-0.5,0-0.9,0-1.3h1l0.1,0.7l0,0c0.2-0.3,0.7-0.8,1.4-0.8c0.8,0,1.6,0.5,1.6,1.9v2.6h-1.1
				v-2.5c0-0.6-0.2-1.1-0.8-1.1c-0.4,0-0.7,0.3-0.9,0.6c0,0.1-0.1,0.2-0.1,0.4v2.6h-1.1L91.1,288.9L91.1,288.9z"/>
		</g>
	</g>
	<g>
		<g>
			<path fill="#FFFFFF" d="M100.8,289.8c0,1.6-1.1,2.3-2.2,2.3c-1.2,0-2.2-0.8-2.2-2.3c0-1.4,0.9-2.3,2.3-2.3
				C99.9,287.5,100.8,288.5,100.8,289.8z M97.4,289.8c0,0.8,0.4,1.5,1.1,1.5c0.6,0,1.1-0.6,1.1-1.5c0-0.7-0.3-1.5-1.1-1.5
				C97.8,288.3,97.4,289.1,97.4,289.8z"/>
		</g>
	</g>
	<g>
		<g>
			<path fill="#FFFFFF" d="M102.6,287.6l0.5,2c0.1,0.5,0.2,0.9,0.3,1.4l0,0c0.1-0.5,0.2-1,0.4-1.4l0.6-2h0.9l0.5,1.9
				c0.1,0.5,0.3,1,0.4,1.5l0,0c0.1-0.5,0.2-1,0.3-1.5l0.5-1.9h1.1l-1.4,4.4h-1l-0.5-1.8c-0.1-0.5-0.2-0.9-0.3-1.4l0,0
				c-0.1,0.5-0.2,1-0.3,1.4L104,292h-1l-1.3-4.4H102.6z"/>
		</g>
	</g>
	<g>
		<g>
			<path fill="#FFFFFF" d="M108.9,291c0.2,0.2,0.7,0.3,1.1,0.3c0.5,0,0.7-0.2,0.7-0.5s-0.2-0.4-0.7-0.6c-0.9-0.3-1.2-0.8-1.2-1.3
				c0-0.8,0.6-1.4,1.7-1.4c0.5,0,0.9,0.1,1.2,0.3l-0.2,0.8c-0.2-0.1-0.5-0.3-0.9-0.3s-0.6,0.2-0.6,0.5s0.2,0.4,0.8,0.6
				c0.8,0.3,1.2,0.7,1.2,1.3c0,0.8-0.6,1.4-1.8,1.4c-0.5,0-1-0.1-1.3-0.3L108.9,291z"/>
		</g>
	</g>
	<g>
		<g>
			<path fill="#FFFFFF" d="M115.9,287.6l0.5,2c0.1,0.5,0.2,0.9,0.3,1.4l0,0c0.1-0.5,0.2-1,0.4-1.4l0.6-2h0.9l0.5,1.9
				c0.1,0.5,0.3,1,0.4,1.5l0,0c0.1-0.5,0.2-1,0.3-1.5l0.5-1.9h1.1L120,292h-1l-0.5-1.8c-0.1-0.5-0.2-0.9-0.3-1.4l0,0
				c-0.1,0.5-0.2,1-0.3,1.4l-0.6,1.8h-1l-1.3-4.4H115.9z"/>
		</g>
	</g>
	<g>
		<g>
			<path fill="#FFFFFF" d="M123.6,286.4c0,0.3-0.2,0.6-0.6,0.6s-0.6-0.3-0.6-0.6c0-0.3,0.3-0.6,0.6-0.6
				C123.3,285.8,123.5,286.1,123.6,286.4z M122.4,292v-4.4h1.1v4.4H122.4z"/>
		</g>
	</g>
	<g>
		<g>
			<path fill="#FFFFFF" d="M125,285.6h1.1v6.4H125V285.6z"/>
		</g>
	</g>
	<g>
		<g>
			<path fill="#FFFFFF" d="M127.7,285.6h1.1v6.4h-1.1C127.7,292,127.7,285.6,127.7,285.6z"/>
		</g>
	</g>
	<g>
		<g>
			<path fill="#FFFFFF" d="M133.4,290.1c0,0.8,0.6,1.1,1.4,1.1c0.5,0,0.9-0.1,1.2-0.2l0.2,0.8c-0.4,0.2-0.9,0.3-1.5,0.3
				c-1.4,0-2.3-0.9-2.3-2.2c0-1.2,0.7-2.4,2.1-2.4c1.4,0,1.9,1.2,1.9,2.1c0,0.2,0,0.4,0,0.5L133.4,290.1L133.4,290.1z M135.3,289.4
				c0-0.4-0.2-1.1-0.9-1.1s-1,0.6-1,1.1H135.3z"/>
		</g>
	</g>
	<g>
		<g>
			<path fill="#FFFFFF" d="M137.6,288.9c0-0.5,0-0.9,0-1.3h1l0.1,0.7l0,0c0.2-0.3,0.7-0.8,1.4-0.8c0.8,0,1.6,0.5,1.6,1.9v2.6h-1.1
				v-2.5c0-0.6-0.2-1.1-0.8-1.1c-0.4,0-0.7,0.3-0.9,0.6c0,0.1-0.1,0.2-0.1,0.4v2.6h-1.1L137.6,288.9L137.6,288.9z"/>
		</g>
	</g>
	<g>
		<g>
			<path fill="#FFFFFF" d="M142.2,293.1c0.4,0,0.6-0.1,0.8-0.3c0.2-0.2,0.3-0.6,0.3-1.5v-3.6h1.1v3.9c0,0.9-0.2,1.5-0.6,1.9
				c-0.4,0.4-1,0.5-1.5,0.5L142.2,293.1z M144.4,286.4c0,0.3-0.2,0.6-0.6,0.6c-0.4,0-0.6-0.3-0.6-0.6c0-0.3,0.3-0.6,0.6-0.6
				C144.2,285.8,144.4,286.1,144.4,286.4z"/>
		</g>
	</g>
	<g>
		<g>
			<path fill="#FFFFFF" d="M150.1,289.8c0,1.6-1.1,2.3-2.2,2.3c-1.2,0-2.2-0.8-2.2-2.3c0-1.4,0.9-2.3,2.3-2.3
				C149.2,287.5,150.1,288.5,150.1,289.8z M146.8,289.8c0,0.8,0.4,1.5,1.1,1.5c0.6,0,1.1-0.6,1.1-1.5c0-0.7-0.3-1.5-1.1-1.5
				S146.8,289.1,146.8,289.8z"/>
		</g>
	</g>
	<g>
		<g>
			<path fill="#FFFFFF" d="M152,287.6l0.8,2.4c0.1,0.3,0.2,0.6,0.3,0.8l0,0c0.1-0.2,0.1-0.6,0.2-0.9l0.7-2.3h1.2l-1.1,3
				c-0.6,1.6-1,2.4-1.5,2.8c-0.4,0.4-0.9,0.5-1.2,0.6l-0.3-0.9c0.2,0,0.4-0.1,0.6-0.3c0.2-0.1,0.5-0.4,0.6-0.7
				c0-0.1,0.1-0.1,0.1-0.2c0,0,0-0.1-0.1-0.2l-1.6-4L152,287.6L152,287.6z"/>
		</g>
	</g>
	<g>
		<g>
			<path fill="#FFFFFF" d="M159.6,286.5v1.1h1.1v0.8h-1.1v1.9c0,0.5,0.1,0.8,0.6,0.8c0.2,0,0.3,0,0.4,0v0.8
				c-0.2,0.1-0.5,0.1-0.8,0.1c-0.4,0-0.7-0.1-1-0.4c-0.2-0.3-0.4-0.7-0.4-1.2v-2.1h-0.6v-0.8h0.6v-0.8L159.6,286.5z"/>
		</g>
	</g>
	<g>
		<g>
			<path fill="#FFFFFF" d="M161.9,285.6h1.1v2.6l0,0c0.1-0.2,0.3-0.4,0.5-0.5s0.5-0.2,0.8-0.2c0.7,0,1.5,0.5,1.5,1.9v2.6h-1.1v-2.5
				c0-0.6-0.2-1.1-0.8-1.1c-0.4,0-0.7,0.3-0.9,0.6c0,0.1,0,0.2,0,0.3v2.6h-1.1V285.6z"/>
		</g>
	</g>
	<g>
		<g>
			<path fill="#FFFFFF" d="M168.2,290.1c0,0.8,0.6,1.1,1.4,1.1c0.5,0,0.9-0.1,1.2-0.2l0.2,0.8c-0.4,0.2-0.9,0.3-1.5,0.3
				c-1.4,0-2.3-0.9-2.3-2.2c0-1.2,0.7-2.4,2.1-2.4c1.4,0,1.9,1.2,1.9,2.1c0,0.2,0,0.4,0,0.5L168.2,290.1L168.2,290.1z M170.1,289.4
				c0-0.4-0.2-1.1-0.9-1.1s-1,0.6-1,1.1H170.1z"/>
		</g>
	</g>
	<g>
		<g>
			<path fill="#FFFFFF" d="M174.6,291c0.2,0.2,0.7,0.3,1.1,0.3c0.5,0,0.7-0.2,0.7-0.5s-0.2-0.4-0.7-0.6c-0.9-0.3-1.2-0.8-1.2-1.3
				c0-0.8,0.6-1.4,1.7-1.4c0.5,0,0.9,0.1,1.2,0.3l-0.2,0.8c-0.2-0.1-0.5-0.3-0.9-0.3s-0.6,0.2-0.6,0.5s0.2,0.4,0.8,0.6
				c0.8,0.3,1.2,0.7,1.2,1.3c0,0.8-0.6,1.4-1.8,1.4c-0.5,0-1-0.1-1.3-0.3V291z"/>
		</g>
	</g>
	<g>
		<g>
			<path fill="#FFFFFF" d="M178.7,285.6h1.1v6.4h-1.1V285.6z"/>
		</g>
	</g>
	<g>
		<g>
			<path fill="#FFFFFF" d="M185.6,289.8c0,1.6-1.1,2.3-2.3,2.3s-2.2-0.8-2.2-2.3c0-1.4,0.9-2.3,2.3-2.3
				C184.7,287.5,185.6,288.5,185.6,289.8z M182.3,289.8c0,0.8,0.4,1.5,1.1,1.5c0.6,0,1.1-0.6,1.1-1.5c0-0.7-0.3-1.5-1.1-1.5
				S182.3,289.1,182.3,289.8z"/>
		</g>
	</g>
	<g>
		<g>
			<path fill="#FFFFFF" d="M186.8,289.1c0-0.6,0-1,0-1.5h1l0.1,0.7l0,0c0.3-0.5,0.8-0.8,1.5-0.8c1,0,1.8,0.9,1.8,2.2
				c0,1.6-1,2.3-2,2.3c-0.5,0-1-0.2-1.2-0.6l0,0v2.3h-1.1v-4.6H186.8z M187.9,290.2c0,0.1,0,0.2,0,0.3c0.1,0.5,0.5,0.8,1,0.8
				c0.7,0,1.1-0.6,1.1-1.5c0-0.8-0.4-1.4-1.1-1.4c-0.5,0-0.9,0.3-1,0.8c0,0.1,0,0.2,0,0.3V290.2z"/>
		</g>
	</g>
	<g>
		<g>
			<path fill="#FFFFFF" d="M193.2,290.1c0,0.8,0.6,1.1,1.4,1.1c0.5,0,0.9-0.1,1.2-0.2l0.2,0.8c-0.4,0.2-0.9,0.3-1.5,0.3
				c-1.4,0-2.3-0.9-2.3-2.2c0-1.2,0.7-2.4,2.1-2.4c1.4,0,1.9,1.2,1.9,2.1c0,0.2,0,0.4,0,0.5L193.2,290.1L193.2,290.1z M195.2,289.4
				c0-0.4-0.2-1.1-0.9-1.1s-1,0.6-1,1.1H195.2z"/>
		</g>
	</g>
	<g>
		<g>
			<path fill="#FFFFFF" d="M197.4,291c0.2,0.2,0.7,0.3,1.1,0.3c0.5,0,0.7-0.2,0.7-0.5s-0.2-0.4-0.7-0.6c-0.9-0.3-1.2-0.8-1.2-1.3
				c0-0.8,0.6-1.4,1.7-1.4c0.5,0,0.9,0.1,1.2,0.3l-0.2,0.8c-0.2-0.1-0.5-0.3-0.9-0.3s-0.6,0.2-0.6,0.5s0.2,0.4,0.8,0.6
				c0.8,0.3,1.2,0.7,1.2,1.3c0,0.8-0.6,1.4-1.8,1.4c-0.5,0-1-0.1-1.3-0.3V291z"/>
		</g>
	</g>
	<g>
		<g>
			<path fill="#FFFFFF" d="M19.8,301.8c0,0.4,0,0.8,0.1,1.1h-1l-0.1-0.5l0,0c-0.3,0.3-0.7,0.6-1.3,0.6c-0.9,0-1.4-0.6-1.4-1.3
				c0-1.1,1-1.7,2.6-1.7v-0.1c0-0.3-0.1-0.8-0.9-0.8c-0.4,0-0.9,0.1-1.2,0.3l-0.2-0.7c0.3-0.2,0.9-0.4,1.6-0.4
				c1.4,0,1.8,0.9,1.8,1.9V301.8z M18.7,300.7c-0.8,0-1.5,0.2-1.5,0.8c0,0.4,0.3,0.6,0.6,0.6c0.5,0,0.8-0.3,0.9-0.6
				c0-0.1,0-0.2,0-0.2V300.7z"/>
		</g>
	</g>
	<g>
		<g>
			<path fill="#FFFFFF" d="M21.3,301.8c0.2,0.2,0.7,0.3,1.1,0.3c0.5,0,0.7-0.2,0.7-0.5s-0.2-0.4-0.7-0.6c-0.9-0.3-1.2-0.8-1.2-1.3
				c0-0.8,0.6-1.4,1.7-1.4c0.5,0,0.9,0.1,1.2,0.3l-0.2,0.8c-0.2-0.1-0.5-0.3-0.9-0.3s-0.6,0.2-0.6,0.5s0.2,0.4,0.8,0.6
				c0.8,0.3,1.2,0.7,1.2,1.3c0,0.8-0.6,1.4-1.8,1.4c-0.5,0-1-0.1-1.3-0.3L21.3,301.8z"/>
		</g>
	</g>
	<g>
		<g>
			<path fill="#FFFFFF" d="M27.7,299.7c0-0.5,0-0.9,0-1.3h0.9l0.1,0.6l0,0c0.2-0.3,0.6-0.7,1.4-0.7c0.6,0,1,0.3,1.2,0.8l0,0
				c0.2-0.2,0.3-0.4,0.5-0.5c0.3-0.2,0.5-0.3,0.9-0.3c0.7,0,1.5,0.5,1.5,1.9v2.6H33v-2.4c0-0.7-0.3-1.2-0.8-1.2
				c-0.4,0-0.7,0.3-0.8,0.6c0,0.1-0.1,0.2-0.1,0.4v2.6h-1.1v-2.5c0-0.6-0.2-1-0.8-1c-0.4,0-0.7,0.3-0.8,0.6c0,0.1-0.1,0.2-0.1,0.4
				v2.6h-1.1v-3.2H27.7z"/>
		</g>
	</g>
	<g>
		<g>
			<path fill="#FFFFFF" d="M39.6,301.5c0,0.5,0,1,0,1.3h-1l-0.1-0.7l0,0c-0.2,0.3-0.6,0.8-1.4,0.8s-1.5-0.5-1.5-1.9v-2.6h1.1v2.4
				c0,0.7,0.2,1.2,0.8,1.2c0.5,0,0.7-0.3,0.8-0.6c0-0.1,0.1-0.2,0.1-0.3v-2.6h1.1v3H39.6z"/>
		</g>
	</g>
	<g>
		<g>
			<path fill="#FFFFFF" d="M44.4,302.7c-0.2,0.1-0.7,0.2-1.2,0.2c-1.4,0-2.3-0.9-2.3-2.2c0-1.3,0.9-2.3,2.4-2.3
				c0.4,0,0.8,0.1,1.1,0.2l-0.2,0.8c-0.2-0.1-0.4-0.2-0.8-0.2c-0.8,0-1.4,0.6-1.3,1.4c0,0.9,0.6,1.4,1.3,1.4c0.4,0,0.7-0.1,0.9-0.2
				L44.4,302.7z"/>
		</g>
	</g>
	<g>
		<g>
			<path fill="#FFFFFF" d="M45.5,296.4h1.1v2.6l0,0c0.1-0.2,0.3-0.4,0.5-0.5s0.5-0.2,0.8-0.2c0.7,0,1.5,0.5,1.5,1.9v2.6h-1.1v-2.5
				c0-0.6-0.2-1.1-0.8-1.1c-0.4,0-0.7,0.3-0.9,0.6c0,0.1,0,0.2,0,0.3v2.6h-1.1V296.4z"/>
		</g>
	</g>
	<g>
		<g>
			<path fill="#FFFFFF" d="M56.7,301.8c0,0.4,0,0.8,0.1,1.1h-1l-0.1-0.5l0,0c-0.3,0.3-0.7,0.6-1.3,0.6c-0.9,0-1.4-0.6-1.4-1.3
				c0-1.1,1-1.7,2.6-1.7v-0.1c0-0.3-0.1-0.8-0.9-0.8c-0.4,0-0.9,0.1-1.2,0.3l-0.2-0.7c0.3-0.2,0.9-0.4,1.6-0.4
				c1.4,0,1.8,0.9,1.8,1.9C56.7,300.2,56.7,301.8,56.7,301.8z M55.6,300.7c-0.8,0-1.5,0.2-1.5,0.8c0,0.4,0.3,0.6,0.6,0.6
				c0.5,0,0.8-0.3,0.9-0.6c0-0.1,0-0.2,0-0.2V300.7z"/>
		</g>
	</g>
	<g>
		<g>
			<path fill="#FFFFFF" d="M58.2,301.8c0.2,0.2,0.7,0.3,1.1,0.3c0.5,0,0.7-0.2,0.7-0.5s-0.2-0.4-0.7-0.6c-0.9-0.3-1.2-0.8-1.2-1.3
				c0-0.8,0.6-1.4,1.7-1.4c0.5,0,0.9,0.1,1.2,0.3l-0.2,0.8c-0.2-0.1-0.5-0.3-0.9-0.3s-0.6,0.2-0.6,0.5s0.2,0.4,0.8,0.6
				c0.8,0.3,1.2,0.7,1.2,1.3c0,0.8-0.6,1.4-1.8,1.4c-0.5,0-1-0.1-1.3-0.3V301.8z"/>
		</g>
	</g>
	<g>
		<g>
			<path fill="#FFFFFF" d="M64.5,296.4h1.1v2.6l0,0c0.1-0.2,0.3-0.4,0.5-0.5s0.5-0.2,0.8-0.2c0.7,0,1.5,0.5,1.5,1.9v2.6h-1.1v-2.5
				c0-0.6-0.2-1.1-0.8-1.1c-0.4,0-0.7,0.3-0.9,0.6c0,0.1,0,0.2,0,0.3v2.6h-1.1V296.4z"/>
		</g>
	</g>
	<g>
		<g>
			<path fill="#FFFFFF" d="M70.8,300.9c0,0.8,0.6,1.1,1.4,1.1c0.5,0,0.9-0.1,1.2-0.2l0.2,0.8c-0.4,0.2-0.9,0.3-1.5,0.3
				c-1.4,0-2.3-0.9-2.3-2.2c0-1.2,0.7-2.4,2.1-2.4s1.9,1.2,1.9,2.1c0,0.2,0,0.4,0,0.5L70.8,300.9L70.8,300.9z M72.8,300.2
				c0-0.4-0.2-1.1-0.9-1.1c-0.7,0-1,0.6-1,1.1H72.8z"/>
		</g>
	</g>
	<g>
		<g>
			<path fill="#FFFFFF" d="M81.3,296.4v5.2c0,0.5,0,0.9,0,1.2h-1l-0.1-0.7l0,0c-0.3,0.5-0.8,0.8-1.4,0.8c-1.1,0-1.9-0.9-1.9-2.2
				c0-1.5,0.9-2.3,2-2.3c0.6,0,1,0.2,1.2,0.6l0,0v-2.5h1.2V296.4z M80.2,300.3c0-0.1,0-0.2,0-0.3c-0.1-0.4-0.5-0.8-1-0.8
				c-0.7,0-1.1,0.6-1.1,1.4s0.4,1.4,1.1,1.4c0.5,0,0.8-0.3,1-0.8c0-0.1,0-0.2,0-0.3V300.3z"/>
		</g>
	</g>
	<g>
		<g>
			<path fill="#FFFFFF" d="M87,300.6c0,1.6-1.1,2.3-2.3,2.3c-1.2,0-2.2-0.8-2.2-2.3c0-1.4,0.9-2.3,2.3-2.3
				C86.2,298.3,87,299.3,87,300.6z M83.7,300.6c0,0.8,0.4,1.5,1.1,1.5c0.6,0,1.1-0.6,1.1-1.5c0-0.7-0.3-1.5-1.1-1.5
				S83.7,299.9,83.7,300.6z"/>
		</g>
	</g>
	<g>
		<g>
			<path fill="#FFFFFF" d="M89.1,300.9c0,0.8,0.6,1.1,1.4,1.1c0.5,0,0.9-0.1,1.2-0.2l0.2,0.8c-0.4,0.2-0.9,0.3-1.5,0.3
				c-1.4,0-2.3-0.9-2.3-2.2c0-1.2,0.7-2.4,2.1-2.4s1.9,1.2,1.9,2.1c0,0.2,0,0.4,0,0.5L89.1,300.9L89.1,300.9z M91,300.2
				c0-0.4-0.2-1.1-0.9-1.1c-0.7,0-1,0.6-1,1.1H91z"/>
		</g>
	</g>
	<g>
		<g>
			<path fill="#FFFFFF" d="M93.3,301.8c0.2,0.2,0.7,0.3,1.1,0.3c0.5,0,0.7-0.2,0.7-0.5s-0.2-0.4-0.7-0.6c-0.9-0.3-1.2-0.8-1.2-1.3
				c0-0.8,0.6-1.4,1.7-1.4c0.5,0,0.9,0.1,1.2,0.3l-0.2,0.8c-0.2-0.1-0.5-0.3-0.9-0.3s-0.6,0.2-0.6,0.5s0.2,0.4,0.8,0.6
				c0.8,0.3,1.2,0.7,1.2,1.3c0,0.8-0.6,1.4-1.8,1.4c-0.5,0-1-0.1-1.3-0.3L93.3,301.8z"/>
		</g>
	</g>
	<g>
		<g>
			<path fill="#FFFFFF" d="M97.2,302.2c0-0.4,0.3-0.7,0.7-0.7c0.4,0,0.7,0.3,0.7,0.7c0,0.4-0.3,0.7-0.7,0.7
				C97.5,302.9,97.2,302.6,97.2,302.2z"/>
		</g>
	</g>
</g>
<path fill="#79C7D9" d="M163.4,19c-0.4-0.3-1-0.1-1.3,0.3c-0.3,0.4-0.1,1,0.3,1.3L220.6,58c0.1,0.1,0.2,0.2,0.3,0.2V56L163.4,19z"/>
<path fill="#79C7D9" d="M79.8,24.7L41.4,0h-3.5l40.8,26.2c0.1,0.2,0.3,0.2,0.5,0.2c0.3,0,0.6-0.1,0.9-0.4
	C80.4,25.6,80.2,25,79.8,24.7z"/>
</svg>
