<?xml version="1.0" encoding="utf-8"?>
<!-- Generator: Adobe Illustrator 19.2.1, SVG Export Plug-In . SVG Version: 6.00 Build 0)  -->
<svg version="1.1" id="Layer_1" xmlns="http://www.w3.org/2000/svg" xmlns:xlink="http://www.w3.org/1999/xlink" x="0px" y="0px"
	 viewBox="0 0 220.9 331.7" enable-background="new 0 0 220.9 331.7" xml:space="preserve">
<g>
	<g>
		<g>
			<rect fill="#7E5EA2" width="220.9" height="331.7"/>
		</g>
	</g>
</g>
<g>
	<g>
		<g>
			<path fill="#79C7D9" d="M114.1,263.4c-0.2,0-0.4-0.1-0.5-0.2l-57.6-37c-0.5-0.3-0.6-0.9-0.3-1.4s0.9-0.6,1.4-0.3l57.6,37
				c0.5,0.3,0.6,0.9,0.3,1.4C114.7,263.2,114.4,263.4,114.1,263.4z"/>
		</g>
	</g>
</g>
<g>
	<g>
		<g>
			<g>
				<g>
					<g>
						<g>
							<path fill="#673D92" d="M137,213.4c-0.6,0-1.3-0.2-1.9-0.5l-63-37c-1.8-1-2.3-3.3-1.3-5s3.3-2.3,5-1.3l63,37
								c1.8,1,2.3,3.3,1.3,5C139.5,212.8,138.3,213.4,137,213.4z"/>
						</g>
					</g>
				</g>
			</g>
		</g>
	</g>
	<g>
		<g>
			<g>
				<g>
					<g>
						<g>
							<path fill="#673D92" d="M151.2,207c-0.6,0-1.3-0.2-1.9-0.5l-63-37c-1.8-1-2.3-3.3-1.3-5c1-1.8,3.3-2.3,5-1.3l63,37
								c1.8,1,2.3,3.3,1.3,5C153.7,206.4,152.5,207,151.2,207z"/>
						</g>
					</g>
				</g>
			</g>
		</g>
	</g>
	<g>
		<g>
			<g>
				<g>
					<g>
						<path fill="#FFFFFF" d="M110.3,194.5c-0.2,0-0.4,0-0.5-0.1c-0.6-0.3-0.9-1-0.6-1.6l8-17l-12.3-14.2c-0.4-0.5-0.4-1.3,0.1-1.7
							s1.3-0.4,1.7,0.1l12.9,14.8c0.3,0.4,0.4,0.9,0.2,1.3l-8.4,17.7C111.2,194.2,110.8,194.5,110.3,194.5z"/>
					</g>
				</g>
			</g>
		</g>
	</g>
	<g>
		<g>
			<g>
				<g>
					<g>
						<path fill="#FFFFFF" d="M128.9,190.5c-0.2,0-0.4,0-0.6-0.1c-0.6-0.3-0.8-1.1-0.5-1.7l6.4-12.1l-11.4-15
							c-0.4-0.5-0.3-1.3,0.2-1.7s1.3-0.3,1.7,0.2l11.9,15.7c0.3,0.4,0.3,0.9,0.1,1.3l-6.8,12.8C129.8,190.2,129.3,190.5,128.9,190.5
							z"/>
					</g>
				</g>
			</g>
		</g>
	</g>
	<g>
		<g>
			<g>
				<g>
					<g>
						<path fill="#7E5EA2" d="M118.4,162.2h-8.1c-10.8,0-19.5-8.7-19.5-19.5v-39.6c0-10.8,8.7-19.5,19.5-19.5h8.1
							c10.8,0,19.5,8.7,19.5,19.5v39.6C137.8,153.5,129.1,162.2,118.4,162.2z"/>
					</g>
				</g>
			</g>
		</g>
		<g>
			<g>
				<g>
					<g>
						<path fill="#FFFFFF" d="M114.3,163.4c-13.7,0-24.8-11.1-24.8-24.8v-31.5c0-13.7,11.1-24.8,24.8-24.8s24.8,11.1,24.8,24.8v31.5
							C139.1,152.3,128,163.4,114.3,163.4z M114.3,84.8c-12.3,0-22.3,10-22.3,22.3v31.5c0,12.3,10,22.3,22.3,22.3l0,0
							c12.3,0,22.3-10,22.3-22.3v-31.5C136.6,94.8,126.6,84.8,114.3,84.8z"/>
					</g>
				</g>
			</g>
		</g>
	</g>
	<g>
		<g>
			<g>
				<g>
					<g>
						<g>
							<circle fill="#7E5EA2" cx="118.6" cy="106.4" r="12.8"/>
						</g>
					</g>
				</g>
			</g>
			<g>
				<g>
					<g>
						<g>
							<path fill="#FFFFFF" d="M118.6,120.4c-7.7,0-14-6.3-14-14s6.3-14,14-14s14,6.3,14,14S126.3,120.4,118.6,120.4z M118.6,94.9
								c-6.4,0-11.6,5.2-11.6,11.6s5.2,11.6,11.6,11.6s11.6-5.2,11.6-11.6S125,94.9,118.6,94.9z"/>
						</g>
					</g>
				</g>
			</g>
		</g>
		<g>
			<g>
				<g>
					<g>
						<g>
							<path fill="#FFFFFF" d="M118.6,114.7c-4.6,0-8.3-3.7-8.3-8.3c0-4.6,3.7-8.3,8.3-8.3c4.6,0,8.3,3.7,8.3,8.3
								S123.2,114.7,118.6,114.7z M118.6,98.7c-4.2,0-7.7,3.5-7.7,7.7s3.4,7.7,7.7,7.7c4.2,0,7.7-3.5,7.7-7.7
								C126.3,102.2,122.8,98.7,118.6,98.7z"/>
						</g>
					</g>
				</g>
			</g>
		</g>
		<g>
			<g>
				<g>
					<g>
						<g>
							<path fill="#FFFFFF" d="M118.6,112.6c-3.4,0-6.2-2.8-6.2-6.2c0-3.4,2.8-6.2,6.2-6.2c3.4,0,6.2,2.8,6.2,6.2
								C124.8,109.8,122,112.6,118.6,112.6z M118.6,100.8c-3.1,0-5.6,2.5-5.6,5.6s2.5,5.6,5.6,5.6s5.6-2.5,5.6-5.6
								S121.7,100.8,118.6,100.8z"/>
						</g>
					</g>
				</g>
			</g>
		</g>
		<g>
			<g>
				<g>
					<g>
						<g>
							<circle fill="#FFFFFF" cx="115.8" cy="100.5" r="4.1"/>
						</g>
					</g>
				</g>
			</g>
		</g>
	</g>
	<g>
		<g>
			<g>
				<g>
					<g>
						<g>
							<g>
								
									<rect x="58.2" y="166.3" transform="matrix(0.6309 -0.7759 0.7759 0.6309 -99.3385 126.2259)" fill="#FFFFFF" width="49.6" height="2.5"/>
							</g>
						</g>
					</g>
				</g>
			</g>
			<g>
				<g>
					<g>
						<g>
							<g>
								
									<ellipse transform="matrix(0.9953 -9.670866e-02 9.670866e-02 0.9953 -17.8606 7.2924)" fill="#FFFFFF" cx="66.3" cy="187.9" rx="2.1" ry="2.1"/>
							</g>
						</g>
					</g>
				</g>
			</g>
		</g>
		<g>
			<g>
				<g>
					<g>
						<g>
							<g>
								<path fill="#FFFFFF" d="M85,155c-0.3,0-0.7-0.1-0.9-0.4c-0.3-0.4-0.4-0.9-0.2-1.3l5.8-13.2c0.3-0.6,1-0.9,1.6-0.6
									c0.6,0.3,0.9,1,0.6,1.6l-4.6,10.5l11.4-4.5c0.6-0.2,1.3,0.1,1.6,0.7c0.2,0.6-0.1,1.3-0.7,1.6l-14.2,5.5
									C85.3,155,85.1,155,85,155z"/>
							</g>
						</g>
					</g>
				</g>
			</g>
			<g>
				<g>
					<g>
						<g>
							<g>
								<circle fill="#F2A15E" cx="98.9" cy="148.3" r="2.8"/>
							</g>
						</g>
					</g>
				</g>
			</g>
		</g>
	</g>
	<g>
		<g>
			<g>
				<g>
					<g>
						<g>
							<g>
								
									<rect x="118.6" y="157.3" transform="matrix(0.6317 -0.7752 0.7752 0.6317 -71.2729 167.0959)" fill="#FFFFFF" width="43.2" height="2.5"/>
							</g>
						</g>
					</g>
				</g>
			</g>
			<g>
				<g>
					<g>
						<g>
							<g>
								
									<ellipse transform="matrix(0.9953 -9.670866e-02 9.670866e-02 0.9953 -16.4704 12.9733)" fill="#FFFFFF" cx="125.6" cy="176.4" rx="2.1" ry="2.1"/>
							</g>
						</g>
					</g>
				</g>
			</g>
		</g>
		<g>
			<g>
				<g>
					<g>
						<g>
							<g>
								<path fill="#FFFFFF" d="M140.2,152.3c-0.2,0-0.3,0-0.5-0.1c-0.4-0.2-0.7-0.5-0.7-0.9l-2.4-11.9c-0.1-0.7,0.3-1.3,1-1.4
									c0.7-0.1,1.3,0.3,1.4,1l2,10.1l12.1-8.3c0.6-0.4,1.3-0.2,1.7,0.3c0.4,0.6,0.2,1.3-0.3,1.7l-13.6,9.3
									C140.7,152.2,140.4,152.3,140.2,152.3z"/>
							</g>
						</g>
					</g>
				</g>
			</g>
			<g>
				<g>
					<g>
						<g>
							<g>
								
									<ellipse transform="matrix(0.9172 -0.3985 0.3985 0.9172 -43.7718 73.0334)" fill="#F2A15E" cx="153.8" cy="141.8" rx="2.8" ry="2.8"/>
							</g>
						</g>
					</g>
				</g>
			</g>
		</g>
	</g>
	<g>
		<g>
			<g>
				<g>
					<g>
						<g>
							<path fill="#FFFFFF" d="M110.1,129.5l-0.2-0.6c0.1-0.1,3.6-1.5,10-1.9c6.5-0.4,9.5,0.2,9.6,0.3l-0.1,0.6c0,0-3.1-0.7-9.5-0.2
								C113.7,128,110.1,129.5,110.1,129.5z"/>
						</g>
					</g>
				</g>
			</g>
		</g>
		<g>
			<g>
				<g>
					<g>
						<g>
							<path fill="#FFFFFF" d="M116.5,130.7v-3.4h2.5v3.4H116.5z M117,127.9v2.2h1.3v-2.2L117,127.9z"/>
						</g>
					</g>
				</g>
			</g>
		</g>
		<g>
			<g>
				<g>
					<g>
						<g>
							<path fill="#FFFFFF" d="M120.3,130.5v-3.4h2.4v3.4H120.3z M120.9,127.7v2.2h1.2v-2.2H120.9z"/>
						</g>
					</g>
				</g>
			</g>
		</g>
	</g>
</g>
<g>
	<g>
		<g>
			<path fill="#FFFFFF" d="M206.1,263.8H14.7c-0.6,0-1-0.4-1-1s0.4-1,1-1h191.4c0.6,0,1,0.4,1,1S206.7,263.8,206.1,263.8z"/>
		</g>
	</g>
</g>
<g>
	<g>
		<g>
			<path fill="#FFFFFF" d="M16.2,280c0.4,0.2,0.9,0.4,1.5,0.4c0.7,0,1.1-0.3,1.1-0.8s-0.3-0.7-1.1-1c-1-0.4-1.6-0.9-1.6-1.8
				c0-1,0.8-1.7,2.2-1.7c0.7,0,1.1,0.1,1.4,0.3l-0.3,0.9c-0.2-0.1-0.6-0.3-1.2-0.3c-0.7,0-1,0.4-1,0.7c0,0.5,0.4,0.7,1.2,1
				c1.1,0.4,1.6,0.9,1.6,1.8c0,1-0.7,1.8-2.3,1.8c-0.6,0-1.3-0.2-1.6-0.4L16.2,280z"/>
		</g>
	</g>
	<g>
		<g>
			<path fill="#FFFFFF" d="M21.2,278.3c0-0.6,0-1,0-1.5h1l0.1,0.7l0,0c0.3-0.5,0.8-0.8,1.5-0.8c1,0,1.8,0.9,1.8,2.2
				c0,1.6-1,2.3-2,2.3c-0.5,0-1-0.2-1.2-0.6l0,0v2.3h-1.1L21.2,278.3L21.2,278.3z M22.3,279.4c0,0.1,0,0.2,0,0.3
				c0.1,0.5,0.5,0.8,1,0.8c0.7,0,1.1-0.6,1.1-1.5c0-0.8-0.4-1.4-1.1-1.4c-0.5,0-0.9,0.3-1,0.8c0,0.1,0,0.2,0,0.3V279.4z"/>
		</g>
	</g>
	<g>
		<g>
			<path fill="#FFFFFF" d="M31,279c0,1.6-1.1,2.3-2.3,2.3c-1.2,0-2.2-0.8-2.2-2.3c0-1.4,0.9-2.3,2.3-2.3C30.1,276.7,31,277.7,31,279
				z M27.7,279c0,0.8,0.4,1.5,1.1,1.5c0.6,0,1.1-0.6,1.1-1.5c0-0.7-0.3-1.5-1.1-1.5S27.7,278.3,27.7,279z"/>
		</g>
	</g>
	<g>
		<g>
			<path fill="#FFFFFF" d="M33.6,275.7v1.1h1.1v0.8h-1.1v1.9c0,0.5,0.1,0.8,0.6,0.8c0.2,0,0.3,0,0.4,0v0.8c-0.2,0.1-0.5,0.1-0.8,0.1
				c-0.4,0-0.7-0.1-1-0.4c-0.2-0.3-0.4-0.7-0.4-1.2v-2.1h-0.6v-0.8h0.6V276L33.6,275.7z"/>
		</g>
	</g>
	<g>
		<g>
			<path fill="#FFFFFF" d="M37.1,275.7v1.1h1.1v0.8h-1.1v1.9c0,0.5,0.1,0.8,0.6,0.8c0.2,0,0.3,0,0.4,0v0.8c-0.2,0.1-0.5,0.1-0.8,0.1
				c-0.4,0-0.7-0.1-1-0.4c-0.2-0.3-0.4-0.7-0.4-1.2v-2.1h-0.6v-0.8H36V276L37.1,275.7z"/>
		</g>
	</g>
	<g>
		<g>
			<path fill="#FFFFFF" d="M40.1,276.8l0.8,2.4c0.1,0.3,0.2,0.6,0.3,0.8l0,0c0.1-0.2,0.1-0.6,0.2-0.9l0.7-2.3h1.2l-1.1,3
				c-0.6,1.6-1,2.4-1.5,2.8c-0.4,0.4-0.9,0.5-1.2,0.6l-0.3-0.9c0.2,0,0.4-0.1,0.6-0.3c0.2-0.1,0.5-0.4,0.6-0.7
				c0-0.1,0.1-0.1,0.1-0.2c0,0,0-0.1-0.1-0.2l-1.6-4L40.1,276.8L40.1,276.8z"/>
		</g>
	</g>
	<g>
		<g>
			<path fill="#FFFFFF" d="M46.5,274.8h1.1v6.4h-1.1V274.8z"/>
		</g>
	</g>
	<g>
		<g>
			<path fill="#FFFFFF" d="M50.3,275.6c0,0.3-0.2,0.6-0.6,0.6c-0.4,0-0.6-0.3-0.6-0.6c0-0.3,0.3-0.6,0.6-0.6
				C50.1,275,50.3,275.3,50.3,275.6z M49.1,281.2v-4.4h1.1v4.4H49.1z"/>
		</g>
	</g>
	<g>
		<g>
			<path fill="#FFFFFF" d="M52.9,278.8L52.9,278.8c0.1-0.2,0.3-0.4,0.4-0.5l1.1-1.4h1.3l-1.6,1.8l1.9,2.6h-1.4l-1.3-1.9l-0.4,0.4
				v1.5h-1.1v-6.4h1.1V278.8z"/>
		</g>
	</g>
	<g>
		<g>
			<path fill="#FFFFFF" d="M57.5,279.3c0,0.8,0.6,1.1,1.4,1.1c0.5,0,0.9-0.1,1.2-0.2l0.2,0.8c-0.4,0.2-0.9,0.3-1.5,0.3
				c-1.4,0-2.3-0.9-2.3-2.2c0-1.2,0.7-2.4,2.1-2.4c1.4,0,1.9,1.2,1.9,2.1c0,0.2,0,0.4,0,0.5L57.5,279.3L57.5,279.3z M59.4,278.6
				c0-0.4-0.2-1.1-0.9-1.1s-1,0.6-1,1.1H59.4z"/>
		</g>
	</g>
	<g>
		<g>
			<path fill="#FFFFFF" d="M61.6,280.2c0.2,0.2,0.7,0.3,1.1,0.3c0.5,0,0.7-0.2,0.7-0.5s-0.2-0.4-0.7-0.6c-0.9-0.3-1.2-0.8-1.2-1.3
				c0-0.8,0.6-1.4,1.7-1.4c0.5,0,0.9,0.1,1.2,0.3l-0.2,0.8c-0.2-0.1-0.5-0.3-0.9-0.3s-0.6,0.2-0.6,0.5s0.2,0.4,0.8,0.6
				c0.8,0.3,1.2,0.7,1.2,1.3c0,0.8-0.6,1.4-1.8,1.4c-0.5,0-1-0.1-1.3-0.3V280.2z"/>
		</g>
	</g>
	<g>
		<g>
			<path fill="#FFFFFF" d="M68,280.2c0.2,0.2,0.7,0.3,1.1,0.3c0.5,0,0.7-0.2,0.7-0.5s-0.2-0.4-0.7-0.6c-0.9-0.3-1.2-0.8-1.2-1.3
				c0-0.8,0.6-1.4,1.7-1.4c0.5,0,0.9,0.1,1.2,0.3l-0.2,0.8c-0.2-0.1-0.5-0.3-0.9-0.3s-0.6,0.2-0.6,0.5s0.2,0.4,0.8,0.6
				c0.8,0.3,1.2,0.7,1.2,1.3c0,0.8-0.6,1.4-1.8,1.4c-0.5,0-1-0.1-1.3-0.3L68,280.2z"/>
		</g>
	</g>
	<g>
		<g>
			<path fill="#FFFFFF" d="M73.2,278.8L73.2,278.8c0.1-0.2,0.3-0.4,0.4-0.5l1.1-1.4H76l-1.6,1.8l1.9,2.6h-1.4l-1.3-1.9l-0.4,0.4v1.5
				h-1.1v-6.4h1.1V278.8z"/>
		</g>
	</g>
	<g>
		<g>
			<path fill="#FFFFFF" d="M78.4,275.6c0,0.3-0.2,0.6-0.6,0.6s-0.6-0.3-0.6-0.6c0-0.3,0.3-0.6,0.6-0.6S78.4,275.3,78.4,275.6z
				 M77.2,281.2v-4.4h1.1v4.4H77.2z"/>
		</g>
	</g>
	<g>
		<g>
			<path fill="#FFFFFF" d="M81,275.6c0,0.3-0.2,0.6-0.6,0.6s-0.6-0.3-0.6-0.6c0-0.3,0.3-0.6,0.6-0.6C80.8,275,81,275.3,81,275.6z
				 M79.9,281.2v-4.4H81v4.4H79.9z"/>
		</g>
	</g>
	<g>
		<g>
			<path fill="#FFFFFF" d="M82.5,278.1c0-0.5,0-0.9,0-1.3h1l0.1,0.7l0,0c0.2-0.3,0.7-0.8,1.4-0.8c0.8,0,1.6,0.5,1.6,1.9v2.6h-1.1
				v-2.5c0-0.6-0.2-1.1-0.8-1.1c-0.4,0-0.7,0.3-0.9,0.6c0,0.1-0.1,0.2-0.1,0.4v2.6h-1.1L82.5,278.1L82.5,278.1z"/>
		</g>
	</g>
	<g>
		<g>
			<path fill="#FFFFFF" d="M92,280.6c0,0.9-0.2,1.6-0.6,2c-0.5,0.4-1.1,0.5-1.7,0.5s-1.2-0.1-1.5-0.4l0.2-0.8
				c0.3,0.2,0.7,0.3,1.3,0.3c0.7,0,1.3-0.4,1.3-1.3v-0.4l0,0c-0.3,0.4-0.7,0.6-1.3,0.6c-1.1,0-1.9-0.9-1.9-2.1c0-1.4,0.9-2.3,2-2.3
				c0.7,0,1.1,0.3,1.3,0.7l0,0v-0.6h1c0,0.3,0,0.7,0,1.3v2.5L92,280.6L92,280.6z M90.9,278.6c0-0.1,0-0.2,0-0.3
				c-0.1-0.4-0.4-0.7-0.9-0.7c-0.6,0-1.1,0.5-1.1,1.4c0,0.7,0.4,1.4,1.1,1.4c0.4,0,0.8-0.3,0.9-0.7c0-0.1,0-0.3,0-0.4V278.6z"/>
		</g>
	</g>
	<g>
		<g>
			<path fill="#FFFFFF" d="M92.9,282.3c0.2-0.7,0.5-1.6,0.6-2.4l1.2-0.1c-0.3,0.8-0.7,1.8-1,2.4L92.9,282.3z"/>
		</g>
	</g>
	<g>
		<g>
			<path fill="#FFFFFF" d="M98.1,274.8h1.1v2.6l0,0c0.3-0.4,0.7-0.7,1.4-0.7c1.1,0,1.8,0.9,1.8,2.2c0,1.6-1,2.4-2,2.4
				c-0.6,0-1.1-0.2-1.4-0.8l0,0l-0.1,0.7H98c0-0.3,0-0.8,0-1.2L98.1,274.8L98.1,274.8z M99.2,279.4c0,0.1,0,0.2,0,0.3
				c0.1,0.5,0.5,0.8,1,0.8c0.7,0,1.1-0.5,1.1-1.4c0-0.8-0.4-1.4-1.1-1.4c-0.5,0-0.9,0.3-1,0.8c0,0.1,0,0.2,0,0.3V279.4z"/>
		</g>
	</g>
	<g>
		<g>
			<path fill="#FFFFFF" d="M107.7,279.9c0,0.5,0,1,0,1.3h-1l-0.1-0.7l0,0c-0.2,0.3-0.6,0.8-1.4,0.8s-1.5-0.5-1.5-1.9v-2.6h1.1v2.4
				c0,0.7,0.2,1.2,0.8,1.2c0.4,0,0.7-0.3,0.8-0.6c0-0.1,0.1-0.2,0.1-0.3v-2.6h1.1L107.7,279.9L107.7,279.9z"/>
		</g>
	</g>
	<g>
		<g>
			<path fill="#FFFFFF" d="M110.5,275.7v1.1h1.1v0.8h-1.1v1.9c0,0.5,0.1,0.8,0.6,0.8c0.2,0,0.3,0,0.4,0v0.8
				c-0.2,0.1-0.5,0.1-0.8,0.1c-0.4,0-0.7-0.1-1-0.4c-0.2-0.3-0.4-0.7-0.4-1.2v-2.1h-0.6v-0.8h0.6V276L110.5,275.7z"/>
		</g>
	</g>
	<g>
		<g>
			<path fill="#FFFFFF" d="M115,274.8h1.1v2.6l0,0c0.1-0.2,0.3-0.4,0.5-0.5s0.5-0.2,0.8-0.2c0.7,0,1.5,0.5,1.5,1.9v2.6h-1.1v-2.5
				c0-0.6-0.2-1.1-0.8-1.1c-0.4,0-0.7,0.3-0.9,0.6c0,0.1,0,0.2,0,0.3v2.6H115V274.8z"/>
		</g>
	</g>
	<g>
		<g>
			<path fill="#FFFFFF" d="M121.6,275.6c0,0.3-0.2,0.6-0.6,0.6s-0.6-0.3-0.6-0.6c0-0.3,0.3-0.6,0.6-0.6
				C121.4,275,121.6,275.3,121.6,275.6z M120.5,281.2v-4.4h1.1v4.4H120.5z"/>
		</g>
	</g>
	<g>
		<g>
			<path fill="#FFFFFF" d="M124.4,275.7v1.1h1.1v0.8h-1.1v1.9c0,0.5,0.1,0.8,0.6,0.8c0.2,0,0.3,0,0.4,0v0.8
				c-0.2,0.1-0.5,0.1-0.8,0.1c-0.4,0-0.7-0.1-1-0.4c-0.2-0.3-0.4-0.7-0.4-1.2v-2.1h-0.6v-0.8h0.6V276L124.4,275.7z"/>
		</g>
	</g>
	<g>
		<g>
			<path fill="#FFFFFF" d="M127.9,275.7v1.1h1.1v0.8h-1.1v1.9c0,0.5,0.1,0.8,0.6,0.8c0.2,0,0.3,0,0.4,0v0.8
				c-0.2,0.1-0.5,0.1-0.8,0.1c-0.4,0-0.7-0.1-1-0.4c-0.2-0.3-0.4-0.7-0.4-1.2v-2.1h-0.6v-0.8h0.6V276L127.9,275.7z"/>
		</g>
	</g>
	<g>
		<g>
			<path fill="#FFFFFF" d="M131.3,275.6c0,0.3-0.2,0.6-0.6,0.6c-0.4,0-0.6-0.3-0.6-0.6c0-0.3,0.3-0.6,0.6-0.6
				C131.1,275,131.3,275.3,131.3,275.6z M130.2,281.2v-4.4h1.1v4.4H130.2z"/>
		</g>
	</g>
	<g>
		<g>
			<path fill="#FFFFFF" d="M132.8,278.1c0-0.5,0-0.9,0-1.3h1l0.1,0.7l0,0c0.2-0.3,0.7-0.8,1.4-0.8c0.8,0,1.6,0.5,1.6,1.9v2.6h-1.1
				v-2.5c0-0.6-0.2-1.1-0.8-1.1c-0.4,0-0.7,0.3-0.9,0.6c0,0.1-0.1,0.2-0.1,0.4v2.6h-1.1L132.8,278.1L132.8,278.1z"/>
		</g>
	</g>
	<g>
		<g>
			<path fill="#FFFFFF" d="M142.3,280.6c0,0.9-0.2,1.6-0.6,2c-0.5,0.4-1.1,0.5-1.7,0.5c-0.6,0-1.2-0.1-1.5-0.4l0.2-0.8
				c0.3,0.2,0.7,0.3,1.3,0.3c0.7,0,1.3-0.4,1.3-1.3v-0.4l0,0c-0.3,0.4-0.7,0.6-1.3,0.6c-1.1,0-1.9-0.9-1.9-2.1c0-1.4,0.9-2.3,2-2.3
				c0.7,0,1.1,0.3,1.3,0.7l0,0v-0.6h1c0,0.3,0,0.7,0,1.3v2.5L142.3,280.6L142.3,280.6z M141.2,278.6c0-0.1,0-0.2,0-0.3
				c-0.1-0.4-0.4-0.7-0.9-0.7c-0.6,0-1.1,0.5-1.1,1.4c0,0.7,0.4,1.4,1.1,1.4c0.4,0,0.8-0.3,0.9-0.7c0-0.1,0-0.3,0-0.4V278.6z"/>
		</g>
	</g>
	<g>
		<g>
			<path fill="#FFFFFF" d="M147.3,275.7v1.1h1.1v0.8h-1.1v1.9c0,0.5,0.1,0.8,0.6,0.8c0.2,0,0.3,0,0.4,0v0.8
				c-0.2,0.1-0.5,0.1-0.8,0.1c-0.4,0-0.7-0.1-1-0.4c-0.2-0.3-0.4-0.7-0.4-1.2v-2.1h-0.6v-0.8h0.6V276L147.3,275.7z"/>
		</g>
	</g>
	<g>
		<g>
			<path fill="#FFFFFF" d="M149.6,274.8h1.1v2.6l0,0c0.1-0.2,0.3-0.4,0.5-0.5s0.5-0.2,0.8-0.2c0.7,0,1.5,0.5,1.5,1.9v2.6h-1.1v-2.5
				c0-0.6-0.2-1.1-0.8-1.1c-0.4,0-0.7,0.3-0.9,0.6c0,0.1,0,0.2,0,0.3v2.6h-1.1V274.8z"/>
		</g>
	</g>
	<g>
		<g>
			<path fill="#FFFFFF" d="M155.9,279.3c0,0.8,0.6,1.1,1.4,1.1c0.5,0,0.9-0.1,1.2-0.2l0.2,0.8c-0.4,0.2-0.9,0.3-1.5,0.3
				c-1.4,0-2.3-0.9-2.3-2.2c0-1.2,0.7-2.4,2.1-2.4c1.4,0,1.9,1.2,1.9,2.1c0,0.2,0,0.4,0,0.5L155.9,279.3L155.9,279.3z M157.8,278.6
				c0-0.4-0.2-1.1-0.9-1.1s-1,0.6-1,1.1H157.8z"/>
		</g>
	</g>
	<g>
		<g>
			<path fill="#FFFFFF" d="M162.3,280.2c0.2,0.2,0.7,0.3,1.1,0.3c0.5,0,0.7-0.2,0.7-0.5s-0.2-0.4-0.7-0.6c-0.9-0.3-1.2-0.8-1.2-1.3
				c0-0.8,0.6-1.4,1.7-1.4c0.5,0,0.9,0.1,1.2,0.3l-0.2,0.8c-0.2-0.1-0.5-0.3-0.9-0.3s-0.6,0.2-0.6,0.5s0.2,0.4,0.8,0.6
				c0.8,0.3,1.2,0.7,1.2,1.3c0,0.8-0.6,1.4-1.8,1.4c-0.5,0-1-0.1-1.3-0.3V280.2z"/>
		</g>
	</g>
	<g>
		<g>
			<path fill="#FFFFFF" d="M166.4,274.8h1.1v6.4h-1.1V274.8z"/>
		</g>
	</g>
	<g>
		<g>
			<path fill="#FFFFFF" d="M173.3,279c0,1.6-1.1,2.3-2.3,2.3s-2.2-0.8-2.2-2.3c0-1.4,0.9-2.3,2.3-2.3
				C172.4,276.7,173.3,277.7,173.3,279z M170,279c0,0.8,0.4,1.5,1.1,1.5c0.6,0,1.1-0.6,1.1-1.5c0-0.7-0.3-1.5-1.1-1.5
				S170,278.3,170,279z"/>
		</g>
	</g>
	<g>
		<g>
			<path fill="#FFFFFF" d="M174.6,278.3c0-0.6,0-1,0-1.5h1l0.1,0.7l0,0c0.3-0.5,0.8-0.8,1.5-0.8c1,0,1.8,0.9,1.8,2.2
				c0,1.6-1,2.3-2,2.3c-0.5,0-1-0.2-1.2-0.6l0,0v2.3h-1.1v-4.6H174.6z M175.7,279.4c0,0.1,0,0.2,0,0.3c0.1,0.5,0.5,0.8,1,0.8
				c0.7,0,1.1-0.6,1.1-1.5c0-0.8-0.4-1.4-1.1-1.4c-0.5,0-0.9,0.3-1,0.8c0,0.1,0,0.2,0,0.3V279.4z"/>
		</g>
	</g>
	<g>
		<g>
			<path fill="#FFFFFF" d="M181,279.3c0,0.8,0.6,1.1,1.4,1.1c0.5,0,0.9-0.1,1.2-0.2l0.2,0.8c-0.4,0.2-0.9,0.3-1.5,0.3
				c-1.4,0-2.3-0.9-2.3-2.2c0-1.2,0.7-2.4,2.1-2.4c1.4,0,1.9,1.2,1.9,2.1c0,0.2,0,0.4,0,0.5L181,279.3L181,279.3z M182.9,278.6
				c0-0.4-0.2-1.1-0.9-1.1s-1,0.6-1,1.1H182.9z"/>
		</g>
	</g>
	<g>
		<g>
			<path fill="#FFFFFF" d="M185.1,280.2c0.2,0.2,0.7,0.3,1.1,0.3c0.5,0,0.7-0.2,0.7-0.5s-0.2-0.4-0.7-0.6c-0.9-0.3-1.2-0.8-1.2-1.3
				c0-0.8,0.6-1.4,1.7-1.4c0.5,0,0.9,0.1,1.2,0.3l-0.2,0.8c-0.2-0.1-0.5-0.3-0.9-0.3s-0.6,0.2-0.6,0.5s0.2,0.4,0.8,0.6
				c0.8,0.3,1.2,0.7,1.2,1.3c0,0.8-0.6,1.4-1.8,1.4c-0.5,0-1-0.1-1.3-0.3V280.2z"/>
		</g>
	</g>
	<g>
		<g>
			<path fill="#FFFFFF" d="M19.6,291c0,0.4,0,0.8,0.1,1.1h-1l-0.1-0.5l0,0c-0.3,0.3-0.7,0.6-1.3,0.6c-0.9,0-1.4-0.6-1.4-1.3
				c0-1.1,1-1.7,2.6-1.7v-0.1c0-0.3-0.1-0.8-0.9-0.8c-0.4,0-0.9,0.1-1.2,0.3l-0.2-0.7c0.3-0.2,0.9-0.4,1.6-0.4
				c1.4,0,1.8,0.9,1.8,1.9V291z M18.5,289.9c-0.8,0-1.5,0.2-1.5,0.8c0,0.4,0.3,0.6,0.6,0.6c0.5,0,0.8-0.3,0.9-0.6c0-0.1,0-0.2,0-0.2
				V289.9z"/>
		</g>
	</g>
	<g>
		<g>
			<path fill="#FFFFFF" d="M21.1,285.6h1.1v6.4h-1.1V285.6z"/>
		</g>
	</g>
	<g>
		<g>
			<path fill="#FFFFFF" d="M28,289.8c0,1.6-1.1,2.3-2.3,2.3c-1.2,0-2.2-0.8-2.2-2.3c0-1.4,0.9-2.3,2.3-2.3
				C27.1,287.5,28,288.5,28,289.8z M24.7,289.8c0,0.8,0.4,1.5,1.1,1.5c0.6,0,1.1-0.6,1.1-1.5c0-0.7-0.3-1.5-1.1-1.5
				S24.7,289.1,24.7,289.8z"/>
		</g>
	</g>
	<g>
		<g>
			<path fill="#FFFFFF" d="M29.2,288.9c0-0.5,0-0.9,0-1.3h1l0.1,0.7l0,0c0.2-0.3,0.7-0.8,1.4-0.8c0.8,0,1.6,0.5,1.6,1.9v2.6h-1.1
				v-2.5c0-0.6-0.2-1.1-0.8-1.1c-0.4,0-0.7,0.3-0.9,0.6c0,0.1-0.1,0.2-0.1,0.4v2.6h-1.1v-3.1L29.2,288.9L29.2,288.9z"/>
		</g>
	</g>
	<g>
		<g>
			<path fill="#FFFFFF" d="M35.5,290.1c0,0.8,0.6,1.1,1.4,1.1c0.5,0,0.9-0.1,1.2-0.2l0.2,0.8c-0.4,0.2-0.9,0.3-1.5,0.3
				c-1.4,0-2.3-0.9-2.3-2.2c0-1.2,0.7-2.4,2.1-2.4c1.4,0,1.9,1.2,1.9,2.1c0,0.2,0,0.4,0,0.5L35.5,290.1L35.5,290.1z M37.4,289.4
				c0-0.4-0.2-1.1-0.9-1.1s-1,0.6-1,1.1H37.4z"/>
		</g>
	</g>
	<g>
		<g>
			<path fill="#FFFFFF" d="M42,288.9c0-0.5,0-0.9,0-1.3h0.9l0.1,0.6l0,0c0.2-0.3,0.6-0.7,1.4-0.7c0.6,0,1,0.3,1.2,0.8l0,0
				c0.2-0.2,0.3-0.4,0.5-0.5c0.3-0.2,0.5-0.3,0.9-0.3c0.7,0,1.5,0.5,1.5,1.9v2.6h-1.1v-2.4c0-0.7-0.3-1.2-0.8-1.2
				c-0.4,0-0.7,0.3-0.8,0.6c0,0.1-0.1,0.2-0.1,0.4v2.6h-1.1v-2.5c0-0.6-0.2-1-0.8-1c-0.4,0-0.7,0.3-0.8,0.6c0,0.1-0.1,0.2-0.1,0.4
				v2.6H42V288.9z"/>
		</g>
	</g>
	<g>
		<g>
			<path fill="#FFFFFF" d="M53.4,291c0,0.4,0,0.8,0.1,1.1h-1l-0.1-0.5l0,0c-0.3,0.3-0.7,0.6-1.3,0.6c-0.9,0-1.4-0.6-1.4-1.3
				c0-1.1,1-1.7,2.6-1.7v-0.1c0-0.3-0.1-0.8-0.9-0.8c-0.4,0-0.9,0.1-1.2,0.3l-0.2-0.7c0.3-0.2,0.9-0.4,1.6-0.4
				c1.4,0,1.8,0.9,1.8,1.9C53.4,289.4,53.4,291,53.4,291z M52.3,289.9c-0.8,0-1.5,0.2-1.5,0.8c0,0.4,0.3,0.6,0.6,0.6
				c0.5,0,0.8-0.3,0.9-0.6c0-0.1,0-0.2,0-0.2V289.9z"/>
		</g>
	</g>
	<g>
		<g>
			<path fill="#FFFFFF" d="M56,289.6L56,289.6c0.1-0.2,0.3-0.4,0.4-0.5l1.1-1.4h1.3l-1.6,1.8L59,292h-1.4l-1.3-1.9l-0.4,0.4v1.5
				h-1.1v-6.4H56V289.6z"/>
		</g>
	</g>
	<g>
		<g>
			<path fill="#FFFFFF" d="M60.6,290.1c0,0.8,0.6,1.1,1.4,1.1c0.5,0,0.9-0.1,1.2-0.2l0.2,0.8c-0.4,0.2-0.9,0.3-1.5,0.3
				c-1.4,0-2.3-0.9-2.3-2.2c0-1.2,0.7-2.4,2.1-2.4c1.4,0,1.9,1.2,1.9,2.1c0,0.2,0,0.4,0,0.5L60.6,290.1L60.6,290.1z M62.5,289.4
				c0-0.4-0.2-1.1-0.9-1.1s-1,0.6-1,1.1H62.5z"/>
		</g>
	</g>
	<g>
		<g>
			<path fill="#FFFFFF" d="M64.7,291c0.2,0.2,0.7,0.3,1.1,0.3c0.5,0,0.7-0.2,0.7-0.5s-0.2-0.4-0.7-0.6c-0.9-0.3-1.2-0.8-1.2-1.3
				c0-0.8,0.6-1.4,1.7-1.4c0.5,0,0.9,0.1,1.2,0.3l-0.2,0.8c-0.2-0.1-0.5-0.3-0.9-0.3s-0.6,0.2-0.6,0.5s0.2,0.4,0.8,0.6
				c0.8,0.3,1.2,0.7,1.2,1.3c0,0.8-0.6,1.4-1.8,1.4c-0.5,0-1-0.1-1.3-0.3L64.7,291z"/>
		</g>
	</g>
	<g>
		<g>
			<path fill="#FFFFFF" d="M71.1,285.6h1.1v2.6l0,0c0.1-0.2,0.3-0.4,0.5-0.5s0.5-0.2,0.8-0.2c0.7,0,1.5,0.5,1.5,1.9v2.6h-1v-2.5
				c0-0.6-0.2-1.1-0.8-1.1c-0.4,0-0.7,0.3-0.9,0.6c0,0.1,0,0.2,0,0.3v2.6h-1.1L71.1,285.6L71.1,285.6z"/>
		</g>
	</g>
	<g>
		<g>
			<path fill="#FFFFFF" d="M77.8,286.4c0,0.3-0.2,0.6-0.6,0.6s-0.6-0.3-0.6-0.6c0-0.3,0.3-0.6,0.6-0.6
				C77.6,285.8,77.8,286.1,77.8,286.4z M76.6,292v-4.4h1.1v4.4H76.6z"/>
		</g>
	</g>
	<g>
		<g>
			<path fill="#FFFFFF" d="M79.3,288.9c0-0.5,0-0.9,0-1.3h0.9l0.1,0.6l0,0c0.2-0.3,0.6-0.7,1.4-0.7c0.6,0,1,0.3,1.2,0.8l0,0
				c0.2-0.2,0.3-0.4,0.5-0.5c0.3-0.2,0.5-0.3,0.9-0.3c0.7,0,1.5,0.5,1.5,1.9v2.6h-1.1v-2.4c0-0.7-0.3-1.2-0.8-1.2
				c-0.4,0-0.7,0.3-0.8,0.6c0,0.1-0.1,0.2-0.1,0.4v2.6h-1v-2.5c0-0.6-0.2-1-0.8-1c-0.4,0-0.7,0.3-0.8,0.6c0,0.1-0.1,0.2-0.1,0.4v2.6
				h-1.1v-3.2H79.3z"/>
		</g>
	</g>
	<g>
		<g>
			<path fill="#FFFFFF" d="M89.6,292v-3.6H89v-0.8h0.6v-0.2c0-0.6,0.2-1.1,0.5-1.5c0.3-0.3,0.8-0.4,1.1-0.4c0.3,0,0.5,0.1,0.7,0.1
				l-0.1,0.9c-0.1,0-0.3-0.1-0.5-0.1c-0.5,0-0.7,0.5-0.7,1v0.2h1v0.8h-0.9v3.6H89.6z"/>
		</g>
	</g>
	<g>
		<g>
			<path fill="#FFFFFF" d="M93.4,290.1c0,0.8,0.6,1.1,1.4,1.1c0.5,0,0.9-0.1,1.2-0.2l0.2,0.8c-0.4,0.2-0.9,0.3-1.5,0.3
				c-1.4,0-2.3-0.9-2.3-2.2c0-1.2,0.7-2.4,2.1-2.4s1.9,1.2,1.9,2.1c0,0.2,0,0.4,0,0.5L93.4,290.1L93.4,290.1z M95.3,289.4
				c0-0.4-0.2-1.1-0.9-1.1c-0.7,0-1,0.6-1,1.1H95.3z"/>
		</g>
	</g>
	<g>
		<g>
			<path fill="#FFFFFF" d="M98.4,290.1c0,0.8,0.6,1.1,1.4,1.1c0.5,0,0.9-0.1,1.2-0.2l0.2,0.8c-0.4,0.2-0.9,0.3-1.5,0.3
				c-1.4,0-2.3-0.9-2.3-2.2c0-1.2,0.7-2.4,2.1-2.4s1.9,1.2,1.9,2.1c0,0.2,0,0.4,0,0.5L98.4,290.1L98.4,290.1z M100.3,289.4
				c0-0.4-0.2-1.1-0.9-1.1c-0.7,0-1,0.6-1,1.1H100.3z"/>
		</g>
	</g>
	<g>
		<g>
			<path fill="#FFFFFF" d="M102.6,285.6h1.1v6.4h-1.1V285.6z"/>
		</g>
	</g>
	<g>
		<g>
			<path fill="#FFFFFF" d="M110.9,291c0,0.4,0,0.8,0.1,1.1h-1l-0.1-0.5l0,0c-0.3,0.3-0.7,0.6-1.3,0.6c-0.9,0-1.4-0.6-1.4-1.3
				c0-1.1,1-1.7,2.6-1.7v-0.1c0-0.3-0.1-0.8-0.9-0.8c-0.4,0-0.9,0.1-1.2,0.3l-0.2-0.7c0.3-0.2,0.9-0.4,1.6-0.4
				c1.4,0,1.8,0.9,1.8,1.9V291z M109.9,289.9c-0.8,0-1.5,0.2-1.5,0.8c0,0.4,0.3,0.6,0.6,0.6c0.5,0,0.8-0.3,0.9-0.6
				c0-0.1,0-0.2,0-0.2V289.9z"/>
		</g>
	</g>
	<g>
		<g>
			<path fill="#FFFFFF" d="M114.7,285.6h1.1v6.4h-1.1V285.6z"/>
		</g>
	</g>
	<g>
		<g>
			<path fill="#FFFFFF" d="M118.5,286.4c0,0.3-0.2,0.6-0.6,0.6s-0.6-0.3-0.6-0.6c0-0.3,0.3-0.6,0.6-0.6
				C118.3,285.8,118.5,286.1,118.5,286.4z M117.4,292v-4.4h1.1v4.4H117.4z"/>
		</g>
	</g>
	<g>
		<g>
			<path fill="#FFFFFF" d="M121.3,286.5v1.1h1.1v0.8h-1.1v1.9c0,0.5,0.1,0.8,0.6,0.8c0.2,0,0.3,0,0.4,0v0.8
				c-0.2,0.1-0.5,0.1-0.8,0.1c-0.4,0-0.7-0.1-1-0.4c-0.2-0.3-0.4-0.7-0.4-1.2v-2.1h-0.6v-0.8h0.6v-0.8L121.3,286.5z"/>
		</g>
	</g>
	<g>
		<g>
			<path fill="#FFFFFF" d="M124.8,286.5v1.1h1.1v0.8h-1.1v1.9c0,0.5,0.1,0.8,0.6,0.8c0.2,0,0.3,0,0.4,0v0.8
				c-0.2,0.1-0.5,0.1-0.8,0.1c-0.4,0-0.7-0.1-1-0.4c-0.2-0.3-0.4-0.7-0.4-1.2v-2.1H123v-0.8h0.6v-0.8L124.8,286.5z"/>
		</g>
	</g>
	<g>
		<g>
			<path fill="#FFFFFF" d="M127.1,285.6h1.1v6.4h-1.1V285.6z"/>
		</g>
	</g>
	<g>
		<g>
			<path fill="#FFFFFF" d="M130.5,290.1c0,0.8,0.6,1.1,1.4,1.1c0.5,0,0.9-0.1,1.2-0.2l0.2,0.8c-0.4,0.2-0.9,0.3-1.5,0.3
				c-1.4,0-2.3-0.9-2.3-2.2c0-1.2,0.7-2.4,2.1-2.4c1.4,0,1.9,1.2,1.9,2.1c0,0.2,0,0.4,0,0.5L130.5,290.1L130.5,290.1z M132.4,289.4
				c0-0.4-0.2-1.1-0.9-1.1s-1,0.6-1,1.1H132.4z"/>
		</g>
	</g>
	<g>
		<g>
			<path fill="#FFFFFF" d="M137,285.6h1.1v6.4H137V285.6z"/>
		</g>
	</g>
	<g>
		<g>
			<path fill="#FFFFFF" d="M143.8,289.8c0,1.6-1.1,2.3-2.3,2.3s-2.2-0.8-2.2-2.3c0-1.4,0.9-2.3,2.3-2.3
				C142.9,287.5,143.8,288.5,143.8,289.8z M140.5,289.8c0,0.8,0.4,1.5,1.1,1.5c0.6,0,1.1-0.6,1.1-1.5c0-0.7-0.3-1.5-1.1-1.5
				S140.5,289.1,140.5,289.8z"/>
		</g>
	</g>
	<g>
		<g>
			<path fill="#FFFFFF" d="M145.1,288.9c0-0.5,0-0.9,0-1.3h1l0.1,0.7l0,0c0.2-0.3,0.7-0.8,1.4-0.8c0.8,0,1.6,0.5,1.6,1.9v2.6h-1.1
				v-2.5c0-0.6-0.2-1.1-0.8-1.1c-0.4,0-0.7,0.3-0.9,0.6c0,0.1-0.1,0.2-0.1,0.4v2.6h-1.1L145.1,288.9L145.1,288.9z"/>
		</g>
	</g>
	<g>
		<g>
			<path fill="#FFFFFF" d="M151.4,290.1c0,0.8,0.6,1.1,1.4,1.1c0.5,0,0.9-0.1,1.2-0.2l0.2,0.8c-0.4,0.2-0.9,0.3-1.5,0.3
				c-1.4,0-2.3-0.9-2.3-2.2c0-1.2,0.7-2.4,2.1-2.4c1.4,0,1.9,1.2,1.9,2.1c0,0.2,0,0.4,0,0.5L151.4,290.1L151.4,290.1z M153.3,289.4
				c0-0.4-0.2-1.1-0.9-1.1s-1,0.6-1,1.1H153.3z"/>
		</g>
	</g>
	<g>
		<g>
			<path fill="#FFFFFF" d="M155.6,285.6h1.1v6.4h-1.1V285.6z"/>
		</g>
	</g>
	<g>
		<g>
			<path fill="#FFFFFF" d="M159,287.6l0.8,2.4c0.1,0.3,0.2,0.6,0.3,0.8l0,0c0.1-0.2,0.1-0.6,0.2-0.9l0.7-2.3h1.2l-1.1,3
				c-0.6,1.6-1,2.4-1.5,2.8c-0.4,0.4-0.9,0.5-1.2,0.6l-0.3-0.9c0.2,0,0.4-0.1,0.6-0.3c0.2-0.1,0.5-0.4,0.6-0.7
				c0-0.1,0.1-0.1,0.1-0.2c0,0,0-0.1-0.1-0.2l-1.6-4L159,287.6L159,287.6z"/>
		</g>
	</g>
	<g>
		<g>
			<path fill="#FFFFFF" d="M162.6,291.4c0-0.4,0.3-0.7,0.7-0.7s0.7,0.3,0.7,0.7c0,0.4-0.3,0.7-0.7,0.7
				C162.9,292.1,162.6,291.8,162.6,291.4z"/>
		</g>
	</g>
</g>
<path fill="#79C7D9" d="M199.3,37.5L141,0h-3.7l60.9,39.2c0.1,0.1,0.3,0.2,0.5,0.2c0.4,0,0.7-0.2,0.9-0.5
	C199.9,38.4,199.8,37.8,199.3,37.5z"/>
<path fill="#79C7D9" d="M30.6,55.9L0,36.2v2.4l29.5,19c0.1,0.1,0.3,0.2,0.5,0.2c0.3,0,0.7-0.2,0.9-0.5
	C31.2,56.8,31.1,56.2,30.6,55.9z"/>
</svg>
