<?xml version="1.0" encoding="utf-8"?>
<!-- Generator: Adobe Illustrator 19.2.1, SVG Export Plug-In . SVG Version: 6.00 Build 0)  -->
<svg version="1.1" id="Layer_1" xmlns="http://www.w3.org/2000/svg" xmlns:xlink="http://www.w3.org/1999/xlink" x="0px" y="0px"
	 viewBox="0 0 220.9 331.7" enable-background="new 0 0 220.9 331.7" xml:space="preserve">
<g>
	<g>
		<g>
			<rect fill="#7E5EA2" width="220.9" height="331.7"/>
		</g>
	</g>
</g>
<g>
	<g>
		<g>
			<path fill="#FFFFFF" d="M206,263.8H14.6c-0.6,0-1-0.4-1-1s0.4-1,1-1H206c0.6,0,1,0.4,1,1S206.6,263.8,206,263.8z"/>
		</g>
	</g>
</g>
<g>
	<g>
		<g>
			<path fill="#FFFFFF" d="M16.1,280c0.4,0.2,0.9,0.4,1.5,0.4c0.7,0,1.1-0.3,1.1-0.8s-0.3-0.7-1.1-1c-1-0.4-1.6-0.9-1.6-1.8
				c0-1,0.8-1.7,2.2-1.7c0.7,0,1.1,0.1,1.5,0.3l-0.3,0.9c-0.2-0.1-0.6-0.3-1.2-0.3c-0.7,0-1,0.4-1,0.7c0,0.5,0.4,0.7,1.2,1
				c1.1,0.4,1.6,0.9,1.6,1.8c0,1-0.7,1.8-2.3,1.8c-0.6,0-1.3-0.2-1.6-0.4L16.1,280z"/>
		</g>
	</g>
	<g>
		<g>
			<path fill="#FFFFFF" d="M21.1,278.3c0-0.6,0-1,0-1.5h1l0.1,0.7l0,0c0.3-0.5,0.8-0.8,1.5-0.8c1,0,1.8,0.9,1.8,2.2
				c0,1.6-1,2.3-2,2.3c-0.5,0-1-0.2-1.2-0.6l0,0v2.3h-1.1L21.1,278.3L21.1,278.3z M22.2,279.4c0,0.1,0,0.2,0,0.3
				c0.1,0.5,0.5,0.8,1,0.8c0.7,0,1.1-0.6,1.1-1.5c0-0.8-0.4-1.4-1.1-1.4c-0.5,0-0.9,0.3-1,0.8c0,0.1,0,0.2,0,0.3V279.4z"/>
		</g>
	</g>
	<g>
		<g>
			<path fill="#FFFFFF" d="M30.9,279c0,1.6-1.1,2.3-2.2,2.3c-1.2,0-2.2-0.8-2.2-2.3c0-1.4,0.9-2.3,2.3-2.3
				C30,276.7,30.9,277.7,30.9,279z M27.6,279c0,0.8,0.4,1.5,1.1,1.5c0.6,0,1.1-0.6,1.1-1.5c0-0.7-0.3-1.5-1.1-1.5
				S27.6,278.3,27.6,279z"/>
		</g>
	</g>
	<g>
		<g>
			<path fill="#FFFFFF" d="M33.4,275.7v1.1h1.1v0.8h-1.1v1.9c0,0.5,0.1,0.8,0.6,0.8c0.2,0,0.3,0,0.4,0v0.8c-0.2,0.1-0.5,0.1-0.8,0.1
				c-0.4,0-0.7-0.1-1-0.4c-0.2-0.3-0.4-0.7-0.4-1.2v-2.1h-0.6v-0.8h0.6V276L33.4,275.7z"/>
		</g>
	</g>
	<g>
		<g>
			<path fill="#FFFFFF" d="M36.9,275.7v1.1H38v0.8h-1.1v1.9c0,0.5,0.1,0.8,0.6,0.8c0.2,0,0.3,0,0.4,0v0.8c-0.2,0.1-0.5,0.1-0.8,0.1
				c-0.4,0-0.7-0.1-1-0.4c-0.2-0.3-0.4-0.7-0.4-1.2v-2.1h-0.6v-0.8h0.6V276L36.9,275.7z"/>
		</g>
	</g>
	<g>
		<g>
			<path fill="#FFFFFF" d="M40,276.8l0.8,2.4c0.1,0.3,0.2,0.6,0.3,0.8l0,0c0.1-0.2,0.1-0.6,0.2-0.9l0.7-2.3h1.2l-1.1,3
				c-0.6,1.6-1,2.4-1.5,2.8c-0.4,0.4-0.9,0.5-1.2,0.6l-0.3-0.9c0.2,0,0.4-0.1,0.6-0.3c0.2-0.1,0.5-0.4,0.6-0.7
				c0-0.1,0.1-0.1,0.1-0.2c0,0,0-0.1-0.1-0.2l-1.6-4L40,276.8L40,276.8z"/>
		</g>
	</g>
	<g>
		<g>
			<path fill="#FFFFFF" d="M49.6,281.1c-0.2,0.1-0.7,0.2-1.2,0.2c-1.4,0-2.3-0.9-2.3-2.2c0-1.3,0.9-2.3,2.4-2.3
				c0.4,0,0.8,0.1,1.1,0.2l-0.2,0.8c-0.2-0.1-0.4-0.2-0.8-0.2c-0.8,0-1.4,0.6-1.3,1.4c0,0.9,0.6,1.4,1.3,1.4c0.4,0,0.7-0.1,0.9-0.2
				L49.6,281.1z"/>
		</g>
	</g>
	<g>
		<g>
			<path fill="#FFFFFF" d="M54.1,280.2c0,0.4,0,0.8,0.1,1.1h-1l-0.1-0.5l0,0c-0.3,0.3-0.7,0.6-1.3,0.6c-0.9,0-1.4-0.6-1.4-1.3
				c0-1.1,1-1.7,2.6-1.7v-0.1c0-0.3-0.1-0.8-0.9-0.8c-0.4,0-0.9,0.1-1.2,0.3l-0.2-0.7c0.3-0.2,0.9-0.4,1.6-0.4
				c1.4,0,1.8,0.9,1.8,1.9C54.1,278.6,54.1,280.2,54.1,280.2z M53.1,279.1c-0.8,0-1.5,0.2-1.5,0.8c0,0.4,0.3,0.6,0.6,0.6
				c0.5,0,0.8-0.3,0.9-0.6c0-0.1,0-0.2,0-0.2V279.1z"/>
		</g>
	</g>
	<g>
		<g>
			<path fill="#FFFFFF" d="M55.7,278.1c0-0.5,0-0.9,0-1.3h1l0.1,0.7l0,0c0.2-0.3,0.7-0.8,1.4-0.8c0.8,0,1.6,0.5,1.6,1.9v2.6h-1.1
				v-2.5c0-0.6-0.2-1.1-0.8-1.1c-0.4,0-0.7,0.3-0.9,0.6c0,0.1-0.1,0.2-0.1,0.4v2.6h-1.1v-3.1H55.7z"/>
		</g>
	</g>
	<g>
		<g>
			<path fill="#FFFFFF" d="M67.3,279.9c0,0.5,0,1,0,1.3h-1l-0.1-0.7l0,0c-0.2,0.3-0.6,0.8-1.4,0.8s-1.5-0.5-1.5-1.9v-2.6h1.1v2.4
				c0,0.7,0.2,1.2,0.8,1.2c0.4,0,0.7-0.3,0.8-0.6c0-0.1,0.1-0.2,0.1-0.3v-2.6h1.1L67.3,279.9L67.3,279.9z"/>
		</g>
	</g>
	<g>
		<g>
			<path fill="#FFFFFF" d="M68.8,280.2c0.2,0.2,0.7,0.3,1.1,0.3c0.5,0,0.7-0.2,0.7-0.5s-0.2-0.4-0.7-0.6c-0.9-0.3-1.2-0.8-1.2-1.3
				c0-0.8,0.6-1.4,1.7-1.4c0.5,0,0.9,0.1,1.2,0.3l-0.2,0.8c-0.2-0.1-0.5-0.3-0.9-0.3s-0.6,0.2-0.6,0.5s0.2,0.4,0.8,0.6
				c0.8,0.3,1.2,0.7,1.2,1.3c0,0.8-0.6,1.4-1.8,1.4c-0.5,0-1-0.1-1.3-0.3L68.8,280.2z"/>
		</g>
	</g>
	<g>
		<g>
			<path fill="#FFFFFF" d="M73.8,279.3c0,0.8,0.6,1.1,1.4,1.1c0.5,0,0.9-0.1,1.2-0.2l0.2,0.8c-0.4,0.2-0.9,0.3-1.5,0.3
				c-1.4,0-2.3-0.9-2.3-2.2c0-1.2,0.7-2.4,2.1-2.4s1.9,1.2,1.9,2.1c0,0.2,0,0.4,0,0.5L73.8,279.3L73.8,279.3z M75.7,278.6
				c0-0.4-0.2-1.1-0.9-1.1c-0.7,0-1,0.6-1,1.1H75.7z"/>
		</g>
	</g>
	<g>
		<g>
			<path fill="#79C7D9" d="M81.4,275.2v6.1h-1.1v-6.1H81.4z"/>
		</g>
	</g>
	<g>
		<g>
			<path fill="#79C7D9" d="M86.2,281.1c-0.2,0.1-0.7,0.2-1.2,0.2c-1.4,0-2.3-0.9-2.3-2.2c0-1.3,0.9-2.3,2.4-2.3
				c0.4,0,0.8,0.1,1.1,0.2l-0.2,0.8c-0.2-0.1-0.4-0.2-0.8-0.2c-0.8,0-1.4,0.6-1.3,1.4c0,0.9,0.6,1.4,1.3,1.4c0.4,0,0.7-0.1,0.9-0.2
				L86.2,281.1z"/>
		</g>
	</g>
	<g>
		<g>
			<path fill="#79C7D9" d="M88.1,279.3c0,0.8,0.6,1.1,1.4,1.1c0.5,0,0.9-0.1,1.2-0.2l0.2,0.8c-0.4,0.2-0.9,0.3-1.5,0.3
				c-1.4,0-2.3-0.9-2.3-2.2c0-1.2,0.7-2.4,2.1-2.4s1.9,1.2,1.9,2.1c0,0.2,0,0.4,0,0.5L88.1,279.3L88.1,279.3z M90,278.6
				c0-0.4-0.2-1.1-0.9-1.1c-0.7,0-1,0.6-1,1.1H90z"/>
		</g>
	</g>
	<g>
		<g>
			<path fill="#79C7D9" d="M92.3,274.8h1.1v2.6l0,0c0.3-0.4,0.7-0.7,1.4-0.7c1.1,0,1.8,0.9,1.8,2.2c0,1.6-1,2.4-2,2.4
				c-0.6,0-1.1-0.2-1.4-0.8l0,0l-0.1,0.7h-0.9c0-0.3,0-0.8,0-1.2L92.3,274.8L92.3,274.8z M93.4,279.4c0,0.1,0,0.2,0,0.3
				c0.1,0.5,0.5,0.8,1,0.8c0.7,0,1.1-0.5,1.1-1.4c0-0.8-0.4-1.4-1.1-1.4c-0.5,0-0.9,0.3-1,0.8c0,0.1,0,0.2,0,0.3V279.4z"/>
		</g>
	</g>
	<g>
		<g>
			<path fill="#79C7D9" d="M97.9,278.3c0-0.6,0-1,0-1.4h1v0.8l0,0c0.2-0.6,0.7-0.9,1.2-0.9c0.1,0,0.2,0,0.3,0v1c-0.1,0-0.2,0-0.3,0
				c-0.5,0-0.9,0.3-1,0.8c0,0.1,0,0.2,0,0.3v2.3H98L97.9,278.3L97.9,278.3z"/>
		</g>
	</g>
	<g>
		<g>
			<path fill="#79C7D9" d="M105.4,280.6c0,0.9-0.2,1.6-0.6,2c-0.5,0.4-1.1,0.5-1.7,0.5s-1.2-0.1-1.5-0.4l0.2-0.8
				c0.3,0.2,0.7,0.3,1.3,0.3c0.7,0,1.3-0.4,1.3-1.3v-0.4l0,0c-0.3,0.4-0.7,0.6-1.3,0.6c-1.1,0-1.9-0.9-1.9-2.1c0-1.4,0.9-2.3,2-2.3
				c0.7,0,1.1,0.3,1.3,0.7l0,0v-0.6h1c0,0.3,0,0.7,0,1.3v2.5H105.4z M104.3,278.6c0-0.1,0-0.2,0-0.3c-0.1-0.4-0.4-0.7-0.9-0.7
				c-0.6,0-1.1,0.5-1.1,1.4c0,0.7,0.4,1.4,1.1,1.4c0.4,0,0.8-0.3,0.9-0.7c0-0.1,0-0.3,0-0.4V278.6z"/>
		</g>
	</g>
	<g>
		<g>
			<path fill="#FFFFFF" d="M110.4,275.7v1.1h1.1v0.8h-1.1v1.9c0,0.5,0.1,0.8,0.6,0.8c0.2,0,0.3,0,0.4,0v0.8
				c-0.2,0.1-0.5,0.1-0.8,0.1c-0.4,0-0.7-0.1-1-0.4c-0.2-0.3-0.4-0.7-0.4-1.2v-2.1h-0.6v-0.8h0.6V276L110.4,275.7z"/>
		</g>
	</g>
	<g>
		<g>
			<path fill="#FFFFFF" d="M116.8,279c0,1.6-1.1,2.3-2.2,2.3c-1.2,0-2.2-0.8-2.2-2.3c0-1.4,0.9-2.3,2.3-2.3
				C115.9,276.7,116.8,277.7,116.8,279z M113.5,279c0,0.8,0.4,1.5,1.1,1.5c0.6,0,1.1-0.6,1.1-1.5c0-0.7-0.3-1.5-1.1-1.5
				S113.5,278.3,113.5,279z"/>
		</g>
	</g>
	<g>
		<g>
			<path fill="#FFFFFF" d="M121,279.3c0,0.8,0.6,1.1,1.4,1.1c0.5,0,0.9-0.1,1.2-0.2l0.2,0.8c-0.4,0.2-0.9,0.3-1.5,0.3
				c-1.4,0-2.3-0.9-2.3-2.2c0-1.2,0.7-2.4,2.1-2.4s1.9,1.2,1.9,2.1c0,0.2,0,0.4,0,0.5L121,279.3L121,279.3z M123,278.6
				c0-0.4-0.2-1.1-0.9-1.1c-0.7,0-1,0.6-1,1.1H123z"/>
		</g>
	</g>
	<g>
		<g>
			<path fill="#FFFFFF" d="M125.3,274.8h1.1v6.4h-1.1V274.8z"/>
		</g>
	</g>
	<g>
		<g>
			<path fill="#FFFFFF" d="M129.1,275.6c0,0.3-0.2,0.6-0.6,0.6c-0.4,0-0.6-0.3-0.6-0.6c0-0.3,0.3-0.6,0.6-0.6
				C128.9,275,129.1,275.3,129.1,275.6z M127.9,281.2v-4.4h1.1v4.4H127.9z"/>
		</g>
	</g>
	<g>
		<g>
			<path fill="#FFFFFF" d="M130.6,278.1c0-0.5,0-0.9,0-1.3h0.9l0.1,0.6l0,0c0.2-0.3,0.6-0.7,1.4-0.7c0.6,0,1,0.3,1.2,0.8l0,0
				c0.2-0.2,0.3-0.4,0.5-0.5c0.3-0.2,0.5-0.3,0.9-0.3c0.7,0,1.5,0.5,1.5,1.9v2.6H136v-2.4c0-0.7-0.3-1.2-0.8-1.2
				c-0.4,0-0.7,0.3-0.8,0.6c0,0.1-0.1,0.2-0.1,0.4v2.6h-1.1v-2.5c0-0.6-0.2-1-0.8-1c-0.4,0-0.7,0.3-0.8,0.6c0,0.1-0.1,0.2-0.1,0.4
				v2.6h-1.1v-3.2H130.6z"/>
		</g>
	</g>
	<g>
		<g>
			<path fill="#FFFFFF" d="M139.8,275.6c0,0.3-0.2,0.6-0.6,0.6c-0.4,0-0.6-0.3-0.6-0.6c0-0.3,0.3-0.6,0.6-0.6
				S139.8,275.3,139.8,275.6z M138.6,281.2v-4.4h1.1v4.4H138.6z"/>
		</g>
	</g>
	<g>
		<g>
			<path fill="#FFFFFF" d="M141.3,278.1c0-0.5,0-0.9,0-1.3h1l0.1,0.7l0,0c0.2-0.3,0.7-0.8,1.4-0.8c0.8,0,1.6,0.5,1.6,1.9v2.6h-1.1
				v-2.5c0-0.6-0.2-1.1-0.8-1.1c-0.4,0-0.7,0.3-0.9,0.6c0,0.1-0.1,0.2-0.1,0.4v2.6h-1.1L141.3,278.1L141.3,278.1z"/>
		</g>
	</g>
	<g>
		<g>
			<path fill="#FFFFFF" d="M150.2,280.2c0,0.4,0,0.8,0.1,1.1h-1l-0.1-0.5l0,0c-0.3,0.3-0.7,0.6-1.3,0.6c-0.9,0-1.4-0.6-1.4-1.3
				c0-1.1,1-1.7,2.6-1.7v-0.1c0-0.3-0.1-0.8-0.9-0.8c-0.4,0-0.9,0.1-1.2,0.3l-0.2-0.7c0.3-0.2,0.9-0.4,1.6-0.4
				c1.4,0,1.8,0.9,1.8,1.9L150.2,280.2L150.2,280.2z M149.1,279.1c-0.8,0-1.5,0.2-1.5,0.8c0,0.4,0.3,0.6,0.6,0.6
				c0.5,0,0.8-0.3,0.9-0.6c0-0.1,0-0.2,0-0.2V279.1z"/>
		</g>
	</g>
	<g>
		<g>
			<path fill="#FFFFFF" d="M152.9,275.7v1.1h1.1v0.8h-1.1v1.9c0,0.5,0.1,0.8,0.6,0.8c0.2,0,0.3,0,0.4,0v0.8
				c-0.2,0.1-0.5,0.1-0.8,0.1c-0.4,0-0.7-0.1-1-0.4c-0.2-0.3-0.4-0.7-0.4-1.2v-2.1h-0.6v-0.8h0.6V276L152.9,275.7z"/>
		</g>
	</g>
	<g>
		<g>
			<path fill="#FFFFFF" d="M155.9,279.3c0,0.8,0.6,1.1,1.4,1.1c0.5,0,0.9-0.1,1.2-0.2l0.2,0.8c-0.4,0.2-0.9,0.3-1.5,0.3
				c-1.4,0-2.3-0.9-2.3-2.2c0-1.2,0.7-2.4,2.1-2.4c1.4,0,1.9,1.2,1.9,2.1c0,0.2,0,0.4,0,0.5L155.9,279.3L155.9,279.3z M157.8,278.6
				c0-0.4-0.2-1.1-0.9-1.1s-1,0.6-1,1.1H157.8z"/>
		</g>
	</g>
	<g>
		<g>
			<path fill="#FFFFFF" d="M162.3,274.8h1.1v2.6l0,0c0.1-0.2,0.3-0.4,0.5-0.5s0.5-0.2,0.8-0.2c0.7,0,1.5,0.5,1.5,1.9v2.6h-1.1v-2.5
				c0-0.6-0.2-1.1-0.8-1.1c-0.4,0-0.7,0.3-0.9,0.6c0,0.1,0,0.2,0,0.3v2.6h-1.1V274.8z"/>
		</g>
	</g>
	<g>
		<g>
			<path fill="#FFFFFF" d="M169,275.6c0,0.3-0.2,0.6-0.6,0.6c-0.4,0-0.6-0.3-0.6-0.6c0-0.3,0.3-0.6,0.6-0.6
				C168.8,275,169,275.3,169,275.6z M167.8,281.2v-4.4h1.1v4.4H167.8z"/>
		</g>
	</g>
	<g>
		<g>
			<path fill="#FFFFFF" d="M170.5,280.2c0.2,0.2,0.7,0.3,1.1,0.3c0.5,0,0.7-0.2,0.7-0.5s-0.2-0.4-0.7-0.6c-0.9-0.3-1.2-0.8-1.2-1.3
				c0-0.8,0.6-1.4,1.7-1.4c0.5,0,0.9,0.1,1.2,0.3l-0.2,0.8c-0.2-0.1-0.5-0.3-0.9-0.3s-0.6,0.2-0.6,0.5s0.2,0.4,0.8,0.6
				c0.8,0.3,1.2,0.7,1.2,1.3c0,0.8-0.6,1.4-1.8,1.4c-0.5,0-1-0.1-1.3-0.3V280.2z"/>
		</g>
	</g>
	<g>
		<g>
			<path fill="#FFFFFF" d="M16.2,292v-3.6h-0.6v-0.8h0.6v-0.2c0-0.6,0.2-1.1,0.5-1.5c0.3-0.3,0.8-0.4,1.1-0.4c0.3,0,0.5,0.1,0.7,0.1
				l-0.1,0.9c-0.1,0-0.3-0.1-0.5-0.1c-0.5,0-0.7,0.5-0.7,1v0.2h1v0.8h-0.9v3.6H16.2z"/>
		</g>
	</g>
	<g>
		<g>
			<path fill="#FFFFFF" d="M19.3,289.1c0-0.6,0-1,0-1.4h1v0.8l0,0c0.2-0.6,0.7-0.9,1.2-0.9c0.1,0,0.2,0,0.3,0v1c-0.1,0-0.2,0-0.3,0
				c-0.5,0-0.9,0.3-1,0.8c0,0.1,0,0.2,0,0.3v2.3h-1.1v-2.9H19.3z"/>
		</g>
	</g>
	<g>
		<g>
			<path fill="#FFFFFF" d="M26.8,290.7c0,0.5,0,1,0,1.3h-1l-0.1-0.7l0,0c-0.2,0.3-0.6,0.8-1.4,0.8s-1.5-0.5-1.5-1.9v-2.6h1.1v2.4
				c0,0.7,0.2,1.2,0.8,1.2c0.5,0,0.7-0.3,0.8-0.6c0-0.1,0.1-0.2,0.1-0.3v-2.6h1.1v3H26.8z"/>
		</g>
	</g>
	<g>
		<g>
			<path fill="#FFFFFF" d="M28.3,291c0.2,0.2,0.7,0.3,1.1,0.3c0.5,0,0.7-0.2,0.7-0.5s-0.2-0.4-0.7-0.6c-0.9-0.3-1.2-0.8-1.2-1.3
				c0-0.8,0.6-1.4,1.7-1.4c0.5,0,0.9,0.1,1.2,0.3l-0.2,0.8c-0.2-0.1-0.5-0.3-0.9-0.3s-0.6,0.2-0.6,0.5s0.2,0.4,0.8,0.6
				c0.8,0.3,1.2,0.7,1.2,1.3c0,0.8-0.6,1.4-1.8,1.4c-0.5,0-1-0.1-1.3-0.3L28.3,291z"/>
		</g>
	</g>
	<g>
		<g>
			<path fill="#FFFFFF" d="M33.7,286.5v1.1h1.1v0.8h-1.1v1.9c0,0.5,0.1,0.8,0.6,0.8c0.2,0,0.3,0,0.4,0v0.8c-0.2,0.1-0.5,0.1-0.8,0.1
				c-0.4,0-0.7-0.1-1-0.4c-0.2-0.3-0.4-0.7-0.4-1.2v-2.1H32v-0.8h0.6v-0.8L33.7,286.5z"/>
		</g>
	</g>
	<g>
		<g>
			<path fill="#FFFFFF" d="M36,289.1c0-0.6,0-1,0-1.4h1v0.8l0,0c0.2-0.6,0.7-0.9,1.2-0.9c0.1,0,0.2,0,0.3,0v1c-0.1,0-0.2,0-0.3,0
				c-0.5,0-0.9,0.3-1,0.8c0,0.1,0,0.2,0,0.3v2.3H36V289.1z"/>
		</g>
	</g>
	<g>
		<g>
			<path fill="#FFFFFF" d="M42.9,291c0,0.4,0,0.8,0.1,1.1h-1l-0.1-0.5l0,0c-0.3,0.3-0.7,0.6-1.3,0.6c-0.9,0-1.4-0.6-1.4-1.3
				c0-1.1,1-1.7,2.6-1.7v-0.1c0-0.3-0.1-0.8-0.9-0.8c-0.4,0-0.9,0.1-1.2,0.3l-0.2-0.7c0.3-0.2,0.9-0.4,1.6-0.4
				c1.4,0,1.8,0.9,1.8,1.9C42.9,289.4,42.9,291,42.9,291z M41.8,289.9c-0.8,0-1.5,0.2-1.5,0.8c0,0.4,0.3,0.6,0.6,0.6
				c0.5,0,0.8-0.3,0.9-0.6c0-0.1,0-0.2,0-0.2V289.9z"/>
		</g>
	</g>
	<g>
		<g>
			<path fill="#FFFFFF" d="M45.6,286.5v1.1h1.1v0.8h-1.1v1.9c0,0.5,0.1,0.8,0.6,0.8c0.2,0,0.3,0,0.4,0v0.8c-0.2,0.1-0.5,0.1-0.8,0.1
				c-0.4,0-0.7-0.1-1-0.4c-0.2-0.3-0.4-0.7-0.4-1.2v-2.1h-0.6v-0.8h0.6v-0.8L45.6,286.5z"/>
		</g>
	</g>
	<g>
		<g>
			<path fill="#FFFFFF" d="M49,286.4c0,0.3-0.2,0.6-0.6,0.6c-0.4,0-0.6-0.3-0.6-0.6c0-0.3,0.3-0.6,0.6-0.6
				C48.8,285.8,49,286.1,49,286.4z M47.9,292v-4.4H49v4.4H47.9z"/>
		</g>
	</g>
	<g>
		<g>
			<path fill="#FFFFFF" d="M54.7,289.8c0,1.6-1.1,2.3-2.2,2.3c-1.2,0-2.2-0.8-2.2-2.3c0-1.4,0.9-2.3,2.3-2.3
				C53.8,287.5,54.7,288.5,54.7,289.8z M51.4,289.8c0,0.8,0.4,1.5,1.1,1.5c0.6,0,1.1-0.6,1.1-1.5c0-0.7-0.3-1.5-1.1-1.5
				S51.4,289.1,51.4,289.8z"/>
		</g>
	</g>
	<g>
		<g>
			<path fill="#FFFFFF" d="M56,288.9c0-0.5,0-0.9,0-1.3h1l0.1,0.7l0,0c0.2-0.3,0.7-0.8,1.4-0.8c0.8,0,1.6,0.5,1.6,1.9v2.6H59v-2.5
				c0-0.6-0.2-1.1-0.8-1.1c-0.4,0-0.7,0.3-0.9,0.6c0,0.1-0.1,0.2-0.1,0.4v2.6H56V288.9z"/>
		</g>
	</g>
	<g>
		<g>
			<path fill="#FFFFFF" d="M65,286.5v1.1h1v0.8h-1v1.9c0,0.5,0.1,0.8,0.6,0.8c0.2,0,0.3,0,0.4,0v0.8c-0.2,0.1-0.5,0.1-0.8,0.1
				c-0.4,0-0.7-0.1-1-0.4c-0.2-0.3-0.4-0.7-0.4-1.2v-2.1h-0.6v-0.8h0.6v-0.8L65,286.5z"/>
		</g>
	</g>
	<g>
		<g>
			<path fill="#FFFFFF" d="M67.2,285.6h1.1v2.6l0,0c0.1-0.2,0.3-0.4,0.5-0.5s0.5-0.2,0.8-0.2c0.7,0,1.5,0.5,1.5,1.9v2.6H70v-2.5
				c0-0.6-0.2-1.1-0.8-1.1c-0.4,0-0.7,0.3-0.9,0.6c0,0.1,0,0.2,0,0.3v2.6h-1.1V285.6z"/>
		</g>
	</g>
	<g>
		<g>
			<path fill="#FFFFFF" d="M72.7,289.1c0-0.6,0-1,0-1.4h1v0.8l0,0c0.2-0.6,0.7-0.9,1.2-0.9c0.1,0,0.2,0,0.3,0v1c-0.1,0-0.2,0-0.3,0
				c-0.5,0-0.9,0.3-1,0.8c0,0.1,0,0.2,0,0.3v2.3h-1.1L72.7,289.1L72.7,289.1z"/>
		</g>
	</g>
	<g>
		<g>
			<path fill="#FFFFFF" d="M80.4,289.8c0,1.6-1.1,2.3-2.2,2.3c-1.2,0-2.2-0.8-2.2-2.3c0-1.4,0.9-2.3,2.3-2.3
				C79.5,287.5,80.4,288.5,80.4,289.8z M77.1,289.8c0,0.8,0.4,1.5,1.1,1.5c0.6,0,1.1-0.6,1.1-1.5c0-0.7-0.3-1.5-1.1-1.5
				S77.1,289.1,77.1,289.8z"/>
		</g>
	</g>
	<g>
		<g>
			<path fill="#FFFFFF" d="M85.6,290.7c0,0.5,0,1,0,1.3h-1l-0.1-0.7l0,0c-0.2,0.3-0.6,0.8-1.4,0.8s-1.5-0.5-1.5-1.9v-2.6h1.1v2.4
				c0,0.7,0.2,1.2,0.8,1.2c0.5,0,0.7-0.3,0.8-0.6c0-0.1,0.1-0.2,0.1-0.3v-2.6h1.1L85.6,290.7L85.6,290.7z"/>
		</g>
	</g>
	<g>
		<g>
			<path fill="#FFFFFF" d="M91.1,291.4c0,0.9-0.2,1.6-0.6,2c-0.5,0.4-1.1,0.5-1.7,0.5s-1.2-0.1-1.5-0.4l0.2-0.8
				c0.3,0.2,0.7,0.3,1.3,0.3c0.7,0,1.3-0.4,1.3-1.3v-0.4l0,0c-0.3,0.4-0.7,0.6-1.3,0.6c-1.1,0-1.9-0.9-1.9-2.1c0-1.4,0.9-2.3,2-2.3
				c0.7,0,1.1,0.3,1.3,0.7l0,0v-0.6h1c0,0.3,0,0.7,0,1.3v2.5H91.1z M90,289.4c0-0.1,0-0.2,0-0.3c-0.1-0.4-0.4-0.7-0.9-0.7
				c-0.6,0-1.1,0.5-1.1,1.4c0,0.7,0.4,1.4,1.1,1.4c0.4,0,0.8-0.3,0.9-0.7c0-0.1,0-0.3,0-0.4V289.4z"/>
		</g>
	</g>
	<g>
		<g>
			<path fill="#FFFFFF" d="M92.6,285.6h1.1v2.6l0,0c0.1-0.2,0.3-0.4,0.5-0.5s0.5-0.2,0.8-0.2c0.7,0,1.5,0.5,1.5,1.9v2.6h-1.1v-2.5
				c0-0.6-0.2-1.1-0.8-1.1c-0.4,0-0.7,0.3-0.9,0.6c0,0.1,0,0.2,0,0.3v2.6h-1.1V285.6z"/>
		</g>
	</g>
	<g>
		<g>
			<path fill="#FFFFFF" d="M101.1,287.6l0.7,2.2c0.1,0.4,0.2,0.7,0.3,1.1l0,0c0.1-0.4,0.2-0.7,0.3-1.1l0.7-2.2h1.2l-1.7,4.4h-1.1
				l-1.6-4.4H101.1z"/>
		</g>
	</g>
	<g>
		<g>
			<path fill="#FFFFFF" d="M106.5,286.4c0,0.3-0.2,0.6-0.6,0.6s-0.6-0.3-0.6-0.6c0-0.3,0.3-0.6,0.6-0.6S106.5,286.1,106.5,286.4z
				 M105.3,292v-4.4h1.1v4.4H105.3z"/>
		</g>
	</g>
	<g>
		<g>
			<path fill="#FFFFFF" d="M108.7,290.1c0,0.8,0.6,1.1,1.4,1.1c0.5,0,0.9-0.1,1.2-0.2l0.2,0.8c-0.4,0.2-0.9,0.3-1.5,0.3
				c-1.4,0-2.3-0.9-2.3-2.2c0-1.2,0.7-2.4,2.1-2.4s1.9,1.2,1.9,2.1c0,0.2,0,0.4,0,0.5L108.7,290.1L108.7,290.1z M110.7,289.4
				c0-0.4-0.2-1.1-0.9-1.1c-0.7,0-1,0.6-1,1.1H110.7z"/>
		</g>
	</g>
	<g>
		<g>
			<path fill="#FFFFFF" d="M113.6,287.6l0.5,2c0.1,0.5,0.2,0.9,0.3,1.4l0,0c0.1-0.5,0.2-1,0.4-1.4l0.6-2h0.9l0.5,1.9
				c0.1,0.5,0.3,1,0.4,1.5l0,0c0.1-0.5,0.2-1,0.3-1.5l0.5-1.9h1.1l-1.4,4.4h-1l-0.5-1.8c-0.1-0.5-0.2-0.9-0.3-1.4l0,0
				c-0.1,0.5-0.2,1-0.3,1.4L115,292h-1l-1.3-4.4H113.6z"/>
		</g>
	</g>
	<g>
		<g>
			<path fill="#FFFFFF" d="M121.2,286.4c0,0.3-0.2,0.6-0.6,0.6s-0.6-0.3-0.6-0.6c0-0.3,0.3-0.6,0.6-0.6
				C121,285.8,121.2,286.1,121.2,286.4z M120,292v-4.4h1.1v4.4H120z"/>
		</g>
	</g>
	<g>
		<g>
			<path fill="#FFFFFF" d="M122.7,288.9c0-0.5,0-0.9,0-1.3h1l0.1,0.7l0,0c0.2-0.3,0.7-0.8,1.4-0.8c0.8,0,1.6,0.5,1.6,1.9v2.6h-1.1
				v-2.5c0-0.6-0.2-1.1-0.8-1.1c-0.4,0-0.7,0.3-0.9,0.6c0,0.1-0.1,0.2-0.1,0.4v2.6h-1.1L122.7,288.9L122.7,288.9z"/>
		</g>
	</g>
	<g>
		<g>
			<path fill="#FFFFFF" d="M132.2,291.4c0,0.9-0.2,1.6-0.6,2c-0.5,0.4-1.1,0.5-1.7,0.5c-0.6,0-1.2-0.1-1.5-0.4l0.2-0.8
				c0.3,0.2,0.7,0.3,1.3,0.3c0.7,0,1.3-0.4,1.3-1.3v-0.4l0,0c-0.3,0.4-0.7,0.6-1.3,0.6c-1.1,0-1.9-0.9-1.9-2.1c0-1.4,0.9-2.3,2-2.3
				c0.7,0,1.1,0.3,1.3,0.7l0,0v-0.6h1c0,0.3,0,0.7,0,1.3v2.5H132.2z M131.1,289.4c0-0.1,0-0.2,0-0.3c-0.1-0.4-0.4-0.7-0.9-0.7
				c-0.6,0-1.1,0.5-1.1,1.4c0,0.7,0.4,1.4,1.1,1.4c0.4,0,0.8-0.3,0.9-0.7c0-0.1,0-0.3,0-0.4V289.4z"/>
		</g>
	</g>
	<g>
		<g>
			<path fill="#FFFFFF" d="M137.2,286.5v1.1h1.1v0.8h-1.1v1.9c0,0.5,0.1,0.8,0.6,0.8c0.2,0,0.3,0,0.4,0v0.8
				c-0.2,0.1-0.5,0.1-0.8,0.1c-0.4,0-0.7-0.1-1-0.4c-0.2-0.3-0.4-0.7-0.4-1.2v-2.1h-0.6v-0.8h0.6v-0.8L137.2,286.5z"/>
		</g>
	</g>
	<g>
		<g>
			<path fill="#FFFFFF" d="M139.5,285.6h1.1v2.6l0,0c0.1-0.2,0.3-0.4,0.5-0.5s0.5-0.2,0.8-0.2c0.7,0,1.5,0.5,1.5,1.9v2.6h-1.1v-2.5
				c0-0.6-0.2-1.1-0.8-1.1c-0.4,0-0.7,0.3-0.9,0.6c0,0.1,0,0.2,0,0.3v2.6h-1.1V285.6z"/>
		</g>
	</g>
	<g>
		<g>
			<path fill="#FFFFFF" d="M145.8,290.1c0,0.8,0.6,1.1,1.4,1.1c0.5,0,0.9-0.1,1.2-0.2l0.2,0.8c-0.4,0.2-0.9,0.3-1.5,0.3
				c-1.4,0-2.3-0.9-2.3-2.2c0-1.2,0.7-2.4,2.1-2.4c1.4,0,1.9,1.2,1.9,2.1c0,0.2,0,0.4,0,0.5L145.8,290.1L145.8,290.1z M147.7,289.4
				c0-0.4-0.2-1.1-0.9-1.1s-1,0.6-1,1.1H147.7z"/>
		</g>
	</g>
	<g>
		<g>
			<path fill="#FFFFFF" d="M152.2,289.1c0-0.6,0-1,0-1.5h1l0.1,0.7l0,0c0.3-0.5,0.8-0.8,1.5-0.8c1,0,1.8,0.9,1.8,2.2
				c0,1.6-1,2.3-2,2.3c-0.5,0-1-0.2-1.2-0.6l0,0v2.3h-1.1v-4.6H152.2z M153.3,290.2c0,0.1,0,0.2,0,0.3c0.1,0.5,0.5,0.8,1,0.8
				c0.7,0,1.1-0.6,1.1-1.5c0-0.8-0.4-1.4-1.1-1.4c-0.5,0-0.9,0.3-1,0.8c0,0.1,0,0.2,0,0.3V290.2z"/>
		</g>
	</g>
	<g>
		<g>
			<path fill="#FFFFFF" d="M158.6,290.1c0,0.8,0.6,1.1,1.4,1.1c0.5,0,0.9-0.1,1.2-0.2l0.2,0.8c-0.4,0.2-0.9,0.3-1.5,0.3
				c-1.4,0-2.3-0.9-2.3-2.2c0-1.2,0.7-2.4,2.1-2.4c1.4,0,1.9,1.2,1.9,2.1c0,0.2,0,0.4,0,0.5L158.6,290.1L158.6,290.1z M160.5,289.4
				c0-0.4-0.2-1.1-0.9-1.1s-1,0.6-1,1.1H160.5z"/>
		</g>
	</g>
	<g>
		<g>
			<path fill="#FFFFFF" d="M167,289.8c0,1.6-1.1,2.3-2.2,2.3c-1.2,0-2.2-0.8-2.2-2.3c0-1.4,0.9-2.3,2.3-2.3
				C166.1,287.5,167,288.5,167,289.8z M163.7,289.8c0,0.8,0.4,1.5,1.1,1.5c0.6,0,1.1-0.6,1.1-1.5c0-0.7-0.3-1.5-1.1-1.5
				S163.7,289.1,163.7,289.8z"/>
		</g>
	</g>
	<g>
		<g>
			<path fill="#FFFFFF" d="M168.3,289.1c0-0.6,0-1,0-1.5h1l0.1,0.7l0,0c0.3-0.5,0.8-0.8,1.5-0.8c1,0,1.8,0.9,1.8,2.2
				c0,1.6-1,2.3-2,2.3c-0.5,0-1-0.2-1.2-0.6l0,0v2.3h-1.1v-4.6H168.3z M169.4,290.2c0,0.1,0,0.2,0,0.3c0.1,0.5,0.5,0.8,1,0.8
				c0.7,0,1.1-0.6,1.1-1.5c0-0.8-0.4-1.4-1.1-1.4c-0.5,0-0.9,0.3-1,0.8c0,0.1,0,0.2,0,0.3V290.2z"/>
		</g>
	</g>
	<g>
		<g>
			<path fill="#FFFFFF" d="M173.9,285.6h1.1v6.4h-1.1V285.6z"/>
		</g>
	</g>
	<g>
		<g>
			<path fill="#FFFFFF" d="M177.3,290.1c0,0.8,0.6,1.1,1.4,1.1c0.5,0,0.9-0.1,1.2-0.2l0.2,0.8c-0.4,0.2-0.9,0.3-1.5,0.3
				c-1.4,0-2.3-0.9-2.3-2.2c0-1.2,0.7-2.4,2.1-2.4c1.4,0,1.9,1.2,1.9,2.1c0,0.2,0,0.4,0,0.5L177.3,290.1L177.3,290.1z M179.3,289.4
				c0-0.4-0.2-1.1-0.9-1.1s-1,0.6-1,1.1H179.3z"/>
		</g>
	</g>
	<g>
		<g>
			<path fill="#FFFFFF" d="M183.8,285.6h1.1v2.6l0,0c0.1-0.2,0.3-0.4,0.5-0.5s0.5-0.2,0.8-0.2c0.7,0,1.5,0.5,1.5,1.9v2.6h-1.1v-2.5
				c0-0.6-0.2-1.1-0.8-1.1c-0.4,0-0.7,0.3-0.9,0.6c0,0.1,0,0.2,0,0.3v2.6h-1.1V285.6z"/>
		</g>
	</g>
	<g>
		<g>
			<path fill="#FFFFFF" d="M190.1,290.1c0,0.8,0.6,1.1,1.4,1.1c0.5,0,0.9-0.1,1.2-0.2l0.2,0.8c-0.4,0.2-0.9,0.3-1.5,0.3
				c-1.4,0-2.3-0.9-2.3-2.2c0-1.2,0.7-2.4,2.1-2.4c1.4,0,1.9,1.2,1.9,2.1c0,0.2,0,0.4,0,0.5L190.1,290.1L190.1,290.1z M192,289.4
				c0-0.4-0.2-1.1-0.9-1.1s-1,0.6-1,1.1H192z"/>
		</g>
	</g>
	<g>
		<g>
			<path fill="#FFFFFF" d="M19.5,301.8c0,0.4,0,0.8,0.1,1.1h-1l-0.1-0.5l0,0c-0.3,0.3-0.7,0.6-1.3,0.6c-0.9,0-1.4-0.6-1.4-1.3
				c0-1.1,1-1.7,2.6-1.7v-0.1c0-0.3-0.1-0.8-0.9-0.8c-0.4,0-0.9,0.1-1.2,0.3l-0.2-0.7c0.3-0.2,0.9-0.4,1.6-0.4
				c1.4,0,1.8,0.9,1.8,1.9V301.8z M18.4,300.7c-0.8,0-1.5,0.2-1.5,0.8c0,0.4,0.3,0.6,0.6,0.6c0.5,0,0.8-0.3,0.9-0.6
				c0-0.1,0-0.2,0-0.2V300.7z"/>
		</g>
	</g>
	<g>
		<g>
			<path fill="#FFFFFF" d="M21,296.4h1.1v6.4H21V296.4z"/>
		</g>
	</g>
	<g>
		<g>
			<path fill="#FFFFFF" d="M23.7,299.9c0-0.6,0-1,0-1.4h1v0.8l0,0c0.2-0.6,0.7-0.9,1.2-0.9c0.1,0,0.2,0,0.3,0v1c-0.1,0-0.2,0-0.3,0
				c-0.5,0-0.9,0.3-1,0.8c0,0.1,0,0.2,0,0.3v2.3h-1.1v-2.9H23.7z"/>
		</g>
	</g>
	<g>
		<g>
			<path fill="#FFFFFF" d="M27.9,300.9c0,0.8,0.6,1.1,1.4,1.1c0.5,0,0.9-0.1,1.2-0.2l0.2,0.8c-0.4,0.2-0.9,0.3-1.5,0.3
				c-1.4,0-2.3-0.9-2.3-2.2c0-1.2,0.7-2.4,2.1-2.4s1.9,1.2,1.9,2.1c0,0.2,0,0.4,0,0.5L27.9,300.9L27.9,300.9z M29.9,300.2
				c0-0.4-0.2-1.1-0.9-1.1c-0.7,0-1,0.6-1,1.1H29.9z"/>
		</g>
	</g>
	<g>
		<g>
			<path fill="#FFFFFF" d="M35.6,301.8c0,0.4,0,0.8,0.1,1.1h-1l-0.1-0.5l0,0c-0.3,0.3-0.7,0.6-1.3,0.6c-0.9,0-1.4-0.6-1.4-1.3
				c0-1.1,1-1.7,2.6-1.7v-0.1c0-0.3-0.1-0.8-0.9-0.8c-0.4,0-0.9,0.1-1.2,0.3l-0.2-0.7c0.3-0.2,0.9-0.4,1.6-0.4
				c1.4,0,1.8,0.9,1.8,1.9C35.6,300.2,35.6,301.8,35.6,301.8z M34.5,300.7c-0.8,0-1.5,0.2-1.5,0.8c0,0.4,0.3,0.6,0.6,0.6
				c0.5,0,0.8-0.3,0.9-0.6c0-0.1,0-0.2,0-0.2V300.7z"/>
		</g>
	</g>
	<g>
		<g>
			<path fill="#FFFFFF" d="M41.1,296.4v5.2c0,0.5,0,0.9,0,1.2h-1l-0.1-0.7l0,0c-0.3,0.5-0.8,0.8-1.4,0.8c-1.1,0-1.9-0.9-1.9-2.2
				c0-1.5,0.9-2.3,2-2.3c0.6,0,1,0.2,1.2,0.6l0,0v-2.5h1.2V296.4z M40,300.3c0-0.1,0-0.2,0-0.3c-0.1-0.4-0.5-0.8-1-0.8
				c-0.7,0-1.1,0.6-1.1,1.4s0.4,1.4,1.1,1.4c0.5,0,0.8-0.3,1-0.8c0-0.1,0-0.2,0-0.3V300.3z"/>
		</g>
	</g>
	<g>
		<g>
			<path fill="#FFFFFF" d="M43.4,298.4l0.8,2.4c0.1,0.3,0.2,0.6,0.3,0.8l0,0c0.1-0.2,0.1-0.6,0.2-0.9l0.7-2.3h1.2l-1.1,3
				c-0.6,1.6-1,2.4-1.5,2.8c-0.4,0.4-0.9,0.5-1.2,0.6l-0.3-0.9c0.2,0,0.4-0.1,0.6-0.3c0.2-0.1,0.5-0.4,0.6-0.7
				c0-0.1,0.1-0.1,0.1-0.2c0,0,0-0.1-0.1-0.2l-1.6-4L43.4,298.4L43.4,298.4z"/>
		</g>
	</g>
	<g>
		<g>
			<path fill="#FFFFFF" d="M50.9,300.4L50.9,300.4c0.1-0.2,0.3-0.4,0.4-0.5l1.1-1.4h1.3l-1.6,1.8l1.9,2.6h-1.4l-1.3-1.9l-0.4,0.4
				v1.5h-1.1v-6.4h1.1V300.4z"/>
		</g>
	</g>
	<g>
		<g>
			<path fill="#FFFFFF" d="M54.8,299.7c0-0.5,0-0.9,0-1.3h1l0.1,0.7l0,0c0.2-0.3,0.7-0.8,1.4-0.8c0.8,0,1.6,0.5,1.6,1.9v2.6h-1.1
				v-2.5c0-0.6-0.2-1.1-0.8-1.1c-0.4,0-0.7,0.3-0.9,0.6c0,0.1-0.1,0.2-0.1,0.4v2.6h-1.1v-3.1H54.8z"/>
		</g>
	</g>
	<g>
		<g>
			<path fill="#FFFFFF" d="M64.5,300.6c0,1.6-1.1,2.3-2.3,2.3s-2.2-0.8-2.2-2.3c0-1.4,0.9-2.3,2.3-2.3
				C63.6,298.3,64.5,299.3,64.5,300.6z M61.2,300.6c0,0.8,0.4,1.5,1.1,1.5c0.6,0,1.1-0.6,1.1-1.5c0-0.7-0.3-1.5-1.1-1.5
				S61.2,299.9,61.2,300.6z"/>
		</g>
	</g>
	<g>
		<g>
			<path fill="#FFFFFF" d="M66.4,298.4l0.5,2c0.1,0.5,0.2,0.9,0.3,1.4l0,0c0.1-0.5,0.2-1,0.4-1.4l0.6-2h0.9l0.5,1.9
				c0.1,0.5,0.3,1,0.4,1.5l0,0c0.1-0.5,0.2-1,0.3-1.5l0.5-1.9h1.1l-1.4,4.4h-1L69,301c-0.1-0.5-0.2-0.9-0.3-1.4l0,0
				c-0.1,0.5-0.2,1-0.3,1.4l-0.6,1.8h-1l-1.3-4.4H66.4z"/>
		</g>
	</g>
	<g>
		<g>
			<path fill="#FFFFFF" d="M72.6,301.8c0.2,0.2,0.7,0.3,1.1,0.3c0.5,0,0.7-0.2,0.7-0.5s-0.2-0.4-0.7-0.6c-0.9-0.3-1.2-0.8-1.2-1.3
				c0-0.8,0.6-1.4,1.7-1.4c0.5,0,0.9,0.1,1.2,0.3l-0.2,0.8c-0.2-0.1-0.5-0.3-0.9-0.3s-0.6,0.2-0.6,0.5s0.2,0.4,0.8,0.6
				c0.8,0.3,1.2,0.7,1.2,1.3c0,0.8-0.6,1.4-1.8,1.4c-0.5,0-1-0.1-1.3-0.3L72.6,301.8z"/>
		</g>
	</g>
	<g>
		<g>
			<path fill="#FFFFFF" d="M79,296.4h1.1v2.6l0,0c0.3-0.4,0.7-0.7,1.4-0.7c1.1,0,1.8,0.9,1.8,2.2c0,1.6-1,2.4-2,2.4
				c-0.6,0-1.1-0.2-1.4-0.8l0,0l-0.1,0.7H79c0-0.3,0-0.8,0-1.2V296.4z M80.1,301c0,0.1,0,0.2,0,0.3c0.1,0.5,0.5,0.8,1,0.8
				c0.7,0,1.1-0.5,1.1-1.4c0-0.8-0.4-1.4-1.1-1.4c-0.5,0-0.9,0.3-1,0.8c0,0.1,0,0.2,0,0.3V301z"/>
		</g>
	</g>
	<g>
		<g>
			<path fill="#FFFFFF" d="M85.3,298.4l0.8,2.4c0.1,0.3,0.2,0.6,0.3,0.8l0,0c0.1-0.2,0.1-0.6,0.2-0.9l0.7-2.3h1.2l-1.1,3
				c-0.6,1.6-1,2.4-1.5,2.8c-0.4,0.4-0.9,0.5-1.2,0.6l-0.3-0.9c0.2,0,0.4-0.1,0.6-0.3c0.2-0.1,0.5-0.4,0.6-0.7
				c0-0.1,0.1-0.1,0.1-0.2c0,0,0-0.1-0.1-0.2l-1.6-4L85.3,298.4L85.3,298.4z"/>
		</g>
	</g>
	<g>
		<g>
			<path fill="#FFFFFF" d="M92.9,297.3v1.1H94v0.8h-1.1v1.9c0,0.5,0.1,0.8,0.6,0.8c0.2,0,0.3,0,0.4,0v0.8c-0.2,0.1-0.5,0.1-0.8,0.1
				c-0.4,0-0.7-0.1-1-0.4c-0.2-0.3-0.4-0.7-0.4-1.2v-2.1h-0.6v-0.8h0.6v-0.8L92.9,297.3z"/>
		</g>
	</g>
	<g>
		<g>
			<path fill="#FFFFFF" d="M95.2,296.4h1.1v2.6l0,0c0.1-0.2,0.3-0.4,0.5-0.5s0.5-0.2,0.8-0.2c0.7,0,1.5,0.5,1.5,1.9v2.6H98v-2.5
				c0-0.6-0.2-1.1-0.8-1.1c-0.4,0-0.7,0.3-0.9,0.6c0,0.1,0,0.2,0,0.3v2.6h-1.1V296.4z"/>
		</g>
	</g>
	<g>
		<g>
			<path fill="#FFFFFF" d="M101.5,300.9c0,0.8,0.6,1.1,1.4,1.1c0.5,0,0.9-0.1,1.2-0.2l0.2,0.8c-0.4,0.2-0.9,0.3-1.5,0.3
				c-1.4,0-2.3-0.9-2.3-2.2c0-1.2,0.7-2.4,2.1-2.4s1.9,1.2,1.9,2.1c0,0.2,0,0.4,0,0.5L101.5,300.9L101.5,300.9z M103.4,300.2
				c0-0.4-0.2-1.1-0.9-1.1c-0.7,0-1,0.6-1,1.1H103.4z"/>
		</g>
	</g>
	<g>
		<g>
			<path fill="#FFFFFF" d="M106.9,297.2c0,0.3-0.2,0.6-0.6,0.6s-0.6-0.3-0.6-0.6c0-0.3,0.3-0.6,0.6-0.6S106.9,296.9,106.9,297.2z
				 M105.7,302.8v-4.4h1.1v4.4H105.7z"/>
		</g>
	</g>
	<g>
		<g>
			<path fill="#FFFFFF" d="M108.4,299.9c0-0.6,0-1,0-1.4h1v0.8l0,0c0.2-0.6,0.7-0.9,1.2-0.9c0.1,0,0.2,0,0.3,0v1c-0.1,0-0.2,0-0.3,0
				c-0.5,0-0.9,0.3-1,0.8c0,0.1,0,0.2,0,0.3v2.3h-1.1L108.4,299.9L108.4,299.9z"/>
		</g>
	</g>
	<g>
		<g>
			<path fill="#FFFFFF" d="M115.3,297.2c0,0.3-0.2,0.6-0.6,0.6s-0.6-0.3-0.6-0.6c0-0.3,0.3-0.6,0.6-0.6
				C115.1,296.6,115.3,296.9,115.3,297.2z M114.1,302.8v-4.4h1.1v4.4H114.1z"/>
		</g>
	</g>
	<g>
		<g>
			<path fill="#FFFFFF" d="M116.8,299.7c0-0.5,0-0.9,0-1.3h1l0.1,0.7l0,0c0.2-0.3,0.7-0.8,1.4-0.8c0.8,0,1.6,0.5,1.6,1.9v2.6h-1.1
				v-2.5c0-0.6-0.2-1.1-0.8-1.1c-0.4,0-0.7,0.3-0.9,0.6c0,0.1-0.1,0.2-0.1,0.4v2.6h-1.1L116.8,299.7L116.8,299.7z"/>
		</g>
	</g>
	<g>
		<g>
			<path fill="#FFFFFF" d="M123.5,297.3v1.1h1.1v0.8h-1.1v1.9c0,0.5,0.1,0.8,0.6,0.8c0.2,0,0.3,0,0.4,0v0.8
				c-0.2,0.1-0.5,0.1-0.8,0.1c-0.4,0-0.7-0.1-1-0.4c-0.2-0.3-0.4-0.7-0.4-1.2v-2.1h-0.6v-0.8h0.6v-0.8L123.5,297.3z"/>
		</g>
	</g>
	<g>
		<g>
			<path fill="#FFFFFF" d="M126.5,300.9c0,0.8,0.6,1.1,1.4,1.1c0.5,0,0.9-0.1,1.2-0.2l0.2,0.8c-0.4,0.2-0.9,0.3-1.5,0.3
				c-1.4,0-2.3-0.9-2.3-2.2c0-1.2,0.7-2.4,2.1-2.4s1.9,1.2,1.9,2.1c0,0.2,0,0.4,0,0.5L126.5,300.9L126.5,300.9z M128.4,300.2
				c0-0.4-0.2-1.1-0.9-1.1c-0.7,0-1,0.6-1,1.1H128.4z"/>
		</g>
	</g>
	<g>
		<g>
			<path fill="#FFFFFF" d="M130.7,299.9c0-0.6,0-1,0-1.4h1v0.8l0,0c0.2-0.6,0.7-0.9,1.2-0.9c0.1,0,0.2,0,0.3,0v1c-0.1,0-0.2,0-0.3,0
				c-0.5,0-0.9,0.3-1,0.8c0,0.1,0,0.2,0,0.3v2.3h-1.1L130.7,299.9L130.7,299.9z"/>
		</g>
	</g>
	<g>
		<g>
			<path fill="#FFFFFF" d="M135,300.9c0,0.8,0.6,1.1,1.4,1.1c0.5,0,0.9-0.1,1.2-0.2l0.2,0.8c-0.4,0.2-0.9,0.3-1.5,0.3
				c-1.4,0-2.3-0.9-2.3-2.2c0-1.2,0.7-2.4,2.1-2.4c1.4,0,1.9,1.2,1.9,2.1c0,0.2,0,0.4,0,0.5L135,300.9L135,300.9z M136.9,300.2
				c0-0.4-0.2-1.1-0.9-1.1s-1,0.6-1,1.1H136.9z"/>
		</g>
	</g>
	<g>
		<g>
			<path fill="#FFFFFF" d="M139.2,301.8c0.2,0.2,0.7,0.3,1.1,0.3c0.5,0,0.7-0.2,0.7-0.5s-0.2-0.4-0.7-0.6c-0.9-0.3-1.2-0.8-1.2-1.3
				c0-0.8,0.6-1.4,1.7-1.4c0.5,0,0.9,0.1,1.2,0.3l-0.2,0.8c-0.2-0.1-0.5-0.3-0.9-0.3s-0.6,0.2-0.6,0.5s0.2,0.4,0.8,0.6
				c0.8,0.3,1.2,0.7,1.2,1.3c0,0.8-0.6,1.4-1.8,1.4c-0.5,0-1-0.1-1.3-0.3V301.8z"/>
		</g>
	</g>
	<g>
		<g>
			<path fill="#FFFFFF" d="M144.6,297.3v1.1h1.1v0.8h-1.1v1.9c0,0.5,0.1,0.8,0.6,0.8c0.2,0,0.3,0,0.4,0v0.8
				c-0.2,0.1-0.5,0.1-0.8,0.1c-0.4,0-0.7-0.1-1-0.4c-0.2-0.3-0.4-0.7-0.4-1.2v-2.1h-0.6v-0.8h0.6v-0.8L144.6,297.3z"/>
		</g>
	</g>
	<g>
		<g>
			<path fill="#FFFFFF" d="M146.8,301.8c0.2,0.2,0.7,0.3,1.1,0.3c0.5,0,0.7-0.2,0.7-0.5s-0.2-0.4-0.7-0.6c-0.9-0.3-1.2-0.8-1.2-1.3
				c0-0.8,0.6-1.4,1.7-1.4c0.5,0,0.9,0.1,1.2,0.3l-0.2,0.8c-0.2-0.1-0.5-0.3-0.9-0.3s-0.6,0.2-0.6,0.5s0.2,0.4,0.8,0.6
				c0.8,0.3,1.2,0.7,1.2,1.3c0,0.8-0.6,1.4-1.8,1.4c-0.5,0-1-0.1-1.3-0.3V301.8z"/>
		</g>
	</g>
	<g>
		<g>
			<path fill="#FFFFFF" d="M150.7,302.2c0-0.4,0.3-0.7,0.7-0.7s0.7,0.3,0.7,0.7c0,0.4-0.3,0.7-0.7,0.7
				C151,302.9,150.7,302.6,150.7,302.2z"/>
		</g>
	</g>
</g>
<g>
	<g>
		<g>
			<g>
				<g>
					<g>
						<g>
							<g>
								<path fill="#FFFFFF" d="M35.5,206.6c-0.5,0-1-0.4-1-1v-25.9c0-0.5,0.4-1,1-1s1,0.4,1,1v25.9
									C36.5,206.2,36.1,206.6,35.5,206.6z"/>
							</g>
						</g>
					</g>
				</g>
			</g>
			<g>
				<g>
					<g>
						<g>
							<g>
								<path fill="#FFFFFF" d="M43.9,206.6c-0.5,0-1-0.4-1-1v-25.9c0-0.5,0.4-1,1-1s1,0.4,1,1v25.9
									C44.9,206.2,44.5,206.6,43.9,206.6z"/>
							</g>
						</g>
					</g>
				</g>
			</g>
		</g>
		<g>
			<g>
				<g>
					<g>
						<g>
							<path fill="#7E5EA2" d="M41.7,180h-4c-9.2,0-16.7-7.5-16.7-16.7v-29.1c0-9.2,7.5-16.7,16.7-16.7h4c9.2,0,16.7,7.5,16.7,16.7
								v29.1C58.5,172.5,51,180,41.7,180z"/>
						</g>
					</g>
				</g>
			</g>
			<g>
				<g>
					<g>
						<g>
							<path fill="#FFFFFF" d="M39.7,181c-10.9,0-19.7-8.8-19.7-19.7v-25.1c0-10.9,8.8-19.7,19.7-19.7s19.7,8.8,19.7,19.7v25.1
								C59.4,172.1,50.6,181,39.7,181z M39.7,118.4c-9.8,0-17.8,8-17.8,17.8v25.1c0,9.8,8,17.8,17.8,17.8s17.8-8,17.8-17.8v-25.1
								C57.5,126.4,49.5,118.4,39.7,118.4z"/>
						</g>
					</g>
				</g>
			</g>
		</g>
		<g>
			<g>
				<g>
					<g>
						<g>
							<g>
								<path fill="#FFFFFF" d="M40.9,151.6c-4.5,0-6.9-1.9-7-2l0.3-0.4c0,0,2.8,2.2,7.7,1.9c5-0.3,7.4-2.8,7.4-2.9l0.4,0.3
									c-0.1,0.1-2.6,2.7-7.8,3C41.6,151.5,41.2,151.6,40.9,151.6z"/>
							</g>
						</g>
					</g>
				</g>
			</g>
			<g>
				<g>
					<g>
						<g>
							<g>
								<path fill="#FFFFFF" d="M39.2,154v-2.7h2v2.7H39.2z M39.6,151.8v1.7h1v-1.7H39.6z"/>
							</g>
						</g>
					</g>
				</g>
			</g>
			<g>
				<g>
					<g>
						<g>
							<g>
								<path fill="#FFFFFF" d="M42.2,153.8v-2.7h1.9v2.7H42.2z M42.7,151.6v1.7h0.9v-1.7H42.7z"/>
							</g>
						</g>
					</g>
				</g>
			</g>
		</g>
		<g>
			<g>
				<g>
					<g>
						<g>
							<g>
								<path fill="#FFFFFF" d="M40.7,146.7c-6.2,0-11.2-5-11.2-11.2s5-11.2,11.2-11.2s11.2,5,11.2,11.2S46.9,146.7,40.7,146.7z
									 M40.7,126.4c-5.1,0-9.2,4.1-9.2,9.2s4.1,9.2,9.2,9.2s9.2-4.1,9.2-9.2S45.8,126.4,40.7,126.4z"/>
							</g>
						</g>
					</g>
				</g>
			</g>
			<g>
				<g>
					<g>
						<g>
							<g>
								<path fill="#FFFFFF" d="M40.7,142.2c-3.6,0-6.6-3-6.6-6.6s3-6.6,6.6-6.6s6.6,3,6.6,6.6S44.4,142.2,40.7,142.2z M40.7,129.5
									c-3.4,0-6.1,2.7-6.1,6.1c0,3.4,2.7,6.1,6.1,6.1c3.4,0,6.1-2.7,6.1-6.1S44.1,129.5,40.7,129.5z"/>
							</g>
						</g>
					</g>
				</g>
			</g>
			<g>
				<g>
					<g>
						<g>
							<g>
								<path fill="#FFFFFF" d="M40.7,140.5c-2.7,0-4.9-2.2-4.9-4.9s2.2-4.9,4.9-4.9s4.9,2.2,4.9,4.9
									C45.6,138.3,43.4,140.5,40.7,140.5z M40.7,131.1c-2.5,0-4.5,2-4.5,4.5s2,4.5,4.5,4.5s4.5-2,4.5-4.5S43.2,131.1,40.7,131.1z"
									/>
							</g>
						</g>
					</g>
				</g>
			</g>
			<g>
				<g>
					<g>
						<g>
							<g>
								<circle fill="#FFFFFF" cx="38.5" cy="130.9" r="3.3"/>
							</g>
						</g>
					</g>
				</g>
			</g>
		</g>
		<g>
			<g>
				<g>
					<g>
						<g>
							<g>
								<g>
									
										<rect x="26.7" y="169.6" transform="matrix(1 -1.764537e-03 1.764537e-03 1 -0.3341 4.917249e-02)" fill="#FFFFFF" width="2" height="39.5"/>
								</g>
							</g>
						</g>
					</g>
				</g>
				<g>
					<g>
						<g>
							<g>
								<g>
									
										<ellipse transform="matrix(0.7099 -0.7043 0.7043 0.7099 -140.0781 80.4989)" fill="#FFFFFF" cx="27.7" cy="210.3" rx="1.7" ry="1.7"/>
								</g>
							</g>
						</g>
					</g>
				</g>
			</g>
			<g>
				<g>
					<g>
						<g>
							<g>
								<g>
									<path fill="#FFFFFF" d="M16.4,174.3c-0.3,0-0.5-0.1-0.7-0.3c-0.3-0.3-0.3-0.7-0.2-1.1l4.6-10.5c0.2-0.5,0.8-0.7,1.3-0.5
										s0.7,0.8,0.5,1.3l-3.7,8.4l9.1-3.5c0.5-0.2,1.1,0.1,1.3,0.6c0.2,0.5-0.1,1.1-0.6,1.3l-11.3,4.4
										C16.6,174.3,16.5,174.3,16.4,174.3z"/>
								</g>
							</g>
						</g>
					</g>
				</g>
				<g>
					<g>
						<g>
							<g>
								<g>
									<circle fill="#F2A15E" cx="27.5" cy="168.9" r="2.3"/>
								</g>
							</g>
						</g>
					</g>
				</g>
			</g>
		</g>
		<g>
			<g>
				<g>
					<g>
						<g>
							<g>
								<g>
									
										<rect x="70.3" y="163.6" transform="matrix(0.9999 -1.274557e-02 1.274557e-02 0.9999 -2.2986 0.9234)" fill="#FFFFFF" width="2" height="34.4"/>
								</g>
							</g>
						</g>
					</g>
				</g>
				<g>
					<g>
						<g>
							<g>
								<g>
									
										<ellipse transform="matrix(0.7016 -0.7126 0.7126 0.7016 -120.6443 110.4045)" fill="#FFFFFF" cx="71.5" cy="199.2" rx="1.7" ry="1.7"/>
								</g>
							</g>
						</g>
					</g>
				</g>
			</g>
			<g>
				<g>
					<g>
						<g>
							<g>
								<g>
									<path fill="#FFFFFF" d="M60.3,172.1c-0.1,0-0.3,0-0.4-0.1c-0.3-0.1-0.5-0.4-0.6-0.7l-1.9-9.5c-0.1-0.5,0.2-1,0.8-1.2
										c0.5-0.1,1,0.2,1.2,0.8l1.6,8l9.7-6.6c0.4-0.3,1.1-0.2,1.4,0.3c0.3,0.4,0.2,1.1-0.3,1.4L60.9,172
										C60.7,172.1,60.5,172.1,60.3,172.1z"/>
								</g>
							</g>
						</g>
					</g>
				</g>
				<g>
					<g>
						<g>
							<g>
								<g>
									
										<ellipse transform="matrix(0.9172 -0.3985 0.3985 0.9172 -59.3419 41.9273)" fill="#F2A15E" cx="71.2" cy="163.7" rx="2.3" ry="2.3"/>
								</g>
							</g>
						</g>
					</g>
				</g>
			</g>
		</g>
	</g>
	<g>
		<g>
			<g>
				<g>
					<g>
						<g>
							<g>
								<path fill="#FFFFFF" d="M147.1,168.4c-0.5,0-1-0.4-1-1v-25.9c0-0.5,0.4-1,1-1s1,0.4,1,1v25.9
									C148.1,168,147.6,168.4,147.1,168.4z"/>
							</g>
						</g>
					</g>
				</g>
			</g>
			<g>
				<g>
					<g>
						<g>
							<g>
								<path fill="#FFFFFF" d="M155.5,168.4c-0.5,0-1-0.4-1-1v-26.8c0-0.5,0.4-1,1-1s1,0.4,1,1v26.8
									C156.5,168,156,168.4,155.5,168.4z"/>
							</g>
						</g>
					</g>
				</g>
			</g>
			<g>
				<g>
					<g>
						<g>
							<g>
								<path fill="#7E5EA2" d="M154.1,141.8h-4c-9.2,0-16.7-7.5-16.7-16.7V95.9c0-9.2,7.5-16.7,16.7-16.7h4
									c9.2,0,16.7,7.5,16.7,16.7V125C170.8,134.3,163.3,141.8,154.1,141.8z"/>
							</g>
						</g>
					</g>
				</g>
				<g>
					<g>
						<g>
							<g>
								<path fill="#FFFFFF" d="M152,142.8c-10.9,0-19.7-8.8-19.7-19.7V98c0-10.9,8.8-19.7,19.7-19.7s19.7,8.8,19.7,19.7v25
									C171.8,133.9,162.9,142.8,152,142.8z M152,80.2c-9.8,0-17.8,8-17.8,17.8v25c0,9.8,8,17.8,17.8,17.8s17.8-8,17.8-17.8V98
									C169.8,88.2,161.8,80.2,152,80.2z"/>
							</g>
						</g>
					</g>
				</g>
			</g>
			<g>
				<g>
					<g>
						<g>
							<g>
								<g>
									<path fill="#FFFFFF" d="M149.6,108.5c-6.2,0-11.2-5-11.2-11.2s5-11.2,11.2-11.2s11.2,5,11.2,11.2S155.7,108.5,149.6,108.5z
										 M149.6,88.2c-5.1,0-9.2,4.1-9.2,9.2s4.1,9.2,9.2,9.2s9.2-4.1,9.2-9.2C158.8,92.3,154.7,88.2,149.6,88.2z"/>
								</g>
							</g>
						</g>
					</g>
				</g>
				<g>
					<g>
						<g>
							<g>
								<g>
									<path fill="#FFFFFF" d="M149.6,104c-3.6,0-6.6-3-6.6-6.6s3-6.6,6.6-6.6s6.6,3,6.6,6.6C156.2,101,153.2,104,149.6,104z
										 M149.6,91.2c-3.4,0-6.1,2.7-6.1,6.1s2.7,6.1,6.1,6.1s6.1-2.7,6.1-6.1C155.7,94,153,91.2,149.6,91.2z"/>
								</g>
							</g>
						</g>
					</g>
				</g>
				<g>
					<g>
						<g>
							<g>
								<g>
									<path fill="#FFFFFF" d="M149.6,102.3c-2.7,0-4.9-2.2-4.9-4.9c0-2.7,2.2-4.9,4.9-4.9s4.9,2.2,4.9,4.9
										C154.5,100.1,152.3,102.3,149.6,102.3z M149.6,92.9c-2.5,0-4.5,2-4.5,4.5s2,4.5,4.5,4.5s4.5-2,4.5-4.5
										C154,94.9,152.1,92.9,149.6,92.9z"/>
								</g>
							</g>
						</g>
					</g>
				</g>
				<g>
					<g>
						<g>
							<g>
								<g>
									<circle fill="#FFFFFF" cx="147.4" cy="92.7" r="3.3"/>
								</g>
							</g>
						</g>
					</g>
				</g>
			</g>
			<g>
				<g>
					<g>
						<g>
							<g>
								<path fill="#FFFFFF" d="M148.4,115.1c-0.1,0-0.3,0-0.4,0c-3.6-0.2-5.4-2.7-5.5-2.8l0.4-0.3c0,0,1.7,2.4,5.1,2.6
									c3.4,0.2,5.3-2.1,5.3-2.1l0.4,0.3C153.7,112.9,151.9,115.1,148.4,115.1z"/>
							</g>
						</g>
					</g>
				</g>
			</g>
			<g>
				<g>
					<g>
						<g>
							<g>
								<circle fill="#FFFFFF" cx="153.6" cy="110.2" r="0.9"/>
							</g>
						</g>
					</g>
				</g>
			</g>
		</g>
		<g>
			<g>
				<g>
					<g>
						<g>
							<g>
								<path fill="#FFFFFF" d="M180.4,179.7c-0.5,0-1-0.4-1-1v-25.9c0-0.5,0.4-1,1-1s1,0.4,1,1v25.9
									C181.4,179.2,180.9,179.7,180.4,179.7z"/>
							</g>
						</g>
					</g>
				</g>
			</g>
			<g>
				<g>
					<g>
						<g>
							<g>
								<path fill="#FFFFFF" d="M188.8,179.7c-0.5,0-1-0.4-1-1v-26.8c0-0.5,0.4-1,1-1s1,0.4,1,1v26.8
									C189.8,179.2,189.3,179.7,188.8,179.7z"/>
							</g>
						</g>
					</g>
				</g>
			</g>
			<g>
				<g>
					<g>
						<g>
							<g>
								<path fill="#7E5EA2" d="M187.3,153h-4c-9.2,0-16.7-7.5-16.7-16.7v-29.1c0-9.2,7.5-16.7,16.7-16.7h4
									c9.2,0,16.7,7.5,16.7,16.7v29.1C204.1,145.6,196.6,153,187.3,153z"/>
							</g>
						</g>
					</g>
				</g>
				<g>
					<g>
						<g>
							<g>
								<path fill="#FFFFFF" d="M185.3,154c-10.9,0-19.7-8.8-19.7-19.7v-25.1c0-10.9,8.8-19.7,19.7-19.7s19.7,8.8,19.7,19.7v25.1
									C205,145.2,196.2,154,185.3,154z M185.3,91.5c-9.8,0-17.8,8-17.8,17.8v25.1c0,9.8,8,17.8,17.8,17.8s17.8-8,17.8-17.8v-25.1
									C203.1,99.4,195.1,91.5,185.3,91.5z"/>
							</g>
						</g>
					</g>
				</g>
			</g>
			<g>
				<g>
					<g>
						<g>
							<g>
								<g>
									<path fill="#FFFFFF" d="M182.9,119.8c-6.2,0-11.2-5-11.2-11.2s5-11.2,11.2-11.2s11.2,5,11.2,11.2
										C194,114.8,189,119.8,182.9,119.8z M182.9,99.4c-5.1,0-9.2,4.1-9.2,9.2s4.1,9.2,9.2,9.2s9.2-4.1,9.2-9.2
										C192.1,103.6,188,99.4,182.9,99.4z"/>
								</g>
							</g>
						</g>
					</g>
				</g>
				<g>
					<g>
						<g>
							<g>
								<g>
									<path fill="#FFFFFF" d="M182.9,115.2c-3.6,0-6.6-3-6.6-6.6s3-6.6,6.6-6.6s6.6,3,6.6,6.6
										C189.5,112.3,186.5,115.2,182.9,115.2z M182.9,102.5c-3.4,0-6.1,2.7-6.1,6.1s2.7,6.1,6.1,6.1c3.4,0,6.1-2.7,6.1-6.1
										C189,105.3,186.3,102.5,182.9,102.5z"/>
								</g>
							</g>
						</g>
					</g>
				</g>
				<g>
					<g>
						<g>
							<g>
								<g>
									<path fill="#FFFFFF" d="M182.9,113.6c-2.7,0-4.9-2.2-4.9-4.9c0-2.7,2.2-4.9,4.9-4.9s4.9,2.2,4.9,4.9
										C187.8,111.4,185.6,113.6,182.9,113.6z M182.9,104.2c-2.5,0-4.5,2-4.5,4.5s2,4.5,4.5,4.5s4.5-2,4.5-4.5
										C187.3,106.2,185.3,104.2,182.9,104.2z"/>
								</g>
							</g>
						</g>
					</g>
				</g>
				<g>
					<g>
						<g>
							<g>
								<g>
									<circle fill="#FFFFFF" cx="180.7" cy="103.9" r="3.3"/>
								</g>
							</g>
						</g>
					</g>
				</g>
			</g>
			<g>
				<g>
					<g>
						<g>
							<g>
								<path fill="#FFFFFF" d="M181.7,126.3c-0.1,0-0.3,0-0.4,0c-3.6-0.2-5.4-2.7-5.5-2.8l0.4-0.3c0,0,1.7,2.4,5.1,2.6
									c3.4,0.2,5.3-2.1,5.3-2.1l0.4,0.3C187,124.2,185.1,126.3,181.7,126.3z"/>
							</g>
						</g>
					</g>
				</g>
			</g>
			<g>
				<g>
					<g>
						<g>
							<g>
								
									<rect x="181.1" y="120.2" transform="matrix(2.750584e-02 -0.9996 0.9996 2.750584e-02 53.5093 300.8664)" fill="#FFFFFF" width="0.5" height="5.4"/>
							</g>
						</g>
					</g>
				</g>
			</g>
			<g>
				<g>
					<g>
						<g>
							<path fill="#FFFFFF" d="M204.1,153.5c-0.6,0-1-0.4-1-1v-20.2c0-0.6,0.4-1,1-1s1,0.4,1,1v20.2
								C205.1,153.1,204.6,153.5,204.1,153.5z"/>
						</g>
					</g>
				</g>
				<g>
					<g>
						<g>
							<g>
								<g>
									<g>
										<circle fill="#F2A15E" cx="204.1" cy="153.1" r="2.2"/>
									</g>
								</g>
							</g>
						</g>
					</g>
				</g>
			</g>
		</g>
		<g>
			<g>
				<g>
					<g>
						<g>
							<g>
								<path fill="#FFFFFF" d="M114,193.3c-0.5,0-1-0.4-1-1v-25.9c0-0.5,0.4-1,1-1s1,0.4,1,1v25.9C115,192.9,114.6,193.3,114,193.3
									z"/>
							</g>
						</g>
					</g>
				</g>
			</g>
			<g>
				<g>
					<g>
						<g>
							<g>
								<path fill="#FFFFFF" d="M122.4,193.3c-0.5,0-1-0.4-1-1v-26.8c0-0.5,0.4-1,1-1s1,0.4,1,1v26.8
									C123.4,192.9,123,193.3,122.4,193.3z"/>
							</g>
						</g>
					</g>
				</g>
			</g>
			<g>
				<g>
					<g>
						<g>
							<g>
								<path fill="#7E5EA2" d="M121,166.7h-4c-9.2,0-16.7-7.5-16.7-16.7v-29.1c0-9.2,7.5-16.7,16.7-16.7h4
									c9.2,0,16.7,7.5,16.7,16.7V150C137.7,159.2,130.2,166.7,121,166.7z"/>
							</g>
						</g>
					</g>
				</g>
				<g>
					<g>
						<g>
							<g>
								<path fill="#FFFFFF" d="M119,167.7c-10.9,0-19.7-8.8-19.7-19.7v-25.1c0-10.9,8.8-19.7,19.7-19.7s19.7,8.8,19.7,19.7V148
									C138.7,158.9,129.9,167.7,119,167.7z M119,105.1c-9.8,0-17.8,8-17.8,17.8V148c0,9.8,8,17.8,17.8,17.8s17.8-8,17.8-17.8
									v-25.1C136.7,113.1,128.8,105.1,119,105.1z"/>
							</g>
						</g>
					</g>
				</g>
			</g>
			<g>
				<g>
					<g>
						<g>
							<g>
								<g>
									<path fill="#FFFFFF" d="M116.5,133.5c-6.2,0-11.2-5-11.2-11.2s5-11.2,11.2-11.2s11.2,5,11.2,11.2S122.7,133.5,116.5,133.5z
										 M116.5,113.1c-5.1,0-9.2,4.1-9.2,9.2s4.1,9.2,9.2,9.2s9.2-4.1,9.2-9.2C125.7,117.2,121.6,113.1,116.5,113.1z"/>
								</g>
							</g>
						</g>
					</g>
				</g>
				<g>
					<g>
						<g>
							<g>
								<g>
									<path fill="#FFFFFF" d="M116.5,128.9c-3.6,0-6.6-3-6.6-6.6s3-6.6,6.6-6.6s6.6,3,6.6,6.6C123.2,126,120.2,128.9,116.5,128.9
										z M116.5,116.2c-3.4,0-6.1,2.7-6.1,6.1s2.7,6.1,6.1,6.1s6.1-2.7,6.1-6.1C122.7,118.9,119.9,116.2,116.5,116.2z"/>
								</g>
							</g>
						</g>
					</g>
				</g>
				<g>
					<g>
						<g>
							<g>
								<g>
									<path fill="#FFFFFF" d="M116.5,127.3c-2.7,0-4.9-2.2-4.9-4.9c0-2.7,2.2-4.9,4.9-4.9c2.7,0,4.9,2.2,4.9,4.9
										C121.5,125,119.3,127.3,116.5,127.3z M116.5,117.9c-2.5,0-4.5,2-4.5,4.5s2,4.5,4.5,4.5s4.5-2,4.5-4.5
										S119,117.9,116.5,117.9z"/>
								</g>
							</g>
						</g>
					</g>
				</g>
				<g>
					<g>
						<g>
							<g>
								<g>
									<circle fill="#FFFFFF" cx="114.3" cy="117.6" r="3.3"/>
								</g>
							</g>
						</g>
					</g>
				</g>
			</g>
			<g>
				<g>
					<g>
						<g>
							<g>
								<path fill="#FFFFFF" d="M115.4,140c-0.1,0-0.3,0-0.4,0c-3.6-0.2-5.4-2.7-5.5-2.8l0.4-0.3c0,0,1.7,2.4,5.1,2.6
									c3.4,0.2,5.3-2.1,5.3-2.1l0.4,0.3C120.6,137.9,118.8,140,115.4,140z"/>
							</g>
						</g>
					</g>
				</g>
			</g>
			<g>
				<g>
					<g>
						<g>
							<g>
								<path fill="#FFFFFF" d="M117,144.4c-0.9,0-1.7-0.8-1.7-1.8v-2.8h0.5v2.8c0,0.7,0.5,1.3,1.2,1.3s1.2-0.6,1.2-1.3v-3.5h0.5
									v3.5C118.7,143.6,117.9,144.4,117,144.4z"/>
							</g>
						</g>
					</g>
				</g>
			</g>
			<g>
				<g>
					<g>
						<g>
							<path fill="#FFFFFF" d="M137.7,166.7c-0.6,0-1-0.4-1-1v-20.2c0-0.6,0.4-1,1-1s1,0.4,1,1v20.2
								C138.7,166.2,138.3,166.7,137.7,166.7z"/>
						</g>
					</g>
				</g>
				<g>
					<g>
						<g>
							<g>
								<g>
									<g>
										<circle fill="#F2A15E" cx="137.7" cy="166.3" r="2.2"/>
									</g>
								</g>
							</g>
						</g>
					</g>
				</g>
			</g>
			<g>
				<g>
					<g>
						<g>
							<path fill="#FFFFFF" d="M100.2,166.7c-0.6,0-1-0.4-1-1v-20.2c0-0.6,0.4-1,1-1s1,0.4,1,1v20.2
								C101.2,166.2,100.8,166.7,100.2,166.7z"/>
						</g>
					</g>
				</g>
				<g>
					<g>
						<g>
							<g>
								<g>
									<g>
										<circle fill="#F2A15E" cx="100.2" cy="166.3" r="2.2"/>
									</g>
								</g>
							</g>
						</g>
					</g>
				</g>
			</g>
		</g>
		<g>
			<g>
				<g>
					<g>
						<g>
							<g>
								<path fill="#FFFFFF" d="M158.4,216.9c-0.5,0-1-0.4-1-1V190c0-0.5,0.4-1,1-1s1,0.4,1,1v25.9
									C159.4,216.5,159,216.9,158.4,216.9z"/>
							</g>
						</g>
					</g>
				</g>
			</g>
			<g>
				<g>
					<g>
						<g>
							<g>
								<path fill="#FFFFFF" d="M166.8,216.9c-0.5,0-1-0.4-1-1v-26.8c0-0.5,0.4-1,1-1s1,0.4,1,1v26.8
									C167.8,216.5,167.4,216.9,166.8,216.9z"/>
							</g>
						</g>
					</g>
				</g>
			</g>
			<g>
				<g>
					<g>
						<g>
							<g>
								<path fill="#7E5EA2" d="M165.4,190.3h-4c-9.2,0-16.7-7.5-16.7-16.7v-29.1c0-9.2,7.5-16.7,16.7-16.7h4
									c9.2,0,16.7,7.5,16.7,16.7v29.1C182.1,182.8,174.6,190.3,165.4,190.3z"/>
							</g>
						</g>
					</g>
				</g>
				<g>
					<g>
						<g>
							<g>
								<path fill="#FFFFFF" d="M163.4,191.3c-10.9,0-19.7-8.8-19.7-19.7v-25.1c0-10.9,8.8-19.7,19.7-19.7s19.7,8.8,19.7,19.7v25.1
									C183.1,182.4,174.2,191.3,163.4,191.3z M163.4,128.7c-9.8,0-17.8,8-17.8,17.8v25.1c0,9.8,8,17.8,17.8,17.8s17.8-8,17.8-17.8
									v-25.1C181.1,136.7,173.2,128.7,163.4,128.7z"/>
							</g>
						</g>
					</g>
				</g>
			</g>
			<g>
				<g>
					<g>
						<g>
							<g>
								<g>
									<path fill="#FFFFFF" d="M160.9,157c-6.2,0-11.2-5-11.2-11.2s5-11.2,11.2-11.2s11.2,5,11.2,11.2S167.1,157,160.9,157z
										 M160.9,136.7c-5.1,0-9.2,4.1-9.2,9.2s4.1,9.2,9.2,9.2c5.1,0,9.2-4.1,9.2-9.2S166,136.7,160.9,136.7z"/>
								</g>
							</g>
						</g>
					</g>
				</g>
				<g>
					<g>
						<g>
							<g>
								<g>
									<path fill="#FFFFFF" d="M160.9,152.5c-3.6,0-6.6-3-6.6-6.6s3-6.6,6.6-6.6s6.6,3,6.6,6.6S164.6,152.5,160.9,152.5z
										 M160.9,139.7c-3.4,0-6.1,2.7-6.1,6.1s2.7,6.1,6.1,6.1c3.4,0,6.1-2.7,6.1-6.1S164.3,139.7,160.9,139.7z"/>
								</g>
							</g>
						</g>
					</g>
				</g>
				<g>
					<g>
						<g>
							<g>
								<g>
									<path fill="#FFFFFF" d="M160.9,150.8c-2.7,0-4.9-2.2-4.9-4.9s2.2-4.9,4.9-4.9s4.9,2.2,4.9,4.9
										C165.9,148.6,163.6,150.8,160.9,150.8z M160.9,141.4c-2.5,0-4.5,2-4.5,4.5s2,4.5,4.5,4.5s4.5-2,4.5-4.5
										S163.4,141.4,160.9,141.4z"/>
								</g>
							</g>
						</g>
					</g>
				</g>
				<g>
					<g>
						<g>
							<g>
								<g>
									<circle fill="#FFFFFF" cx="158.7" cy="141.2" r="3.3"/>
								</g>
							</g>
						</g>
					</g>
				</g>
			</g>
			<g>
				<g>
					<g>
						<g>
							<g>
								<path fill="#FFFFFF" d="M159.8,163.6c-0.1,0-0.3,0-0.4,0c-3.6-0.2-5.4-2.7-5.5-2.8l0.4-0.3c0,0,1.7,2.4,5.1,2.6
									c3.4,0.2,5.3-2.1,5.3-2.1l0.4,0.3C165,161.4,163.2,163.6,159.8,163.6z"/>
							</g>
						</g>
					</g>
				</g>
			</g>
			<g>
				<g>
					<g>
						<g>
							<g>
								<path fill="#FFFFFF" d="M159.2,167.2c-1.7,0-3.1-1.4-3.1-3.1v-1c0-1.7,1.4-3.1,3.1-3.1c1.7,0,3.1,1.4,3.1,3.1v1
									C162.2,165.8,160.9,167.2,159.2,167.2z M159.2,160.5c-1.4,0-2.6,1.2-2.6,2.6v1c0,1.4,1.2,2.6,2.6,2.6c1.4,0,2.6-1.2,2.6-2.6
									v-1C161.8,161.6,160.6,160.5,159.2,160.5z"/>
							</g>
						</g>
					</g>
				</g>
			</g>
			<g>
				<g>
					<g>
						<g>
							<path fill="#FFFFFF" d="M144.6,191.7c-0.6,0-1-0.4-1-1v-20.2c0-0.6,0.4-1,1-1s1,0.4,1,1v20.2
								C145.6,191.3,145.2,191.7,144.6,191.7z"/>
						</g>
					</g>
				</g>
				<g>
					<g>
						<g>
							<g>
								<g>
									<g>
										<circle fill="#F2A15E" cx="144.6" cy="191.3" r="2.2"/>
									</g>
								</g>
							</g>
						</g>
					</g>
				</g>
			</g>
			<g>
				<g>
					<g>
						<g>
							<path fill="#FFFFFF" d="M182.1,191.7c-0.6,0-1-0.4-1-1v-20.2c0-0.6,0.4-1,1-1s1,0.4,1,1v20.2
								C183.1,191.3,182.7,191.7,182.1,191.7z"/>
						</g>
					</g>
				</g>
				<g>
					<g>
						<g>
							<g>
								<g>
									<g>
										<circle fill="#F2A15E" cx="182.1" cy="191.3" r="2.2"/>
									</g>
								</g>
							</g>
						</g>
					</g>
				</g>
			</g>
		</g>
	</g>
	<g>
		<g>
			<g>
				<g>
					<g>
						<g>
							<path fill="#FFFFFF" d="M100.6,40.8c0.8,0.4,2.1,0.8,3.4,0.8c1.2,0,1.8-0.4,1.8-1.1c0-0.6-0.6-1-2.1-1.5
								c-2.2-0.8-3.7-2-3.7-3.9c0-2.3,2-4.1,5.2-4.1c1.5,0,2.7,0.3,3.5,0.7l-0.7,2.8c-0.6-0.3-1.5-0.6-2.8-0.6c-1.1,0-1.6,0.4-1.6,1
								c0,0.7,0.7,0.9,2.3,1.5c2.3,0.9,3.4,2.1,3.4,3.9c0,2.2-1.7,4.2-5.6,4.2c-1.6,0-3.1-0.4-3.8-0.8L100.6,40.8z"/>
						</g>
					</g>
				</g>
			</g>
			<g>
				<g>
					<g>
						<g>
							<path fill="#FFFFFF" d="M114.5,38.6L114.5,38.6c0.3-0.4,0.4-0.8,0.7-1.2l1.6-2.7h4.2l-3.3,3.8l3.8,5.7h-4.3l-1.9-3.6
								l-0.7,0.9v2.7H111V30.5h3.5V38.6z"/>
						</g>
					</g>
				</g>
			</g>
			<g>
				<g>
					<g>
						<g>
							<path fill="#FFFFFF" d="M125.8,32.1c0,0.9-0.7,1.6-1.8,1.6c-1.1,0-1.8-0.7-1.8-1.6c0-1,0.7-1.7,1.8-1.7
								C125.1,30.5,125.8,31.2,125.8,32.1z M122.2,44.3v-9.5h3.5v9.5H122.2z"/>
						</g>
					</g>
				</g>
			</g>
			<g>
				<g>
					<g>
						<g>
							<path fill="#FFFFFF" d="M131.4,32.1c0,0.9-0.7,1.6-1.8,1.6s-1.8-0.7-1.8-1.6c0-1,0.7-1.7,1.8-1.7
								C130.7,30.5,131.4,31.2,131.4,32.1z M127.9,44.3v-9.5h3.5v9.5H127.9z"/>
						</g>
					</g>
				</g>
			</g>
			<g>
				<g>
					<g>
						<g>
							<path fill="#FFFFFF" d="M133.6,38c0-1.3,0-2.4-0.1-3.3h3l0.2,1.2h0.1c0.3-0.5,1.3-1.4,2.9-1.4c2.2,0,3.4,1.5,3.4,4.1v5.6
								h-3.5V39c0-1.1-0.4-1.7-1.2-1.7c-0.7,0-1,0.5-1.1,0.8c-0.1,0.2-0.1,0.4-0.1,0.7v5.4h-3.5L133.6,38L133.6,38z"/>
						</g>
					</g>
				</g>
			</g>
			<g>
				<g>
					<g>
						<g>
							<path fill="#FFFFFF" d="M154.5,42.9c0,1.7-0.3,3.3-1.5,4.3c-1.1,0.9-2.5,1.2-4,1.2c-1.3,0-2.7-0.3-3.5-0.7l0.7-2.6
								c0.6,0.3,1.7,0.7,2.7,0.7c1.2,0,2.2-0.7,2.2-2.1v-0.4l0,0c-0.6,0.7-1.4,1.1-2.4,1.1c-2.3,0-4-1.9-4-4.6c0-3,1.9-5,4.3-5
								c1.2,0,2,0.4,2.5,1.2l0,0l0.1-1h3c0,0.6-0.1,1.4-0.1,2.9V42.9z M151.1,38.7c0-0.2,0-0.3,0-0.4c-0.2-0.7-0.6-1.1-1.2-1.1
								c-0.8,0-1.5,0.8-1.5,2.3c0,1.2,0.6,2.1,1.5,2.1c0.6,0,1.1-0.4,1.2-0.9c0.1-0.2,0.1-0.5,0.1-0.7v-1.3H151.1z"/>
						</g>
					</g>
				</g>
			</g>
		</g>
		<g>
			<g>
				<g>
					<g>
						<g>
							<path fill="#FFFFFF" d="M171.7,48.3l-0.6-0.5c-0.1-0.1-2.4-1.9-4.8-4.4c-3.3-3.5-4.9-6.4-4.9-8.8v-0.9l0,0
								c0.4-2.9,2.8-5.2,5.8-5.2c1.7,0,3.3,0.7,4.4,1.9c1.1-1.2,2.7-1.9,4.4-1.9c3,0,5.5,2.3,5.8,5.2l0,0v0.5c0,0.1,0,0.2,0,0.2v0.1
								v0.1c0,2.4-1.7,5.3-4.9,8.8c-2.3,2.5-4.7,4.3-4.8,4.4L171.7,48.3z M163.4,35.2c0.5,3.6,5.7,8.5,8.3,10.7
								c2.7-2.2,8-7.3,8.3-10.9v-0.6c0-2.2-1.8-4-4-4c-1.5,0-2.8,0.8-3.5,2.1l-0.8,1.6l-0.8-1.6c-0.7-1.3-2-2.1-3.5-2.1
								c-2.2,0-4,1.8-4,4V35.2z"/>
						</g>
					</g>
				</g>
			</g>
		</g>
		<g>
			<g>
				<g>
					<g>
						<g>
							<path fill="#79C7D9" d="M97.2,82.6c-0.3,0-0.6-0.1-0.8-0.3c-4.5-4.5-6.9-11.3-6.8-19.6c0-4.8,0.9-8.8,1.2-10.4
								c-4.6-3.8-7.2-9.3-7.2-15.3c0-11,8.9-19.9,19.9-19.9h72.1c11,0,19.9,8.9,19.9,19.9s-8.9,19.9-19.9,19.9h-68.1
								c-10.6,4.1-9.2,24.2-9.2,24.4c0,0.5-0.2,1-0.7,1.2C97.6,82.5,97.4,82.6,97.2,82.6z M93.3,52.1C93.2,52.5,89,67.9,96,78
								c0-2.1,0.2-5,0.7-8.1c1.5-8.2,5-13.5,10.3-15.3c0.1,0,0.3-0.1,0.4-0.1h68.3c9.7,0,17.5-7.9,17.5-17.5
								c0-9.7-7.9-17.5-17.5-17.5h-72.1C93.9,19.4,86,27.3,86,37c0,5.5,2.5,10.6,6.9,13.9C93.2,51.2,93.4,51.7,93.3,52.1z"/>
						</g>
					</g>
				</g>
			</g>
		</g>
	</g>
</g>
</svg>
