<?xml version="1.0" encoding="utf-8"?>
<!-- Generator: Adobe Illustrator 19.2.1, SVG Export Plug-In . SVG Version: 6.00 Build 0)  -->
<svg version="1.1" id="Layer_1" xmlns="http://www.w3.org/2000/svg" xmlns:xlink="http://www.w3.org/1999/xlink" x="0px" y="0px"
	 viewBox="0 0 220.9 331.7" enable-background="new 0 0 220.9 331.7" xml:space="preserve">
<g>
	<g>
		<g>
			<rect x="0" fill="#7E5EA2" width="220.9" height="331.7"/>
		</g>
	</g>
</g>
<g>
	<g>
		<g>
			<path fill="#FFFFFF" d="M206.1,263.8H14.7c-0.6,0-1-0.4-1-1s0.4-1,1-1h191.4c0.6,0,1,0.4,1,1S206.7,263.8,206.1,263.8z"/>
		</g>
	</g>
</g>
<g>
	<g>
		<g>
			<path fill="#FFFFFF" d="M21.6,278.1c0,2-1.2,3.2-2.9,3.2c-1.7,0-2.8-1.3-2.8-3.1c0-1.9,1.2-3.2,2.9-3.2
				C20.6,275,21.6,276.4,21.6,278.1z M17.1,278.2c0,1.2,0.6,2.2,1.7,2.2c1.1,0,1.7-1,1.7-2.3c0-1.1-0.6-2.2-1.7-2.2
				C17.7,275.9,17.1,277,17.1,278.2z"/>
		</g>
	</g>
	<g>
		<g>
			<path fill="#FFFFFF" d="M22.9,278.3c0-0.6,0-1,0-1.4h1l0,0.8h0c0.2-0.6,0.7-0.9,1.2-0.9c0.1,0,0.2,0,0.3,0v1c-0.1,0-0.2,0-0.3,0
				c-0.5,0-0.9,0.3-1,0.8c0,0.1,0,0.2,0,0.3v2.3h-1.1V278.3z"/>
		</g>
	</g>
	<g>
		<g>
			<path fill="#FFFFFF" d="M30.4,280.6c0,0.9-0.2,1.6-0.6,2c-0.5,0.4-1.1,0.5-1.7,0.5c-0.6,0-1.2-0.1-1.5-0.4l0.2-0.8
				c0.3,0.2,0.7,0.3,1.3,0.3c0.7,0,1.3-0.4,1.3-1.3v-0.4h0c-0.3,0.4-0.7,0.6-1.3,0.6c-1.1,0-1.9-0.9-1.9-2.1c0-1.4,0.9-2.3,2-2.3
				c0.7,0,1.1,0.3,1.3,0.7h0l0-0.6h1c0,0.3,0,0.7,0,1.3V280.6z M29.3,278.6c0-0.1,0-0.2,0-0.3c-0.1-0.4-0.4-0.7-0.9-0.7
				c-0.6,0-1.1,0.5-1.1,1.4c0,0.7,0.4,1.4,1.1,1.4c0.4,0,0.8-0.3,0.9-0.7c0-0.1,0-0.3,0-0.4V278.6z"/>
		</g>
	</g>
	<g>
		<g>
			<path fill="#FFFFFF" d="M35.3,280.2c0,0.4,0,0.8,0.1,1.1h-1l-0.1-0.5h0c-0.3,0.3-0.7,0.6-1.3,0.6c-0.9,0-1.4-0.6-1.4-1.3
				c0-1.1,1-1.7,2.6-1.7v-0.1c0-0.3-0.1-0.8-0.9-0.8c-0.4,0-0.9,0.1-1.2,0.3l-0.2-0.7c0.3-0.2,0.9-0.4,1.6-0.4
				c1.4,0,1.8,0.9,1.8,1.9V280.2z M34.2,279.1c-0.8,0-1.5,0.2-1.5,0.8c0,0.4,0.3,0.6,0.6,0.6c0.5,0,0.8-0.3,0.9-0.6
				c0-0.1,0-0.2,0-0.2V279.1z"/>
		</g>
	</g>
	<g>
		<g>
			<path fill="#FFFFFF" d="M36.9,278.1c0-0.5,0-0.9,0-1.3h1l0.1,0.7h0c0.2-0.3,0.7-0.8,1.4-0.8c0.8,0,1.6,0.5,1.6,1.9v2.6h-1.1v-2.5
				c0-0.6-0.2-1.1-0.8-1.1c-0.4,0-0.7,0.3-0.9,0.6c0,0.1-0.1,0.2-0.1,0.4v2.6h-1.1V278.1z"/>
		</g>
	</g>
	<g>
		<g>
			<path fill="#FFFFFF" d="M43.5,275.6c0,0.3-0.2,0.6-0.6,0.6c-0.4,0-0.6-0.3-0.6-0.6c0-0.3,0.3-0.6,0.6-0.6
				C43.3,275,43.5,275.3,43.5,275.6z M42.4,281.2v-4.4h1.1v4.4H42.4z"/>
		</g>
	</g>
	<g>
		<g>
			<path fill="#FFFFFF" d="M44.6,280.6l1.6-2.1c0.2-0.3,0.4-0.5,0.6-0.7v0h-2.1v-0.9h3.5v0.7l-1.6,2.1c-0.2,0.3-0.4,0.5-0.6,0.7v0
				h2.3v0.9h-3.7V280.6z"/>
		</g>
	</g>
	<g>
		<g>
			<path fill="#FFFFFF" d="M50.6,275.6c0,0.3-0.2,0.6-0.6,0.6c-0.4,0-0.6-0.3-0.6-0.6c0-0.3,0.3-0.6,0.6-0.6
				C50.4,275,50.6,275.3,50.6,275.6z M49.4,281.2v-4.4h1.1v4.4H49.4z"/>
		</g>
	</g>
	<g>
		<g>
			<path fill="#FFFFFF" d="M52.1,278.1c0-0.5,0-0.9,0-1.3h1l0.1,0.7h0c0.2-0.3,0.7-0.8,1.4-0.8c0.8,0,1.6,0.5,1.6,1.9v2.6H55v-2.5
				c0-0.6-0.2-1.1-0.8-1.1c-0.4,0-0.7,0.3-0.9,0.6c0,0.1-0.1,0.2-0.1,0.4v2.6h-1.1V278.1z"/>
		</g>
	</g>
	<g>
		<g>
			<path fill="#FFFFFF" d="M61.6,280.6c0,0.9-0.2,1.6-0.6,2c-0.5,0.4-1.1,0.5-1.7,0.5c-0.6,0-1.2-0.1-1.5-0.4l0.2-0.8
				c0.3,0.2,0.7,0.3,1.3,0.3c0.7,0,1.3-0.4,1.3-1.3v-0.4h0c-0.3,0.4-0.7,0.6-1.3,0.6c-1.1,0-1.9-0.9-1.9-2.1c0-1.4,0.9-2.3,2-2.3
				c0.7,0,1.1,0.3,1.3,0.7h0l0-0.6h1c0,0.3,0,0.7,0,1.3V280.6z M60.5,278.6c0-0.1,0-0.2,0-0.3c-0.1-0.4-0.4-0.7-0.9-0.7
				c-0.6,0-1.1,0.5-1.1,1.4c0,0.7,0.4,1.4,1.1,1.4c0.4,0,0.8-0.3,0.9-0.7c0-0.1,0-0.3,0-0.4V278.6z"/>
		</g>
	</g>
	<g>
		<g>
			<path fill="#FFFFFF" d="M65.3,274.8h1.1v2.6h0c0.1-0.2,0.3-0.4,0.5-0.5c0.2-0.1,0.5-0.2,0.8-0.2c0.7,0,1.5,0.5,1.5,1.9v2.6h-1.1
				v-2.5c0-0.6-0.2-1.1-0.8-1.1c-0.4,0-0.7,0.3-0.9,0.6c0,0.1,0,0.2,0,0.3v2.6h-1.1V274.8z"/>
		</g>
	</g>
	<g>
		<g>
			<path fill="#FFFFFF" d="M74.3,280.2c0,0.4,0,0.8,0.1,1.1h-1l-0.1-0.5h0c-0.3,0.3-0.7,0.6-1.3,0.6c-0.9,0-1.4-0.6-1.4-1.3
				c0-1.1,1-1.7,2.6-1.7v-0.1c0-0.3-0.1-0.8-0.9-0.8c-0.4,0-0.9,0.1-1.2,0.3l-0.2-0.7c0.3-0.2,0.9-0.4,1.6-0.4
				c1.4,0,1.8,0.9,1.8,1.9V280.2z M73.2,279.1c-0.8,0-1.5,0.2-1.5,0.8c0,0.4,0.3,0.6,0.6,0.6c0.5,0,0.8-0.3,0.9-0.6
				c0-0.1,0-0.2,0-0.2V279.1z"/>
		</g>
	</g>
	<g>
		<g>
			<path fill="#FFFFFF" d="M75.8,278.1c0-0.5,0-0.9,0-1.3h1l0.1,0.7h0c0.2-0.3,0.7-0.8,1.4-0.8c0.8,0,1.6,0.5,1.6,1.9v2.6h-1.1v-2.5
				c0-0.6-0.2-1.1-0.8-1.1c-0.4,0-0.7,0.3-0.9,0.6c0,0.1-0.1,0.2-0.1,0.4v2.6h-1.1V278.1z"/>
		</g>
	</g>
	<g>
		<g>
			<path fill="#FFFFFF" d="M85.3,280.6c0,0.9-0.2,1.6-0.6,2c-0.5,0.4-1.1,0.5-1.7,0.5c-0.6,0-1.2-0.1-1.5-0.4l0.2-0.8
				c0.3,0.2,0.7,0.3,1.3,0.3c0.7,0,1.3-0.4,1.3-1.3v-0.4h0c-0.3,0.4-0.7,0.6-1.3,0.6c-1.1,0-1.9-0.9-1.9-2.1c0-1.4,0.9-2.3,2-2.3
				c0.7,0,1.1,0.3,1.3,0.7h0l0-0.6h1c0,0.3,0,0.7,0,1.3V280.6z M84.2,278.6c0-0.1,0-0.2,0-0.3c-0.1-0.4-0.4-0.7-0.9-0.7
				c-0.6,0-1.1,0.5-1.1,1.4c0,0.7,0.4,1.4,1.1,1.4c0.4,0,0.8-0.3,0.9-0.7c0-0.1,0-0.3,0-0.4V278.6z"/>
		</g>
	</g>
	<g>
		<g>
			<path fill="#FFFFFF" d="M91,279c0,1.6-1.1,2.3-2.2,2.3c-1.2,0-2.2-0.8-2.2-2.3c0-1.4,0.9-2.3,2.3-2.3C90.1,276.7,91,277.7,91,279
				z M87.7,279c0,0.8,0.4,1.5,1.1,1.5c0.6,0,1.1-0.6,1.1-1.5c0-0.7-0.3-1.5-1.1-1.5C88,277.5,87.7,278.3,87.7,279z"/>
		</g>
	</g>
	<g>
		<g>
			<path fill="#FFFFFF" d="M96.2,279.9c0,0.5,0,1,0,1.3h-1l-0.1-0.7h0c-0.2,0.3-0.6,0.8-1.4,0.8s-1.5-0.5-1.5-1.9v-2.6h1.1v2.4
				c0,0.7,0.2,1.2,0.8,1.2c0.5,0,0.7-0.3,0.8-0.6c0-0.1,0.1-0.2,0.1-0.3v-2.6h1.1V279.9z"/>
		</g>
	</g>
	<g>
		<g>
			<path fill="#FFFFFF" d="M99,275.7v1.1h1.1v0.8H99v1.9c0,0.5,0.1,0.8,0.6,0.8c0.2,0,0.3,0,0.4,0l0,0.8c-0.2,0.1-0.5,0.1-0.8,0.1
				c-0.4,0-0.7-0.1-1-0.4c-0.2-0.3-0.4-0.7-0.4-1.2v-2.1h-0.6v-0.8h0.6V276L99,275.7z"/>
		</g>
	</g>
	<g>
		<g>
			<path fill="#FFFFFF" d="M101.2,280.2c0.2,0.2,0.7,0.3,1.1,0.3c0.5,0,0.7-0.2,0.7-0.5c0-0.3-0.2-0.4-0.7-0.6
				c-0.9-0.3-1.2-0.8-1.2-1.3c0-0.8,0.6-1.4,1.7-1.4c0.5,0,0.9,0.1,1.2,0.3l-0.2,0.8c-0.2-0.1-0.5-0.3-0.9-0.3
				c-0.4,0-0.6,0.2-0.6,0.5c0,0.3,0.2,0.4,0.8,0.6c0.8,0.3,1.2,0.7,1.2,1.3c0,0.8-0.6,1.4-1.8,1.4c-0.5,0-1-0.1-1.3-0.3L101.2,280.2
				z"/>
		</g>
	</g>
	<g>
		<g>
			<path fill="#FFFFFF" d="M108.8,275.6c0,0.3-0.2,0.6-0.6,0.6c-0.4,0-0.6-0.3-0.6-0.6c0-0.3,0.3-0.6,0.6-0.6
				C108.5,275,108.8,275.3,108.8,275.6z M107.6,281.2v-4.4h1.1v4.4H107.6z"/>
		</g>
	</g>
	<g>
		<g>
			<path fill="#FFFFFF" d="M110.2,280.2c0.2,0.2,0.7,0.3,1.1,0.3c0.5,0,0.7-0.2,0.7-0.5c0-0.3-0.2-0.4-0.7-0.6
				c-0.9-0.3-1.2-0.8-1.2-1.3c0-0.8,0.6-1.4,1.7-1.4c0.5,0,0.9,0.1,1.2,0.3l-0.2,0.8c-0.2-0.1-0.5-0.3-0.9-0.3
				c-0.4,0-0.6,0.2-0.6,0.5c0,0.3,0.2,0.4,0.8,0.6c0.8,0.3,1.2,0.7,1.2,1.3c0,0.8-0.6,1.4-1.8,1.4c-0.5,0-1-0.1-1.3-0.3L110.2,280.2
				z"/>
		</g>
	</g>
	<g>
		<g>
			<path fill="#FFFFFF" d="M117.3,276.8l0.7,2.2c0.1,0.4,0.2,0.7,0.3,1.1h0c0.1-0.4,0.2-0.7,0.3-1.1l0.7-2.2h1.2l-1.7,4.4h-1.1
				l-1.6-4.4H117.3z"/>
		</g>
	</g>
	<g>
		<g>
			<path fill="#FFFFFF" d="M122.2,279.3c0,0.8,0.6,1.1,1.4,1.1c0.5,0,0.9-0.1,1.2-0.2l0.2,0.8c-0.4,0.2-0.9,0.3-1.5,0.3
				c-1.4,0-2.3-0.9-2.3-2.2c0-1.2,0.7-2.4,2.1-2.4c1.4,0,1.9,1.2,1.9,2.1c0,0.2,0,0.4,0,0.5H122.2z M124.1,278.6
				c0-0.4-0.2-1.1-0.9-1.1c-0.7,0-1,0.6-1,1.1H124.1z"/>
		</g>
	</g>
	<g>
		<g>
			<path fill="#FFFFFF" d="M126.4,278.3c0-0.6,0-1,0-1.4h1l0,0.8h0c0.2-0.6,0.7-0.9,1.2-0.9c0.1,0,0.2,0,0.3,0v1c-0.1,0-0.2,0-0.3,0
				c-0.5,0-0.9,0.3-1,0.8c0,0.1,0,0.2,0,0.3v2.3h-1.1V278.3z"/>
		</g>
	</g>
	<g>
		<g>
			<path fill="#FFFFFF" d="M130.9,276.8l0.8,2.4c0.1,0.3,0.2,0.6,0.3,0.8h0c0.1-0.2,0.1-0.6,0.2-0.9l0.7-2.3h1.2l-1.1,3
				c-0.6,1.6-1,2.4-1.5,2.8c-0.4,0.4-0.9,0.5-1.2,0.6l-0.3-0.9c0.2,0,0.4-0.1,0.6-0.3c0.2-0.1,0.5-0.4,0.6-0.7
				c0-0.1,0.1-0.1,0.1-0.2c0,0,0-0.1-0.1-0.2l-1.6-4H130.9z"/>
		</g>
	</g>
	<g>
		<g>
			<path fill="#FFFFFF" d="M137.4,281.2v-3.6h-0.6v-0.8h0.6v-0.2c0-0.6,0.2-1.1,0.5-1.5c0.3-0.3,0.8-0.4,1.1-0.4
				c0.3,0,0.5,0.1,0.7,0.1l-0.1,0.9c-0.1,0-0.3-0.1-0.5-0.1c-0.5,0-0.7,0.5-0.7,1v0.2h1v0.8h-0.9v3.6H137.4z"/>
		</g>
	</g>
	<g>
		<g>
			<path fill="#FFFFFF" d="M140.5,278.3c0-0.6,0-1,0-1.4h1l0,0.8h0c0.2-0.6,0.7-0.9,1.2-0.9c0.1,0,0.2,0,0.3,0v1c-0.1,0-0.2,0-0.3,0
				c-0.5,0-0.9,0.3-1,0.8c0,0.1,0,0.2,0,0.3v2.3h-1.1V278.3z"/>
		</g>
	</g>
	<g>
		<g>
			<path fill="#FFFFFF" d="M148,279.9c0,0.5,0,1,0,1.3h-1l-0.1-0.7h0c-0.2,0.3-0.6,0.8-1.4,0.8s-1.5-0.5-1.5-1.9v-2.6h1.1v2.4
				c0,0.7,0.2,1.2,0.8,1.2c0.5,0,0.7-0.3,0.8-0.6c0-0.1,0.1-0.2,0.1-0.3v-2.6h1.1V279.9z"/>
		</g>
	</g>
	<g>
		<g>
			<path fill="#FFFFFF" d="M149.5,280.2c0.2,0.2,0.7,0.3,1.1,0.3c0.5,0,0.7-0.2,0.7-0.5c0-0.3-0.2-0.4-0.7-0.6
				c-0.9-0.3-1.2-0.8-1.2-1.3c0-0.8,0.6-1.4,1.7-1.4c0.5,0,0.9,0.1,1.2,0.3l-0.2,0.8c-0.2-0.1-0.5-0.3-0.9-0.3
				c-0.4,0-0.6,0.2-0.6,0.5c0,0.3,0.2,0.4,0.8,0.6c0.8,0.3,1.2,0.7,1.2,1.3c0,0.8-0.6,1.4-1.8,1.4c-0.5,0-1-0.1-1.3-0.3L149.5,280.2
				z"/>
		</g>
	</g>
	<g>
		<g>
			<path fill="#FFFFFF" d="M154.9,275.7v1.1h1.1v0.8h-1.1v1.9c0,0.5,0.1,0.8,0.6,0.8c0.2,0,0.3,0,0.4,0l0,0.8
				c-0.2,0.1-0.5,0.1-0.8,0.1c-0.4,0-0.7-0.1-1-0.4c-0.2-0.3-0.4-0.7-0.4-1.2v-2.1h-0.6v-0.8h0.6V276L154.9,275.7z"/>
		</g>
	</g>
	<g>
		<g>
			<path fill="#FFFFFF" d="M157.2,278.3c0-0.6,0-1,0-1.4h1l0,0.8h0c0.2-0.6,0.7-0.9,1.2-0.9c0.1,0,0.2,0,0.3,0v1c-0.1,0-0.2,0-0.3,0
				c-0.5,0-0.9,0.3-1,0.8c0,0.1,0,0.2,0,0.3v2.3h-1.1V278.3z"/>
		</g>
	</g>
	<g>
		<g>
			<path fill="#FFFFFF" d="M164,280.2c0,0.4,0,0.8,0.1,1.1h-1l-0.1-0.5h0c-0.3,0.3-0.7,0.6-1.3,0.6c-0.9,0-1.4-0.6-1.4-1.3
				c0-1.1,1-1.7,2.6-1.7v-0.1c0-0.3-0.1-0.8-0.9-0.8c-0.4,0-0.9,0.1-1.2,0.3l-0.2-0.7c0.3-0.2,0.9-0.4,1.6-0.4
				c1.4,0,1.8,0.9,1.8,1.9V280.2z M163,279.1c-0.8,0-1.5,0.2-1.5,0.8c0,0.4,0.3,0.6,0.6,0.6c0.5,0,0.8-0.3,0.9-0.6
				c0-0.1,0-0.2,0-0.2V279.1z"/>
		</g>
	</g>
	<g>
		<g>
			<path fill="#FFFFFF" d="M166.8,275.7v1.1h1.1v0.8h-1.1v1.9c0,0.5,0.1,0.8,0.6,0.8c0.2,0,0.3,0,0.4,0l0,0.8
				c-0.2,0.1-0.5,0.1-0.8,0.1c-0.4,0-0.7-0.1-1-0.4c-0.2-0.3-0.4-0.7-0.4-1.2v-2.1h-0.6v-0.8h0.6V276L166.8,275.7z"/>
		</g>
	</g>
	<g>
		<g>
			<path fill="#FFFFFF" d="M170.2,275.6c0,0.3-0.2,0.6-0.6,0.6c-0.4,0-0.6-0.3-0.6-0.6c0-0.3,0.3-0.6,0.6-0.6
				C170,275,170.2,275.3,170.2,275.6z M169,281.2v-4.4h1.1v4.4H169z"/>
		</g>
	</g>
	<g>
		<g>
			<path fill="#FFFFFF" d="M171.7,278.1c0-0.5,0-0.9,0-1.3h1l0.1,0.7h0c0.2-0.3,0.7-0.8,1.4-0.8c0.8,0,1.6,0.5,1.6,1.9v2.6h-1.1
				v-2.5c0-0.6-0.2-1.1-0.8-1.1c-0.4,0-0.7,0.3-0.9,0.6c0,0.1-0.1,0.2-0.1,0.4v2.6h-1.1V278.1z"/>
		</g>
	</g>
	<g>
		<g>
			<path fill="#FFFFFF" d="M181.2,280.6c0,0.9-0.2,1.6-0.6,2c-0.5,0.4-1.1,0.5-1.7,0.5c-0.6,0-1.2-0.1-1.5-0.4l0.2-0.8
				c0.3,0.2,0.7,0.3,1.3,0.3c0.7,0,1.3-0.4,1.3-1.3v-0.4h0c-0.3,0.4-0.7,0.6-1.3,0.6c-1.1,0-1.9-0.9-1.9-2.1c0-1.4,0.9-2.3,2-2.3
				c0.7,0,1.1,0.3,1.3,0.7h0l0-0.6h1c0,0.3,0,0.7,0,1.3V280.6z M180.1,278.6c0-0.1,0-0.2,0-0.3c-0.1-0.4-0.4-0.7-0.9-0.7
				c-0.6,0-1.1,0.5-1.1,1.4c0,0.7,0.4,1.4,1.1,1.4c0.4,0,0.8-0.3,0.9-0.7c0-0.1,0-0.3,0-0.4V278.6z"/>
		</g>
	</g>
	<g>
		<g>
			<path fill="#FFFFFF" d="M16.3,292v-3.6h-0.6v-0.8h0.6v-0.2c0-0.6,0.2-1.1,0.5-1.5c0.3-0.3,0.8-0.4,1.1-0.4c0.3,0,0.5,0.1,0.7,0.1
				l-0.1,0.9c-0.1,0-0.3-0.1-0.5-0.1c-0.5,0-0.7,0.5-0.7,1v0.2h1v0.8h-0.9v3.6H16.3z"/>
		</g>
	</g>
	<g>
		<g>
			<path fill="#FFFFFF" d="M23.5,289.8c0,1.6-1.1,2.3-2.3,2.3c-1.2,0-2.2-0.8-2.2-2.3c0-1.4,0.9-2.3,2.3-2.3
				C22.6,287.5,23.5,288.5,23.5,289.8z M20.2,289.8c0,0.8,0.4,1.5,1.1,1.5c0.6,0,1.1-0.6,1.1-1.5c0-0.7-0.3-1.5-1.1-1.5
				C20.5,288.3,20.2,289.1,20.2,289.8z"/>
		</g>
	</g>
	<g>
		<g>
			<path fill="#FFFFFF" d="M24.8,289.1c0-0.6,0-1,0-1.4h1l0,0.8h0c0.2-0.6,0.7-0.9,1.2-0.9c0.1,0,0.2,0,0.3,0v1c-0.1,0-0.2,0-0.3,0
				c-0.5,0-0.9,0.3-1,0.8c0,0.1,0,0.2,0,0.3v2.3h-1.1V289.1z"/>
		</g>
	</g>
	<g>
		<g>
			<path fill="#FFFFFF" d="M30.5,285.6h1.1v2.6h0c0.1-0.2,0.3-0.4,0.5-0.5c0.2-0.1,0.5-0.2,0.8-0.2c0.7,0,1.5,0.5,1.5,1.9v2.6h-1.1
				v-2.5c0-0.6-0.2-1.1-0.8-1.1c-0.4,0-0.7,0.3-0.9,0.6c0,0.1,0,0.2,0,0.3v2.6h-1.1V285.6z"/>
		</g>
	</g>
	<g>
		<g>
			<path fill="#FFFFFF" d="M37.2,286.4c0,0.3-0.2,0.6-0.6,0.6c-0.4,0-0.6-0.3-0.6-0.6c0-0.3,0.3-0.6,0.6-0.6
				C37,285.8,37.2,286.1,37.2,286.4z M36.1,292v-4.4h1.1v4.4H36.1z"/>
		</g>
	</g>
	<g>
		<g>
			<path fill="#FFFFFF" d="M38.7,288.9c0-0.5,0-0.9,0-1.3h0.9l0.1,0.6h0c0.2-0.3,0.6-0.7,1.4-0.7c0.6,0,1,0.3,1.2,0.8h0
				c0.2-0.2,0.3-0.4,0.5-0.5c0.3-0.2,0.5-0.3,0.9-0.3c0.7,0,1.5,0.5,1.5,1.9v2.6h-1.1v-2.4c0-0.7-0.3-1.2-0.8-1.2
				c-0.4,0-0.7,0.3-0.8,0.6c0,0.1-0.1,0.2-0.1,0.4v2.6h-1.1v-2.5c0-0.6-0.2-1-0.8-1c-0.4,0-0.7,0.3-0.8,0.6c0,0.1-0.1,0.2-0.1,0.4
				v2.6h-1.1V288.9z"/>
		</g>
	</g>
	<g>
		<g>
			<path fill="#FFFFFF" d="M46.6,291.4c0-0.4,0.3-0.7,0.7-0.7c0.4,0,0.7,0.3,0.7,0.7c0,0.4-0.3,0.7-0.7,0.7
				C46.9,292.1,46.6,291.8,46.6,291.4z"/>
		</g>
	</g>
	<g>
		<g>
			<path fill="#FFFFFF" d="M52.3,286.9h-1.7V286h4.6v0.9h-1.7v5.1h-1.1V286.9z"/>
		</g>
	</g>
	<g>
		<g>
			<path fill="#FFFFFF" d="M59.6,289.8c0,1.6-1.1,2.3-2.3,2.3c-1.2,0-2.2-0.8-2.2-2.3c0-1.4,0.9-2.3,2.3-2.3
				C58.7,287.5,59.6,288.5,59.6,289.8z M56.3,289.8c0,0.8,0.4,1.5,1.1,1.5c0.6,0,1.1-0.6,1.1-1.5c0-0.7-0.3-1.5-1.1-1.5
				C56.6,288.3,56.3,289.1,56.3,289.8z"/>
		</g>
	</g>
	<g>
		<g>
			<path fill="#FFFFFF" d="M63.2,292v-3.6h-0.6v-0.8h0.6v-0.2c0-1.2,0.8-1.9,2.1-1.9c0.4,0,1,0.1,1.2,0.3l-0.3,0.8
				c-0.2-0.1-0.5-0.2-1-0.2c-0.8,0-1,0.5-1,1v0.2h2.6v4.4h-1.1v-3.6h-1.5v3.6H63.2z"/>
		</g>
	</g>
	<g>
		<g>
			<path fill="#FFFFFF" d="M68.5,288.9c0-0.5,0-0.9,0-1.3h1l0.1,0.7h0c0.2-0.3,0.7-0.8,1.4-0.8c0.8,0,1.6,0.5,1.6,1.9v2.6h-1.1v-2.5
				c0-0.6-0.2-1.1-0.8-1.1c-0.4,0-0.7,0.3-0.9,0.6c0,0.1-0.1,0.2-0.1,0.4v2.6h-1.1V288.9z"/>
		</g>
	</g>
	<g>
		<g>
			<path fill="#FFFFFF" d="M78,285.6v5.2c0,0.5,0,0.9,0,1.2h-1l-0.1-0.7h0c-0.3,0.5-0.8,0.8-1.4,0.8c-1.1,0-1.9-0.9-1.9-2.2
				c0-1.5,0.9-2.3,2-2.3c0.6,0,1,0.2,1.2,0.6h0v-2.5H78z M76.9,289.5c0-0.1,0-0.2,0-0.3c-0.1-0.4-0.5-0.8-1-0.8
				c-0.7,0-1.1,0.6-1.1,1.4s0.4,1.4,1.1,1.4c0.5,0,0.8-0.3,1-0.8c0-0.1,0-0.2,0-0.3V289.5z"/>
		</g>
	</g>
	<g>
		<g>
			<path fill="#FFFFFF" d="M86,289.8c0,1.6-1.1,2.3-2.2,2.3c-1.2,0-2.2-0.8-2.2-2.3c0-1.4,0.9-2.3,2.3-2.3
				C85.1,287.5,86,288.5,86,289.8z M82.7,289.8c0,0.8,0.4,1.5,1.1,1.5c0.6,0,1.1-0.6,1.1-1.5c0-0.7-0.3-1.5-1.1-1.5
				C83,288.3,82.7,289.1,82.7,289.8z"/>
		</g>
	</g>
	<g>
		<g>
			<path fill="#FFFFFF" d="M91.2,290.7c0,0.5,0,1,0,1.3h-1l-0.1-0.7h0c-0.2,0.3-0.6,0.8-1.4,0.8c-0.8,0-1.5-0.5-1.5-1.9v-2.6h1.1
				v2.4c0,0.7,0.2,1.2,0.8,1.2c0.4,0,0.7-0.3,0.8-0.6c0-0.1,0.1-0.2,0.1-0.3v-2.6h1.1V290.7z"/>
		</g>
	</g>
	<g>
		<g>
			<path fill="#FFFFFF" d="M94,286.5v1.1h1.1v0.8H94v1.9c0,0.5,0.1,0.8,0.6,0.8c0.2,0,0.3,0,0.4,0l0,0.8c-0.2,0.1-0.5,0.1-0.8,0.1
				c-0.4,0-0.7-0.1-1-0.4c-0.2-0.3-0.4-0.7-0.4-1.2v-2.1h-0.6v-0.8h0.6v-0.8L94,286.5z"/>
		</g>
	</g>
	<g>
		<g>
			<path fill="#FFFFFF" d="M99.1,287.6l0.5,2c0.1,0.5,0.2,0.9,0.3,1.4h0c0.1-0.5,0.2-1,0.4-1.4l0.6-2h0.9l0.5,1.9
				c0.1,0.5,0.3,1,0.4,1.5h0c0.1-0.5,0.2-1,0.3-1.5l0.5-1.9h1.1l-1.4,4.4h-1l-0.5-1.8c-0.1-0.5-0.2-0.9-0.3-1.4h0
				c-0.1,0.5-0.2,1-0.3,1.4l-0.6,1.8h-1l-1.3-4.4H99.1z"/>
		</g>
	</g>
	<g>
		<g>
			<path fill="#FFFFFF" d="M105.6,285.6h1.1v2.6h0c0.1-0.2,0.3-0.4,0.5-0.5c0.2-0.1,0.5-0.2,0.8-0.2c0.7,0,1.5,0.5,1.5,1.9v2.6h-1.1
				v-2.5c0-0.6-0.2-1.1-0.8-1.1c-0.4,0-0.7,0.3-0.9,0.6c0,0.1,0,0.2,0,0.3v2.6h-1.1V285.6z"/>
		</g>
	</g>
	<g>
		<g>
			<path fill="#FFFFFF" d="M115.3,289.8c0,1.6-1.1,2.3-2.3,2.3c-1.2,0-2.2-0.8-2.2-2.3c0-1.4,0.9-2.3,2.3-2.3
				C114.4,287.5,115.3,288.5,115.3,289.8z M112,289.8c0,0.8,0.4,1.5,1.1,1.5c0.6,0,1.1-0.6,1.1-1.5c0-0.7-0.3-1.5-1.1-1.5
				C112.3,288.3,112,289.1,112,289.8z"/>
		</g>
	</g>
	<g>
		<g>
			<path fill="#FFFFFF" d="M119.4,287.6l0.5,2c0.1,0.5,0.2,0.9,0.3,1.4h0c0.1-0.5,0.2-1,0.4-1.4l0.6-2h0.9l0.5,1.9
				c0.1,0.5,0.3,1,0.4,1.5h0c0.1-0.5,0.2-1,0.3-1.5l0.5-1.9h1.1l-1.4,4.4h-1l-0.5-1.8c-0.1-0.5-0.2-0.9-0.3-1.4h0
				c-0.1,0.5-0.2,1-0.3,1.4l-0.6,1.8h-1l-1.3-4.4H119.4z"/>
		</g>
	</g>
	<g>
		<g>
			<path fill="#FFFFFF" d="M129.9,289.8c0,1.6-1.1,2.3-2.2,2.3c-1.2,0-2.2-0.8-2.2-2.3c0-1.4,0.9-2.3,2.3-2.3
				C129,287.5,129.9,288.5,129.9,289.8z M126.6,289.8c0,0.8,0.4,1.5,1.1,1.5c0.6,0,1.1-0.6,1.1-1.5c0-0.7-0.3-1.5-1.1-1.5
				C126.9,288.3,126.6,289.1,126.6,289.8z"/>
		</g>
	</g>
	<g>
		<g>
			<path fill="#FFFFFF" d="M135.1,290.7c0,0.5,0,1,0,1.3h-1l-0.1-0.7h0c-0.2,0.3-0.6,0.8-1.4,0.8s-1.5-0.5-1.5-1.9v-2.6h1.1v2.4
				c0,0.7,0.2,1.2,0.8,1.2c0.5,0,0.7-0.3,0.8-0.6c0-0.1,0.1-0.2,0.1-0.3v-2.6h1.1V290.7z"/>
		</g>
	</g>
	<g>
		<g>
			<path fill="#FFFFFF" d="M136.6,285.6h1.1v6.4h-1.1V285.6z"/>
		</g>
	</g>
	<g>
		<g>
			<path fill="#FFFFFF" d="M143.4,285.6v5.2c0,0.5,0,0.9,0,1.2h-1l-0.1-0.7h0c-0.3,0.5-0.8,0.8-1.4,0.8c-1.1,0-1.9-0.9-1.9-2.2
				c0-1.5,0.9-2.3,2-2.3c0.6,0,1,0.2,1.2,0.6h0v-2.5H143.4z M142.3,289.5c0-0.1,0-0.2,0-0.3c-0.1-0.4-0.5-0.8-1-0.8
				c-0.7,0-1.1,0.6-1.1,1.4s0.4,1.4,1.1,1.4c0.5,0,0.8-0.3,1-0.8c0-0.1,0-0.2,0-0.3V289.5z"/>
		</g>
	</g>
	<g>
		<g>
			<path fill="#FFFFFF" d="M147.1,285.6h1.1v2.6h0c0.3-0.4,0.7-0.7,1.4-0.7c1.1,0,1.8,0.9,1.8,2.2c0,1.6-1,2.4-2,2.4
				c-0.6,0-1.1-0.2-1.4-0.8h0L148,292h-0.9c0-0.3,0-0.8,0-1.2V285.6z M148.2,290.2c0,0.1,0,0.2,0,0.3c0.1,0.5,0.5,0.8,1,0.8
				c0.7,0,1.1-0.5,1.1-1.4c0-0.8-0.4-1.4-1.1-1.4c-0.5,0-0.9,0.3-1,0.8c0,0.1,0,0.2,0,0.3V290.2z"/>
		</g>
	</g>
	<g>
		<g>
			<path fill="#FFFFFF" d="M153.5,290.1c0,0.8,0.6,1.1,1.4,1.1c0.5,0,0.9-0.1,1.2-0.2l0.2,0.8c-0.4,0.2-0.9,0.3-1.5,0.3
				c-1.4,0-2.3-0.9-2.3-2.2c0-1.2,0.7-2.4,2.1-2.4c1.4,0,1.9,1.2,1.9,2.1c0,0.2,0,0.4,0,0.5H153.5z M155.5,289.4
				c0-0.4-0.2-1.1-0.9-1.1c-0.7,0-1,0.6-1,1.1H155.5z"/>
		</g>
	</g>
	<g>
		<g>
			<path fill="#FFFFFF" d="M161.2,286.4c0,0.3-0.2,0.6-0.6,0.6c-0.4,0-0.6-0.3-0.6-0.6c0-0.3,0.3-0.6,0.6-0.6
				C160.9,285.8,161.2,286.1,161.2,286.4z M160,292v-4.4h1.1v4.4H160z"/>
		</g>
	</g>
	<g>
		<g>
			<path fill="#FFFFFF" d="M162.6,288.9c0-0.5,0-0.9,0-1.3h1l0.1,0.7h0c0.2-0.3,0.7-0.8,1.4-0.8c0.8,0,1.6,0.5,1.6,1.9v2.6h-1.1
				v-2.5c0-0.6-0.2-1.1-0.8-1.1c-0.4,0-0.7,0.3-0.9,0.6c0,0.1-0.1,0.2-0.1,0.4v2.6h-1.1V288.9z"/>
		</g>
	</g>
	<g>
		<g>
			<path fill="#FFFFFF" d="M169.4,286.5v1.1h1.1v0.8h-1.1v1.9c0,0.5,0.1,0.8,0.6,0.8c0.2,0,0.3,0,0.4,0l0,0.8
				c-0.2,0.1-0.5,0.1-0.8,0.1c-0.4,0-0.7-0.1-1-0.4c-0.2-0.3-0.4-0.7-0.4-1.2v-2.1h-0.6v-0.8h0.6v-0.8L169.4,286.5z"/>
		</g>
	</g>
	<g>
		<g>
			<path fill="#FFFFFF" d="M172.4,290.1c0,0.8,0.6,1.1,1.4,1.1c0.5,0,0.9-0.1,1.2-0.2l0.2,0.8c-0.4,0.2-0.9,0.3-1.5,0.3
				c-1.4,0-2.3-0.9-2.3-2.2c0-1.2,0.7-2.4,2.1-2.4c1.4,0,1.9,1.2,1.9,2.1c0,0.2,0,0.4,0,0.5H172.4z M174.3,289.4
				c0-0.4-0.2-1.1-0.9-1.1c-0.7,0-1,0.6-1,1.1H174.3z"/>
		</g>
	</g>
	<g>
		<g>
			<path fill="#FFFFFF" d="M176.6,289.1c0-0.6,0-1,0-1.4h1l0,0.8h0c0.2-0.6,0.7-0.9,1.2-0.9c0.1,0,0.2,0,0.3,0v1c-0.1,0-0.2,0-0.3,0
				c-0.5,0-0.9,0.3-1,0.8c0,0.1,0,0.2,0,0.3v2.3h-1.1V289.1z"/>
		</g>
	</g>
	<g>
		<g>
			<path fill="#FFFFFF" d="M180.8,290.1c0,0.8,0.6,1.1,1.4,1.1c0.5,0,0.9-0.1,1.2-0.2l0.2,0.8c-0.4,0.2-0.9,0.3-1.5,0.3
				c-1.4,0-2.3-0.9-2.3-2.2c0-1.2,0.7-2.4,2.1-2.4c1.4,0,1.9,1.2,1.9,2.1c0,0.2,0,0.4,0,0.5H180.8z M182.8,289.4
				c0-0.4-0.2-1.1-0.9-1.1c-0.7,0-1,0.6-1,1.1H182.8z"/>
		</g>
	</g>
	<g>
		<g>
			<path fill="#FFFFFF" d="M185,291c0.2,0.2,0.7,0.3,1.1,0.3c0.5,0,0.7-0.2,0.7-0.5c0-0.3-0.2-0.4-0.7-0.6c-0.9-0.3-1.2-0.8-1.2-1.3
				c0-0.8,0.6-1.4,1.7-1.4c0.5,0,0.9,0.1,1.2,0.3l-0.2,0.8c-0.2-0.1-0.5-0.3-0.9-0.3c-0.4,0-0.6,0.2-0.6,0.5c0,0.3,0.2,0.4,0.8,0.6
				c0.8,0.3,1.2,0.7,1.2,1.3c0,0.8-0.6,1.4-1.8,1.4c-0.5,0-1-0.1-1.3-0.3L185,291z"/>
		</g>
	</g>
	<g>
		<g>
			<path fill="#FFFFFF" d="M190.4,286.5v1.1h1.1v0.8h-1.1v1.9c0,0.5,0.1,0.8,0.6,0.8c0.2,0,0.3,0,0.4,0l0,0.8
				c-0.2,0.1-0.5,0.1-0.8,0.1c-0.4,0-0.7-0.1-1-0.4c-0.2-0.3-0.4-0.7-0.4-1.2v-2.1h-0.6v-0.8h0.6v-0.8L190.4,286.5z"/>
		</g>
	</g>
	<g>
		<g>
			<path fill="#FFFFFF" d="M193.4,290.1c0,0.8,0.6,1.1,1.4,1.1c0.5,0,0.9-0.1,1.2-0.2l0.2,0.8c-0.4,0.2-0.9,0.3-1.5,0.3
				c-1.4,0-2.3-0.9-2.3-2.2c0-1.2,0.7-2.4,2.1-2.4c1.4,0,1.9,1.2,1.9,2.1c0,0.2,0,0.4,0,0.5H193.4z M195.4,289.4
				c0-0.4-0.2-1.1-0.9-1.1c-0.7,0-1,0.6-1,1.1H195.4z"/>
		</g>
	</g>
	<g>
		<g>
			<path fill="#FFFFFF" d="M201.7,285.6v5.2c0,0.5,0,0.9,0,1.2h-1l-0.1-0.7h0c-0.3,0.5-0.8,0.8-1.4,0.8c-1.1,0-1.9-0.9-1.9-2.2
				c0-1.5,0.9-2.3,2-2.3c0.6,0,1,0.2,1.2,0.6h0v-2.5H201.7z M200.6,289.5c0-0.1,0-0.2,0-0.3c-0.1-0.4-0.5-0.8-1-0.8
				c-0.7,0-1.1,0.6-1.1,1.4s0.4,1.4,1.1,1.4c0.5,0,0.8-0.3,1-0.8c0-0.1,0-0.2,0-0.3V289.5z"/>
		</g>
	</g>
	<g>
		<g>
			<path fill="#FFFFFF" d="M202.6,293.1c0.2-0.7,0.5-1.6,0.6-2.4l1.2-0.1c-0.3,0.8-0.7,1.8-1,2.4L202.6,293.1z"/>
		</g>
	</g>
	<g>
		<g>
			<path fill="#FFFFFF" d="M16.2,296.4h1.1v2.6h0c0.1-0.2,0.3-0.4,0.5-0.5c0.2-0.1,0.5-0.2,0.8-0.2c0.7,0,1.5,0.5,1.5,1.9v2.6h-1.1
				v-2.5c0-0.6-0.2-1.1-0.8-1.1c-0.4,0-0.7,0.3-0.9,0.6c0,0.1,0,0.2,0,0.3v2.6h-1.1V296.4z"/>
		</g>
	</g>
	<g>
		<g>
			<path fill="#FFFFFF" d="M22.5,300.9c0,0.8,0.6,1.1,1.4,1.1c0.5,0,0.9-0.1,1.2-0.2l0.2,0.8c-0.4,0.2-0.9,0.3-1.5,0.3
				c-1.4,0-2.3-0.9-2.3-2.2c0-1.2,0.7-2.4,2.1-2.4c1.4,0,1.9,1.2,1.9,2.1c0,0.2,0,0.4,0,0.5H22.5z M24.4,300.2
				c0-0.4-0.2-1.1-0.9-1.1c-0.7,0-1,0.6-1,1.1H24.4z"/>
		</g>
	</g>
	<g>
		<g>
			<path fill="#FFFFFF" d="M28.9,296.4H30v2.6h0c0.1-0.2,0.3-0.4,0.5-0.5c0.2-0.1,0.5-0.2,0.8-0.2c0.7,0,1.5,0.5,1.5,1.9v2.6h-1.1
				v-2.5c0-0.6-0.2-1.1-0.8-1.1c-0.4,0-0.7,0.3-0.9,0.6c0,0.1,0,0.2,0,0.3v2.6h-1.1V296.4z"/>
		</g>
	</g>
	<g>
		<g>
			<path fill="#FFFFFF" d="M37.8,301.8c0,0.4,0,0.8,0.1,1.1h-1l-0.1-0.5h0c-0.3,0.3-0.7,0.6-1.3,0.6c-0.9,0-1.4-0.6-1.4-1.3
				c0-1.1,1-1.7,2.6-1.7v-0.1c0-0.3-0.1-0.8-0.9-0.8c-0.4,0-0.9,0.1-1.2,0.3l-0.2-0.7c0.3-0.2,0.9-0.4,1.6-0.4
				c1.4,0,1.8,0.9,1.8,1.9V301.8z M36.8,300.7c-0.8,0-1.5,0.2-1.5,0.8c0,0.4,0.3,0.6,0.6,0.6c0.5,0,0.8-0.3,0.9-0.6
				c0-0.1,0-0.2,0-0.2V300.7z"/>
		</g>
	</g>
	<g>
		<g>
			<path fill="#FFFFFF" d="M39.3,301.8c0.2,0.2,0.7,0.3,1.1,0.3c0.5,0,0.7-0.2,0.7-0.5c0-0.3-0.2-0.4-0.7-0.6
				c-0.9-0.3-1.2-0.8-1.2-1.3c0-0.8,0.6-1.4,1.7-1.4c0.5,0,0.9,0.1,1.2,0.3l-0.2,0.8c-0.2-0.1-0.5-0.3-0.9-0.3
				c-0.4,0-0.6,0.2-0.6,0.5c0,0.3,0.2,0.4,0.8,0.6c0.8,0.3,1.2,0.7,1.2,1.3c0,0.8-0.6,1.4-1.8,1.4c-0.5,0-1-0.1-1.3-0.3L39.3,301.8z
				"/>
		</g>
	</g>
	<g>
		<g>
			<path fill="#FFFFFF" d="M47,297.3v1.1H48v0.8H47v1.9c0,0.5,0.1,0.8,0.6,0.8c0.2,0,0.3,0,0.4,0l0,0.8c-0.2,0.1-0.5,0.1-0.8,0.1
				c-0.4,0-0.7-0.1-1-0.4c-0.2-0.3-0.4-0.7-0.4-1.2v-2.1h-0.6v-0.8h0.6v-0.8L47,297.3z"/>
		</g>
	</g>
	<g>
		<g>
			<path fill="#FFFFFF" d="M53.3,300.6c0,1.6-1.1,2.3-2.3,2.3c-1.2,0-2.2-0.8-2.2-2.3c0-1.4,0.9-2.3,2.3-2.3
				C52.5,298.3,53.3,299.3,53.3,300.6z M50,300.6c0,0.8,0.4,1.5,1.1,1.5c0.6,0,1.1-0.6,1.1-1.5c0-0.7-0.3-1.5-1.1-1.5
				C50.3,299.1,50,299.9,50,300.6z"/>
		</g>
	</g>
	<g>
		<g>
			<path fill="#FFFFFF" d="M58,297.2c0,0.3-0.2,0.6-0.6,0.6c-0.4,0-0.6-0.3-0.6-0.6c0-0.3,0.3-0.6,0.6-0.6
				C57.8,296.6,58,296.9,58,297.2z M56.8,302.8v-4.4h1.1v4.4H56.8z"/>
		</g>
	</g>
	<g>
		<g>
			<path fill="#FFFFFF" d="M59.5,299.7c0-0.5,0-0.9,0-1.3h1l0.1,0.7h0c0.2-0.3,0.7-0.8,1.4-0.8c0.8,0,1.6,0.5,1.6,1.9v2.6h-1.1v-2.5
				c0-0.6-0.2-1.1-0.8-1.1c-0.4,0-0.7,0.3-0.9,0.6c0,0.1-0.1,0.2-0.1,0.4v2.6h-1.1V299.7z"/>
		</g>
	</g>
	<g>
		<g>
			<path fill="#FFFFFF" d="M65.6,298.4l0.7,2.2c0.1,0.4,0.2,0.7,0.3,1.1h0c0.1-0.4,0.2-0.7,0.3-1.1l0.7-2.2h1.2l-1.7,4.4H66
				l-1.6-4.4H65.6z"/>
		</g>
	</g>
	<g>
		<g>
			<path fill="#FFFFFF" d="M71,297.2c0,0.3-0.2,0.6-0.6,0.6c-0.4,0-0.6-0.3-0.6-0.6c0-0.3,0.3-0.6,0.6-0.6
				C70.7,296.6,71,296.9,71,297.2z M69.8,302.8v-4.4h1.1v4.4H69.8z"/>
		</g>
	</g>
	<g>
		<g>
			<path fill="#FFFFFF" d="M73.7,297.3v1.1h1.1v0.8h-1.1v1.9c0,0.5,0.1,0.8,0.6,0.8c0.2,0,0.3,0,0.4,0l0,0.8
				c-0.2,0.1-0.5,0.1-0.8,0.1c-0.4,0-0.7-0.1-1-0.4c-0.2-0.3-0.4-0.7-0.4-1.2v-2.1H72v-0.8h0.6v-0.8L73.7,297.3z"/>
		</g>
	</g>
	<g>
		<g>
			<path fill="#FFFFFF" d="M76.7,300.9c0,0.8,0.6,1.1,1.4,1.1c0.5,0,0.9-0.1,1.2-0.2l0.2,0.8c-0.4,0.2-0.9,0.3-1.5,0.3
				c-1.4,0-2.3-0.9-2.3-2.2c0-1.2,0.7-2.4,2.1-2.4c1.4,0,1.9,1.2,1.9,2.1c0,0.2,0,0.4,0,0.5H76.7z M78.6,300.2
				c0-0.4-0.2-1.1-0.9-1.1c-0.7,0-1,0.6-1,1.1H78.6z"/>
		</g>
	</g>
	<g>
		<g>
			<path fill="#FFFFFF" d="M83.9,300.9c0,0.8,0.6,1.1,1.4,1.1c0.5,0,0.9-0.1,1.2-0.2l0.2,0.8c-0.4,0.2-0.9,0.3-1.5,0.3
				c-1.4,0-2.3-0.9-2.3-2.2c0-1.2,0.7-2.4,2.1-2.4c1.4,0,1.9,1.2,1.9,2.1c0,0.2,0,0.4,0,0.5H83.9z M85.9,300.2
				c0-0.4-0.2-1.1-0.9-1.1c-0.7,0-1,0.6-1,1.1H85.9z"/>
		</g>
	</g>
	<g>
		<g>
			<path fill="#FFFFFF" d="M88.8,298.4l0.7,2.2c0.1,0.4,0.2,0.7,0.3,1.1h0c0.1-0.4,0.2-0.7,0.3-1.1l0.7-2.2H92l-1.7,4.4h-1.1
				l-1.6-4.4H88.8z"/>
		</g>
	</g>
	<g>
		<g>
			<path fill="#FFFFFF" d="M93.7,300.9c0,0.8,0.6,1.1,1.4,1.1c0.5,0,0.9-0.1,1.2-0.2l0.2,0.8c-0.4,0.2-0.9,0.3-1.5,0.3
				c-1.4,0-2.3-0.9-2.3-2.2c0-1.2,0.7-2.4,2.1-2.4c1.4,0,1.9,1.2,1.9,2.1c0,0.2,0,0.4,0,0.5H93.7z M95.6,300.2
				c0-0.4-0.2-1.1-0.9-1.1c-0.7,0-1,0.6-1,1.1H95.6z"/>
		</g>
	</g>
	<g>
		<g>
			<path fill="#FFFFFF" d="M97.9,299.9c0-0.6,0-1,0-1.4h1l0,0.8h0c0.2-0.6,0.7-0.9,1.2-0.9c0.1,0,0.2,0,0.3,0v1c-0.1,0-0.2,0-0.3,0
				c-0.5,0-0.9,0.3-1,0.8c0,0.1,0,0.2,0,0.3v2.3h-1.1V299.9z"/>
		</g>
	</g>
	<g>
		<g>
			<path fill="#FFFFFF" d="M102.4,298.4l0.8,2.4c0.1,0.3,0.2,0.6,0.3,0.8h0c0.1-0.2,0.1-0.6,0.2-0.9l0.7-2.3h1.2l-1.1,3
				c-0.6,1.6-1,2.4-1.5,2.8c-0.4,0.4-0.9,0.5-1.2,0.6l-0.3-0.9c0.2,0,0.4-0.1,0.6-0.3c0.2-0.1,0.5-0.4,0.6-0.7
				c0-0.1,0.1-0.1,0.1-0.2c0,0,0-0.1-0.1-0.2l-1.6-4H102.4z"/>
		</g>
	</g>
	<g>
		<g>
			<path fill="#FFFFFF" d="M110.6,300.6c0,1.6-1.1,2.3-2.3,2.3c-1.2,0-2.2-0.8-2.2-2.3c0-1.4,0.9-2.3,2.3-2.3
				C109.7,298.3,110.6,299.3,110.6,300.6z M107.3,300.6c0,0.8,0.4,1.5,1.1,1.5c0.6,0,1.1-0.6,1.1-1.5c0-0.7-0.3-1.5-1.1-1.5
				C107.6,299.1,107.3,299.9,107.3,300.6z"/>
		</g>
	</g>
	<g>
		<g>
			<path fill="#FFFFFF" d="M111.9,299.7c0-0.5,0-0.9,0-1.3h1l0.1,0.7h0c0.2-0.3,0.7-0.8,1.4-0.8c0.8,0,1.6,0.5,1.6,1.9v2.6h-1.1
				v-2.5c0-0.6-0.2-1.1-0.8-1.1c-0.4,0-0.7,0.3-0.9,0.6c0,0.1-0.1,0.2-0.1,0.4v2.6h-1.1V299.7z"/>
		</g>
	</g>
	<g>
		<g>
			<path fill="#FFFFFF" d="M118.2,300.9c0,0.8,0.6,1.1,1.4,1.1c0.5,0,0.9-0.1,1.2-0.2l0.2,0.8c-0.4,0.2-0.9,0.3-1.5,0.3
				c-1.4,0-2.3-0.9-2.3-2.2c0-1.2,0.7-2.4,2.1-2.4c1.4,0,1.9,1.2,1.9,2.1c0,0.2,0,0.4,0,0.5H118.2z M120.1,300.2
				c0-0.4-0.2-1.1-0.9-1.1c-0.7,0-1,0.6-1,1.1H120.1z"/>
		</g>
	</g>
	<g>
		<g>
			<path fill="#FFFFFF" d="M124.6,296.4h1.1v2.6h0c0.1-0.2,0.3-0.4,0.5-0.5c0.2-0.1,0.5-0.2,0.8-0.2c0.7,0,1.5,0.5,1.5,1.9v2.6h-1.1
				v-2.5c0-0.6-0.2-1.1-0.8-1.1c-0.4,0-0.7,0.3-0.9,0.6c0,0.1,0,0.2,0,0.3v2.6h-1.1V296.4z"/>
		</g>
	</g>
	<g>
		<g>
			<path fill="#FFFFFF" d="M130.9,300.9c0,0.8,0.6,1.1,1.4,1.1c0.5,0,0.9-0.1,1.2-0.2l0.2,0.8c-0.4,0.2-0.9,0.3-1.5,0.3
				c-1.4,0-2.3-0.9-2.3-2.2c0-1.2,0.7-2.4,2.1-2.4c1.4,0,1.9,1.2,1.9,2.1c0,0.2,0,0.4,0,0.5H130.9z M132.8,300.2
				c0-0.4-0.2-1.1-0.9-1.1c-0.7,0-1,0.6-1,1.1H132.8z"/>
		</g>
	</g>
	<g>
		<g>
			<path fill="#FFFFFF" d="M138.5,300.4L138.5,300.4c0.1-0.2,0.3-0.4,0.4-0.5l1.1-1.4h1.3l-1.6,1.8l1.9,2.6h-1.4l-1.3-1.9l-0.4,0.4
				v1.5h-1.1v-6.4h1.1V300.4z"/>
		</g>
	</g>
	<g>
		<g>
			<path fill="#FFFFFF" d="M142.4,299.7c0-0.5,0-0.9,0-1.3h1l0.1,0.7h0c0.2-0.3,0.7-0.8,1.4-0.8c0.8,0,1.6,0.5,1.6,1.9v2.6h-1.1
				v-2.5c0-0.6-0.2-1.1-0.8-1.1c-0.4,0-0.7,0.3-0.9,0.6c0,0.1-0.1,0.2-0.1,0.4v2.6h-1.1V299.7z"/>
		</g>
	</g>
	<g>
		<g>
			<path fill="#FFFFFF" d="M152.1,300.6c0,1.6-1.1,2.3-2.3,2.3c-1.2,0-2.2-0.8-2.2-2.3c0-1.4,0.9-2.3,2.3-2.3
				C151.2,298.3,152.1,299.3,152.1,300.6z M148.8,300.6c0,0.8,0.4,1.5,1.1,1.5c0.6,0,1.1-0.6,1.1-1.5c0-0.7-0.3-1.5-1.1-1.5
				C149.1,299.1,148.8,299.9,148.8,300.6z"/>
		</g>
	</g>
	<g>
		<g>
			<path fill="#FFFFFF" d="M153.9,298.4l0.5,2c0.1,0.5,0.2,0.9,0.3,1.4h0c0.1-0.5,0.2-1,0.4-1.4l0.6-2h0.9l0.5,1.9
				c0.1,0.5,0.3,1,0.4,1.5h0c0.1-0.5,0.2-1,0.3-1.5l0.5-1.9h1.1l-1.4,4.4h-1l-0.5-1.8c-0.1-0.5-0.2-0.9-0.3-1.4h0
				c-0.1,0.5-0.2,1-0.3,1.4l-0.6,1.8h-1l-1.3-4.4H153.9z"/>
		</g>
	</g>
	<g>
		<g>
			<path fill="#FFFFFF" d="M160.2,301.8c0.2,0.2,0.7,0.3,1.1,0.3c0.5,0,0.7-0.2,0.7-0.5c0-0.3-0.2-0.4-0.7-0.6
				c-0.9-0.3-1.2-0.8-1.2-1.3c0-0.8,0.6-1.4,1.7-1.4c0.5,0,0.9,0.1,1.2,0.3l-0.2,0.8c-0.2-0.1-0.5-0.3-0.9-0.3
				c-0.4,0-0.6,0.2-0.6,0.5c0,0.3,0.2,0.4,0.8,0.6c0.8,0.3,1.2,0.7,1.2,1.3c0,0.8-0.6,1.4-1.8,1.4c-0.5,0-1-0.1-1.3-0.3L160.2,301.8
				z"/>
		</g>
	</g>
	<g>
		<g>
			<path fill="#FFFFFF" d="M167.8,297.2c0,0.3-0.2,0.6-0.6,0.6c-0.4,0-0.6-0.3-0.6-0.6c0-0.3,0.3-0.6,0.6-0.6
				C167.5,296.6,167.8,296.9,167.8,297.2z M166.6,302.8v-4.4h1.1v4.4H166.6z"/>
		</g>
	</g>
	<g>
		<g>
			<path fill="#FFFFFF" d="M169.3,299.7c0-0.5,0-0.9,0-1.3h1l0.1,0.7h0c0.2-0.3,0.7-0.8,1.4-0.8c0.8,0,1.6,0.5,1.6,1.9v2.6h-1.1
				v-2.5c0-0.6-0.2-1.1-0.8-1.1c-0.4,0-0.7,0.3-0.9,0.6c0,0.1-0.1,0.2-0.1,0.4v2.6h-1.1V299.7z"/>
		</g>
	</g>
	<g>
		<g>
			<path fill="#FFFFFF" d="M177,296.4h1.1v2.6h0c0.1-0.2,0.3-0.4,0.5-0.5c0.2-0.1,0.5-0.2,0.8-0.2c0.7,0,1.5,0.5,1.5,1.9v2.6h-1.1
				v-2.5c0-0.6-0.2-1.1-0.8-1.1c-0.4,0-0.7,0.3-0.9,0.6c0,0.1,0,0.2,0,0.3v2.6H177V296.4z"/>
		</g>
	</g>
	<g>
		<g>
			<path fill="#FFFFFF" d="M183.7,297.2c0,0.3-0.2,0.6-0.6,0.6c-0.4,0-0.6-0.3-0.6-0.6c0-0.3,0.3-0.6,0.6-0.6
				C183.4,296.6,183.7,296.9,183.7,297.2z M182.5,302.8v-4.4h1.1v4.4H182.5z"/>
		</g>
	</g>
	<g>
		<g>
			<path fill="#FFFFFF" d="M185.1,301.8c0.2,0.2,0.7,0.3,1.1,0.3c0.5,0,0.7-0.2,0.7-0.5c0-0.3-0.2-0.4-0.7-0.6
				c-0.9-0.3-1.2-0.8-1.2-1.3c0-0.8,0.6-1.4,1.7-1.4c0.5,0,0.9,0.1,1.2,0.3l-0.2,0.8c-0.2-0.1-0.5-0.3-0.9-0.3
				c-0.4,0-0.6,0.2-0.6,0.5c0,0.3,0.2,0.4,0.8,0.6c0.8,0.3,1.2,0.7,1.2,1.3c0,0.8-0.6,1.4-1.8,1.4c-0.5,0-1-0.1-1.3-0.3L185.1,301.8
				z"/>
		</g>
	</g>
	<g>
		<g>
			<path fill="#FFFFFF" d="M16.2,310.5c0-0.5,0-0.9,0-1.3h1l0.1,0.7h0c0.2-0.3,0.7-0.8,1.4-0.8c0.8,0,1.6,0.5,1.6,1.9v2.6h-1.1v-2.5
				c0-0.6-0.2-1.1-0.8-1.1c-0.4,0-0.7,0.3-0.9,0.6c0,0.1-0.1,0.2-0.1,0.4v2.6h-1.1V310.5z"/>
		</g>
	</g>
	<g>
		<g>
			<path fill="#FFFFFF" d="M22.5,311.7c0,0.8,0.6,1.1,1.4,1.1c0.5,0,0.9-0.1,1.2-0.2l0.2,0.8c-0.4,0.2-0.9,0.3-1.5,0.3
				c-1.4,0-2.3-0.9-2.3-2.2c0-1.2,0.7-2.4,2.1-2.4c1.4,0,1.9,1.2,1.9,2.1c0,0.2,0,0.4,0,0.5H22.5z M24.4,311c0-0.4-0.2-1.1-0.9-1.1
				c-0.7,0-1,0.6-1,1.1H24.4z"/>
		</g>
	</g>
	<g>
		<g>
			<path fill="#FFFFFF" d="M28,308.1v1.1H29v0.8H28v1.9c0,0.5,0.1,0.8,0.6,0.8c0.2,0,0.3,0,0.4,0l0,0.8c-0.2,0.1-0.5,0.1-0.8,0.1
				c-0.4,0-0.7-0.1-1-0.4c-0.2-0.3-0.4-0.7-0.4-1.2v-2.1h-0.6v-0.8h0.6v-0.8L28,308.1z"/>
		</g>
	</g>
	<g>
		<g>
			<path fill="#FFFFFF" d="M31,309.2l0.5,2c0.1,0.5,0.2,0.9,0.3,1.4h0c0.1-0.5,0.2-1,0.4-1.4l0.6-2h0.9l0.5,1.9
				c0.1,0.5,0.3,1,0.4,1.5h0c0.1-0.5,0.2-1,0.3-1.5l0.5-1.9h1.1l-1.4,4.4h-1l-0.5-1.8c-0.1-0.5-0.2-0.9-0.3-1.4h0
				c-0.1,0.5-0.2,1-0.3,1.4l-0.6,1.8h-1l-1.3-4.4H31z"/>
		</g>
	</g>
	<g>
		<g>
			<path fill="#FFFFFF" d="M41.4,311.4c0,1.6-1.1,2.3-2.3,2.3c-1.2,0-2.2-0.8-2.2-2.3c0-1.4,0.9-2.3,2.3-2.3
				C40.6,309.1,41.4,310.1,41.4,311.4z M38.1,311.4c0,0.8,0.4,1.5,1.1,1.5c0.6,0,1.1-0.6,1.1-1.5c0-0.7-0.3-1.5-1.1-1.5
				C38.4,309.9,38.1,310.7,38.1,311.4z"/>
		</g>
	</g>
	<g>
		<g>
			<path fill="#FFFFFF" d="M42.7,310.7c0-0.6,0-1,0-1.4h1l0,0.8h0c0.2-0.6,0.7-0.9,1.2-0.9c0.1,0,0.2,0,0.3,0v1c-0.1,0-0.2,0-0.3,0
				c-0.5,0-0.9,0.3-1,0.8c0,0.1,0,0.2,0,0.3v2.3h-1.1V310.7z"/>
		</g>
	</g>
	<g>
		<g>
			<path fill="#FFFFFF" d="M47.4,311.2L47.4,311.2c0.1-0.2,0.3-0.4,0.4-0.5l1.1-1.4h1.3l-1.6,1.8l1.9,2.6H49l-1.3-1.9l-0.4,0.4v1.5
				h-1.1v-6.4h1.1V311.2z"/>
		</g>
	</g>
	<g>
		<g>
			<path fill="#FFFFFF" d="M51.2,313c0-0.4,0.3-0.7,0.7-0.7c0.4,0,0.7,0.3,0.7,0.7c0,0.4-0.3,0.7-0.7,0.7
				C51.4,313.7,51.2,313.4,51.2,313z"/>
		</g>
	</g>
</g>
<g>
	<g>
		<g>
			<g>
				<g>
					<g>
						<path fill="#7E5EA2" d="M92.8,114.9h-3.5c-8.8,0-15.9-7.1-15.9-15.9V71.7c0-8.8,7.1-15.9,15.9-15.9h3.5
							c8.8,0,15.9,7.1,15.9,15.9v27.2C108.7,107.7,101.6,114.9,92.8,114.9z"/>
					</g>
				</g>
			</g>
		</g>
		<g>
			<g>
				<g>
					<g>
						<path fill="#FFFFFF" d="M95,116h-7.9c-8.2,0-14.8-6.7-14.8-14.8V69.5c0-8.2,6.7-14.8,14.8-14.8H95c8.2,0,14.8,6.7,14.8,14.8
							v31.6C109.8,109.3,103.2,116,95,116z M87.1,56.9c-6.9,0-12.6,5.6-12.6,12.6v31.6c0,6.9,5.6,12.6,12.6,12.6H95
							c6.9,0,12.6-5.6,12.6-12.6V69.5c0-6.9-5.6-12.6-12.6-12.6H87.1z"/>
					</g>
				</g>
			</g>
		</g>
	</g>
	<g>
		<g>
			<g>
				<g>
					<g>
						<path fill="#7E5EA2" d="M128.2,112.3h-3.5c-8.8,0-15.9-7.1-15.9-15.9V69.2c0-8.8,7.1-15.9,15.9-15.9h3.5
							c8.8,0,15.9,7.1,15.9,15.9v27.2C144.1,105.2,137,112.3,128.2,112.3z"/>
					</g>
				</g>
			</g>
		</g>
		<g>
			<g>
				<g>
					<g>
						<path fill="#FFFFFF" d="M130.4,113.5h-7.9c-8.2,0-14.8-6.7-14.8-14.8V67c0-8.2,6.7-14.8,14.8-14.8h7.9
							c8.2,0,14.8,6.7,14.8,14.8v31.6C145.2,106.8,138.6,113.5,130.4,113.5z M122.4,54.4c-6.9,0-12.6,5.6-12.6,12.6v31.6
							c0,6.9,5.6,12.6,12.6,12.6h7.9c6.9,0,12.6-5.6,12.6-12.6V67c0-6.9-5.6-12.6-12.6-12.6H122.4z"/>
					</g>
				</g>
			</g>
		</g>
	</g>
	<g>
		<g>
			<g>
				<g>
					<g>
						<path fill="#7E5EA2" d="M185.2,119.2h-3.5c-8.8,0-15.9-7.1-15.9-15.9V76.1c0-8.8,7.1-15.9,15.9-15.9h3.5
							c8.8,0,15.9,7.1,15.9,15.9v27.2C201.1,112.1,194,119.2,185.2,119.2z"/>
					</g>
				</g>
			</g>
		</g>
		<g>
			<g>
				<g>
					<g>
						<path fill="#FFFFFF" d="M183.4,120.3c-10.4,0-18.8-8.4-18.8-18.8V77.8c0-10.4,8.4-18.8,18.8-18.8s18.8,8.4,18.8,18.8v23.7
							C202.2,111.9,193.8,120.3,183.4,120.3z M183.4,61.3c-9.1,0-16.6,7.4-16.6,16.6v23.7c0,9.1,7.4,16.6,16.6,16.6
							s16.6-7.4,16.6-16.6V77.8C200,68.7,192.5,61.3,183.4,61.3z"/>
					</g>
				</g>
			</g>
		</g>
	</g>
	<g>
		<g>
			<g>
				<g>
					<g>
						<path fill="#7E5EA2" d="M146.9,126.5h-3.5c-8.8,0-15.9-7.1-15.9-15.9V83.4c0-8.8,7.1-15.9,15.9-15.9h3.5
							c8.8,0,15.9,7.1,15.9,15.9v27.2C162.8,119.4,155.7,126.5,146.9,126.5z"/>
					</g>
				</g>
			</g>
		</g>
		<g>
			<g>
				<g>
					<g>
						<path fill="#FFFFFF" d="M145.1,127.6c-10.4,0-18.8-8.4-18.8-18.8V85.2c0-10.4,8.4-18.8,18.8-18.8S164,74.8,164,85.2v23.7
							C164,119.2,155.5,127.6,145.1,127.6z M145.1,68.6c-9.1,0-16.6,7.4-16.6,16.6v23.7c0,9.1,7.4,16.6,16.6,16.6
							s16.6-7.4,16.6-16.6V85.2C161.7,76,154.3,68.6,145.1,68.6z"/>
					</g>
				</g>
			</g>
		</g>
	</g>
	<g>
		<g>
			<g>
				<g>
					<g>
						<path fill="#7E5EA2" d="M70.1,126.5h-3.5c-8.8,0-15.9-7.1-15.9-15.9V83.4c0-8.8,7.1-15.9,15.9-15.9h3.5
							c8.8,0,15.9,7.1,15.9,15.9v27.2C86,119.4,78.9,126.5,70.1,126.5z"/>
					</g>
				</g>
			</g>
		</g>
		<g>
			<g>
				<g>
					<g>
						<path fill="#FFFFFF" d="M68.3,127.6c-10.4,0-18.8-8.4-18.8-18.8V85.2c0-10.4,8.4-18.8,18.8-18.8s18.8,8.4,18.8,18.8v23.7
							C87.2,119.2,78.7,127.6,68.3,127.6z M68.3,68.6c-9.1,0-16.6,7.4-16.6,16.6v23.7c0,9.1,7.4,16.6,16.6,16.6
							c9.1,0,16.6-7.4,16.6-16.6V85.2C84.9,76,77.5,68.6,68.3,68.6z"/>
					</g>
				</g>
			</g>
		</g>
	</g>
	<g>
		<g>
			<g>
				<g>
					<g>
						<path fill="#7E5EA2" d="M37.7,125h-3.5c-8.8,0-15.9-7.1-15.9-15.9V81.8c0-8.8,7.1-15.9,15.9-15.9h3.5
							c8.8,0,15.9,7.1,15.9,15.9v27.2C53.6,117.8,46.5,125,37.7,125z"/>
					</g>
				</g>
			</g>
		</g>
		<g>
			<g>
				<g>
					<g>
						<path fill="#FFFFFF" d="M35.9,126.1c-10.4,0-18.8-8.4-18.8-18.8V83.6c0-10.4,8.4-18.8,18.8-18.8s18.8,8.4,18.8,18.8v23.7
							C54.7,117.7,46.3,126.1,35.9,126.1z M35.9,67.1c-9.1,0-16.6,7.4-16.6,16.6v23.7c0,9.1,7.4,16.6,16.6,16.6s16.6-7.4,16.6-16.6
							V83.6C52.5,74.5,45,67.1,35.9,67.1z"/>
					</g>
				</g>
			</g>
		</g>
	</g>
	<g>
		<g>
			<g>
				<g>
					<g>
						<path fill="#7E5EA2" d="M44,148.7h-3.5c-8.8,0-15.9-7.1-15.9-15.9v-27.2c0-8.8,7.1-15.9,15.9-15.9H44
							c8.8,0,15.9,7.1,15.9,15.9v27.2C59.9,141.6,52.8,148.7,44,148.7z"/>
					</g>
				</g>
			</g>
		</g>
		<g>
			<g>
				<g>
					<g>
						<path fill="#FFFFFF" d="M42.2,149.8c-10.4,0-18.8-8.4-18.8-18.8v-23.7c0-10.4,8.4-18.8,18.8-18.8S61,97,61,107.3V131
							C61,141.4,52.6,149.8,42.2,149.8z M42.2,90.8c-9.1,0-16.6,7.4-16.6,16.6V131c0,9.1,7.4,16.6,16.6,16.6
							c9.1,0,16.6-7.4,16.6-16.6v-23.7C58.8,98.2,51.3,90.8,42.2,90.8z"/>
					</g>
				</g>
			</g>
		</g>
	</g>
	<g>
		<g>
			<g>
				<g>
					<g>
						<path fill="#7E5EA2" d="M166,139h-3.5c-8.8,0-15.9-7.1-15.9-15.9V95.9c0-8.8,7.1-15.9,15.9-15.9h3.5c8.8,0,15.9,7.1,15.9,15.9
							v27.2C181.9,131.9,174.7,139,166,139z"/>
					</g>
				</g>
			</g>
		</g>
		<g>
			<g>
				<g>
					<g>
						<path fill="#FFFFFF" d="M164.2,140.2c-10.4,0-18.8-8.4-18.8-18.8V97.7c0-10.4,8.4-18.8,18.8-18.8S183,87.3,183,97.7v23.7
							C183,131.7,174.6,140.2,164.2,140.2z M164.2,81.1c-9.1,0-16.6,7.4-16.6,16.6v23.7c0,9.1,7.4,16.6,16.6,16.6
							s16.6-7.4,16.6-16.6V97.7C180.7,88.5,173.3,81.1,164.2,81.1z"/>
					</g>
				</g>
			</g>
		</g>
	</g>
	<g>
		<g>
			<g>
				<g>
					<g>
						<path fill="#7E5EA2" d="M175.6,172.8h-3.5c-8.8,0-15.9-7.1-15.9-15.9v-27.2c0-8.8,7.1-15.9,15.9-15.9h3.5
							c8.8,0,15.9,7.1,15.9,15.9v27.2C191.6,165.7,184.4,172.8,175.6,172.8z"/>
					</g>
				</g>
			</g>
		</g>
		<g>
			<g>
				<g>
					<g>
						<path fill="#FFFFFF" d="M173.9,174c-10.4,0-18.8-8.4-18.8-18.8v-23.7c0-10.4,8.4-18.8,18.8-18.8s18.8,8.4,18.8,18.8v23.7
							C192.7,165.5,184.2,174,173.9,174z M173.9,114.9c-9.1,0-16.6,7.4-16.6,16.6v23.7c0,9.1,7.4,16.6,16.6,16.6s16.6-7.4,16.6-16.6
							v-23.7C190.4,122.3,183,114.9,173.9,114.9z"/>
					</g>
				</g>
			</g>
		</g>
	</g>
	<g>
		<g>
			<g>
				<g>
					<g>
						<path fill="#7E5EA2" d="M134.7,151.7h-3.5c-8.8,0-15.9-7.1-15.9-15.9v-27.2c0-8.8,7.1-15.9,15.9-15.9h3.5
							c8.8,0,15.9,7.1,15.9,15.9v27.2C150.6,144.5,143.5,151.7,134.7,151.7z"/>
					</g>
				</g>
			</g>
		</g>
		<g>
			<g>
				<g>
					<g>
						<path fill="#FFFFFF" d="M132.9,152.8c-10.4,0-18.8-8.4-18.8-18.8v-23.7c0-10.4,8.4-18.8,18.8-18.8s18.8,8.4,18.8,18.8V134
							C151.7,144.3,143.3,152.8,132.9,152.8z M132.9,93.7c-9.1,0-16.6,7.4-16.6,16.6V134c0,9.1,7.4,16.6,16.6,16.6h0
							c9.1,0,16.6-7.4,16.6-16.6v-23.7C149.4,101.2,142,93.7,132.9,93.7z"/>
					</g>
				</g>
			</g>
		</g>
	</g>
	<g>
		<g>
			<g>
				<g>
					<g>
						<path fill="#7E5EA2" d="M86.6,142H83c-8.8,0-15.9-7.1-15.9-15.9V98.9C67.1,90.1,74.2,83,83,83h3.5c8.8,0,15.9,7.1,15.9,15.9
							v27.2C102.5,134.9,95.4,142,86.6,142z"/>
					</g>
				</g>
			</g>
		</g>
		<g>
			<g>
				<g>
					<g>
						<path fill="#FFFFFF" d="M84.8,143.2c-10.4,0-18.8-8.4-18.8-18.8v-23.7c0-10.4,8.4-18.8,18.8-18.8s18.8,8.4,18.8,18.8v23.7
							C103.6,134.7,95.2,143.2,84.8,143.2z M84.8,84.1c-9.1,0-16.6,7.4-16.6,16.6v23.7c0,9.1,7.4,16.6,16.6,16.6s16.6-7.4,16.6-16.6
							v-23.7C101.4,91.5,93.9,84.1,84.8,84.1z"/>
					</g>
				</g>
			</g>
		</g>
	</g>
	<g>
		<g>
			<g>
				<g>
					<g>
						<path fill="#7E5EA2" d="M66.3,157.5h-3.5c-8.8,0-15.9-7.1-15.9-15.9v-27.2c0-8.8,7.1-15.9,15.9-15.9h3.5
							c8.8,0,15.9,7.1,15.9,15.9v27.2C82.2,150.4,75.1,157.5,66.3,157.5z"/>
					</g>
				</g>
			</g>
		</g>
		<g>
			<g>
				<g>
					<g>
						<path fill="#FFFFFF" d="M64.5,158.6c-10.4,0-18.8-8.4-18.8-18.8v-23.7c0-10.4,8.4-18.8,18.8-18.8s18.8,8.4,18.8,18.8v23.7
							C83.3,150.2,74.9,158.6,64.5,158.6z M64.5,99.6c-9.1,0-16.6,7.4-16.6,16.6v23.7c0,9.1,7.4,16.6,16.6,16.6h0
							c9.1,0,16.6-7.4,16.6-16.6v-23.7C81.1,107,73.6,99.6,64.5,99.6z"/>
					</g>
				</g>
			</g>
		</g>
	</g>
	<g>
		<g>
			<g>
				<g>
					<g>
						<g>
							<path fill="#7E5EA2" d="M107.4,147.1h-3.5c-8.8,0-15.9-7.1-15.9-15.9v-27.2c0-8.8,7.1-15.9,15.9-15.9h3.5
								c8.8,0,15.9,7.1,15.9,15.9v27.2C123.3,139.9,116.2,147.1,107.4,147.1z"/>
						</g>
					</g>
				</g>
			</g>
			<g>
				<g>
					<g>
						<g>
							<path fill="#FFFFFF" d="M105.6,148.2c-10.4,0-18.8-8.4-18.8-18.8v-23.7c0-10.4,8.4-18.8,18.8-18.8s18.8,8.4,18.8,18.8v23.7
								C124.4,139.8,116,148.2,105.6,148.2z M105.6,89.1c-9.1,0-16.6,7.4-16.6,16.6v23.7c0,9.1,7.4,16.6,16.6,16.6
								c9.1,0,16.6-7.4,16.6-16.6v-23.7C122.2,96.6,114.7,89.1,105.6,89.1z"/>
						</g>
					</g>
				</g>
			</g>
		</g>
		<g>
			<g>
				<g>
					<g>
						<g>
							<path fill="#FFFFFF" d="M105.6,116.5c-6.3,0-11.4-5.1-11.4-11.4s5.1-11.4,11.4-11.4c6.3,0,11.4,5.1,11.4,11.4
								S111.9,116.5,105.6,116.5z M105.6,96.2c-4.9,0-9,4-9,9c0,4.9,4,9,9,9c4.9,0,9-4,9-9C114.6,100.2,110.5,96.2,105.6,96.2z"/>
						</g>
					</g>
				</g>
			</g>
		</g>
		<g>
			<g>
				<g>
					<g>
						<g>
							<path fill="#FFFFFF" d="M105.6,111.4c-3.5,0-6.3-2.8-6.3-6.3c0-3.5,2.8-6.3,6.3-6.3c3.5,0,6.3,2.8,6.3,6.3
								C111.9,108.6,109.1,111.4,105.6,111.4z M105.6,99.4c-3.2,0-5.7,2.6-5.7,5.7s2.6,5.7,5.7,5.7c3.2,0,5.7-2.6,5.7-5.7
								S108.8,99.4,105.6,99.4z"/>
						</g>
					</g>
				</g>
			</g>
		</g>
		<g>
			<g>
				<g>
					<g>
						<g>
							<path fill="#FFFFFF" d="M105.6,109.9c-2.6,0-4.7-2.1-4.7-4.7c0-2.6,2.1-4.7,4.7-4.7s4.7,2.1,4.7,4.7
								C110.3,107.8,108.2,109.9,105.6,109.9z M105.6,101c-2.3,0-4.2,1.9-4.2,4.2s1.9,4.2,4.2,4.2s4.2-1.9,4.2-4.2
								S107.9,101,105.6,101z"/>
						</g>
					</g>
				</g>
			</g>
		</g>
		<g>
			<g>
				<g>
					<g>
						<g>
							<circle fill="#FFFFFF" cx="103.3" cy="101.3" r="3.1"/>
						</g>
					</g>
				</g>
			</g>
		</g>
	</g>
	<g>
		<g>
			<g>
				<g>
					<g>
						<path fill="#7E5EA2" d="M102.3,177.7h-3.5c-8.8,0-15.9-7.1-15.9-15.9v-27.2c0-8.8,7.1-15.9,15.9-15.9h3.5
							c8.8,0,15.9,7.1,15.9,15.9v27.2C118.2,170.6,111,177.7,102.3,177.7z"/>
					</g>
				</g>
			</g>
		</g>
		<g>
			<g>
				<g>
					<g>
						<path fill="#FFFFFF" d="M100.5,178.8c-10.4,0-18.8-8.4-18.8-18.8v-23.7c0-10.4,8.4-18.8,18.8-18.8s18.8,8.4,18.8,18.8V160
							C119.3,170.4,110.9,178.8,100.5,178.8z M100.5,119.8c-9.1,0-16.6,7.4-16.6,16.6V160c0,9.1,7.4,16.6,16.6,16.6h0
							c9.1,0,16.6-7.4,16.6-16.6v-23.7C117,127.2,109.6,119.8,100.5,119.8z"/>
					</g>
				</g>
			</g>
		</g>
	</g>
	<g>
		<g>
			<g>
				<g>
					<g>
						<path fill="#7E5EA2" d="M82,193.2h-3.5c-8.8,0-15.9-7.1-15.9-15.9v-27.2c0-8.8,7.1-15.9,15.9-15.9H82
							c8.8,0,15.9,7.1,15.9,15.9v27.2C97.9,186.1,90.7,193.2,82,193.2z"/>
					</g>
				</g>
			</g>
		</g>
		<g>
			<g>
				<g>
					<g>
						<path fill="#FFFFFF" d="M80.2,194.3c-10.4,0-18.8-8.4-18.8-18.8v-23.7c0-10.4,8.4-18.8,18.8-18.8S99,141.5,99,151.8v23.7
							C99,185.9,90.6,194.3,80.2,194.3z M80.2,135.3c-9.1,0-16.6,7.4-16.6,16.6v23.7c0,9.1,7.4,16.6,16.6,16.6s16.6-7.4,16.6-16.6
							v-23.7C96.7,142.7,89.3,135.3,80.2,135.3z"/>
					</g>
				</g>
			</g>
		</g>
	</g>
	<g>
		<g>
			<g>
				<g>
					<g>
						<path fill="#7E5EA2" d="M146.9,181.2h-3.5c-8.8,0-15.9-7.1-15.9-15.9V138c0-8.8,7.1-15.9,15.9-15.9h3.5
							c8.8,0,15.9,7.1,15.9,15.9v27.2C162.8,174.1,155.7,181.2,146.9,181.2z"/>
					</g>
				</g>
			</g>
		</g>
		<g>
			<g>
				<g>
					<g>
						<path fill="#FFFFFF" d="M145.1,182.3c-10.4,0-18.8-8.4-18.8-18.8v-23.7c0-10.4,8.4-18.8,18.8-18.8s18.8,8.4,18.8,18.8v23.7
							C164,173.9,155.5,182.3,145.1,182.3z M145.1,123.3c-9.1,0-16.6,7.4-16.6,16.6v23.7c0,9.1,7.4,16.6,16.6,16.6
							s16.6-7.4,16.6-16.6v-23.7C161.7,130.7,154.3,123.3,145.1,123.3z"/>
					</g>
				</g>
			</g>
		</g>
	</g>
	<g>
		<g>
			<g>
				<g>
					<g>
						<path fill="#7E5EA2" d="M124.1,193.2h-3.5c-8.8,0-15.9-7.1-15.9-15.9v-27.2c0-8.8,7.1-15.9,15.9-15.9h3.5
							c8.8,0,15.9,7.1,15.9,15.9v27.2C140,186.1,132.8,193.2,124.1,193.2z"/>
					</g>
				</g>
			</g>
		</g>
		<g>
			<g>
				<g>
					<g>
						<path fill="#FFFFFF" d="M122.3,194.3c-10.4,0-18.8-8.4-18.8-18.8v-23.7c0-10.4,8.4-18.8,18.8-18.8s18.8,8.4,18.8,18.8v23.7
							C141.1,185.9,132.7,194.3,122.3,194.3z M122.3,135.3c-9.1,0-16.6,7.4-16.6,16.6v23.7c0,9.1,7.4,16.6,16.6,16.6
							s16.6-7.4,16.6-16.6v-23.7C138.8,142.7,131.4,135.3,122.3,135.3z"/>
					</g>
				</g>
			</g>
		</g>
	</g>
	<g>
		<g>
			<g>
				<g>
					<g>
						<path fill="#7E5EA2" d="M167.5,198.1H164c-8.8,0-15.9-7.1-15.9-15.9v-27.2c0-8.8,7.1-15.9,15.9-15.9h3.5
							c8.8,0,15.9,7.1,15.9,15.9v27.2C183.4,190.9,176.3,198.1,167.5,198.1z"/>
					</g>
				</g>
			</g>
		</g>
		<g>
			<g>
				<g>
					<g>
						<path fill="#FFFFFF" d="M165.7,199.2c-10.4,0-18.8-8.4-18.8-18.8v-23.7c0-10.4,8.4-18.8,18.8-18.8s18.8,8.4,18.8,18.8v23.7
							C184.5,190.8,176.1,199.2,165.7,199.2z M165.7,140.2c-9.1,0-16.6,7.4-16.6,16.6v23.7c0,9.1,7.4,16.6,16.6,16.6
							c9.1,0,16.6-7.4,16.6-16.6v-23.7C182.3,147.6,174.9,140.2,165.7,140.2z"/>
					</g>
				</g>
			</g>
		</g>
	</g>
	<g>
		<g>
			<g>
				<g>
					<g>
						<path fill="#7E5EA2" d="M38.4,185h-3.5c-8.8,0-15.9-7.1-15.9-15.9v-27.2c0-8.8,7.1-15.9,15.9-15.9h3.5
							c8.8,0,15.9,7.1,15.9,15.9v27.2C54.3,177.8,47.2,185,38.4,185z"/>
					</g>
				</g>
			</g>
		</g>
		<g>
			<g>
				<g>
					<g>
						<path fill="#FFFFFF" d="M36.6,186.1c-10.4,0-18.8-8.4-18.8-18.8v-23.7c0-10.4,8.4-18.8,18.8-18.8s18.8,8.4,18.8,18.8v23.7
							C55.4,177.7,47,186.1,36.6,186.1z M36.6,127.1c-9.1,0-16.6,7.4-16.6,16.6v23.7c0,9.1,7.4,16.6,16.6,16.6
							c9.1,0,16.6-7.4,16.6-16.6v-23.7C53.2,134.5,45.7,127.1,36.6,127.1z"/>
					</g>
				</g>
			</g>
		</g>
	</g>
	<g>
		<g>
			<g>
				<g>
					<g>
						<path fill="#7E5EA2" d="M58.6,208.7h-3.5c-8.8,0-15.9-7.1-15.9-15.9v-27.2c0-8.8,7.1-15.9,15.9-15.9h3.5
							c8.8,0,15.9,7.1,15.9,15.9v27.2C74.5,201.6,67.4,208.7,58.6,208.7z"/>
					</g>
				</g>
			</g>
		</g>
		<g>
			<g>
				<g>
					<g>
						<path fill="#FFFFFF" d="M56.8,209.8c-10.4,0-18.8-8.4-18.8-18.8v-23.7c0-10.4,8.4-18.8,18.8-18.8s18.8,8.4,18.8,18.8V191
							C75.7,201.4,67.2,209.8,56.8,209.8z M56.8,150.8c-9.1,0-16.6,7.4-16.6,16.6V191c0,9.1,7.4,16.6,16.6,16.6s16.6-7.4,16.6-16.6
							v-23.7C73.4,158.2,66,150.8,56.8,150.8z"/>
					</g>
				</g>
			</g>
		</g>
	</g>
	<g>
		<g>
			<g>
				<g>
					<g>
						<g>
							<path fill="#7E5EA2" d="M159.3,45.6H90.5c-7.2,0-12.9,5.8-12.9,12.9v0c0,4.2,2,7.9,5.1,10.3l0,0c0,0-3.7,13.2,3.5,20.5
								c0,0-1.1-14.8,7-17.8h66.1c7.2,0,12.9-5.8,12.9-12.9v0C172.2,51.4,166.4,45.6,159.3,45.6z"/>
						</g>
					</g>
				</g>
			</g>
			<g>
				<g>
					<g>
						<g>
							<path fill="#79C7D9" d="M86.1,90.7c-0.4,0-0.7-0.1-1-0.4c-6.7-6.7-4.8-17.7-4.1-20.9c-3.1-2.7-4.9-6.6-4.9-10.8
								c0-7.9,6.4-14.4,14.4-14.4h68.8c7.9,0,14.4,6.4,14.4,14.4S167.2,73,159.3,73H93.4c-3.4,1.4-4.8,5.5-5.4,8.8
								c-0.7,3.9-0.4,7.4-0.4,7.4c0,0.6-0.3,1.1-0.8,1.4C86.5,90.7,86.3,90.7,86.1,90.7z M84,69.3c-0.1,0.2-2.4,9,0.8,15.7
								c0.3-5,1.9-12.5,7.9-14.7c0.2-0.1,0.3-0.1,0.5-0.1h66.1c6.4,0,11.5-5.2,11.5-11.5c0-6.4-5.2-11.5-11.5-11.5H90.5
								c-6.4,0-11.5,5.2-11.5,11.5c0,3.6,1.6,6.9,4.5,9.1C83.9,68.1,84.1,68.7,84,69.3z"/>
						</g>
					</g>
				</g>
			</g>
		</g>
		<g>
			<g>
				<g>
					<g>
						<g>
							<path fill="#FFFFFF" d="M87.4,60.3c0.5,0.2,1.2,0.5,1.9,0.5c0.7,0,1-0.2,1-0.6c0-0.4-0.3-0.6-1.2-0.9
								C87.9,58.8,87,58.1,87,57c0-1.3,1.1-2.3,3-2.3c0.9,0,1.5,0.2,2,0.4l-0.4,1.6c-0.3-0.1-0.9-0.4-1.6-0.4
								c-0.6,0-0.9,0.2-0.9,0.6c0,0.4,0.4,0.5,1.3,0.9c1.3,0.5,1.9,1.2,1.9,2.3c0,1.3-1,2.4-3.2,2.4c-0.9,0-1.8-0.2-2.2-0.5
								L87.4,60.3z"/>
						</g>
					</g>
				</g>
			</g>
			<g>
				<g>
					<g>
						<g>
							<path fill="#FFFFFF" d="M95.3,59L95.3,59c0.1-0.2,0.3-0.5,0.4-0.7l0.9-1.5h2.4L97.1,59l2.2,3.2h-2.5l-1.1-2.1l-0.4,0.5v1.5
								h-2v-7.8h2V59z"/>
						</g>
					</g>
				</g>
			</g>
			<g>
				<g>
					<g>
						<g>
							<path fill="#FFFFFF" d="M101.7,55.3c0,0.5-0.4,0.9-1,0.9c-0.6,0-1-0.4-1-0.9c0-0.6,0.4-0.9,1-0.9
								C101.3,54.4,101.7,54.8,101.7,55.3z M99.7,62.2v-5.4h2v5.4H99.7z"/>
						</g>
					</g>
				</g>
			</g>
			<g>
				<g>
					<g>
						<g>
							<path fill="#FFFFFF" d="M105,55.3c0,0.5-0.4,0.9-1,0.9c-0.6,0-1-0.4-1-0.9c0-0.6,0.4-0.9,1-0.9
								C104.6,54.4,104.9,54.8,105,55.3z M102.9,62.2v-5.4h2v5.4H102.9z"/>
						</g>
					</g>
				</g>
			</g>
			<g>
				<g>
					<g>
						<g>
							<path fill="#FFFFFF" d="M106.2,58.7c0-0.7,0-1.3,0-1.9h1.7l0.1,0.7h0c0.2-0.3,0.7-0.8,1.6-0.8c1.3,0,2,0.9,2,2.4v3.2h-2v-3
								c0-0.6-0.2-1-0.7-1c-0.4,0-0.6,0.3-0.7,0.5c0,0.1-0.1,0.3-0.1,0.4v3.1h-2V58.7z"/>
						</g>
					</g>
				</g>
			</g>
			<g>
				<g>
					<g>
						<g>
							<path fill="#FFFFFF" d="M118.1,61.4c0,0.9-0.2,1.9-0.9,2.4c-0.6,0.5-1.4,0.7-2.3,0.7c-0.8,0-1.5-0.1-2-0.4l0.4-1.5
								c0.3,0.2,0.9,0.4,1.6,0.4c0.7,0,1.3-0.4,1.3-1.2v-0.2h0c-0.3,0.4-0.8,0.6-1.4,0.6c-1.3,0-2.3-1.1-2.3-2.6
								c0-1.7,1.1-2.8,2.5-2.8c0.7,0,1.1,0.3,1.4,0.7h0l0.1-0.6h1.7c0,0.3,0,0.8,0,1.7V61.4z M116.2,59c0-0.1,0-0.2,0-0.3
								c-0.1-0.4-0.3-0.6-0.7-0.6c-0.5,0-0.9,0.5-0.9,1.3c0,0.7,0.3,1.2,0.9,1.2c0.4,0,0.6-0.2,0.7-0.5c0-0.1,0-0.3,0-0.4V59z"/>
						</g>
					</g>
				</g>
			</g>
			<g>
				<g>
					<g>
						<g>
							<path fill="#FFFFFF" d="M126.4,60.9c0,0.5,0,1,0.1,1.3h-1.8l-0.1-0.5h0c-0.4,0.4-0.9,0.6-1.5,0.6c-1.1,0-1.8-0.8-1.8-1.7
								c0-1.5,1.3-2.1,3.2-2.1v0c0-0.2-0.2-0.5-0.9-0.5c-0.6,0-1.2,0.2-1.5,0.4l-0.3-1.2c0.3-0.2,1.1-0.5,2.3-0.5
								c1.9,0,2.5,1,2.5,2.4V60.9z M124.5,59.8c-0.8,0-1.3,0.2-1.3,0.7c0,0.3,0.2,0.5,0.6,0.5c0.3,0,0.6-0.2,0.7-0.5
								c0-0.1,0-0.2,0-0.3V59.8z"/>
						</g>
					</g>
				</g>
			</g>
			<g>
				<g>
					<g>
						<g>
							<path fill="#FFFFFF" d="M127.6,58.7c0-0.7,0-1.3,0-1.9h1.7l0.1,0.7h0c0.2-0.3,0.7-0.8,1.6-0.8c1.3,0,2,0.9,2,2.4v3.2h-2v-3
								c0-0.6-0.2-1-0.7-1c-0.4,0-0.6,0.3-0.7,0.5c0,0.1-0.1,0.3-0.1,0.4v3.1h-2V58.7z"/>
						</g>
					</g>
				</g>
			</g>
			<g>
				<g>
					<g>
						<g>
							<path fill="#FFFFFF" d="M135.7,56.8l0.7,2.4c0.1,0.3,0.2,0.7,0.2,1h0c0.1-0.3,0.1-0.7,0.2-1l0.5-2.5h2.1l-1.2,3.5
								c-0.8,2.3-1.3,3.1-1.9,3.6c-0.6,0.6-1.3,0.7-1.8,0.8l-0.4-1.7c0.2,0,0.4-0.1,0.7-0.2c0.3-0.1,0.5-0.3,0.6-0.5
								c0.1-0.1,0.1-0.2,0.1-0.2c0-0.1,0-0.2-0.1-0.3l-2-5H135.7z"/>
						</g>
					</g>
				</g>
			</g>
			<g>
				<g>
					<g>
						<g>
							<path fill="#FFFFFF" d="M145.4,59.5c0,2-1.4,2.9-2.9,2.9c-1.6,0-2.9-1-2.9-2.8c0-1.7,1.1-2.9,3-2.9
								C144.3,56.7,145.4,57.8,145.4,59.5z M141.6,59.5c0,0.8,0.3,1.4,0.9,1.4c0.5,0,0.8-0.6,0.8-1.4c0-0.8-0.2-1.4-0.8-1.4
								C141.8,58.1,141.6,58.8,141.6,59.5z"/>
						</g>
					</g>
				</g>
			</g>
			<g>
				<g>
					<g>
						<g>
							<path fill="#FFFFFF" d="M146.3,58.7c0-0.7,0-1.3,0-1.9h1.7l0.1,0.7h0c0.2-0.3,0.7-0.8,1.6-0.8c1.3,0,2,0.9,2,2.4v3.2h-2v-3
								c0-0.6-0.2-1-0.7-1c-0.4,0-0.6,0.3-0.7,0.5c0,0.1-0.1,0.3-0.1,0.4v3.1h-2V58.7z"/>
						</g>
					</g>
				</g>
			</g>
			<g>
				<g>
					<g>
						<g>
							<path fill="#FFFFFF" d="M154.6,60.2c0.1,0.4,0.7,0.7,1.4,0.7c0.5,0,1-0.1,1.5-0.2l0.3,1.3c-0.7,0.3-1.4,0.3-2,0.3
								c-1.9,0-3-1.1-3-2.8c0-1.3,0.8-2.9,2.8-2.9c1.8,0,2.5,1.3,2.5,2.8c0,0.3,0,0.6-0.1,0.8H154.6z M156.2,58.9
								c0-0.3-0.1-0.9-0.8-0.9c-0.6,0-0.8,0.5-0.8,0.9H156.2z"/>
						</g>
					</g>
				</g>
			</g>
			<g>
				<g>
					<g>
						<g>
							<path fill="#FFFFFF" d="M159.8,59.7v-0.3c0-0.6,0.2-1.1,0.6-1.6c0.3-0.4,0.6-0.7,0.6-1c0-0.3-0.2-0.5-0.7-0.5
								c-0.4,0-0.8,0.1-1.1,0.3l-0.4-1.4c0.4-0.2,1.1-0.5,2-0.5c1.5,0,2.2,0.8,2.2,1.8c0,0.9-0.6,1.4-0.9,1.8
								c-0.4,0.4-0.5,0.8-0.5,1.3v0.2H159.8z M159.5,61.2c0-0.7,0.5-1.1,1.1-1.1c0.7,0,1.1,0.5,1.1,1.1c0,0.7-0.5,1.1-1.1,1.1
								C160,62.4,159.5,61.9,159.5,61.2z"/>
						</g>
					</g>
				</g>
			</g>
		</g>
	</g>
</g>
</svg>
