<?xml version="1.0" encoding="utf-8"?>
<!-- Generator: Adobe Illustrator 19.2.1, SVG Export Plug-In . SVG Version: 6.00 Build 0)  -->
<svg version="1.1" id="Layer_1" xmlns="http://www.w3.org/2000/svg" xmlns:xlink="http://www.w3.org/1999/xlink" x="0px" y="0px"
	 viewBox="0 0 220.9 331.7" enable-background="new 0 0 220.9 331.7" xml:space="preserve">
<g>
	<g>
		<rect x="0.2" y="0" fill="#7E5EA2" width="220.9" height="331.7"/>
	</g>
</g>
<g>
	<g>
		<g>
			<g>
				<g>
					<g>
						<g>
							<g>
								
									<rect x="59.4" y="91.2" transform="matrix(0.6317 -0.7752 0.7752 0.6317 -43.322 93.1124)" fill="#FFFFFF" width="33.8" height="1.9"/>
							</g>
						</g>
					</g>
				</g>
				<g>
					<g>
						<g>
							<g>
								
									<ellipse transform="matrix(0.9953 -9.670617e-02 9.670617e-02 0.9953 -9.9603 6.776)" fill="#FFFFFF" cx="64.9" cy="106.1" rx="1.7" ry="1.7"/>
							</g>
						</g>
					</g>
				</g>
			</g>
			<g>
				<g>
					<g>
						<g>
							<g>
								<path fill="#FFFFFF" d="M76.3,87.3c-0.1,0-0.2,0-0.4-0.1c-0.3-0.1-0.5-0.4-0.6-0.7l-1.9-9.3c-0.1-0.5,0.2-1,0.8-1.1
									c0.5-0.1,1,0.2,1.1,0.8l1.6,7.9l9.5-6.5c0.4-0.3,1-0.2,1.3,0.3c0.3,0.4,0.2,1-0.3,1.3l-10.7,7.3
									C76.7,87.2,76.5,87.3,76.3,87.3z"/>
							</g>
						</g>
					</g>
				</g>
				<g>
					<g>
						<g>
							<g>
								
									<ellipse transform="matrix(0.9172 -0.3985 0.3985 0.9172 -24.2984 41.2186)" fill="#F2A15E" cx="87" cy="79.1" rx="2.2" ry="2.2"/>
							</g>
						</g>
					</g>
				</g>
			</g>
		</g>
		<g>
			<g>
				<g>
					<g>
						<path fill="#7E5EA2" d="M56.1,95.2L56.1,95.2c10.2,0,18.4-8.2,18.4-18.4V52.2c0-10.2-8.2-18.4-18.4-18.4h0
							c-10.2,0-18.4,8.2-18.4,18.4v24.6C37.8,87,46,95.2,56.1,95.2z"/>
					</g>
				</g>
			</g>
			<g>
				<g>
					<g>
						<path fill="#FFFFFF" d="M56.1,96.2c-10.7,0-19.3-8.7-19.3-19.3V52.2c0-10.7,8.7-19.3,19.3-19.3s19.3,8.7,19.3,19.3v24.6
							C75.5,87.5,66.8,96.2,56.1,96.2z M56.1,34.8c-9.6,0-17.4,7.8-17.4,17.4v24.6c0,9.6,7.8,17.4,17.4,17.4s17.4-7.8,17.4-17.4
							V52.2C73.6,42.6,65.7,34.8,56.1,34.8z"/>
					</g>
				</g>
			</g>
		</g>
		<g>
			<g>
				<g>
					<g>
						<g>
							<path fill="#FFFFFF" d="M58.5,62.6c-6,0-11-4.9-11-11s4.9-11,11-11s11,4.9,11,11S64.6,62.6,58.5,62.6z M58.5,42.6
								c-5,0-9,4.1-9,9s4.1,9,9,9s9-4.1,9-9S63.5,42.6,58.5,42.6z"/>
						</g>
					</g>
				</g>
			</g>
			<g>
				<g>
					<g>
						<g>
							<path fill="#FFFFFF" d="M58.5,58.1c-3.6,0-6.5-2.9-6.5-6.5c0-3.6,2.9-6.5,6.5-6.5s6.5,2.9,6.5,6.5
								C65,55.2,62.1,58.1,58.5,58.1z M58.5,45.6c-3.3,0-6,2.7-6,6c0,3.3,2.7,6,6,6s6-2.7,6-6C64.5,48.3,61.8,45.6,58.5,45.6z"/>
						</g>
					</g>
				</g>
			</g>
			<g>
				<g>
					<g>
						<g>
							<path fill="#FFFFFF" d="M58.5,56.5c-2.7,0-4.9-2.2-4.9-4.9c0-2.7,2.2-4.9,4.9-4.9s4.9,2.2,4.9,4.9
								C63.4,54.3,61.2,56.5,58.5,56.5z M58.5,47.3c-2.4,0-4.4,2-4.4,4.4c0,2.4,2,4.4,4.4,4.4s4.4-2,4.4-4.4
								C62.9,49.2,60.9,47.3,58.5,47.3z"/>
						</g>
					</g>
				</g>
			</g>
			<g>
				<g>
					<g>
						<g>
							<circle fill="#FFFFFF" cx="60.7" cy="47" r="3.2"/>
						</g>
					</g>
				</g>
			</g>
		</g>
		<g>
			<g>
				<g>
					<g>
						<path fill="#FFFFFF" d="M59.7,69c-3.3,0-5.1-2.1-5.2-2.2l0.4-0.3c0,0,1.8,2.2,5.2,2c3.3-0.2,5-2.5,5-2.5l0.4,0.3
							c-0.1,0.1-1.8,2.6-5.4,2.7C59.9,69,59.8,69,59.7,69z"/>
					</g>
				</g>
			</g>
		</g>
		<g>
			<g>
				<g>
					<g>
						
							<rect x="57.3" y="65.4" transform="matrix(0.9996 -2.733353e-02 2.733353e-02 0.9996 -1.7721 1.6647)" fill="#FFFFFF" width="5.3" height="0.5"/>
					</g>
				</g>
			</g>
		</g>
		<g>
			<g>
				<g>
					<g>
						<g>
							<path fill="#673D92" d="M73.9,135c-0.5,0-1-0.1-1.5-0.4l-49.2-28.9c-1.4-0.8-1.8-2.6-1-3.9c0.8-1.4,2.6-1.8,3.9-1l49.2,28.9
								c1.4,0.8,1.8,2.6,1,3.9C75.8,134.5,74.9,135,73.9,135z"/>
						</g>
					</g>
				</g>
			</g>
		</g>
		<g>
			<g>
				<g>
					<g>
						<g>
							<path fill="#673D92" d="M84.9,130.1c-0.5,0-1-0.1-1.5-0.4l-49.2-28.9c-1.4-0.8-1.8-2.6-1-3.9c0.8-1.4,2.6-1.8,3.9-1
								l49.2,28.9c1.4,0.8,1.8,2.6,1,3.9C86.9,129.5,85.9,130.1,84.9,130.1z"/>
						</g>
					</g>
				</g>
			</g>
		</g>
		<g>
			<g>
				<g>
					<g>
						<path fill="#FFFFFF" d="M53,120.3c-0.1,0-0.3,0-0.4-0.1c-0.5-0.2-0.7-0.8-0.5-1.3l6.3-13.3l-9.6-11.1c-0.3-0.4-0.3-1,0.1-1.4
							c0.4-0.3,1-0.3,1.4,0.1l10,11.6c0.3,0.3,0.3,0.7,0.1,1l-6.5,13.8C53.7,120.1,53.3,120.3,53,120.3z"/>
					</g>
				</g>
			</g>
		</g>
		<g>
			<g>
				<g>
					<g>
						<path fill="#FFFFFF" d="M67.1,118c-0.2,0-0.3,0-0.4-0.1c-0.5-0.2-0.6-0.8-0.4-1.3l5.5-10.3l-8.9-11.7c-0.3-0.4-0.2-1,0.2-1.3
							c0.4-0.3,1-0.2,1.3,0.2l9.3,12.2c0.2,0.3,0.3,0.7,0.1,1l-5.8,10.9C67.7,117.8,67.4,118,67.1,118z"/>
					</g>
				</g>
			</g>
		</g>
		<g>
			<g>
				<g>
					<g>
						<g>
							<g>
								
									<rect x="12.2" y="98.2" transform="matrix(0.6309 -0.7759 0.7759 0.6309 -65.2802 61.1067)" fill="#FFFFFF" width="38.8" height="1.9"/>
							</g>
						</g>
					</g>
				</g>
				<g>
					<g>
						<g>
							<g>
								
									<ellipse transform="matrix(0.9953 -9.670617e-02 9.670617e-02 0.9953 -11.0432 2.3394)" fill="#FFFFFF" cx="18.6" cy="115.1" rx="1.7" ry="1.7"/>
							</g>
						</g>
					</g>
				</g>
			</g>
			<g>
				<g>
					<g>
						<g>
							<g>
								<path fill="#FFFFFF" d="M33.2,89.4c-0.3,0-0.5-0.1-0.7-0.3c-0.3-0.3-0.3-0.7-0.2-1l4.5-10.3c0.2-0.5,0.8-0.7,1.3-0.5
									c0.5,0.2,0.7,0.8,0.5,1.3L35,86.7l8.9-3.5c0.5-0.2,1,0.1,1.2,0.5c0.2,0.5-0.1,1-0.5,1.2l-11.1,4.3
									C33.4,89.4,33.3,89.4,33.2,89.4z"/>
							</g>
						</g>
					</g>
				</g>
				<g>
					<g>
						<g>
							<g>
								<circle fill="#F2A15E" cx="44.1" cy="84.1" r="2.2"/>
							</g>
						</g>
					</g>
				</g>
			</g>
		</g>
	</g>
	<g>
		<g>
			<g>
				<g>
					<g>
						<g>
							<path fill="#673D92" d="M163.1,146.9c-0.5,0-1-0.1-1.5-0.4l-49.2-28.9c-1.4-0.8-1.8-2.6-1-3.9c0.8-1.4,2.6-1.8,3.9-1
								l49.2,28.9c1.4,0.8,1.8,2.6,1,3.9C165,146.4,164.1,146.9,163.1,146.9z"/>
						</g>
					</g>
				</g>
			</g>
		</g>
		<g>
			<g>
				<g>
					<g>
						<g>
							<path fill="#673D92" d="M174.2,141.9c-0.5,0-1-0.1-1.5-0.4l-49.2-28.9c-1.4-0.8-1.8-2.6-1-3.9c0.8-1.4,2.6-1.8,3.9-1
								l49.2,28.9c1.4,0.8,1.8,2.6,1,3.9C176.1,141.4,175.1,141.9,174.2,141.9z"/>
						</g>
					</g>
				</g>
			</g>
		</g>
		<g>
			<g>
				<g>
					<g>
						<path fill="#FFFFFF" d="M142.2,132.1c-0.1,0-0.3,0-0.4-0.1c-0.5-0.2-0.7-0.8-0.5-1.3l6.3-13.3l-9.6-11.1
							c-0.3-0.4-0.3-1,0.1-1.4c0.4-0.3,1-0.3,1.4,0.1l10,11.6c0.3,0.3,0.3,0.7,0.1,1l-6.5,13.8C142.9,131.9,142.6,132.1,142.2,132.1
							z"/>
					</g>
				</g>
			</g>
		</g>
		<g>
			<g>
				<g>
					<g>
						<path fill="#FFFFFF" d="M156.8,128.8c-0.2,0-0.3,0-0.4-0.1c-0.5-0.2-0.6-0.8-0.4-1.3l5-9.3l-8.9-11.7c-0.3-0.4-0.2-1,0.2-1.3
							s1-0.2,1.3,0.2l9.3,12.2c0.2,0.3,0.3,0.7,0.1,1l-5.2,9.9C157.5,128.7,157.2,128.8,156.8,128.8z"/>
					</g>
				</g>
			</g>
		</g>
		<g>
			<g>
				<g>
					<g>
						<g>
							<g>
								
									<rect x="148.7" y="103.1" transform="matrix(0.6317 -0.7752 0.7752 0.6317 -19.6687 166.6481)" fill="#FFFFFF" width="33.8" height="1.9"/>
							</g>
						</g>
					</g>
				</g>
				<g>
					<g>
						<g>
							<g>
								
									<ellipse transform="matrix(0.9953 -9.670617e-02 9.670617e-02 0.9953 -10.6906 15.4595)" fill="#FFFFFF" cx="154.1" cy="118" rx="1.7" ry="1.7"/>
							</g>
						</g>
					</g>
				</g>
			</g>
			<g>
				<g>
					<g>
						<g>
							<g>
								<path fill="#FFFFFF" d="M165.5,99.2c-0.1,0-0.2,0-0.4-0.1c-0.3-0.1-0.5-0.4-0.6-0.7l-1.9-9.3c-0.1-0.5,0.2-1,0.8-1.1
									c0.5-0.1,1,0.2,1.1,0.8l1.6,7.9l9.5-6.5c0.4-0.3,1-0.2,1.3,0.3c0.3,0.4,0.2,1-0.3,1.3L166.1,99
									C165.9,99.1,165.7,99.2,165.5,99.2z"/>
							</g>
						</g>
					</g>
				</g>
				<g>
					<g>
						<g>
							<g>
								
									<ellipse transform="matrix(0.9172 -0.3985 0.3985 0.9172 -21.6402 77.7563)" fill="#F2A15E" cx="176.2" cy="90.9" rx="2.2" ry="2.2"/>
							</g>
						</g>
					</g>
				</g>
			</g>
		</g>
		<g>
			<g>
				<g>
					<g>
						<path fill="#7E5EA2" d="M145.1,107.1L145.1,107.1c10.2,0,18.4-8.2,18.4-18.4V64.1c0-10.2-8.2-18.4-18.4-18.4h0
							c-10.2,0-18.4,8.2-18.4,18.4v24.6C126.7,98.9,134.9,107.1,145.1,107.1z"/>
					</g>
				</g>
			</g>
			<g>
				<g>
					<g>
						<path fill="#FFFFFF" d="M145.1,108.1c-10.7,0-19.3-8.7-19.3-19.3V64.1c0-10.7,8.7-19.3,19.3-19.3c10.7,0,19.3,8.7,19.3,19.3
							v24.6C164.4,99.4,155.8,108.1,145.1,108.1z M145.1,46.7c-9.6,0-17.4,7.8-17.4,17.4v24.6c0,9.6,7.8,17.4,17.4,17.4
							c9.6,0,17.4-7.8,17.4-17.4V64.1C162.5,54.5,154.7,46.7,145.1,46.7z"/>
					</g>
				</g>
			</g>
		</g>
		<g>
			<g>
				<g>
					<g>
						<g>
							<path fill="#FFFFFF" d="M147.5,74.5c-6,0-11-4.9-11-11s4.9-11,11-11c6,0,11,4.9,11,11S153.5,74.5,147.5,74.5z M147.5,54.5
								c-5,0-9,4.1-9,9s4.1,9,9,9c5,0,9-4.1,9-9S152.5,54.5,147.5,54.5z"/>
						</g>
					</g>
				</g>
			</g>
			<g>
				<g>
					<g>
						<g>
							<path fill="#FFFFFF" d="M147.5,70c-3.6,0-6.5-2.9-6.5-6.5c0-3.6,2.9-6.5,6.5-6.5c3.6,0,6.5,2.9,6.5,6.5
								C154,67.1,151.1,70,147.5,70z M147.5,57.5c-3.3,0-6,2.7-6,6c0,3.3,2.7,6,6,6c3.3,0,6-2.7,6-6
								C153.5,60.2,150.8,57.5,147.5,57.5z"/>
						</g>
					</g>
				</g>
			</g>
			<g>
				<g>
					<g>
						<g>
							<path fill="#FFFFFF" d="M147.5,68.4c-2.7,0-4.8-2.2-4.8-4.9c0-2.7,2.2-4.9,4.8-4.9c2.7,0,4.9,2.2,4.9,4.9
								C152.3,66.2,150.2,68.4,147.5,68.4z M147.5,59.2c-2.4,0-4.4,2-4.4,4.4s2,4.4,4.4,4.4c2.4,0,4.4-2,4.4-4.4
								S149.9,59.2,147.5,59.2z"/>
						</g>
					</g>
				</g>
			</g>
			<g>
				<g>
					<g>
						<g>
							<circle fill="#FFFFFF" cx="149.7" cy="58.9" r="3.2"/>
						</g>
					</g>
				</g>
			</g>
		</g>
		<g>
			<g>
				<g>
					<g>
						<path fill="#FFFFFF" d="M148.6,80.9c-3.3,0-5.1-2.1-5.2-2.2l0.4-0.3c0,0,1.8,2.2,5.2,2c3.3-0.2,5-2.5,5-2.5l0.4,0.3
							c-0.1,0.1-1.8,2.6-5.4,2.7C148.9,80.9,148.7,80.9,148.6,80.9z"/>
					</g>
				</g>
			</g>
		</g>
		<g>
			<g>
				<g>
					<g>
						<path fill="#FFFFFF" d="M147,85.2c-0.9,0-1.7-0.8-1.7-1.8V80h0.5v3.4c0,0.7,0.5,1.3,1.2,1.3c0.7,0,1.2-0.6,1.2-1.3v-2.7h0.5
							v2.7C148.7,84.4,148,85.2,147,85.2z"/>
					</g>
				</g>
			</g>
		</g>
		<g>
			<g>
				<g>
					<g>
						<g>
							<g>
								
									<rect x="100.9" y="110.1" transform="matrix(0.6309 -0.7759 0.7759 0.6309 -41.7382 134.34)" fill="#FFFFFF" width="38.8" height="1.9"/>
							</g>
						</g>
					</g>
				</g>
				<g>
					<g>
						<g>
							<g>
								
									<ellipse transform="matrix(0.9953 -9.670617e-02 9.670617e-02 0.9953 -11.7757 10.9764)" fill="#FFFFFF" cx="107.3" cy="127" rx="1.7" ry="1.7"/>
							</g>
						</g>
					</g>
				</g>
			</g>
			<g>
				<g>
					<g>
						<g>
							<g>
								<path fill="#FFFFFF" d="M121.9,101.3c-0.3,0-0.5-0.1-0.7-0.3c-0.3-0.3-0.3-0.7-0.2-1l4.5-10.3c0.2-0.5,0.8-0.7,1.3-0.5
									c0.5,0.2,0.7,0.8,0.5,1.3l-3.6,8.2l8.9-3.5c0.5-0.2,1,0.1,1.2,0.5c0.2,0.5-0.1,1-0.5,1.2l-11.1,4.3
									C122.2,101.3,122.1,101.3,121.9,101.3z"/>
							</g>
						</g>
					</g>
				</g>
				<g>
					<g>
						<g>
							<g>
								<circle fill="#F2A15E" cx="132.8" cy="96" r="2.2"/>
							</g>
						</g>
					</g>
				</g>
			</g>
		</g>
	</g>
	<g>
		<g>
			<g>
				<g>
					<g>
						<g>
							<g>
								
									<rect x="73" y="159.5" transform="matrix(0.6317 -0.7752 0.7752 0.6317 -91.255 128.8015)" fill="#FFFFFF" width="33.8" height="1.9"/>
							</g>
						</g>
					</g>
				</g>
				<g>
					<g>
						<g>
							<g>
								
									<ellipse transform="matrix(0.9953 -9.670617e-02 9.670617e-02 0.9953 -16.5007 8.4106)" fill="#FFFFFF" cx="78.5" cy="174.4" rx="1.7" ry="1.7"/>
							</g>
						</g>
					</g>
				</g>
			</g>
			<g>
				<g>
					<g>
						<g>
							<g>
								<path fill="#FFFFFF" d="M89.9,155.6c-0.1,0-0.2,0-0.4-0.1c-0.3-0.1-0.5-0.4-0.6-0.7l-1.9-9.3c-0.1-0.5,0.2-1,0.8-1.1
									c0.5-0.1,1,0.2,1.1,0.8l1.6,7.9l9.5-6.5c0.4-0.3,1-0.2,1.3,0.3c0.3,0.4,0.2,1-0.3,1.3l-10.7,7.3
									C90.3,155.5,90.1,155.6,89.9,155.6z"/>
							</g>
						</g>
					</g>
				</g>
				<g>
					<g>
						<g>
							<g>
								
									<ellipse transform="matrix(0.9172 -0.3985 0.3985 0.9172 -50.3869 52.2926)" fill="#F2A15E" cx="100.6" cy="147.3" rx="2.2" ry="2.2"/>
							</g>
						</g>
					</g>
				</g>
			</g>
		</g>
		<g>
			<g>
				<g>
					<g>
						<path fill="#7E5EA2" d="M69.6,163.6L69.6,163.6c10.2,0,18.4-8.2,18.4-18.4v-24.6c0-10.2-8.2-18.4-18.4-18.4h0
							c-10.2,0-18.4,8.2-18.4,18.4v24.6C51.2,155.4,59.4,163.6,69.6,163.6z"/>
					</g>
				</g>
			</g>
			<g>
				<g>
					<g>
						<path fill="#FFFFFF" d="M69.6,164.6c-10.7,0-19.3-8.7-19.3-19.3v-24.6c0-10.7,8.7-19.3,19.3-19.3c10.7,0,19.3,8.7,19.3,19.3
							v24.6C88.9,155.9,80.2,164.6,69.6,164.6z M69.6,103.2c-9.6,0-17.4,7.8-17.4,17.4v24.6c0,9.6,7.8,17.4,17.4,17.4
							S87,154.9,87,145.2v-24.6C87,111,79.2,103.2,69.6,103.2z"/>
					</g>
				</g>
			</g>
		</g>
		<g>
			<g>
				<g>
					<g>
						<g>
							<path fill="#FFFFFF" d="M72,131c-6,0-11-4.9-11-11c0-6,4.9-11,11-11c6,0,11,4.9,11,11C82.9,126.1,78,131,72,131z M72,111
								c-5,0-9,4.1-9,9c0,5,4.1,9,9,9c5,0,9-4.1,9-9C81,115.1,76.9,111,72,111z"/>
						</g>
					</g>
				</g>
			</g>
			<g>
				<g>
					<g>
						<g>
							<path fill="#FFFFFF" d="M72,126.5c-3.6,0-6.5-2.9-6.5-6.5c0-3.6,2.9-6.5,6.5-6.5c3.6,0,6.5,2.9,6.5,6.5
								C78.5,123.6,75.5,126.5,72,126.5z M72,114c-3.3,0-6,2.7-6,6c0,3.3,2.7,6,6,6c3.3,0,6-2.7,6-6C78,116.7,75.3,114,72,114z"/>
						</g>
					</g>
				</g>
			</g>
			<g>
				<g>
					<g>
						<g>
							<path fill="#FFFFFF" d="M72,124.9c-2.7,0-4.9-2.2-4.9-4.8c0-2.7,2.2-4.9,4.9-4.9c2.7,0,4.8,2.2,4.8,4.9
								C76.8,122.7,74.6,124.9,72,124.9z M72,115.7c-2.4,0-4.4,2-4.4,4.4c0,2.4,2,4.4,4.4,4.4c2.4,0,4.4-2,4.4-4.4
								C76.3,117.6,74.4,115.7,72,115.7z"/>
						</g>
					</g>
				</g>
			</g>
			<g>
				<g>
					<g>
						<g>
							<circle fill="#FFFFFF" cx="74.2" cy="115.4" r="3.2"/>
						</g>
					</g>
				</g>
			</g>
		</g>
		<g>
			<g>
				<g>
					<g>
						<path fill="#FFFFFF" d="M73.1,137.4c-3.3,0-5.1-2.1-5.2-2.2l0.4-0.3c0,0,1.9,2.2,5.2,2c3.3-0.2,5-2.5,5-2.5l0.4,0.3
							c-0.1,0.1-1.8,2.6-5.4,2.7C73.3,137.4,73.2,137.4,73.1,137.4z"/>
					</g>
				</g>
			</g>
		</g>
		<g>
			<g>
				<g>
					<g>
						<path fill="#FFFFFF" d="M73.7,141c-1.7,0-3-1.4-3-3v-1c0-1.7,1.4-3,3-3c1.7,0,3,1.4,3,3v1C76.7,139.6,75.4,141,73.7,141z
							 M73.7,134.4c-1.4,0-2.5,1.1-2.5,2.5v1c0,1.4,1.1,2.5,2.5,2.5s2.5-1.1,2.5-2.5v-1C76.2,135.5,75.1,134.4,73.7,134.4z"/>
					</g>
				</g>
			</g>
		</g>
		<g>
			<g>
				<g>
					<g>
						<g>
							<path fill="#673D92" d="M87,203.3c-0.5,0-1-0.1-1.5-0.4L36.3,174c-1.4-0.8-1.8-2.6-1-3.9c0.8-1.4,2.6-1.8,3.9-1L88.5,198
								c1.4,0.8,1.8,2.6,1,3.9C88.9,202.8,88,203.3,87,203.3z"/>
						</g>
					</g>
				</g>
			</g>
		</g>
		<g>
			<g>
				<g>
					<g>
						<g>
							<path fill="#673D92" d="M98.1,198.3c-0.5,0-1-0.1-1.5-0.4L47.4,169c-1.4-0.8-1.8-2.6-1-3.9c0.8-1.4,2.6-1.8,3.9-1L99.5,193
								c1.4,0.8,1.8,2.6,1,3.9C100,197.8,99,198.3,98.1,198.3z"/>
						</g>
					</g>
				</g>
			</g>
		</g>
		<g>
			<g>
				<g>
					<g>
						<path fill="#FFFFFF" d="M66.1,188.6c-0.1,0-0.3,0-0.4-0.1c-0.5-0.2-0.7-0.8-0.5-1.3l6.3-13.3l-9.6-11.1
							c-0.3-0.4-0.3-1,0.1-1.4c0.4-0.3,1-0.3,1.4,0.1l10,11.6c0.3,0.3,0.3,0.7,0.1,1L67,188C66.8,188.3,66.5,188.6,66.1,188.6z"/>
					</g>
				</g>
			</g>
		</g>
		<g>
			<g>
				<g>
					<g>
						<path fill="#FFFFFF" d="M80.7,185.2c-0.2,0-0.3,0-0.4-0.1c-0.5-0.2-0.6-0.8-0.4-1.3l5-9.3l-8.9-11.7c-0.3-0.4-0.2-1,0.2-1.3
							c0.4-0.3,1-0.2,1.3,0.2l9.3,12.2c0.2,0.3,0.3,0.7,0.1,1l-5.2,9.9C81.4,185.1,81.1,185.2,80.7,185.2z"/>
					</g>
				</g>
			</g>
		</g>
		<g>
			<g>
				<g>
					<g>
						<g>
							<g>
								
									<rect x="25.3" y="166.5" transform="matrix(0.6309 -0.7759 0.7759 0.6309 -113.425 96.4892)" fill="#FFFFFF" width="38.8" height="1.9"/>
							</g>
						</g>
					</g>
				</g>
				<g>
					<g>
						<g>
							<g>
								
									<ellipse transform="matrix(0.9953 -9.670617e-02 9.670617e-02 0.9953 -17.5858 3.9276)" fill="#FFFFFF" cx="31.7" cy="183.4" rx="1.7" ry="1.7"/>
							</g>
						</g>
					</g>
				</g>
			</g>
			<g>
				<g>
					<g>
						<g>
							<g>
								<path fill="#FFFFFF" d="M46.3,157.7c-0.3,0-0.5-0.1-0.7-0.3c-0.3-0.3-0.3-0.7-0.2-1L50,146c0.2-0.5,0.8-0.7,1.3-0.5
									c0.5,0.2,0.7,0.8,0.5,1.3l-3.6,8.2l8.9-3.5c0.5-0.2,1,0.1,1.2,0.5c0.2,0.5-0.1,1-0.5,1.2l-11.1,4.3
									C46.5,157.7,46.4,157.7,46.3,157.7z"/>
							</g>
						</g>
					</g>
				</g>
				<g>
					<g>
						<g>
							<g>
								<circle fill="#F2A15E" cx="57.2" cy="152.4" r="2.2"/>
							</g>
						</g>
					</g>
				</g>
			</g>
		</g>
	</g>
	<g>
		<g>
			<g>
				<g>
					<g>
						<g>
							<path fill="#673D92" d="M187.3,229.4c-0.5,0-1-0.1-1.5-0.4l-49.2-28.9c-1.4-0.8-1.8-2.6-1-3.9c0.8-1.4,2.6-1.8,3.9-1
								l49.2,28.9c1.4,0.8,1.8,2.6,1,3.9C189.3,228.9,188.3,229.4,187.3,229.4z"/>
						</g>
					</g>
				</g>
			</g>
		</g>
		<g>
			<g>
				<g>
					<g>
						<g>
							<path fill="#673D92" d="M198.4,224.5c-0.5,0-1-0.1-1.5-0.4l-49.2-28.9c-1.4-0.8-1.8-2.6-1-3.9c0.8-1.4,2.6-1.8,3.9-1
								l49.2,28.9c1.4,0.8,1.8,2.6,1,3.9C200.3,223.9,199.4,224.5,198.4,224.5z"/>
						</g>
					</g>
				</g>
			</g>
		</g>
		<g>
			<g>
				<g>
					<g>
						<path fill="#FFFFFF" d="M166.4,214.7c-0.1,0-0.3,0-0.4-0.1c-0.5-0.2-0.7-0.8-0.5-1.3l6.3-13.3l-9.6-11.1
							c-0.3-0.4-0.3-1,0.1-1.4c0.4-0.3,1-0.3,1.4,0.1l10,11.6c0.3,0.3,0.3,0.7,0.1,1l-6.5,13.8C167.1,214.5,166.8,214.7,166.4,214.7
							z"/>
					</g>
				</g>
			</g>
		</g>
		<g>
			<g>
				<g>
					<g>
						<path fill="#FFFFFF" d="M181.1,211.2c-0.2,0-0.3,0-0.4-0.1c-0.5-0.2-0.6-0.8-0.4-1.3l4.9-9.2l-8.9-11.7
							c-0.3-0.4-0.2-1,0.2-1.3c0.4-0.3,1-0.2,1.3,0.2l9.3,12.2c0.2,0.3,0.3,0.7,0.1,1l-5.2,9.7C181.8,211,181.5,211.2,181.1,211.2z"
							/>
					</g>
				</g>
			</g>
		</g>
		<g>
			<g>
				<g>
					<g>
						<path fill="#7E5EA2" d="M169.6,189.4L169.6,189.4c-10.2,0-18.4-8.2-18.4-18.4v-24.6c0-10.2,8.2-18.4,18.4-18.4h0
							c10.2,0,18.4,8.2,18.4,18.4V171C187.9,181.2,179.7,189.4,169.6,189.4z"/>
					</g>
				</g>
			</g>
			<g>
				<g>
					<g>
						<path fill="#FFFFFF" d="M169.6,190.4c-10.7,0-19.3-8.7-19.3-19.3v-24.6c0-10.7,8.7-19.3,19.3-19.3c10.7,0,19.3,8.7,19.3,19.3
							V171C188.9,181.7,180.2,190.4,169.6,190.4z M169.6,129c-9.6,0-17.4,7.8-17.4,17.4V171c0,9.6,7.8,17.4,17.4,17.4
							c9.6,0,17.4-7.8,17.4-17.4v-24.6C187,136.8,179.2,129,169.6,129z"/>
					</g>
				</g>
			</g>
		</g>
		<g>
			<g>
				<g>
					<g>
						<g>
							<path fill="#FFFFFF" d="M174.1,163.3c-4.3,0-6.7-1.8-6.8-1.9l0.3-0.4c0,0,2.8,2.1,7.6,1.8c4.9-0.4,7.2-2.8,7.3-2.9l0.4,0.3
								c-0.1,0.1-2.5,2.6-7.6,3C174.9,163.2,174.5,163.3,174.1,163.3z"/>
						</g>
					</g>
				</g>
			</g>
			<g>
				<g>
					<g>
						<g>
							<path fill="#FFFFFF" d="M172.6,165.7l-0.1-2.7l2,0l0.1,2.7L172.6,165.7z M173,163.5l0,1.7l1,0l0-1.7L173,163.5z"/>
						</g>
					</g>
				</g>
			</g>
			<g>
				<g>
					<g>
						<g>
							<path fill="#FFFFFF" d="M175.6,165.4l-0.1-2.7l1.9,0l0.1,2.7L175.6,165.4z M176,163.3l0,1.7l0.9,0l0-1.7L176,163.3z"/>
						</g>
					</g>
				</g>
			</g>
		</g>
		<g>
			<g>
				<g>
					<g>
						<g>
							<path fill="#FFFFFF" d="M172.9,156.8c-6,0-11-4.9-11-11c0-6,4.9-11,11-11c6,0,11,4.9,11,11
								C183.9,151.9,179,156.8,172.9,156.8z M172.9,136.8c-5,0-9,4.1-9,9c0,5,4.1,9,9,9c5,0,9-4.1,9-9
								C181.9,140.9,177.9,136.8,172.9,136.8z"/>
						</g>
					</g>
				</g>
			</g>
			<g>
				<g>
					<g>
						<g>
							<path fill="#FFFFFF" d="M172.9,152.3c-3.6,0-6.5-2.9-6.5-6.5c0-3.6,2.9-6.5,6.5-6.5c3.6,0,6.5,2.9,6.5,6.5
								C179.4,149.4,176.5,152.3,172.9,152.3z M172.9,139.8c-3.3,0-6,2.7-6,6c0,3.3,2.7,6,6,6c3.3,0,6-2.7,6-6
								C178.9,142.5,176.2,139.8,172.9,139.8z"/>
						</g>
					</g>
				</g>
			</g>
			<g>
				<g>
					<g>
						<g>
							<path fill="#FFFFFF" d="M172.9,150.7c-2.7,0-4.8-2.2-4.8-4.9c0-2.7,2.2-4.8,4.8-4.8c2.7,0,4.9,2.2,4.9,4.8
								C177.8,148.5,175.6,150.7,172.9,150.7z M172.9,141.5c-2.4,0-4.4,2-4.4,4.4c0,2.4,2,4.4,4.4,4.4c2.4,0,4.4-2,4.4-4.4
								C177.3,143.4,175.3,141.5,172.9,141.5z"/>
						</g>
					</g>
				</g>
			</g>
			<g>
				<g>
					<g>
						<g>
							<circle fill="#FFFFFF" cx="170.7" cy="141.2" r="3.2"/>
						</g>
					</g>
				</g>
			</g>
		</g>
		<g>
			<g>
				<g>
					<g>
						<path fill="#FFFFFF" d="M151.6,177.1c-0.3,0-0.5-0.1-0.7-0.3c-1.7-1.9-1.9-3.5-2.1-4.8c-0.2-1.3-0.3-2.4-1.6-3.9
							c-1.3-1.5-2.4-1.8-3.6-2.2c-1.3-0.4-2.8-0.8-4.5-2.8c-1.7-1.9-1.9-3.5-2.1-4.8c-0.2-1.3-0.3-2.4-1.6-3.9
							c-0.3-0.4-0.3-1,0.1-1.4c0.4-0.3,1-0.3,1.4,0.1c1.7,1.9,1.9,3.5,2.1,4.8c0.2,1.3,0.3,2.4,1.6,3.9c1.3,1.5,2.4,1.8,3.6,2.2
							c1.3,0.4,2.8,0.8,4.5,2.8c1.7,1.9,1.9,3.5,2.1,4.8c0.2,1.3,0.3,2.4,1.6,3.9c0.3,0.4,0.3,1-0.1,1.4
							C152,177.1,151.8,177.1,151.6,177.1z"/>
					</g>
				</g>
			</g>
		</g>
		<g>
			<g>
				<g>
					<g>
						<path fill="#FFFFFF" d="M187.7,174.1c-0.1,0-0.3,0-0.4-0.1c-0.5-0.2-0.7-0.8-0.4-1.3c1.2-2.3,2.5-3,3.7-3.7
							c1.1-0.6,2.1-1.2,3-3c0.9-1.8,0.8-2.9,0.7-4.1c-0.1-1.4-0.3-2.9,0.9-5.2c1.2-2.3,2.5-3,3.7-3.7c1.1-0.6,2.1-1.2,3-3
							c0.2-0.5,0.8-0.7,1.3-0.4c0.5,0.2,0.7,0.8,0.4,1.3c-1.2,2.3-2.5,3-3.7,3.7c-1.1,0.6-2.1,1.2-3,3c-0.9,1.8-0.8,2.9-0.7,4.1
							c0.1,1.4,0.3,2.9-0.9,5.2c-1.2,2.3-2.5,3-3.7,3.7c-1.1,0.6-2.1,1.2-3,3C188.4,174,188.1,174.1,187.7,174.1z"/>
					</g>
				</g>
			</g>
		</g>
		<g>
			<g>
				<g>
					<g>
						
							<ellipse transform="matrix(0.9323 -0.3618 0.3618 0.9323 -46.1455 59.3821)" fill="#F2A15E" cx="135.5" cy="152.9" rx="2.2" ry="2.2"/>
					</g>
				</g>
			</g>
		</g>
		<g>
			<g>
				<g>
					<g>
						
							<ellipse transform="matrix(0.9423 -0.3347 0.3347 0.9423 -38.4701 76.6241)" fill="#F2A15E" cx="203.1" cy="149.9" rx="2.2" ry="2.2"/>
					</g>
				</g>
			</g>
		</g>
	</g>
	<g>
		<g>
			<path fill="#79C7D9" d="M135.8,266.5c-0.2,0-0.4,0-0.5-0.2L64.9,221c-0.4-0.3-0.6-0.9-0.3-1.3c0.3-0.4,0.9-0.6,1.3-0.3l70.5,45.3
				c0.4,0.3,0.6,0.9,0.3,1.3C136.4,266.3,136.1,266.5,135.8,266.5z"/>
		</g>
	</g>
	<path fill="#79C7D9" d="M79.7,24.7L41.4,0h-3.5l40.9,26.3c0.2,0.1,0.3,0.2,0.5,0.2c0.3,0,0.6-0.2,0.8-0.4
		C80.3,25.6,80.2,25,79.7,24.7z"/>
	<path fill="#79C7D9" d="M220,55.4L163.5,19c-0.4-0.3-1-0.2-1.3,0.3s-0.2,1,0.3,1.3l57.6,37V55.4z"/>
</g>
<g>
	<g>
		<rect x="1.3" y="262.8" fill="#7E5EA2" width="218.7" height="68.9"/>
	</g>
</g>
<g>
	<g>
		<path fill="#FFFFFF" d="M206.4,263.8H14.9c-0.6,0-1-0.4-1-1s0.4-1,1-1h191.4c0.6,0,1,0.4,1,1S206.9,263.8,206.4,263.8z"/>
	</g>
</g>
<g>
	<g>
		<path fill="#FFFFFF" d="M27.9,276.1h-1.7v-0.9h4.6v0.9H29v5.1h-1.1V276.1z"/>
	</g>
	<g>
		<path fill="#FFFFFF" d="M31.7,274.8h1.1v2.6h0c0.1-0.2,0.3-0.4,0.5-0.5c0.2-0.1,0.5-0.2,0.8-0.2c0.7,0,1.5,0.5,1.5,1.9v2.6h-1.1
			v-2.5c0-0.6-0.2-1.1-0.8-1.1c-0.4,0-0.7,0.3-0.9,0.6c0,0.1,0,0.2,0,0.3v2.6h-1.1V274.8z"/>
	</g>
	<g>
		<path fill="#FFFFFF" d="M40.6,280.2c0,0.4,0,0.8,0.1,1.1h-1l-0.1-0.5h0c-0.3,0.3-0.7,0.6-1.3,0.6c-0.9,0-1.4-0.6-1.4-1.3
			c0-1.1,1-1.7,2.6-1.7v-0.1c0-0.3-0.1-0.8-0.9-0.8c-0.4,0-0.9,0.1-1.2,0.3l-0.2-0.7c0.3-0.2,0.9-0.4,1.6-0.4c1.4,0,1.8,0.9,1.8,1.9
			V280.2z M39.5,279.1c-0.8,0-1.5,0.2-1.5,0.8c0,0.4,0.3,0.6,0.6,0.6c0.5,0,0.8-0.3,0.9-0.6c0-0.1,0-0.2,0-0.2V279.1z"/>
	</g>
	<g>
		<path fill="#FFFFFF" d="M43.3,275.7v1.1h1.1v0.8h-1.1v1.9c0,0.5,0.1,0.8,0.6,0.8c0.2,0,0.3,0,0.4,0l0,0.8
			c-0.2,0.1-0.5,0.1-0.8,0.1c-0.4,0-0.7-0.1-1-0.4c-0.2-0.3-0.4-0.7-0.4-1.2v-2.1h-0.6v-0.8h0.6V276L43.3,275.7z"/>
	</g>
	<g>
		<path fill="#FFFFFF" d="M48.4,276.8l0.5,2c0.1,0.5,0.2,0.9,0.3,1.4h0c0.1-0.5,0.2-1,0.4-1.4l0.6-2H51l0.5,1.9
			c0.1,0.5,0.3,1,0.4,1.5h0c0.1-0.5,0.2-1,0.3-1.5l0.5-1.9h1.1l-1.4,4.4h-1l-0.5-1.8c-0.1-0.5-0.2-0.9-0.3-1.4h0
			c-0.1,0.5-0.2,1-0.3,1.4l-0.6,1.8h-1l-1.3-4.4H48.4z"/>
	</g>
	<g>
		<path fill="#FFFFFF" d="M58.2,280.2c0,0.4,0,0.8,0.1,1.1h-1l-0.1-0.5h0c-0.3,0.3-0.7,0.6-1.3,0.6c-0.9,0-1.4-0.6-1.4-1.3
			c0-1.1,1-1.7,2.6-1.7v-0.1c0-0.3-0.1-0.8-0.9-0.8c-0.4,0-0.9,0.1-1.2,0.3l-0.2-0.7c0.3-0.2,0.9-0.4,1.6-0.4c1.4,0,1.8,0.9,1.8,1.9
			V280.2z M57.2,279.1c-0.8,0-1.5,0.2-1.5,0.8c0,0.4,0.3,0.6,0.6,0.6c0.5,0,0.8-0.3,0.9-0.6c0-0.1,0-0.2,0-0.2V279.1z"/>
	</g>
	<g>
		<path fill="#FFFFFF" d="M60.4,276.8l0.8,2.4c0.1,0.3,0.2,0.6,0.3,0.8h0c0.1-0.2,0.1-0.6,0.2-0.9l0.7-2.3h1.2l-1.1,3
			c-0.6,1.6-1,2.4-1.5,2.8c-0.4,0.4-0.9,0.5-1.2,0.6l-0.3-0.9c0.2,0,0.4-0.1,0.6-0.3c0.2-0.1,0.5-0.4,0.6-0.7c0-0.1,0.1-0.1,0.1-0.2
			c0,0,0-0.1-0.1-0.2l-1.6-4H60.4z"/>
	</g>
	<g>
		<path fill="#FFFFFF" d="M63.6,282.3c0.2-0.7,0.5-1.6,0.6-2.4l1.2-0.1c-0.3,0.8-0.7,1.8-1,2.4L63.6,282.3z"/>
	</g>
	<g>
		<path fill="#FFFFFF" d="M68.8,274.8h1.1v2.6h0c0.1-0.2,0.3-0.4,0.5-0.5c0.2-0.1,0.5-0.2,0.8-0.2c0.7,0,1.5,0.5,1.5,1.9v2.6h-1.1
			v-2.5c0-0.6-0.2-1.1-0.8-1.1c-0.4,0-0.7,0.3-0.9,0.6c0,0.1,0,0.2,0,0.3v2.6h-1.1V274.8z"/>
	</g>
	<g>
		<path fill="#FFFFFF" d="M75.1,279.3c0,0.8,0.6,1.1,1.4,1.1c0.5,0,0.9-0.1,1.2-0.2l0.2,0.8c-0.4,0.2-0.9,0.3-1.5,0.3
			c-1.4,0-2.3-0.9-2.3-2.2c0-1.2,0.7-2.4,2.1-2.4c1.4,0,1.9,1.2,1.9,2.1c0,0.2,0,0.4,0,0.5H75.1z M77.1,278.6c0-0.4-0.2-1.1-0.9-1.1
			c-0.7,0-1,0.6-1,1.1H77.1z"/>
	</g>
	<g>
		<path fill="#FFFFFF" d="M82.8,275.6c0,0.3-0.2,0.6-0.6,0.6c-0.4,0-0.6-0.3-0.6-0.6c0-0.3,0.3-0.6,0.6-0.6
			C82.5,275,82.7,275.3,82.8,275.6z M81.6,281.2v-4.4h1.1v4.4H81.6z"/>
	</g>
	<g>
		<path fill="#FFFFFF" d="M84.2,280.2c0.2,0.2,0.7,0.3,1.1,0.3c0.5,0,0.7-0.2,0.7-0.5c0-0.3-0.2-0.4-0.7-0.6
			c-0.9-0.3-1.2-0.8-1.2-1.3c0-0.8,0.6-1.4,1.7-1.4c0.5,0,0.9,0.1,1.2,0.3l-0.2,0.8c-0.2-0.1-0.5-0.3-0.9-0.3
			c-0.4,0-0.6,0.2-0.6,0.5c0,0.3,0.2,0.4,0.8,0.6c0.8,0.3,1.2,0.7,1.2,1.3c0,0.8-0.6,1.4-1.8,1.4c-0.5,0-1-0.1-1.3-0.3L84.2,280.2z"
			/>
	</g>
	<g>
		<path fill="#FFFFFF" d="M94.7,279c0,1.6-1.1,2.3-2.3,2.3c-1.2,0-2.2-0.8-2.2-2.3c0-1.4,0.9-2.3,2.3-2.3
			C93.9,276.7,94.7,277.7,94.7,279z M91.4,279c0,0.8,0.4,1.5,1.1,1.5c0.6,0,1.1-0.6,1.1-1.5c0-0.7-0.3-1.5-1.1-1.5
			C91.8,277.5,91.4,278.3,91.4,279z"/>
	</g>
	<g>
		<path fill="#FFFFFF" d="M96,278.1c0-0.5,0-0.9,0-1.3h1l0.1,0.7h0c0.2-0.3,0.7-0.8,1.4-0.8c0.8,0,1.6,0.5,1.6,1.9v2.6h-1.1v-2.5
			c0-0.6-0.2-1.1-0.8-1.1c-0.4,0-0.7,0.3-0.9,0.6c0,0.1-0.1,0.2-0.1,0.4v2.6H96V278.1z"/>
	</g>
	<g>
		<path fill="#FFFFFF" d="M101.5,274.8h1.1v6.4h-1.1V274.8z"/>
	</g>
	<g>
		<path fill="#FFFFFF" d="M104.9,276.8l0.8,2.4c0.1,0.3,0.2,0.6,0.3,0.8h0c0.1-0.2,0.1-0.6,0.2-0.9l0.7-2.3h1.2l-1.1,3
			c-0.6,1.6-1,2.4-1.5,2.8c-0.4,0.4-0.9,0.5-1.2,0.6l-0.3-0.9c0.2,0,0.4-0.1,0.6-0.3c0.2-0.1,0.5-0.4,0.6-0.7c0-0.1,0.1-0.1,0.1-0.2
			c0,0,0-0.1-0.1-0.2l-1.6-4H104.9z"/>
	</g>
	<g>
		<path fill="#FFFFFF" d="M112.5,275.6c0,0.3-0.2,0.6-0.6,0.6c-0.4,0-0.6-0.3-0.6-0.6c0-0.3,0.3-0.6,0.6-0.6
			C112.2,275,112.4,275.3,112.5,275.6z M111.3,281.2v-4.4h1.1v4.4H111.3z"/>
	</g>
	<g>
		<path fill="#FFFFFF" d="M113.9,278.1c0-0.5,0-0.9,0-1.3h1l0.1,0.7h0c0.2-0.3,0.7-0.8,1.4-0.8c0.8,0,1.6,0.5,1.6,1.9v2.6h-1.1v-2.5
			c0-0.6-0.2-1.1-0.8-1.1c-0.4,0-0.7,0.3-0.9,0.6c0,0.1-0.1,0.2-0.1,0.4v2.6h-1.1V278.1z"/>
	</g>
	<g>
		<path fill="#FFFFFF" d="M120,276.8l0.7,2.2c0.1,0.4,0.2,0.7,0.3,1.1h0c0.1-0.4,0.2-0.7,0.3-1.1l0.7-2.2h1.2l-1.7,4.4h-1.1
			l-1.6-4.4H120z"/>
	</g>
	<g>
		<path fill="#FFFFFF" d="M125.4,275.6c0,0.3-0.2,0.6-0.6,0.6c-0.4,0-0.6-0.3-0.6-0.6c0-0.3,0.3-0.6,0.6-0.6
			C125.2,275,125.4,275.3,125.4,275.6z M124.2,281.2v-4.4h1.1v4.4H124.2z"/>
	</g>
	<g>
		<path fill="#FFFFFF" d="M128.2,275.7v1.1h1.1v0.8h-1.1v1.9c0,0.5,0.1,0.8,0.6,0.8c0.2,0,0.3,0,0.4,0l0,0.8
			c-0.2,0.1-0.5,0.1-0.8,0.1c-0.4,0-0.7-0.1-1-0.4c-0.2-0.3-0.4-0.7-0.4-1.2v-2.1h-0.6v-0.8h0.6V276L128.2,275.7z"/>
	</g>
	<g>
		<path fill="#FFFFFF" d="M131.6,275.6c0,0.3-0.2,0.6-0.6,0.6c-0.4,0-0.6-0.3-0.6-0.6c0-0.3,0.3-0.6,0.6-0.6
			C131.4,275,131.6,275.3,131.6,275.6z M130.4,281.2v-4.4h1.1v4.4H130.4z"/>
	</g>
	<g>
		<path fill="#FFFFFF" d="M133.1,278.1c0-0.5,0-0.9,0-1.3h1l0.1,0.7h0c0.2-0.3,0.7-0.8,1.4-0.8c0.8,0,1.6,0.5,1.6,1.9v2.6h-1.1v-2.5
			c0-0.6-0.2-1.1-0.8-1.1c-0.4,0-0.7,0.3-0.9,0.6c0,0.1-0.1,0.2-0.1,0.4v2.6h-1.1V278.1z"/>
	</g>
	<g>
		<path fill="#FFFFFF" d="M142.6,280.6c0,0.9-0.2,1.6-0.6,2c-0.5,0.4-1.1,0.5-1.7,0.5c-0.6,0-1.2-0.1-1.5-0.4l0.2-0.8
			c0.3,0.2,0.7,0.3,1.3,0.3c0.7,0,1.3-0.4,1.3-1.3v-0.4h0c-0.3,0.4-0.7,0.6-1.3,0.6c-1.1,0-1.9-0.9-1.9-2.1c0-1.4,0.9-2.3,2-2.3
			c0.7,0,1.1,0.3,1.3,0.7h0l0-0.6h1c0,0.3,0,0.7,0,1.3V280.6z M141.5,278.6c0-0.1,0-0.2,0-0.3c-0.1-0.4-0.4-0.7-0.9-0.7
			c-0.6,0-1.1,0.5-1.1,1.4c0,0.7,0.4,1.4,1.1,1.4c0.4,0,0.8-0.3,0.9-0.7c0-0.1,0-0.3,0-0.4V278.6z"/>
	</g>
	<g>
		<path fill="#FFFFFF" d="M146.5,281.2v-3.6h-0.6v-0.8h0.6v-0.2c0-0.6,0.2-1.1,0.5-1.5c0.3-0.3,0.8-0.4,1.1-0.4
			c0.3,0,0.5,0.1,0.7,0.1l-0.1,0.9c-0.1,0-0.3-0.1-0.5-0.1c-0.5,0-0.7,0.5-0.7,1v0.2h1v0.8h-0.9v3.6H146.5z"/>
	</g>
	<g>
		<path fill="#FFFFFF" d="M149.6,278.3c0-0.6,0-1,0-1.4h1l0,0.8h0c0.2-0.6,0.7-0.9,1.2-0.9c0.1,0,0.2,0,0.3,0v1c-0.1,0-0.2,0-0.3,0
			c-0.5,0-0.9,0.3-1,0.8c0,0.1,0,0.2,0,0.3v2.3h-1.1V278.3z"/>
	</g>
	<g>
		<path fill="#FFFFFF" d="M154.3,275.6c0,0.3-0.2,0.6-0.6,0.6c-0.4,0-0.6-0.3-0.6-0.6c0-0.3,0.3-0.6,0.6-0.6
			C154.1,275,154.3,275.3,154.3,275.6z M153.1,281.2v-4.4h1.1v4.4H153.1z"/>
	</g>
	<g>
		<path fill="#FFFFFF" d="M156.6,279.3c0,0.8,0.6,1.1,1.4,1.1c0.5,0,0.9-0.1,1.2-0.2l0.2,0.8c-0.4,0.2-0.9,0.3-1.5,0.3
			c-1.4,0-2.3-0.9-2.3-2.2c0-1.2,0.7-2.4,2.1-2.4c1.4,0,1.9,1.2,1.9,2.1c0,0.2,0,0.4,0,0.5H156.6z M158.5,278.6
			c0-0.4-0.2-1.1-0.9-1.1c-0.7,0-1,0.6-1,1.1H158.5z"/>
	</g>
	<g>
		<path fill="#FFFFFF" d="M160.8,278.1c0-0.5,0-0.9,0-1.3h1l0.1,0.7h0c0.2-0.3,0.7-0.8,1.4-0.8c0.8,0,1.6,0.5,1.6,1.9v2.6h-1.1v-2.5
			c0-0.6-0.2-1.1-0.8-1.1c-0.4,0-0.7,0.3-0.9,0.6c0,0.1-0.1,0.2-0.1,0.4v2.6h-1.1V278.1z"/>
	</g>
	<g>
		<path fill="#FFFFFF" d="M170.3,274.8v5.2c0,0.5,0,0.9,0,1.2h-1l-0.1-0.7h0c-0.3,0.5-0.8,0.8-1.4,0.8c-1.1,0-1.9-0.9-1.9-2.2
			c0-1.5,0.9-2.3,2-2.3c0.6,0,1,0.2,1.2,0.6h0v-2.5H170.3z M169.2,278.7c0-0.1,0-0.2,0-0.3c-0.1-0.4-0.5-0.8-1-0.8
			c-0.7,0-1.1,0.6-1.1,1.4s0.4,1.4,1.1,1.4c0.5,0,0.8-0.3,1-0.8c0-0.1,0-0.2,0-0.3V278.7z"/>
	</g>
	<g>
		<path fill="#FFFFFF" d="M171.8,280.2c0.2,0.2,0.7,0.3,1.1,0.3c0.5,0,0.7-0.2,0.7-0.5c0-0.3-0.2-0.4-0.7-0.6
			c-0.9-0.3-1.2-0.8-1.2-1.3c0-0.8,0.6-1.4,1.7-1.4c0.5,0,0.9,0.1,1.2,0.3l-0.2,0.8c-0.2-0.1-0.5-0.3-0.9-0.3
			c-0.4,0-0.6,0.2-0.6,0.5c0,0.3,0.2,0.4,0.8,0.6c0.8,0.3,1.2,0.7,1.2,1.3c0,0.8-0.6,1.4-1.8,1.4c-0.5,0-1-0.1-1.3-0.3L171.8,280.2z
			"/>
	</g>
	<g>
		<path fill="#FFFFFF" d="M26.8,292v-3.6h-0.6v-0.8h0.6v-0.2c0-0.6,0.2-1.1,0.5-1.5c0.3-0.3,0.8-0.4,1.1-0.4c0.3,0,0.5,0.1,0.7,0.1
			l-0.1,0.9c-0.1,0-0.3-0.1-0.5-0.1c-0.5,0-0.7,0.5-0.7,1v0.2h1v0.8h-0.9v3.6H26.8z"/>
	</g>
	<g>
		<path fill="#FFFFFF" d="M29.9,289.1c0-0.6,0-1,0-1.4h1l0,0.8h0c0.2-0.6,0.7-0.9,1.2-0.9c0.1,0,0.2,0,0.3,0v1c-0.1,0-0.2,0-0.3,0
			c-0.5,0-0.9,0.3-1,0.8c0,0.1,0,0.2,0,0.3v2.3h-1.1V289.1z"/>
	</g>
	<g>
		<path fill="#FFFFFF" d="M37.5,289.8c0,1.6-1.1,2.3-2.2,2.3c-1.2,0-2.2-0.8-2.2-2.3c0-1.4,0.9-2.3,2.3-2.3
			C36.7,287.5,37.5,288.5,37.5,289.8z M34.2,289.8c0,0.8,0.4,1.5,1.1,1.5c0.6,0,1.1-0.6,1.1-1.5c0-0.7-0.3-1.5-1.1-1.5
			C34.6,288.3,34.2,289.1,34.2,289.8z"/>
	</g>
	<g>
		<path fill="#FFFFFF" d="M38.8,288.9c0-0.5,0-0.9,0-1.3h0.9l0.1,0.6h0c0.2-0.3,0.6-0.7,1.4-0.7c0.6,0,1,0.3,1.2,0.8h0
			c0.2-0.2,0.3-0.4,0.5-0.5c0.3-0.2,0.5-0.3,0.9-0.3c0.7,0,1.5,0.5,1.5,1.9v2.6h-1.1v-2.4c0-0.7-0.3-1.2-0.8-1.2
			c-0.4,0-0.7,0.3-0.8,0.6c0,0.1-0.1,0.2-0.1,0.4v2.6h-1.1v-2.5c0-0.6-0.2-1-0.8-1c-0.4,0-0.7,0.3-0.8,0.6c0,0.1-0.1,0.2-0.1,0.4
			v2.6h-1.1V288.9z"/>
	</g>
	<g>
		<path fill="#FFFFFF" d="M49,285.6h1.1v2.6h0c0.1-0.2,0.3-0.4,0.5-0.5c0.2-0.1,0.5-0.2,0.8-0.2c0.7,0,1.5,0.5,1.5,1.9v2.6h-1.1
			v-2.5c0-0.6-0.2-1.1-0.8-1.1c-0.4,0-0.7,0.3-0.9,0.6c0,0.1,0,0.2,0,0.3v2.6H49V285.6z"/>
	</g>
	<g>
		<path fill="#FFFFFF" d="M55.7,286.4c0,0.3-0.2,0.6-0.6,0.6c-0.4,0-0.6-0.3-0.6-0.6c0-0.3,0.3-0.6,0.6-0.6
			C55.5,285.8,55.7,286.1,55.7,286.4z M54.5,292v-4.4h1.1v4.4H54.5z"/>
	</g>
	<g>
		<path fill="#FFFFFF" d="M57.2,291c0.2,0.2,0.7,0.3,1.1,0.3c0.5,0,0.7-0.2,0.7-0.5c0-0.3-0.2-0.4-0.7-0.6c-0.9-0.3-1.2-0.8-1.2-1.3
			c0-0.8,0.6-1.4,1.7-1.4c0.5,0,0.9,0.1,1.2,0.3l-0.2,0.8c-0.2-0.1-0.5-0.3-0.9-0.3c-0.4,0-0.6,0.2-0.6,0.5c0,0.3,0.2,0.4,0.8,0.6
			c0.8,0.3,1.2,0.7,1.2,1.3c0,0.8-0.6,1.4-1.8,1.4c-0.5,0-1-0.1-1.3-0.3L57.2,291z"/>
	</g>
	<g>
		<path fill="#FFFFFF" d="M63.5,288.9c0-0.5,0-0.9,0-1.3h1l0.1,0.7h0c0.2-0.3,0.7-0.8,1.4-0.8c0.8,0,1.6,0.5,1.6,1.9v2.6h-1.1v-2.5
			c0-0.6-0.2-1.1-0.8-1.1c-0.4,0-0.7,0.3-0.9,0.6c0,0.1-0.1,0.2-0.1,0.4v2.6h-1.1V288.9z"/>
	</g>
	<g>
		<path fill="#FFFFFF" d="M69.8,290.1c0,0.8,0.6,1.1,1.4,1.1c0.5,0,0.9-0.1,1.2-0.2l0.2,0.8c-0.4,0.2-0.9,0.3-1.5,0.3
			c-1.4,0-2.3-0.9-2.3-2.2c0-1.2,0.7-2.4,2.1-2.4c1.4,0,1.9,1.2,1.9,2.1c0,0.2,0,0.4,0,0.5H69.8z M71.7,289.4c0-0.4-0.2-1.1-0.9-1.1
			c-0.7,0-1,0.6-1,1.1H71.7z"/>
	</g>
	<g>
		<path fill="#FFFFFF" d="M75.3,286.5v1.1h1.1v0.8h-1.1v1.9c0,0.5,0.1,0.8,0.6,0.8c0.2,0,0.3,0,0.4,0l0,0.8
			c-0.2,0.1-0.5,0.1-0.8,0.1c-0.4,0-0.7-0.1-1-0.4c-0.2-0.3-0.4-0.7-0.4-1.2v-2.1h-0.6v-0.8h0.6v-0.8L75.3,286.5z"/>
	</g>
	<g>
		<path fill="#FFFFFF" d="M78.3,287.6l0.5,2c0.1,0.5,0.2,0.9,0.3,1.4h0c0.1-0.5,0.2-1,0.4-1.4l0.6-2h0.9l0.5,1.9
			c0.1,0.5,0.3,1,0.4,1.5h0c0.1-0.5,0.2-1,0.3-1.5l0.5-1.9h1.1l-1.4,4.4h-1l-0.5-1.8c-0.1-0.5-0.2-0.9-0.3-1.4h0
			c-0.1,0.5-0.2,1-0.3,1.4l-0.6,1.8h-1l-1.3-4.4H78.3z"/>
	</g>
	<g>
		<path fill="#FFFFFF" d="M88.8,289.8c0,1.6-1.1,2.3-2.3,2.3c-1.2,0-2.2-0.8-2.2-2.3c0-1.4,0.9-2.3,2.3-2.3
			C87.9,287.5,88.8,288.5,88.8,289.8z M85.5,289.8c0,0.8,0.4,1.5,1.1,1.5c0.6,0,1.1-0.6,1.1-1.5c0-0.7-0.3-1.5-1.1-1.5
			C85.8,288.3,85.5,289.1,85.5,289.8z"/>
	</g>
	<g>
		<path fill="#FFFFFF" d="M90,289.1c0-0.6,0-1,0-1.4h1l0,0.8h0c0.2-0.6,0.7-0.9,1.2-0.9c0.1,0,0.2,0,0.3,0v1c-0.1,0-0.2,0-0.3,0
			c-0.5,0-0.9,0.3-1,0.8c0,0.1,0,0.2,0,0.3v2.3H90V289.1z"/>
	</g>
	<g>
		<path fill="#FFFFFF" d="M94.7,289.6L94.7,289.6c0.1-0.2,0.3-0.4,0.4-0.5l1.1-1.4h1.3l-1.6,1.8l1.9,2.6h-1.4l-1.3-1.9l-0.4,0.4v1.5
			h-1.1v-6.4h1.1V289.6z"/>
	</g>
	<g>
		<path fill="#FFFFFF" d="M102,286.5v1.1h1.1v0.8H102v1.9c0,0.5,0.1,0.8,0.6,0.8c0.2,0,0.3,0,0.4,0l0,0.8c-0.2,0.1-0.5,0.1-0.8,0.1
			c-0.4,0-0.7-0.1-1-0.4c-0.2-0.3-0.4-0.7-0.4-1.2v-2.1h-0.6v-0.8h0.6v-0.8L102,286.5z"/>
	</g>
	<g>
		<path fill="#FFFFFF" d="M104.3,285.6h1.1v2.6h0c0.1-0.2,0.3-0.4,0.5-0.5c0.2-0.1,0.5-0.2,0.8-0.2c0.7,0,1.5,0.5,1.5,1.9v2.6h-1.1
			v-2.5c0-0.6-0.2-1.1-0.8-1.1c-0.4,0-0.7,0.3-0.9,0.6c0,0.1,0,0.2,0,0.3v2.6h-1.1V285.6z"/>
	</g>
	<g>
		<path fill="#FFFFFF" d="M113.2,291c0,0.4,0,0.8,0.1,1.1h-1l-0.1-0.5h0c-0.3,0.3-0.7,0.6-1.3,0.6c-0.9,0-1.4-0.6-1.4-1.3
			c0-1.1,1-1.7,2.6-1.7v-0.1c0-0.3-0.1-0.8-0.9-0.8c-0.4,0-0.9,0.1-1.2,0.3l-0.2-0.7c0.3-0.2,0.9-0.4,1.6-0.4c1.4,0,1.8,0.9,1.8,1.9
			V291z M112.1,289.9c-0.8,0-1.5,0.2-1.5,0.8c0,0.4,0.3,0.6,0.6,0.6c0.5,0,0.8-0.3,0.9-0.6c0-0.1,0-0.2,0-0.2V289.9z"/>
	</g>
	<g>
		<path fill="#FFFFFF" d="M115.9,286.5v1.1h1.1v0.8h-1.1v1.9c0,0.5,0.1,0.8,0.6,0.8c0.2,0,0.3,0,0.4,0l0,0.8
			c-0.2,0.1-0.5,0.1-0.8,0.1c-0.4,0-0.7-0.1-1-0.4c-0.2-0.3-0.4-0.7-0.4-1.2v-2.1h-0.6v-0.8h0.6v-0.8L115.9,286.5z"/>
	</g>
	<g>
		<path fill="#FFFFFF" d="M120.4,285.6h1.1v2.6h0c0.1-0.2,0.3-0.4,0.5-0.5c0.2-0.1,0.5-0.2,0.8-0.2c0.7,0,1.5,0.5,1.5,1.9v2.6h-1.1
			v-2.5c0-0.6-0.2-1.1-0.8-1.1c-0.4,0-0.7,0.3-0.9,0.6c0,0.1,0,0.2,0,0.3v2.6h-1.1V285.6z"/>
	</g>
	<g>
		<path fill="#FFFFFF" d="M126.7,290.1c0,0.8,0.6,1.1,1.4,1.1c0.5,0,0.9-0.1,1.2-0.2l0.2,0.8c-0.4,0.2-0.9,0.3-1.5,0.3
			c-1.4,0-2.3-0.9-2.3-2.2c0-1.2,0.7-2.4,2.1-2.4c1.4,0,1.9,1.2,1.9,2.1c0,0.2,0,0.4,0,0.5H126.7z M128.6,289.4
			c0-0.4-0.2-1.1-0.9-1.1c-0.7,0-1,0.6-1,1.1H128.6z"/>
	</g>
	<g>
		<path fill="#FFFFFF" d="M134.3,289.6L134.3,289.6c0.1-0.2,0.3-0.4,0.4-0.5l1.1-1.4h1.3l-1.6,1.8l1.9,2.6h-1.4l-1.3-1.9l-0.4,0.4
			v1.5h-1.1v-6.4h1.1V289.6z"/>
	</g>
	<g>
		<path fill="#FFFFFF" d="M138.2,288.9c0-0.5,0-0.9,0-1.3h1l0.1,0.7h0c0.2-0.3,0.7-0.8,1.4-0.8c0.8,0,1.6,0.5,1.6,1.9v2.6h-1.1v-2.5
			c0-0.6-0.2-1.1-0.8-1.1c-0.4,0-0.7,0.3-0.9,0.6c0,0.1-0.1,0.2-0.1,0.4v2.6h-1.1V288.9z"/>
	</g>
	<g>
		<path fill="#FFFFFF" d="M147.9,289.8c0,1.6-1.1,2.3-2.2,2.3c-1.2,0-2.2-0.8-2.2-2.3c0-1.4,0.9-2.3,2.3-2.3
			C147,287.5,147.9,288.5,147.9,289.8z M144.6,289.8c0,0.8,0.4,1.5,1.1,1.5c0.6,0,1.1-0.6,1.1-1.5c0-0.7-0.3-1.5-1.1-1.5
			C144.9,288.3,144.6,289.1,144.6,289.8z"/>
	</g>
	<g>
		<path fill="#FFFFFF" d="M149.8,287.6l0.5,2c0.1,0.5,0.2,0.9,0.3,1.4h0c0.1-0.5,0.2-1,0.4-1.4l0.6-2h0.9l0.5,1.9
			c0.1,0.5,0.3,1,0.4,1.5h0c0.1-0.5,0.2-1,0.3-1.5l0.5-1.9h1.1l-1.4,4.4h-1l-0.5-1.8c-0.1-0.5-0.2-0.9-0.3-1.4h0
			c-0.1,0.5-0.2,1-0.3,1.4l-0.6,1.8h-1l-1.3-4.4H149.8z"/>
	</g>
	<g>
		<path fill="#FFFFFF" d="M156,291c0.2,0.2,0.7,0.3,1.1,0.3c0.5,0,0.7-0.2,0.7-0.5c0-0.3-0.2-0.4-0.7-0.6c-0.9-0.3-1.2-0.8-1.2-1.3
			c0-0.8,0.6-1.4,1.7-1.4c0.5,0,0.9,0.1,1.2,0.3l-0.2,0.8c-0.2-0.1-0.5-0.3-0.9-0.3c-0.4,0-0.6,0.2-0.6,0.5c0,0.3,0.2,0.4,0.8,0.6
			c0.8,0.3,1.2,0.7,1.2,1.3c0,0.8-0.6,1.4-1.8,1.4c-0.5,0-1-0.1-1.3-0.3L156,291z"/>
	</g>
	<g>
		<path fill="#FFFFFF" d="M163.1,287.6l0.5,2c0.1,0.5,0.2,0.9,0.3,1.4h0c0.1-0.5,0.2-1,0.4-1.4l0.6-2h0.9l0.5,1.9
			c0.1,0.5,0.3,1,0.4,1.5h0c0.1-0.5,0.2-1,0.3-1.5l0.5-1.9h1.1l-1.4,4.4h-1l-0.5-1.8c-0.1-0.5-0.2-0.9-0.3-1.4h0
			c-0.1,0.5-0.2,1-0.3,1.4l-0.6,1.8h-1l-1.3-4.4H163.1z"/>
	</g>
	<g>
		<path fill="#FFFFFF" d="M170.7,286.4c0,0.3-0.2,0.6-0.6,0.6c-0.4,0-0.6-0.3-0.6-0.6c0-0.3,0.3-0.6,0.6-0.6
			C170.5,285.8,170.7,286.1,170.7,286.4z M169.5,292v-4.4h1.1v4.4H169.5z"/>
	</g>
	<g>
		<path fill="#FFFFFF" d="M172.2,285.6h1.1v6.4h-1.1V285.6z"/>
	</g>
	<g>
		<path fill="#FFFFFF" d="M174.9,285.6h1.1v6.4h-1.1V285.6z"/>
	</g>
	<g>
		<path fill="#FFFFFF" d="M27.4,300.9c0,0.8,0.6,1.1,1.4,1.1c0.5,0,0.9-0.1,1.2-0.2l0.2,0.8c-0.4,0.2-0.9,0.3-1.5,0.3
			c-1.4,0-2.3-0.9-2.3-2.2c0-1.2,0.7-2.4,2.1-2.4c1.4,0,1.9,1.2,1.9,2.1c0,0.2,0,0.4,0,0.5H27.4z M29.4,300.2c0-0.4-0.2-1.1-0.9-1.1
			c-0.7,0-1,0.6-1,1.1H29.4z"/>
	</g>
	<g>
		<path fill="#FFFFFF" d="M31.7,299.7c0-0.5,0-0.9,0-1.3h1l0.1,0.7h0c0.2-0.3,0.7-0.8,1.4-0.8c0.8,0,1.6,0.5,1.6,1.9v2.6h-1.1v-2.5
			c0-0.6-0.2-1.1-0.8-1.1c-0.4,0-0.7,0.3-0.9,0.6c0,0.1-0.1,0.2-0.1,0.4v2.6h-1.1V299.7z"/>
	</g>
	<g>
		<path fill="#FFFFFF" d="M36.2,303.9c0.4,0,0.6-0.1,0.8-0.3c0.2-0.2,0.3-0.6,0.3-1.5v-3.6h1.1v3.9c0,0.9-0.2,1.5-0.6,1.9
			c-0.4,0.4-1,0.5-1.5,0.5L36.2,303.9z M38.5,297.2c0,0.3-0.2,0.6-0.6,0.6c-0.4,0-0.6-0.3-0.6-0.6c0-0.3,0.3-0.6,0.6-0.6
			C38.3,296.6,38.5,296.9,38.5,297.2z"/>
	</g>
	<g>
		<path fill="#FFFFFF" d="M44.1,300.6c0,1.6-1.1,2.3-2.3,2.3c-1.2,0-2.2-0.8-2.2-2.3c0-1.4,0.9-2.3,2.3-2.3
			C43.3,298.3,44.1,299.3,44.1,300.6z M40.8,300.6c0,0.8,0.4,1.5,1.1,1.5c0.6,0,1.1-0.6,1.1-1.5c0-0.7-0.3-1.5-1.1-1.5
			C41.1,299.1,40.8,299.9,40.8,300.6z"/>
	</g>
	<g>
		<path fill="#FFFFFF" d="M46,298.4l0.8,2.4c0.1,0.3,0.2,0.6,0.3,0.8h0c0.1-0.2,0.1-0.6,0.2-0.9l0.7-2.3h1.2l-1.1,3
			c-0.6,1.6-1,2.4-1.5,2.8c-0.4,0.4-0.9,0.5-1.2,0.6l-0.3-0.9c0.2,0,0.4-0.1,0.6-0.3c0.2-0.1,0.5-0.4,0.6-0.7c0-0.1,0.1-0.1,0.1-0.2
			c0,0,0-0.1-0.1-0.2l-1.6-4H46z"/>
	</g>
	<g>
		<path fill="#FFFFFF" d="M53.7,297.3v1.1h1.1v0.8h-1.1v1.9c0,0.5,0.1,0.8,0.6,0.8c0.2,0,0.3,0,0.4,0l0,0.8
			c-0.2,0.1-0.5,0.1-0.8,0.1c-0.4,0-0.7-0.1-1-0.4c-0.2-0.3-0.4-0.7-0.4-1.2v-2.1H52v-0.8h0.6v-0.8L53.7,297.3z"/>
	</g>
	<g>
		<path fill="#FFFFFF" d="M55.9,296.4H57v2.6h0c0.1-0.2,0.3-0.4,0.5-0.5c0.2-0.1,0.5-0.2,0.8-0.2c0.7,0,1.5,0.5,1.5,1.9v2.6h-1.1
			v-2.5c0-0.6-0.2-1.1-0.8-1.1c-0.4,0-0.7,0.3-0.9,0.6c0,0.1,0,0.2,0,0.3v2.6h-1.1V296.4z"/>
	</g>
	<g>
		<path fill="#FFFFFF" d="M62.2,300.9c0,0.8,0.6,1.1,1.4,1.1c0.5,0,0.9-0.1,1.2-0.2l0.2,0.8c-0.4,0.2-0.9,0.3-1.5,0.3
			c-1.4,0-2.3-0.9-2.3-2.2c0-1.2,0.7-2.4,2.1-2.4c1.4,0,1.9,1.2,1.9,2.1c0,0.2,0,0.4,0,0.5H62.2z M64.1,300.2c0-0.4-0.2-1.1-0.9-1.1
			c-0.7,0-1,0.6-1,1.1H64.1z"/>
	</g>
	<g>
		<path fill="#FFFFFF" d="M68.6,301.8c0.2,0.2,0.7,0.3,1.1,0.3c0.5,0,0.7-0.2,0.7-0.5c0-0.3-0.2-0.4-0.7-0.6
			c-0.9-0.3-1.2-0.8-1.2-1.3c0-0.8,0.6-1.4,1.7-1.4c0.5,0,0.9,0.1,1.2,0.3l-0.2,0.8c-0.2-0.1-0.5-0.3-0.9-0.3
			c-0.4,0-0.6,0.2-0.6,0.5c0,0.3,0.2,0.4,0.8,0.6c0.8,0.3,1.2,0.7,1.2,1.3c0,0.8-0.6,1.4-1.8,1.4c-0.5,0-1-0.1-1.3-0.3L68.6,301.8z"
			/>
	</g>
	<g>
		<path fill="#FFFFFF" d="M72.8,296.4h1.1v6.4h-1.1V296.4z"/>
	</g>
	<g>
		<path fill="#FFFFFF" d="M79.6,300.6c0,1.6-1.1,2.3-2.2,2.3c-1.2,0-2.2-0.8-2.2-2.3c0-1.4,0.9-2.3,2.3-2.3
			C78.7,298.3,79.6,299.3,79.6,300.6z M76.3,300.6c0,0.8,0.4,1.5,1.1,1.5c0.6,0,1.1-0.6,1.1-1.5c0-0.7-0.3-1.5-1.1-1.5
			C76.6,299.1,76.3,299.9,76.3,300.6z"/>
	</g>
	<g>
		<path fill="#FFFFFF" d="M80.9,299.9c0-0.6,0-1,0-1.5h1l0.1,0.7h0c0.3-0.5,0.8-0.8,1.5-0.8c1,0,1.8,0.9,1.8,2.2c0,1.6-1,2.3-2,2.3
			c-0.5,0-1-0.2-1.2-0.6h0v2.3h-1.1V299.9z M82,301c0,0.1,0,0.2,0,0.3c0.1,0.5,0.5,0.8,1,0.8c0.7,0,1.1-0.6,1.1-1.5
			c0-0.8-0.4-1.4-1.1-1.4c-0.5,0-0.9,0.3-1,0.8c0,0.1,0,0.2,0,0.3V301z"/>
	</g>
	<g>
		<path fill="#FFFFFF" d="M87.3,300.9c0,0.8,0.6,1.1,1.4,1.1c0.5,0,0.9-0.1,1.2-0.2l0.2,0.8c-0.4,0.2-0.9,0.3-1.5,0.3
			c-1.4,0-2.3-0.9-2.3-2.2c0-1.2,0.7-2.4,2.1-2.4c1.4,0,1.9,1.2,1.9,2.1c0,0.2,0,0.4,0,0.5H87.3z M89.2,300.2c0-0.4-0.2-1.1-0.9-1.1
			c-0.7,0-1,0.6-1,1.1H89.2z"/>
	</g>
	<g>
		<path fill="#FFFFFF" d="M91.5,301.8c0.2,0.2,0.7,0.3,1.1,0.3c0.5,0,0.7-0.2,0.7-0.5c0-0.3-0.2-0.4-0.7-0.6
			c-0.9-0.3-1.2-0.8-1.2-1.3c0-0.8,0.6-1.4,1.7-1.4c0.5,0,0.9,0.1,1.2,0.3l-0.2,0.8c-0.2-0.1-0.5-0.3-0.9-0.3
			c-0.4,0-0.6,0.2-0.6,0.5c0,0.3,0.2,0.4,0.8,0.6c0.8,0.3,1.2,0.7,1.2,1.3c0,0.8-0.6,1.4-1.8,1.4c-0.5,0-1-0.1-1.3-0.3L91.5,301.8z"
			/>
	</g>
	<g>
		<path fill="#FFFFFF" d="M101.3,301.8c0,0.4,0,0.8,0.1,1.1h-1l-0.1-0.5h0c-0.3,0.3-0.7,0.6-1.3,0.6c-0.9,0-1.4-0.6-1.4-1.3
			c0-1.1,1-1.7,2.6-1.7v-0.1c0-0.3-0.1-0.8-0.9-0.8c-0.4,0-0.9,0.1-1.2,0.3l-0.2-0.7c0.3-0.2,0.9-0.4,1.6-0.4c1.4,0,1.8,0.9,1.8,1.9
			V301.8z M100.2,300.7c-0.8,0-1.5,0.2-1.5,0.8c0,0.4,0.3,0.6,0.6,0.6c0.5,0,0.8-0.3,0.9-0.6c0-0.1,0-0.2,0-0.2V300.7z"/>
	</g>
	<g>
		<path fill="#FFFFFF" d="M102.7,301.8c0.2,0.2,0.7,0.3,1.1,0.3c0.5,0,0.7-0.2,0.7-0.5c0-0.3-0.2-0.4-0.7-0.6
			c-0.9-0.3-1.2-0.8-1.2-1.3c0-0.8,0.6-1.4,1.7-1.4c0.5,0,0.9,0.1,1.2,0.3l-0.2,0.8c-0.2-0.1-0.5-0.3-0.9-0.3
			c-0.4,0-0.6,0.2-0.6,0.5c0,0.3,0.2,0.4,0.8,0.6c0.8,0.3,1.2,0.7,1.2,1.3c0,0.8-0.6,1.4-1.8,1.4c-0.5,0-1-0.1-1.3-0.3L102.7,301.8z
			"/>
	</g>
	<g>
		<path fill="#FFFFFF" d="M109.1,299.7c0-0.5,0-0.9,0-1.3h0.9l0.1,0.6h0c0.2-0.3,0.6-0.7,1.4-0.7c0.6,0,1,0.3,1.2,0.8h0
			c0.2-0.2,0.3-0.4,0.5-0.5c0.3-0.2,0.5-0.3,0.9-0.3c0.7,0,1.5,0.5,1.5,1.9v2.6h-1.1v-2.4c0-0.7-0.3-1.2-0.8-1.2
			c-0.4,0-0.7,0.3-0.8,0.6c0,0.1-0.1,0.2-0.1,0.4v2.6h-1.1v-2.5c0-0.6-0.2-1-0.8-1c-0.4,0-0.7,0.3-0.8,0.6c0,0.1-0.1,0.2-0.1,0.4
			v2.6h-1.1V299.7z"/>
	</g>
	<g>
		<path fill="#FFFFFF" d="M121,301.5c0,0.5,0,1,0,1.3h-1l-0.1-0.7h0c-0.2,0.3-0.6,0.8-1.4,0.8s-1.5-0.5-1.5-1.9v-2.6h1.1v2.4
			c0,0.7,0.2,1.2,0.8,1.2c0.5,0,0.7-0.3,0.8-0.6c0-0.1,0.1-0.2,0.1-0.3v-2.6h1.1V301.5z"/>
	</g>
	<g>
		<path fill="#FFFFFF" d="M125.8,302.7c-0.2,0.1-0.7,0.2-1.2,0.2c-1.4,0-2.3-0.9-2.3-2.2c0-1.3,0.9-2.3,2.4-2.3
			c0.4,0,0.8,0.1,1.1,0.2l-0.2,0.8c-0.2-0.1-0.4-0.2-0.8-0.2c-0.8,0-1.4,0.6-1.3,1.4c0,0.9,0.6,1.4,1.3,1.4c0.4,0,0.7-0.1,0.9-0.2
			L125.8,302.7z"/>
	</g>
	<g>
		<path fill="#FFFFFF" d="M127,296.4h1.1v2.6h0c0.1-0.2,0.3-0.4,0.5-0.5c0.2-0.1,0.5-0.2,0.8-0.2c0.7,0,1.5,0.5,1.5,1.9v2.6h-1.1
			v-2.5c0-0.6-0.2-1.1-0.8-1.1c-0.4,0-0.7,0.3-0.9,0.6c0,0.1,0,0.2,0,0.3v2.6H127V296.4z"/>
	</g>
	<g>
		<path fill="#FFFFFF" d="M138.1,301.8c0,0.4,0,0.8,0.1,1.1h-1l-0.1-0.5h0c-0.3,0.3-0.7,0.6-1.3,0.6c-0.9,0-1.4-0.6-1.4-1.3
			c0-1.1,1-1.7,2.6-1.7v-0.1c0-0.3-0.1-0.8-0.9-0.8c-0.4,0-0.9,0.1-1.2,0.3l-0.2-0.7c0.3-0.2,0.9-0.4,1.6-0.4c1.4,0,1.8,0.9,1.8,1.9
			V301.8z M137,300.7c-0.8,0-1.5,0.2-1.5,0.8c0,0.4,0.3,0.6,0.6,0.6c0.5,0,0.8-0.3,0.9-0.6c0-0.1,0-0.2,0-0.2V300.7z"/>
	</g>
	<g>
		<path fill="#FFFFFF" d="M139.6,301.8c0.2,0.2,0.7,0.3,1.1,0.3c0.5,0,0.7-0.2,0.7-0.5c0-0.3-0.2-0.4-0.7-0.6
			c-0.9-0.3-1.2-0.8-1.2-1.3c0-0.8,0.6-1.4,1.7-1.4c0.5,0,0.9,0.1,1.2,0.3l-0.2,0.8c-0.2-0.1-0.5-0.3-0.9-0.3
			c-0.4,0-0.6,0.2-0.6,0.5c0,0.3,0.2,0.4,0.8,0.6c0.8,0.3,1.2,0.7,1.2,1.3c0,0.8-0.6,1.4-1.8,1.4c-0.5,0-1-0.1-1.3-0.3L139.6,301.8z
			"/>
	</g>
	<g>
		<path fill="#FFFFFF" d="M146,296.4h1.1v2.6h0c0.1-0.2,0.3-0.4,0.5-0.5c0.2-0.1,0.5-0.2,0.8-0.2c0.7,0,1.5,0.5,1.5,1.9v2.6h-1.1
			v-2.5c0-0.6-0.2-1.1-0.8-1.1c-0.4,0-0.7,0.3-0.9,0.6c0,0.1,0,0.2,0,0.3v2.6H146V296.4z"/>
	</g>
	<g>
		<path fill="#FFFFFF" d="M152.3,300.9c0,0.8,0.6,1.1,1.4,1.1c0.5,0,0.9-0.1,1.2-0.2l0.2,0.8c-0.4,0.2-0.9,0.3-1.5,0.3
			c-1.4,0-2.3-0.9-2.3-2.2c0-1.2,0.7-2.4,2.1-2.4c1.4,0,1.9,1.2,1.9,2.1c0,0.2,0,0.4,0,0.5H152.3z M154.2,300.2
			c0-0.4-0.2-1.1-0.9-1.1c-0.7,0-1,0.6-1,1.1H154.2z"/>
	</g>
	<g>
		<path fill="#FFFFFF" d="M162.8,296.4v5.2c0,0.5,0,0.9,0,1.2h-1l-0.1-0.7h0c-0.3,0.5-0.8,0.8-1.4,0.8c-1.1,0-1.9-0.9-1.9-2.2
			c0-1.5,0.9-2.3,2-2.3c0.6,0,1,0.2,1.2,0.6h0v-2.5H162.8z M161.7,300.3c0-0.1,0-0.2,0-0.3c-0.1-0.4-0.5-0.8-1-0.8
			c-0.7,0-1.1,0.6-1.1,1.4s0.4,1.4,1.1,1.4c0.5,0,0.8-0.3,1-0.8c0-0.1,0-0.2,0-0.3V300.3z"/>
	</g>
	<g>
		<path fill="#FFFFFF" d="M168.5,300.6c0,1.6-1.1,2.3-2.3,2.3c-1.2,0-2.2-0.8-2.2-2.3c0-1.4,0.9-2.3,2.3-2.3
			C167.6,298.3,168.5,299.3,168.5,300.6z M165.2,300.6c0,0.8,0.4,1.5,1.1,1.5c0.6,0,1.1-0.6,1.1-1.5c0-0.7-0.3-1.5-1.1-1.5
			C165.5,299.1,165.2,299.9,165.2,300.6z"/>
	</g>
	<g>
		<path fill="#FFFFFF" d="M170.5,300.9c0,0.8,0.6,1.1,1.4,1.1c0.5,0,0.9-0.1,1.2-0.2l0.2,0.8c-0.4,0.2-0.9,0.3-1.5,0.3
			c-1.4,0-2.3-0.9-2.3-2.2c0-1.2,0.7-2.4,2.1-2.4c1.4,0,1.9,1.2,1.9,2.1c0,0.2,0,0.4,0,0.5H170.5z M172.5,300.2
			c0-0.4-0.2-1.1-0.9-1.1c-0.7,0-1,0.6-1,1.1H172.5z"/>
	</g>
	<g>
		<path fill="#FFFFFF" d="M174.7,301.8c0.2,0.2,0.7,0.3,1.1,0.3c0.5,0,0.7-0.2,0.7-0.5c0-0.3-0.2-0.4-0.7-0.6
			c-0.9-0.3-1.2-0.8-1.2-1.3c0-0.8,0.6-1.4,1.7-1.4c0.5,0,0.9,0.1,1.2,0.3l-0.2,0.8c-0.2-0.1-0.5-0.3-0.9-0.3
			c-0.4,0-0.6,0.2-0.6,0.5c0,0.3,0.2,0.4,0.8,0.6c0.8,0.3,1.2,0.7,1.2,1.3c0,0.8-0.6,1.4-1.8,1.4c-0.5,0-1-0.1-1.3-0.3L174.7,301.8z
			"/>
	</g>
	<g>
		<path fill="#FFFFFF" d="M178.6,302.2c0-0.4,0.3-0.7,0.7-0.7c0.4,0,0.7,0.3,0.7,0.7c0,0.4-0.3,0.7-0.7,0.7
			C178.9,302.9,178.6,302.6,178.6,302.2z"/>
	</g>
</g>
</svg>
