<?xml version="1.0" encoding="utf-8"?>
<!-- Generator: Adobe Illustrator 18.1.1, SVG Export Plug-In . SVG Version: 6.00 Build 0)  -->
<!DOCTYPE svg PUBLIC "-//W3C//DTD SVG 1.1//EN" "http://www.w3.org/Graphics/SVG/1.1/DTD/svg11.dtd">
<svg version="1.1" id="Layer_1" xmlns="http://www.w3.org/2000/svg" xmlns:xlink="http://www.w3.org/1999/xlink" x="0px" y="0px"
	 width="216px" height="34.6px" viewBox="0 0 216 34.6" enable-background="new 0 0 216 34.6" xml:space="preserve">
<g>
	<path fill="#FFFFFF" d="M24.1,27.5h-0.3c-2.3,2.9-5.6,4.3-9.8,4.3c-3.2,0-5.9-0.9-8.2-2.8s-3.3-4.1-3.3-6.8V8.1h4v14.2
		c0,1.8,0.7,3.3,2.2,4.5s3.3,1.9,5.4,1.9c1.7,0,3.1-0.4,4.4-1.2c-3.2,0.1-5-1-5.4-3.2h11V27.5z"/>
	<path fill="#FFFFFF" d="M29.1,23.2c0,1.2-0.5,2.2-1.6,3c-1,0.8-2.3,1.3-3.7,1.3h-0.3v-3.2h0.3c0.8,0,1.2-0.4,1.2-1.1V8.1h4V23.2z
		 M28.4,30.8c0,0.5-0.2,0.9-0.6,1.2c-0.4,0.3-0.9,0.5-1.4,0.5c-0.5,0-1-0.2-1.4-0.5c-0.4-0.3-0.6-0.7-0.6-1.2s0.2-0.9,0.6-1.2
		c0.4-0.3,0.8-0.5,1.4-0.5c0.6,0,1,0.2,1.4,0.5C28.2,30,28.4,30.4,28.4,30.8z"/>
	<path fill="#FFFFFF" d="M37.2,28c0,2.6-1.1,4.8-3.4,6.6l-3-2.2c1.6-1.3,2.4-2.9,2.4-5.1V8.1h4V28z"/>
	<path fill="#FFFFFF" d="M70.4,27.5h-0.3c-1.4,0-2.4-0.2-3.1-0.6c-2.3,3.3-5.6,5-9.9,5c-3.2,0-6-0.9-8.2-2.8
		c-2.3-1.9-3.4-4.2-3.4-6.9V8.1h4v14.2c0,1.8,0.7,3.3,2.2,4.5c1.5,1.2,3.3,1.8,5.4,1.8c2.3,0,4.1-0.7,5.5-2c1.4-1.3,2.1-2.9,2.1-4.8
		V2.2h4v20.3c0,1.2,0.4,1.8,1.2,1.8h0.4V27.5z"/>
	<path fill="#FFFFFF" d="M96,27.5h-0.3c-1.2,0-2.3-0.3-3.2-1c-1,0.7-2.1,1-3.4,1H75.2c-0.8,0-1.4-0.2-2-0.6c-0.5,0.4-1,0.6-1.5,0.6
		h-1.9v-3.2h0.3c0.8,0,1.2-0.4,1.2-1.3V8.1h4v7.8c2.7-5.2,5.8-7.8,9.3-7.8c3.2,0,5.7,1,7.5,2.9c1.6,1.7,2.4,4,2.4,6.7v5.6
		c0,0.7,0.4,1.1,1.3,1.1H96V27.5z M90.4,22.9v-5.3c0-1.8-0.5-3.2-1.4-4.4c-1.1-1.3-2.7-2-4.7-2c-1.6,0-3.4,1.5-5.4,4.5
		c-1.3,1.9-2.4,4-3.5,6.4c-0.1,0.3-0.2,0.6-0.2,0.9c0,0.8,0.5,1.2,1.4,1.2h12.3C89.9,24.3,90.4,23.8,90.4,22.9z M86.6,5.1
		c0,0.4-0.2,0.8-0.6,1.1c-0.4,0.3-0.8,0.5-1.3,0.5c-0.5,0-0.9-0.2-1.3-0.5c-0.4-0.3-0.6-0.7-0.6-1.1c0-0.4,0.2-0.8,0.5-1.1
		c0.4-0.3,0.8-0.5,1.3-0.5c0.5,0,1,0.2,1.3,0.5C86.4,4.3,86.6,4.7,86.6,5.1z"/>
	<path fill="#FFFFFF" d="M120.7,17.7c0,2.6-1,4.8-3,6.7c-2.2,2.1-5.1,3.1-8.7,3.1H95.5v-3.2h4.7c-2-1.8-3-4-3-6.5
		c0-2.7,1.1-5,3.4-6.9c2.3-1.9,5-2.8,8.3-2.8c3.3,0,6,0.9,8.3,2.8C119.5,12.7,120.7,15,120.7,17.7z M116.7,17.7
		c0-1.8-0.8-3.3-2.3-4.6c-1.5-1.3-3.3-1.9-5.5-1.9s-4,0.6-5.5,1.9c-1.5,1.3-2.3,2.8-2.3,4.6c0,1.9,0.7,3.4,2.2,4.7s3.4,1.9,5.6,1.9
		c2.2,0,4-0.6,5.6-1.9C116,21.1,116.7,19.6,116.7,17.7z M110.8,5c0,1.1-0.7,1.7-2.1,1.7c-0.6,0-1-0.2-1.4-0.5
		c-0.4-0.3-0.6-0.7-0.6-1.2s0.2-0.9,0.6-1.2c0.4-0.3,0.9-0.5,1.4-0.5c0.6,0,1.1,0.2,1.5,0.5C110.6,4.1,110.8,4.5,110.8,5z"/>
	<path fill="#FFFFFF" d="M153.9,27.5h-0.3c-1.4,0-2.4-0.2-3.1-0.6c-2.3,3.3-5.6,5-9.9,5c-3.2,0-6-0.9-8.2-2.8
		c-2.3-1.9-3.4-4.2-3.4-6.9V8.1h4v14.2c0,1.8,0.7,3.3,2.2,4.5c1.5,1.2,3.3,1.8,5.4,1.8c2.3,0,4.1-0.7,5.5-2c1.4-1.3,2.1-2.9,2.1-4.8
		V8.1h4v14.5c0,1.2,0.4,1.8,1.2,1.8h0.4V27.5z M142.7,5.1c0,0.4-0.2,0.8-0.6,1.1c-0.4,0.3-0.8,0.5-1.3,0.5c-0.5,0-0.9-0.2-1.3-0.5
		c-0.4-0.3-0.6-0.7-0.6-1.1c0-0.4,0.2-0.8,0.5-1.1c0.4-0.3,0.8-0.5,1.3-0.5s1,0.2,1.3,0.5C142.5,4.3,142.7,4.7,142.7,5.1z"/>
	<path fill="#FFFFFF" d="M165.4,23.2c0,2.9-1.3,4.3-4,4.3h-2.5v-3.2c0,0.9-0.4,1.7-1.2,2.3c-0.8,0.6-1.7,0.9-2.9,0.9h-1.6v-3.2h0.6
		c0.7,0,1-0.3,1-1V12.4c0-1.2,0.5-2.3,1.5-3.1c1-0.8,2.2-1.3,3.7-1.3c1.4,0,2.7,0.4,3.7,1.2c1.1,0.8,1.6,1.8,1.6,3V23.2z
		 M161.4,23.2V12.8c0-0.8-0.4-1.2-1.3-1.2c-0.8,0-1.2,0.4-1.2,1.2v11.5c0.5,0,0.9,0,1.4,0C161,24.2,161.4,23.8,161.4,23.2z"/>
	<path fill="#FFFFFF" d="M177.7,27.5h-4V2.2h4V27.5z"/>
	<path fill="#FFFFFF" d="M184,5.1c0,0.4-0.2,0.8-0.6,1.1c-0.4,0.3-0.8,0.5-1.3,0.5c-0.5,0-0.9-0.2-1.3-0.5c-0.4-0.3-0.6-0.7-0.6-1.1
		c0-0.4,0.2-0.8,0.5-1.1c0.4-0.3,0.8-0.5,1.3-0.5s1,0.2,1.3,0.5C183.8,4.3,184,4.7,184,5.1z M193.2,27.5h-0.3c-1.2,0-2.3-0.3-3.2-1
		c-1,0.7-2,1-3.2,1h-6.3v-3.2h6c0.9,0,1.4-0.4,1.4-1.2v-5.3c0-1.8-0.7-3.3-2.1-4.6c-1.4-1.3-3.2-1.9-5.3-1.9V8.1
		c3.2,0,5.9,1,8.1,2.9c2.2,1.9,3.2,4.2,3.2,6.9v5.4c0,0.7,0.4,1.1,1.3,1.1h0.3V27.5z"/>
	<path fill="#FFFFFF" d="M215,17.8c0,2.4-0.9,4.6-2.6,6.5c-1.9,2.2-4.3,3.2-7,3.2h-7.1c-1.1,0-2.1-0.2-3-0.6
		c-0.9,0.4-1.6,0.6-2.3,0.6h-0.3v-3.2h0.3c0.8,0,1.3-0.4,1.3-1.2v-7.5c0-1.1,0.5-2.1,1.6-3s2.3-1.2,3.6-1.2c1.5,0,2.7,0.4,3.8,1.2
		c1.1,0.8,1.6,1.8,1.6,3v6.9c0,1.2,0.3,1.8,0.9,1.8c1.8,0,3.1-0.8,4.1-2.3c0.8-1.3,1.3-2.7,1.3-4.3c0-1.8-0.7-3.3-2.2-4.5
		c-1.5-1.2-3.3-1.8-5.5-1.8h-7.9V8.1h7.9c3.3,0,6.1,0.9,8.3,2.8C213.8,12.7,215,15,215,17.8z M200.7,23.2V16c0-0.7-0.4-1.1-1.2-1.1
		c-0.8,0-1.3,0.4-1.3,1.1v7.2c0,0.7,0.4,1.1,1.2,1.1C200.3,24.3,200.7,23.9,200.7,23.2z"/>
</g>
</svg>
