<?xml version="1.0" encoding="utf-8"?>
<!-- Generator: Adobe Illustrator 18.1.1, SVG Export Plug-In . SVG Version: 6.00 Build 0)  -->
<!DOCTYPE svg PUBLIC "-//W3C//DTD SVG 1.1//EN" "http://www.w3.org/Graphics/SVG/1.1/DTD/svg11.dtd">
<svg version="1.1" id="Layer_1" xmlns="http://www.w3.org/2000/svg" xmlns:xlink="http://www.w3.org/1999/xlink" x="0px" y="0px"
	 width="25px" height="25px" viewBox="-161.5 60.5 25 25" enable-background="new -161.5 60.5 25 25" xml:space="preserve">
<g id="UMrDu4.tif">
	<g>
		<path fill="#FFFFFF" d="M-148.9,60.7c3.1,0,6.2,0.1,9.4-0.1c1.8-0.1,3.1,1.3,3,3c-0.1,6.2,0,12.5,0,18.8c0,1.9-1.2,3.1-3.2,3.1
			c-6.2,0-12.5,0-18.6,0c-1.9,0-3-1.2-3-3c-0.1-6.3-0.1-12.6-0.1-18.8c0-1.6,0.8-2.6,2.1-2.9c0.3-0.1,0.7-0.1,1.1-0.1
			C-155.1,60.7-152,60.7-148.9,60.7z M-156.4,71.3c-0.7,0-1.3,0-2.1,0c0,0.2-0.1,0.4-0.1,0.6c0,3.2,0,6.5,0,9.6
			c0,0.9,0.3,1.2,1.3,1.2c5.5,0,11.1,0,16.6,0c0.9,0,1.3-0.3,1.3-1.3c0-3.2,0-6.5,0-9.6c0-0.2-0.1-0.3-0.1-0.6c-0.7,0-1.3,0-2,0
			c0.4,2.3,0.2,4.5-1.3,6.5c-1.4,1.9-3.4,3-5.8,3.1c-2.2,0.1-4-0.5-5.7-2.1C-156.3,76.7-156.9,74.2-156.4,71.3z M-144.1,73.3
			c0.2-2.3-1.9-4.7-4.2-4.9c-2.9-0.2-5.2,1.7-5.4,4.6c-0.2,2.7,2,4.7,4.3,4.9C-146.2,78.2-144.1,75.5-144.1,73.3z M-139.4,65.9
			L-139.4,65.9c0-0.4,0-0.9,0-1.3c0-0.6-0.4-1-1-1c-0.9,0-1.8,0-2.7,0c-0.6,0-1.1,0.4-1.1,1c-0.1,0.9-0.1,1.8,0,2.8c0,0.6,0.4,1,1,1
			c0.9,0.1,1.8,0.1,2.8,0c0.6,0,0.9-0.4,0.9-1C-139.3,66.8-139.4,66.4-139.4,65.9z"/>
	</g>
</g>
</svg>
