<?xml version="1.0" encoding="utf-8"?>
<!-- Generator: Adobe Illustrator 18.1.1, SVG Export Plug-In . SVG Version: 6.00 Build 0)  -->
<!DOCTYPE svg PUBLIC "-//W3C//DTD SVG 1.1//EN" "http://www.w3.org/Graphics/SVG/1.1/DTD/svg11.dtd">
<svg version="1.1" id="Layer_1" xmlns="http://www.w3.org/2000/svg" xmlns:xlink="http://www.w3.org/1999/xlink" x="0px" y="0px"
	 width="156px" height="144px" viewBox="-101 0 156 144" enable-background="new -101 0 156 144" xml:space="preserve">
<path opacity="0.5" fill="#FFFFFF" d="M45.1,81.7c0,36.6-33.1,57.5-69.7,57.5S-90.9,109.6-90.9,73S-61.2,6.7-24.6,6.7
	S45.1,32,45.1,81.7z"/>
<g>
	<path fill="#E3A24A" d="M-19.4,137.4c7.9,0.3,19.4-1.1,28.2-5.4c7.2-3.7,12.5-7.7,16.4-12.1s6.5-8.2,8.2-10.9
		c0.9-1.3,1.4-2.4,1.9-3.2c0.4-0.7,0.6-1.2,0.6-1.2l0.3,0.1c0,0-0.1,0.4-0.6,1.2c-0.3,0.7-0.9,1.9-1.6,3.3
		c-1.6,2.7-3.9,6.9-7.6,11.5S18.3,129,11,133.3c-8.7,5.1-18,7.2-30.1,7.1c-6.7,0.1-23.2-0.9-33-5.5c-5.6-2-11.2-4.8-16.4-8.5
		c-2.6-1.9-5-3.9-7.3-6.2c-2.3-2.3-4.3-4.9-6.2-7.5c-7.6-10.8-11.2-24.5-11.1-38c0-3.5,0.1-6.8,0.7-10.2c0.4-3.5,1-6.8,2-10.1
		c0.9-3.3,2-6.6,3.5-9.6c1.4-3.2,3-6.2,4.9-9.1c7.5-11.5,18.7-20.4,31.2-25.2C-38.4,5.6-24.7,4.6-12,6.2c3.2,0.4,6.3,1,9.4,1.7
		s6,1.7,8.9,3c5.8,2.3,11.1,5.6,15.7,9.4c2.3,1.9,4.5,3.9,6.3,6c1.9,2.2,3.7,4.5,5.3,6.8c3.2,4.6,5.6,9.5,7.5,14.3
		c1.9,4.9,3.2,9.6,4,14.3c1,2.9,1.4,5.2,1.6,7.3c0.3,2.2,0.4,4.3,0.4,6.5c0.1,8.4-1.3,15.7-3,21.3c-1.7,5.8-4,9.9-6,12.5
		c-1,1.3-1.9,2.2-2.4,2.7c-0.6,0.6-0.9,0.9-0.9,0.9l-0.3-0.3c0,0,0.3-0.3,0.9-0.9c0.6-0.6,1.3-1.6,2.2-2.9c1.7-2.6,3.9-6.8,5.3-12.4
		c0.7-2.9,1.3-6,1.7-9.5c0.4-3.6,0.6-7.5,0.4-11.5c-0.1-2-0.3-4-0.6-6.2s-0.7-4.3-1.3-6.6c-1-4.5-2.3-9.1-4.3-13.7
		c-3.7-9.2-9.8-18.4-18.6-25.6C11.6,16.1,0.3,10.8-12.1,8.8c-6.2-1-12.5-1.4-19-1c-6.5,0.4-13,1.9-19.2,4.2
		c-6.2,2.4-12,5.8-17.1,10.1c-5.2,4.3-9.5,9.5-12.8,15.1c-6.9,11.5-9.8,24.9-9.5,37.9c0.1,3.5,0.3,6.5,0.7,9.6
		c0.6,3.2,1.2,6.3,2,9.4c1.9,6,4.6,11.8,8.2,16.7s7.9,9.2,12.7,12.7s9.9,6,15.3,8.1C-36.1,137.8-19.4,137.4-19.4,137.4z"/>
	<path fill="#E3A24A" d="M-7.3,42c-2.6,2.9-5.3,5.5-7.9,8.2l-4,4c-1.3,1.3-2.7,2.6-4,3.9c-1.4,1.3-2.7,2.6-4,3.9l-4,3.9l-4,3.9
		l-1.9,2l-0.9,1c-0.1,0.1-0.3,0.3-0.3,0.4c-0.1,0.1-0.1,0.3-0.3,0.3l-0.6-2.9c1.6,1.3,3.2,2.6,4.6,3.9l4.6,3.9c3,2.6,6,5.3,8.9,8.1
		c3,2.7,5.9,5.6,8.6,8.5c1.4,1.4,2.7,3,4,4.5c0.7,0.7,1.3,1.6,1.9,2.4s1.2,1.7,1.4,2.7c-0.4-0.9-1.3-1.6-1.9-2.2
		c-0.7-0.7-1.4-1.3-2.3-2c-1.6-1.3-3.2-2.6-4.8-3.7l-9.5-7.3c-3.2-2.4-6.3-5-9.4-7.5l-9.4-7.5l-1.6-1.3l1-1.6
		c0.4-0.6,0.9-1.2,1.2-1.6l1-1.2l2.2-2c1.4-1.3,2.7-2.6,4.3-3.9c2.9-2.4,5.8-4.9,8.8-7.3c2.9-2.4,6-4.8,9.1-6.9
		C-13.5,46.3-10.5,44-7.3,42z"/>
</g>
</svg>
